%TF.GenerationSoftware,KiCad,Pcbnew,(7.0.0)*%
%TF.CreationDate,2023-04-24T10:58:27+02:00*%
%TF.ProjectId,Main Schematic,4d61696e-2053-4636-9865-6d617469632e,rev?*%
%TF.SameCoordinates,Original*%
%TF.FileFunction,Paste,Top*%
%TF.FilePolarity,Positive*%
%FSLAX46Y46*%
G04 Gerber Fmt 4.6, Leading zero omitted, Abs format (unit mm)*
G04 Created by KiCad (PCBNEW (7.0.0)) date 2023-04-24 10:58:27*
%MOMM*%
%LPD*%
G01*
G04 APERTURE LIST*
G04 Aperture macros list*
%AMRoundRect*
0 Rectangle with rounded corners*
0 $1 Rounding radius*
0 $2 $3 $4 $5 $6 $7 $8 $9 X,Y pos of 4 corners*
0 Add a 4 corners polygon primitive as box body*
4,1,4,$2,$3,$4,$5,$6,$7,$8,$9,$2,$3,0*
0 Add four circle primitives for the rounded corners*
1,1,$1+$1,$2,$3*
1,1,$1+$1,$4,$5*
1,1,$1+$1,$6,$7*
1,1,$1+$1,$8,$9*
0 Add four rect primitives between the rounded corners*
20,1,$1+$1,$2,$3,$4,$5,0*
20,1,$1+$1,$4,$5,$6,$7,0*
20,1,$1+$1,$6,$7,$8,$9,0*
20,1,$1+$1,$8,$9,$2,$3,0*%
G04 Aperture macros list end*
%ADD10R,1.000000X0.550013*%
%ADD11RoundRect,1.625000X-2.125000X-1.625000X2.125000X-1.625000X2.125000X1.625000X-2.125000X1.625000X0*%
%ADD12R,1.727991X1.485014*%
%ADD13R,1.350013X1.410008*%
%ADD14RoundRect,0.150000X-0.512500X-0.150000X0.512500X-0.150000X0.512500X0.150000X-0.512500X0.150000X0*%
%ADD15R,1.132537X1.377013*%
%ADD16R,1.377013X1.132537*%
%ADD17RoundRect,0.140000X0.140000X0.170000X-0.140000X0.170000X-0.140000X-0.170000X0.140000X-0.170000X0*%
%ADD18RoundRect,0.140000X-0.170000X0.140000X-0.170000X-0.140000X0.170000X-0.140000X0.170000X0.140000X0*%
%ADD19R,1.485014X1.727991*%
%ADD20O,1.950216X0.568402*%
%ADD21RoundRect,0.150000X-0.587500X-0.150000X0.587500X-0.150000X0.587500X0.150000X-0.587500X0.150000X0*%
%ADD22O,1.500000X0.400000*%
%ADD23R,1.400000X0.400000*%
%ADD24O,1.745009X0.559995*%
G04 APERTURE END LIST*
D10*
%TO.C,IC1*%
X156812885Y-79109186D03*
X156812885Y-80059148D03*
X156812885Y-81009110D03*
X159612987Y-81009110D03*
X159612987Y-80059148D03*
X159612987Y-79109186D03*
%TD*%
D11*
%TO.C,BT1*%
X191562886Y-50109187D03*
X112262886Y-50109187D03*
%TD*%
D12*
%TO.C,C6*%
X168528999Y-90540833D03*
X168528999Y-93725999D03*
%TD*%
%TO.C,C5*%
X162432999Y-76014582D03*
X162432999Y-72829416D03*
%TD*%
D13*
%TO.C,C3*%
X144879999Y-70589999D03*
X144879999Y-72589999D03*
%TD*%
D12*
%TO.C,C7*%
X128523999Y-90736416D03*
X128523999Y-93921582D03*
%TD*%
D14*
%TO.C,U2*%
X140982886Y-66779187D03*
X140982886Y-67729187D03*
X140982886Y-68679187D03*
X143257886Y-68679187D03*
X143257886Y-66779187D03*
%TD*%
D15*
%TO.C,R9*%
X173959999Y-98989999D03*
X175959999Y-98989999D03*
%TD*%
D16*
%TO.C,R2*%
X126980091Y-65326760D03*
X126980091Y-67326760D03*
%TD*%
D17*
%TO.C,C1*%
X179940000Y-80270000D03*
X178980000Y-80270000D03*
%TD*%
D18*
%TO.C,C2*%
X180175386Y-88109187D03*
X180175386Y-89069187D03*
%TD*%
D19*
%TO.C,C8*%
X188815165Y-115189999D03*
X185629999Y-115189999D03*
%TD*%
D16*
%TO.C,R7*%
X148312885Y-87109186D03*
X148312885Y-89109186D03*
%TD*%
D20*
%TO.C,U4*%
X183314894Y-117604995D03*
X183314894Y-118874998D03*
X183314894Y-120145000D03*
X183314894Y-121415003D03*
X188725104Y-121415003D03*
X188725104Y-120145000D03*
X188725104Y-118874998D03*
X188725104Y-117604995D03*
%TD*%
D16*
%TO.C,R1*%
X126312885Y-122571686D03*
X126312885Y-124571686D03*
%TD*%
D17*
%TO.C,C4*%
X140815000Y-70231000D03*
X139855000Y-70231000D03*
%TD*%
D16*
%TO.C,R8*%
X155312885Y-87109186D03*
X155312885Y-89109186D03*
%TD*%
%TO.C,R4*%
X150982885Y-67779186D03*
X150982885Y-65779186D03*
%TD*%
D15*
%TO.C,R12*%
X183209999Y-86949999D03*
X185209999Y-86949999D03*
%TD*%
D21*
%TO.C,U1*%
X183172500Y-82500000D03*
X183172500Y-84400000D03*
X185047500Y-83450000D03*
%TD*%
D20*
%TO.C,IC2*%
X160607780Y-95204182D03*
X160607780Y-96474185D03*
X160607780Y-97744187D03*
X160607780Y-99014190D03*
X166017990Y-99014190D03*
X166017990Y-97744187D03*
X166017990Y-96474185D03*
X166017990Y-95204182D03*
%TD*%
D16*
%TO.C,R3*%
X130982885Y-66816686D03*
X130982885Y-68816686D03*
%TD*%
D15*
%TO.C,R13*%
X115922816Y-72859999D03*
X117922816Y-72859999D03*
%TD*%
D22*
%TO.C,Q1*%
X156682530Y-66753913D03*
X156682530Y-67404154D03*
X156682530Y-68054396D03*
X156682530Y-68704637D03*
X163083342Y-68704637D03*
X163083342Y-68054396D03*
X163083342Y-67404154D03*
X163083342Y-66753913D03*
%TD*%
D16*
%TO.C,R5*%
X162432999Y-81136999D03*
X162432999Y-79136999D03*
%TD*%
D23*
%TO.C,J6*%
X105742172Y-77313024D03*
X105742172Y-77963012D03*
X105742172Y-78612999D03*
X105742172Y-79262986D03*
X105742172Y-79912974D03*
%TD*%
D24*
%TO.C,U3*%
X118767901Y-90689171D03*
X118767901Y-91959174D03*
X118767901Y-93229176D03*
X118767901Y-94499179D03*
X118767901Y-95769181D03*
X118767901Y-97039184D03*
X118767901Y-98309186D03*
X118767901Y-99579189D03*
X124512885Y-99579189D03*
X124512885Y-98309186D03*
X124512885Y-97039184D03*
X124512885Y-95769181D03*
X124512885Y-94499179D03*
X124512885Y-93229176D03*
X124512885Y-91959174D03*
X124512885Y-90689171D03*
%TD*%
D16*
%TO.C,R6*%
X140312885Y-87109186D03*
X140312885Y-89109186D03*
%TD*%
M02*
