%TF.GenerationSoftware,KiCad,Pcbnew,(7.0.0)*%
%TF.CreationDate,2023-04-24T10:58:27+02:00*%
%TF.ProjectId,Main Schematic,4d61696e-2053-4636-9865-6d617469632e,rev?*%
%TF.SameCoordinates,Original*%
%TF.FileFunction,Copper,L2,Bot*%
%TF.FilePolarity,Positive*%
%FSLAX46Y46*%
G04 Gerber Fmt 4.6, Leading zero omitted, Abs format (unit mm)*
G04 Created by KiCad (PCBNEW (7.0.0)) date 2023-04-24 10:58:27*
%MOMM*%
%LPD*%
G01*
G04 APERTURE LIST*
%TA.AperFunction,ComponentPad*%
%ADD10R,1.700000X1.700000*%
%TD*%
%TA.AperFunction,ComponentPad*%
%ADD11O,1.700000X1.700000*%
%TD*%
%TA.AperFunction,ComponentPad*%
%ADD12C,4.000000*%
%TD*%
%TA.AperFunction,ComponentPad*%
%ADD13C,2.700000*%
%TD*%
%TA.AperFunction,ComponentPad*%
%ADD14R,1.800000X1.800000*%
%TD*%
%TA.AperFunction,ComponentPad*%
%ADD15C,1.800000*%
%TD*%
%TA.AperFunction,ComponentPad*%
%ADD16C,1.300000*%
%TD*%
%TA.AperFunction,ComponentPad*%
%ADD17O,2.200000X1.300000*%
%TD*%
%TA.AperFunction,ComponentPad*%
%ADD18C,2.000000*%
%TD*%
%TA.AperFunction,ComponentPad*%
%ADD19C,1.500000*%
%TD*%
%TA.AperFunction,ViaPad*%
%ADD20C,0.800000*%
%TD*%
%TA.AperFunction,Conductor*%
%ADD21C,0.500000*%
%TD*%
%TA.AperFunction,Conductor*%
%ADD22C,0.250000*%
%TD*%
%TA.AperFunction,Conductor*%
%ADD23C,0.200000*%
%TD*%
G04 APERTURE END LIST*
D10*
%TO.P,J7,1,Pin_1*%
%TO.N,/USB D+*%
X104912885Y-96369186D03*
D11*
%TO.P,J7,2,Pin_2*%
%TO.N,/USB D-*%
X104912885Y-98909186D03*
%TD*%
D12*
%TO.P,BT1,*%
%TO.N,*%
X124312886Y-58109187D03*
X179512886Y-42109187D03*
D13*
X187732886Y-58109187D03*
%TD*%
D14*
%TO.P,D3,1,K*%
%TO.N,GND*%
X186894999Y-90049999D03*
D15*
%TO.P,D3,2,A*%
%TO.N,Net-(D3-A)*%
X184355000Y-90050000D03*
%TD*%
D10*
%TO.P,J3,1,Pin_1*%
%TO.N,/3.3V*%
X116052885Y-113599186D03*
D11*
%TO.P,J3,2,Pin_2*%
%TO.N,GND*%
X118592885Y-113599186D03*
%TO.P,J3,3,Pin_3*%
%TO.N,/PB9*%
X121132885Y-113599186D03*
%TO.P,J3,4,Pin_4*%
%TO.N,/PB8*%
X123672885Y-113599186D03*
%TO.P,J3,5,Pin_5*%
%TO.N,/BOOT*%
X126212885Y-113599186D03*
%TO.P,J3,6,Pin_6*%
%TO.N,/PB7*%
X128752885Y-113599186D03*
%TO.P,J3,7,Pin_7*%
%TO.N,/PB6*%
X131292885Y-113599186D03*
%TO.P,J3,8,Pin_8*%
%TO.N,/PB5*%
X133832885Y-113599186D03*
%TO.P,J3,9,Pin_9*%
%TO.N,/PB4*%
X136372885Y-113599186D03*
%TO.P,J3,10,Pin_10*%
%TO.N,/PB3*%
X138912885Y-113599186D03*
%TO.P,J3,11,Pin_11*%
%TO.N,/PA15*%
X141452885Y-113599186D03*
%TO.P,J3,12,Pin_12*%
%TO.N,/PA14*%
X143992885Y-113599186D03*
%TO.P,J3,13,Pin_13*%
%TO.N,/PF7*%
X146532885Y-113599186D03*
%TO.P,J3,14,Pin_14*%
%TO.N,/PF6*%
X149072885Y-113599186D03*
%TO.P,J3,15,Pin_15*%
%TO.N,/PA13*%
X151612885Y-113599186D03*
%TO.P,J3,16,Pin_16*%
%TO.N,/PA12*%
X154152885Y-113599186D03*
%TO.P,J3,17,Pin_17*%
%TO.N,/PA11*%
X156692885Y-113599186D03*
%TO.P,J3,18,Pin_18*%
%TO.N,/RXD*%
X159232885Y-113599186D03*
%TO.P,J3,19,Pin_19*%
%TO.N,/TXD*%
X161772885Y-113599186D03*
%TO.P,J3,20,Pin_20*%
%TO.N,/PA8*%
X164312885Y-113599186D03*
%TO.P,J3,21,Pin_21*%
%TO.N,/PB15*%
X166852885Y-113599186D03*
%TO.P,J3,22,Pin_22*%
%TO.N,/PB14*%
X169392885Y-113599186D03*
%TO.P,J3,23,Pin_23*%
%TO.N,/PB13*%
X171932885Y-113599186D03*
%TO.P,J3,24,Pin_24*%
%TO.N,/WRITE*%
X174472885Y-113599186D03*
%TD*%
D10*
%TO.P,J8,1,Pin_1*%
%TO.N,/3.3V*%
X116052885Y-108519186D03*
D11*
%TO.P,J8,2,Pin_2*%
%TO.N,GND*%
X118592885Y-108519186D03*
%TO.P,J8,3,Pin_3*%
%TO.N,/PB9*%
X121132885Y-108519186D03*
%TO.P,J8,4,Pin_4*%
%TO.N,/PB8*%
X123672885Y-108519186D03*
%TO.P,J8,5,Pin_5*%
%TO.N,/BOOT*%
X126212885Y-108519186D03*
%TO.P,J8,6,Pin_6*%
%TO.N,/PB7*%
X128752885Y-108519186D03*
%TO.P,J8,7,Pin_7*%
%TO.N,/PB6*%
X131292885Y-108519186D03*
%TO.P,J8,8,Pin_8*%
%TO.N,/PB5*%
X133832885Y-108519186D03*
%TO.P,J8,9,Pin_9*%
%TO.N,/PB4*%
X136372885Y-108519186D03*
%TO.P,J8,10,Pin_10*%
%TO.N,/PB3*%
X138912885Y-108519186D03*
%TO.P,J8,11,Pin_11*%
%TO.N,/PA15*%
X141452885Y-108519186D03*
%TO.P,J8,12,Pin_12*%
%TO.N,/PA14*%
X143992885Y-108519186D03*
%TO.P,J8,13,Pin_13*%
%TO.N,/PF7*%
X146532885Y-108519186D03*
%TO.P,J8,14,Pin_14*%
%TO.N,/PF6*%
X149072885Y-108519186D03*
%TO.P,J8,15,Pin_15*%
%TO.N,/PA13*%
X151612885Y-108519186D03*
%TO.P,J8,16,Pin_16*%
%TO.N,/PA12*%
X154152885Y-108519186D03*
%TO.P,J8,17,Pin_17*%
%TO.N,/PA11*%
X156692885Y-108519186D03*
%TO.P,J8,18,Pin_18*%
%TO.N,/RXD*%
X159232885Y-108519186D03*
%TO.P,J8,19,Pin_19*%
%TO.N,/TXD*%
X161772885Y-108519186D03*
%TO.P,J8,20,Pin_20*%
%TO.N,/PA8*%
X164312885Y-108519186D03*
%TO.P,J8,21,Pin_21*%
%TO.N,/PB15*%
X166852885Y-108519186D03*
%TO.P,J8,22,Pin_22*%
%TO.N,/PB14*%
X169392885Y-108519186D03*
%TO.P,J8,23,Pin_23*%
%TO.N,/PB13*%
X171932885Y-108519186D03*
%TO.P,J8,24,Pin_24*%
%TO.N,/WRITE*%
X174472885Y-108519186D03*
%TD*%
D10*
%TO.P,J10,1,Pin_1*%
%TO.N,/3.3V*%
X175909999Y-92559999D03*
D11*
%TO.P,J10,2,Pin_2*%
X175909999Y-90019999D03*
%TD*%
D14*
%TO.P,D4,1,K*%
%TO.N,GND*%
X120159999Y-75939999D03*
D15*
%TO.P,D4,2,A*%
%TO.N,Net-(D4-A)*%
X117620000Y-75940000D03*
%TD*%
D14*
%TO.P,D1,1,K*%
%TO.N,Net-(D1-K)*%
X135572885Y-76909186D03*
D15*
%TO.P,D1,2,A*%
%TO.N,Net-(D1-A)*%
X138112886Y-76909187D03*
%TD*%
D10*
%TO.P,J1,1,Pin_1*%
%TO.N,/3.3V*%
X116079999Y-129009999D03*
D11*
%TO.P,J1,2,Pin_2*%
%TO.N,/PC13*%
X118619999Y-129009999D03*
%TO.P,J1,3,Pin_3*%
%TO.N,/PC14*%
X121159999Y-129009999D03*
%TO.P,J1,4,Pin_4*%
%TO.N,/PC15*%
X123699999Y-129009999D03*
%TO.P,J1,5,Pin_5*%
%TO.N,/PF0*%
X126239999Y-129009999D03*
%TO.P,J1,6,Pin_6*%
%TO.N,/PF1*%
X128779999Y-129009999D03*
%TO.P,J1,7,Pin_7*%
%TO.N,/NRST*%
X131319999Y-129009999D03*
%TO.P,J1,8,Pin_8*%
%TO.N,GND*%
X133859999Y-129009999D03*
%TO.P,J1,9,Pin_9*%
%TO.N,/3.3V*%
X136399999Y-129009999D03*
%TO.P,J1,10,Pin_10*%
%TO.N,/PA0*%
X138939999Y-129009999D03*
%TO.P,J1,11,Pin_11*%
%TO.N,/PA1*%
X141479999Y-129009999D03*
%TO.P,J1,12,Pin_12*%
%TO.N,/PA2*%
X144019999Y-129009999D03*
%TO.P,J1,13,Pin_13*%
%TO.N,/PA3*%
X146559999Y-129009999D03*
%TO.P,J1,14,Pin_14*%
%TO.N,/ADC*%
X149099999Y-129009999D03*
%TO.P,J1,15,Pin_15*%
%TO.N,/PA5*%
X151639999Y-129009999D03*
%TO.P,J1,16,Pin_16*%
%TO.N,/PA6*%
X154179999Y-129009999D03*
%TO.P,J1,17,Pin_17*%
%TO.N,/PA7*%
X156719999Y-129009999D03*
%TO.P,J1,18,Pin_18*%
%TO.N,/PB0*%
X159259999Y-129009999D03*
%TO.P,J1,19,Pin_19*%
%TO.N,/PB1*%
X161799999Y-129009999D03*
%TO.P,J1,20,Pin_20*%
%TO.N,/OS*%
X164339999Y-129009999D03*
%TO.P,J1,21,Pin_21*%
%TO.N,/SCL*%
X166879999Y-129009999D03*
%TO.P,J1,22,Pin_22*%
%TO.N,/SDL*%
X169419999Y-129009999D03*
%TO.P,J1,23,Pin_23*%
%TO.N,GND*%
X171959999Y-129009999D03*
%TO.P,J1,24,Pin_24*%
%TO.N,/3.3V*%
X174499999Y-129009999D03*
%TD*%
D10*
%TO.P,J4,1,Pin_1*%
%TO.N,/Power Unit/V1*%
X186812885Y-68569186D03*
D11*
%TO.P,J4,2,Pin_2*%
%TO.N,Net-(#FLG02-pwr)*%
X186812885Y-71109186D03*
%TD*%
D10*
%TO.P,J5,1,Pin_1*%
%TO.N,Net-(#FLG02-pwr)*%
X179812885Y-68569186D03*
D11*
%TO.P,J5,2,Pin_2*%
%TO.N,/5V*%
X179812885Y-71109186D03*
%TD*%
D10*
%TO.P,J11,1,Pin_1*%
%TO.N,GND*%
X195719999Y-81619999D03*
D11*
%TO.P,J11,2,Pin_2*%
%TO.N,/RXD*%
X195719999Y-84159999D03*
%TO.P,J11,3,Pin_3*%
%TO.N,/TXD*%
X195719999Y-86699999D03*
%TO.P,J11,4,Pin_4*%
%TO.N,/WRITE*%
X195719999Y-89239999D03*
%TO.P,J11,5,Pin_5*%
%TO.N,/SCL*%
X195719999Y-91779999D03*
%TO.P,J11,6,Pin_6*%
%TO.N,/SDL*%
X195719999Y-94319999D03*
%TO.P,J11,7,Pin_7*%
%TO.N,/ADC*%
X195719999Y-96859999D03*
%TO.P,J11,8,Pin_8*%
%TO.N,/5V*%
X195719999Y-99399999D03*
%TO.P,J11,9,Pin_9*%
%TO.N,/3.3V*%
X195719999Y-101939999D03*
%TD*%
D16*
%TO.P,J6,6,Shield*%
%TO.N,GND*%
X105369554Y-81037943D03*
D17*
%TO.P,J6,7*%
%TO.N,N/C*%
X102699500Y-82212948D03*
%TO.P,J6,8*%
X102699500Y-75013050D03*
D16*
%TO.P,J6,9*%
X105369554Y-76188057D03*
%TD*%
D18*
%TO.P,SW1,1,1*%
%TO.N,GND*%
X110112886Y-118209187D03*
X110112886Y-124709187D03*
%TO.P,SW1,2,2*%
%TO.N,/NRST*%
X105612886Y-118209187D03*
X105612886Y-124709187D03*
%TD*%
D19*
%TO.P,R10,1*%
%TO.N,/ADC*%
X183912886Y-97109187D03*
%TO.P,R10,2*%
%TO.N,GND*%
X187312886Y-97109187D03*
%TD*%
D10*
%TO.P,J9,1,Pin_1*%
%TO.N,/NRST*%
X116052885Y-133730999D03*
D11*
%TO.P,J9,2,Pin_2*%
%TO.N,/PC13*%
X118592885Y-133730999D03*
%TO.P,J9,3,Pin_3*%
%TO.N,/PC14*%
X121132885Y-133730999D03*
%TO.P,J9,4,Pin_4*%
%TO.N,/PC15*%
X123672885Y-133730999D03*
%TO.P,J9,5,Pin_5*%
%TO.N,/PF0*%
X126212885Y-133730999D03*
%TO.P,J9,6,Pin_6*%
%TO.N,/PF1*%
X128752885Y-133730999D03*
%TO.P,J9,7,Pin_7*%
%TO.N,/NRST*%
X131292885Y-133730999D03*
%TO.P,J9,8,Pin_8*%
%TO.N,GND*%
X133832885Y-133730999D03*
%TO.P,J9,9,Pin_9*%
%TO.N,/3.3V*%
X136372885Y-133730999D03*
%TO.P,J9,10,Pin_10*%
%TO.N,/PA0*%
X138912885Y-133730999D03*
%TO.P,J9,11,Pin_11*%
%TO.N,/PA1*%
X141452885Y-133730999D03*
%TO.P,J9,12,Pin_12*%
%TO.N,/PA2*%
X143992885Y-133730999D03*
%TO.P,J9,13,Pin_13*%
%TO.N,/PA3*%
X146532885Y-133730999D03*
%TO.P,J9,14,Pin_14*%
%TO.N,/ADC*%
X149072885Y-133730999D03*
%TO.P,J9,15,Pin_15*%
%TO.N,/PA5*%
X151612885Y-133730999D03*
%TO.P,J9,16,Pin_16*%
%TO.N,/PA6*%
X154152885Y-133730999D03*
%TO.P,J9,17,Pin_17*%
%TO.N,/PA7*%
X156692885Y-133730999D03*
%TO.P,J9,18,Pin_18*%
%TO.N,/PB0*%
X159232885Y-133730999D03*
%TO.P,J9,19,Pin_19*%
%TO.N,/PB1*%
X161772885Y-133730999D03*
%TO.P,J9,20,Pin_20*%
%TO.N,/OS*%
X164312885Y-133730999D03*
%TO.P,J9,21,Pin_21*%
%TO.N,/SCL*%
X166852885Y-133730999D03*
%TO.P,J9,22,Pin_22*%
%TO.N,/SDL*%
X169392885Y-133730999D03*
%TO.P,J9,23,Pin_23*%
%TO.N,GND*%
X171932885Y-133730999D03*
%TO.P,J9,24,Pin_24*%
%TO.N,/3.3V*%
X174472885Y-133730999D03*
%TD*%
D20*
%TO.N,/Power Unit/V1*%
X166462886Y-69359187D03*
X166462886Y-74609187D03*
%TO.N,GND*%
X172720000Y-86360000D03*
X129540000Y-88900000D03*
X129540000Y-71120000D03*
X190500000Y-99060000D03*
X198120000Y-101600000D03*
%TO.N,/3.3V*%
X183362886Y-110009187D03*
X178012886Y-97959187D03*
X117475000Y-101346000D03*
%TO.N,/Power Unit/OC*%
X153162000Y-78486000D03*
X155310000Y-69230000D03*
%TO.N,Net-(IC1-CS)*%
X150362886Y-70389187D03*
X152902886Y-66579187D03*
%TO.N,/Power Unit/OD*%
X155612886Y-77109187D03*
X164332886Y-70384687D03*
%TO.N,/SDL*%
X161000000Y-92000000D03*
X191162886Y-119209187D03*
%TO.N,/SCL*%
X197440000Y-91830000D03*
X164760000Y-118410000D03*
X156337000Y-96520000D03*
X185500000Y-123500000D03*
%TO.N,/OS*%
X156450000Y-99950000D03*
X162687000Y-117729000D03*
X162687000Y-117729000D03*
%TO.N,/ADC*%
X178862886Y-111959187D03*
X190612886Y-106159187D03*
X183880000Y-102820000D03*
%TO.N,/RXD*%
X189262886Y-92109187D03*
%TO.N,/USB D+*%
X116078000Y-90424000D03*
X116332000Y-95631000D03*
%TO.N,/USB D-*%
X110236000Y-82169000D03*
X108966000Y-83566000D03*
X116960000Y-96550000D03*
X116967000Y-90043000D03*
%TO.N,/TXD*%
X181290000Y-89710000D03*
X177912886Y-95909187D03*
%TO.N,Net-(#FLG02-pwr)*%
X182762886Y-77009187D03*
%TD*%
D21*
%TO.N,/Power Unit/V1*%
X166462886Y-74609187D02*
X166462886Y-69359187D01*
D22*
%TO.N,GND*%
X190500000Y-99060000D02*
X192210000Y-100770000D01*
X129540000Y-88900000D02*
X170180000Y-88900000D01*
X192210000Y-100770000D02*
X197290000Y-100770000D01*
X170180000Y-88900000D02*
X172720000Y-86360000D01*
X197290000Y-100770000D02*
X198120000Y-101600000D01*
D21*
%TO.N,/3.3V*%
X117500000Y-105500000D02*
X116052886Y-106947114D01*
X117475000Y-101346000D02*
X117500000Y-101371000D01*
X117500000Y-101321000D02*
X117475000Y-101346000D01*
X182837886Y-102784187D02*
X178012886Y-97959187D01*
X182837886Y-109484187D02*
X182837886Y-102784187D01*
X116052886Y-106947114D02*
X116052886Y-108519187D01*
X117500000Y-101371000D02*
X117500000Y-105500000D01*
X183362886Y-110009187D02*
X182837886Y-109484187D01*
D22*
%TO.N,/Power Unit/OC*%
X156062886Y-70509187D02*
X156062886Y-75585114D01*
X155310000Y-69756301D02*
X156062886Y-70509187D01*
X156062886Y-75585114D02*
X153162000Y-78486000D01*
X155310000Y-69230000D02*
X155310000Y-69756301D01*
%TO.N,Net-(IC1-CS)*%
X150362886Y-70389187D02*
X151632886Y-70389187D01*
X151632886Y-70389187D02*
X152902886Y-69119187D01*
X152902886Y-69119187D02*
X152902886Y-66579187D01*
%TO.N,/Power Unit/OD*%
X164332886Y-72929187D02*
X164332886Y-70384687D01*
X160152886Y-77109187D02*
X164332886Y-72929187D01*
X157112886Y-77109187D02*
X160152886Y-77109187D01*
X155612886Y-77109187D02*
X157112886Y-77109187D01*
%TO.N,/SDL*%
X198771500Y-101330139D02*
X198562886Y-101121525D01*
X191162886Y-109478475D02*
X198771500Y-101869861D01*
X195712886Y-94309187D02*
X192787886Y-91384187D01*
X198562886Y-95609187D02*
X197262886Y-94309187D01*
X192787886Y-91384187D02*
X161615813Y-91384187D01*
X198562886Y-101121525D02*
X198562886Y-95609187D01*
X197262886Y-94309187D02*
X195712886Y-94309187D01*
X198771500Y-101869861D02*
X198771500Y-101330139D01*
X161615813Y-91384187D02*
X161000000Y-92000000D01*
X191162886Y-119209187D02*
X191162886Y-109478475D01*
%TO.N,/SCL*%
X197440000Y-91830000D02*
X197440000Y-91830000D01*
X193412886Y-117309187D02*
X199912886Y-110809187D01*
X199912886Y-110809187D02*
X199912886Y-94302886D01*
X189140813Y-122859187D02*
X193412886Y-122859187D01*
X193412886Y-122859187D02*
X193412886Y-117309187D01*
X185500000Y-123500000D02*
X188500000Y-123500000D01*
X152002000Y-118381000D02*
X147634886Y-114013886D01*
X164575000Y-118381000D02*
X152002000Y-118381000D01*
X199912886Y-94302886D02*
X197440000Y-91830000D01*
X147634886Y-114013886D02*
X147634886Y-105222114D01*
X197440000Y-91830000D02*
X197490000Y-91880000D01*
X188500000Y-123500000D02*
X189140813Y-122859187D01*
X147634886Y-105222114D02*
X156337000Y-96520000D01*
X197440000Y-91830000D02*
X197440000Y-91830000D01*
%TO.N,/OS*%
X155499837Y-111049837D02*
X155448000Y-110998000D01*
X156463000Y-99950000D02*
X155448000Y-100965000D01*
X156412163Y-111760000D02*
X160670886Y-111760000D01*
X162687000Y-117729000D02*
X160670886Y-115712886D01*
X160670886Y-115712886D02*
X160670886Y-111760000D01*
X155702000Y-111049837D02*
X156412163Y-111760000D01*
X156450000Y-99950000D02*
X156463000Y-99950000D01*
X156406735Y-100006265D02*
X156450000Y-99963000D01*
X155702000Y-111049837D02*
X155499837Y-111049837D01*
X155448000Y-101046398D02*
X155448000Y-110998000D01*
X156450000Y-99963000D02*
X156450000Y-99950000D01*
%TO.N,/NRST*%
X105612886Y-118209187D02*
X105612886Y-124709187D01*
%TO.N,/ADC*%
X187262886Y-106159187D02*
X183923699Y-102820000D01*
X173812886Y-117009187D02*
X173812886Y-123409187D01*
X183880000Y-102820000D02*
X183880000Y-102776301D01*
X178862886Y-111959187D02*
X173812886Y-117009187D01*
X151562886Y-125209187D02*
X149072886Y-127699187D01*
X172012886Y-125209187D02*
X151562886Y-125209187D01*
X190612886Y-106159187D02*
X187262886Y-106159187D01*
X183880000Y-102776301D02*
X183912886Y-102809187D01*
X149072886Y-127699187D02*
X149072886Y-130109187D01*
X173812886Y-123409187D02*
X172012886Y-125209187D01*
X183923699Y-102820000D02*
X183880000Y-102820000D01*
%TO.N,/RXD*%
X171000000Y-101000000D02*
X166500000Y-105500000D01*
X189262886Y-92109187D02*
X187012073Y-94360000D01*
X162252073Y-105500000D02*
X159232886Y-108519187D01*
X172140000Y-94360000D02*
X171000000Y-95500000D01*
X166500000Y-105500000D02*
X162252073Y-105500000D01*
X187012073Y-94360000D02*
X172140000Y-94360000D01*
X171000000Y-95500000D02*
X171000000Y-101000000D01*
D23*
%TO.N,/USB D+*%
X116078000Y-95250000D02*
X116332000Y-95504000D01*
X116078000Y-90424000D02*
X116078000Y-93472000D01*
X116459000Y-95631000D02*
X116586000Y-95758000D01*
X116078000Y-93472000D02*
X116078000Y-95250000D01*
X116332000Y-95631000D02*
X116459000Y-95631000D01*
X116332000Y-95504000D02*
X116332000Y-95631000D01*
%TO.N,/USB D-*%
X116967000Y-90043000D02*
X116960000Y-96550000D01*
X110236000Y-82296000D02*
X110236000Y-82169000D01*
X108966000Y-83566000D02*
X110236000Y-82296000D01*
X116960000Y-96550000D02*
X116967000Y-96527000D01*
D22*
%TO.N,/TXD*%
X177035000Y-96787073D02*
X177035000Y-98665000D01*
X177035000Y-98665000D02*
X169040813Y-106659187D01*
X169040813Y-106659187D02*
X163632886Y-106659187D01*
X163632886Y-106659187D02*
X161772886Y-108519187D01*
X181290000Y-89710000D02*
X184310813Y-86689187D01*
X177912886Y-95909187D02*
X177035000Y-96787073D01*
X184310813Y-86689187D02*
X195712886Y-86689187D01*
D21*
%TO.N,Net-(#FLG02-pwr)*%
X182762886Y-77009187D02*
X184762886Y-75009187D01*
X184762886Y-75009187D02*
X185430813Y-75009187D01*
X186812886Y-73627114D02*
X186812886Y-71109187D01*
X185430813Y-75009187D02*
X186812886Y-73627114D01*
%TD*%
M02*
