%TF.GenerationSoftware,KiCad,Pcbnew,(7.0.0)*%
%TF.CreationDate,2023-04-24T10:58:27+02:00*%
%TF.ProjectId,Main Schematic,4d61696e-2053-4636-9865-6d617469632e,rev?*%
%TF.SameCoordinates,Original*%
%TF.FileFunction,Soldermask,Top*%
%TF.FilePolarity,Negative*%
%FSLAX46Y46*%
G04 Gerber Fmt 4.6, Leading zero omitted, Abs format (unit mm)*
G04 Created by KiCad (PCBNEW (7.0.0)) date 2023-04-24 10:58:27*
%MOMM*%
%LPD*%
G01*
G04 APERTURE LIST*
G04 Aperture macros list*
%AMRoundRect*
0 Rectangle with rounded corners*
0 $1 Rounding radius*
0 $2 $3 $4 $5 $6 $7 $8 $9 X,Y pos of 4 corners*
0 Add a 4 corners polygon primitive as box body*
4,1,4,$2,$3,$4,$5,$6,$7,$8,$9,$2,$3,0*
0 Add four circle primitives for the rounded corners*
1,1,$1+$1,$2,$3*
1,1,$1+$1,$4,$5*
1,1,$1+$1,$6,$7*
1,1,$1+$1,$8,$9*
0 Add four rect primitives between the rounded corners*
20,1,$1+$1,$2,$3,$4,$5,0*
20,1,$1+$1,$4,$5,$6,$7,0*
20,1,$1+$1,$6,$7,$8,$9,0*
20,1,$1+$1,$8,$9,$2,$3,0*%
G04 Aperture macros list end*
%ADD10R,1.000000X0.550013*%
%ADD11R,1.700000X1.700000*%
%ADD12O,1.700000X1.700000*%
%ADD13C,4.000000*%
%ADD14C,2.700000*%
%ADD15RoundRect,1.625000X-2.125000X-1.625000X2.125000X-1.625000X2.125000X1.625000X-2.125000X1.625000X0*%
%ADD16R,1.727991X1.485014*%
%ADD17R,1.000000X1.000000*%
%ADD18R,1.350013X1.410008*%
%ADD19RoundRect,0.150000X-0.512500X-0.150000X0.512500X-0.150000X0.512500X0.150000X-0.512500X0.150000X0*%
%ADD20R,1.132537X1.377013*%
%ADD21R,1.377013X1.132537*%
%ADD22RoundRect,0.140000X0.140000X0.170000X-0.140000X0.170000X-0.140000X-0.170000X0.140000X-0.170000X0*%
%ADD23RoundRect,0.140000X-0.170000X0.140000X-0.170000X-0.140000X0.170000X-0.140000X0.170000X0.140000X0*%
%ADD24R,1.485014X1.727991*%
%ADD25O,1.950216X0.568402*%
%ADD26R,1.800000X1.800000*%
%ADD27C,1.800000*%
%ADD28RoundRect,0.150000X-0.587500X-0.150000X0.587500X-0.150000X0.587500X0.150000X-0.587500X0.150000X0*%
%ADD29O,1.500000X0.400000*%
%ADD30R,1.400000X0.400000*%
%ADD31C,1.300000*%
%ADD32O,2.200000X1.300000*%
%ADD33O,1.745009X0.559995*%
%ADD34C,2.000000*%
%ADD35C,1.500000*%
G04 APERTURE END LIST*
D10*
%TO.C,IC1*%
X156812885Y-79109186D03*
X156812885Y-80059148D03*
X156812885Y-81009110D03*
X159612987Y-81009110D03*
X159612987Y-80059148D03*
X159612987Y-79109186D03*
%TD*%
D11*
%TO.C,J7*%
X104912885Y-96369186D03*
D12*
X104912885Y-98909186D03*
%TD*%
D13*
%TO.C,BT1*%
X124312886Y-58109187D03*
X179512886Y-42109187D03*
D14*
X187732886Y-58109187D03*
D15*
X191562886Y-50109187D03*
X112262886Y-50109187D03*
%TD*%
D16*
%TO.C,C6*%
X168528999Y-90540833D03*
X168528999Y-93725999D03*
%TD*%
%TO.C,C5*%
X162432999Y-76014582D03*
X162432999Y-72829416D03*
%TD*%
D17*
%TO.C,TP6*%
X113259999Y-92029999D03*
%TD*%
D18*
%TO.C,C3*%
X144879999Y-70589999D03*
X144879999Y-72589999D03*
%TD*%
D16*
%TO.C,C7*%
X128523999Y-90736416D03*
X128523999Y-93921582D03*
%TD*%
D19*
%TO.C,U2*%
X140982886Y-66779187D03*
X140982886Y-67729187D03*
X140982886Y-68679187D03*
X143257886Y-68679187D03*
X143257886Y-66779187D03*
%TD*%
D20*
%TO.C,R9*%
X173959999Y-98989999D03*
X175959999Y-98989999D03*
%TD*%
D21*
%TO.C,R2*%
X126980091Y-65326760D03*
X126980091Y-67326760D03*
%TD*%
D22*
%TO.C,C1*%
X179940000Y-80270000D03*
X178980000Y-80270000D03*
%TD*%
D23*
%TO.C,C2*%
X180175386Y-88109187D03*
X180175386Y-89069187D03*
%TD*%
D24*
%TO.C,C8*%
X188815165Y-115189999D03*
X185629999Y-115189999D03*
%TD*%
D21*
%TO.C,R7*%
X148312885Y-87109186D03*
X148312885Y-89109186D03*
%TD*%
D25*
%TO.C,U4*%
X183314894Y-117604995D03*
X183314894Y-118874998D03*
X183314894Y-120145000D03*
X183314894Y-121415003D03*
X188725104Y-121415003D03*
X188725104Y-120145000D03*
X188725104Y-118874998D03*
X188725104Y-117604995D03*
%TD*%
D26*
%TO.C,D3*%
X186894999Y-90049999D03*
D27*
X184355000Y-90050000D03*
%TD*%
D11*
%TO.C,J3*%
X116052885Y-113599186D03*
D12*
X118592885Y-113599186D03*
X121132885Y-113599186D03*
X123672885Y-113599186D03*
X126212885Y-113599186D03*
X128752885Y-113599186D03*
X131292885Y-113599186D03*
X133832885Y-113599186D03*
X136372885Y-113599186D03*
X138912885Y-113599186D03*
X141452885Y-113599186D03*
X143992885Y-113599186D03*
X146532885Y-113599186D03*
X149072885Y-113599186D03*
X151612885Y-113599186D03*
X154152885Y-113599186D03*
X156692885Y-113599186D03*
X159232885Y-113599186D03*
X161772885Y-113599186D03*
X164312885Y-113599186D03*
X166852885Y-113599186D03*
X169392885Y-113599186D03*
X171932885Y-113599186D03*
X174472885Y-113599186D03*
%TD*%
D17*
%TO.C,TP10*%
X178439999Y-125529999D03*
%TD*%
D11*
%TO.C,J8*%
X116052885Y-108519186D03*
D12*
X118592885Y-108519186D03*
X121132885Y-108519186D03*
X123672885Y-108519186D03*
X126212885Y-108519186D03*
X128752885Y-108519186D03*
X131292885Y-108519186D03*
X133832885Y-108519186D03*
X136372885Y-108519186D03*
X138912885Y-108519186D03*
X141452885Y-108519186D03*
X143992885Y-108519186D03*
X146532885Y-108519186D03*
X149072885Y-108519186D03*
X151612885Y-108519186D03*
X154152885Y-108519186D03*
X156692885Y-108519186D03*
X159232885Y-108519186D03*
X161772885Y-108519186D03*
X164312885Y-108519186D03*
X166852885Y-108519186D03*
X169392885Y-108519186D03*
X171932885Y-108519186D03*
X174472885Y-108519186D03*
%TD*%
D21*
%TO.C,R1*%
X126312885Y-122571686D03*
X126312885Y-124571686D03*
%TD*%
D22*
%TO.C,C4*%
X140815000Y-70231000D03*
X139855000Y-70231000D03*
%TD*%
D17*
%TO.C,TP7*%
X113459999Y-95799999D03*
%TD*%
D11*
%TO.C,J10*%
X175909999Y-92559999D03*
D12*
X175909999Y-90019999D03*
%TD*%
D21*
%TO.C,R8*%
X155312885Y-87109186D03*
X155312885Y-89109186D03*
%TD*%
D26*
%TO.C,D4*%
X120159999Y-75939999D03*
D27*
X117620000Y-75940000D03*
%TD*%
D26*
%TO.C,D1*%
X135572885Y-76909186D03*
D27*
X138112886Y-76909187D03*
%TD*%
D11*
%TO.C,J1*%
X116079999Y-129009999D03*
D12*
X118619999Y-129009999D03*
X121159999Y-129009999D03*
X123699999Y-129009999D03*
X126239999Y-129009999D03*
X128779999Y-129009999D03*
X131319999Y-129009999D03*
X133859999Y-129009999D03*
X136399999Y-129009999D03*
X138939999Y-129009999D03*
X141479999Y-129009999D03*
X144019999Y-129009999D03*
X146559999Y-129009999D03*
X149099999Y-129009999D03*
X151639999Y-129009999D03*
X154179999Y-129009999D03*
X156719999Y-129009999D03*
X159259999Y-129009999D03*
X161799999Y-129009999D03*
X164339999Y-129009999D03*
X166879999Y-129009999D03*
X169419999Y-129009999D03*
X171959999Y-129009999D03*
X174499999Y-129009999D03*
%TD*%
D17*
%TO.C,TP11*%
X182919999Y-127079999D03*
%TD*%
%TO.C,TP5*%
X179312885Y-102109186D03*
%TD*%
D11*
%TO.C,J4*%
X186812885Y-68569186D03*
D12*
X186812885Y-71109186D03*
%TD*%
D21*
%TO.C,R4*%
X150982885Y-67779186D03*
X150982885Y-65779186D03*
%TD*%
D20*
%TO.C,R12*%
X183209999Y-86949999D03*
X185209999Y-86949999D03*
%TD*%
D11*
%TO.C,J5*%
X179812885Y-68569186D03*
D12*
X179812885Y-71109186D03*
%TD*%
D17*
%TO.C,TP12*%
X190519999Y-111309999D03*
%TD*%
D28*
%TO.C,U1*%
X183172500Y-82500000D03*
X183172500Y-84400000D03*
X185047500Y-83450000D03*
%TD*%
D25*
%TO.C,IC2*%
X160607780Y-95204182D03*
X160607780Y-96474185D03*
X160607780Y-97744187D03*
X160607780Y-99014190D03*
X166017990Y-99014190D03*
X166017990Y-97744187D03*
X166017990Y-96474185D03*
X166017990Y-95204182D03*
%TD*%
D11*
%TO.C,J11*%
X195719999Y-81619999D03*
D12*
X195719999Y-84159999D03*
X195719999Y-86699999D03*
X195719999Y-89239999D03*
X195719999Y-91779999D03*
X195719999Y-94319999D03*
X195719999Y-96859999D03*
X195719999Y-99399999D03*
X195719999Y-101939999D03*
%TD*%
D17*
%TO.C,TP1*%
X117099999Y-68399999D03*
%TD*%
%TO.C,TP3*%
X144312885Y-93571686D03*
%TD*%
D21*
%TO.C,R3*%
X130982885Y-66816686D03*
X130982885Y-68816686D03*
%TD*%
D20*
%TO.C,R13*%
X115922816Y-72859999D03*
X117922816Y-72859999D03*
%TD*%
D17*
%TO.C,TP4*%
X152312885Y-93571686D03*
%TD*%
D29*
%TO.C,Q1*%
X156682530Y-66753913D03*
X156682530Y-67404154D03*
X156682530Y-68054396D03*
X156682530Y-68704637D03*
X163083342Y-68704637D03*
X163083342Y-68054396D03*
X163083342Y-67404154D03*
X163083342Y-66753913D03*
%TD*%
D21*
%TO.C,R5*%
X162432999Y-81136999D03*
X162432999Y-79136999D03*
%TD*%
D30*
%TO.C,J6*%
X105742172Y-77313024D03*
X105742172Y-77963012D03*
X105742172Y-78612999D03*
X105742172Y-79262986D03*
X105742172Y-79912974D03*
D31*
X105369554Y-81037943D03*
D32*
X102699500Y-82212948D03*
X102699500Y-75013050D03*
D31*
X105369554Y-76188057D03*
%TD*%
D33*
%TO.C,U3*%
X118767901Y-90689171D03*
X118767901Y-91959174D03*
X118767901Y-93229176D03*
X118767901Y-94499179D03*
X118767901Y-95769181D03*
X118767901Y-97039184D03*
X118767901Y-98309186D03*
X118767901Y-99579189D03*
X124512885Y-99579189D03*
X124512885Y-98309186D03*
X124512885Y-97039184D03*
X124512885Y-95769181D03*
X124512885Y-94499179D03*
X124512885Y-93229176D03*
X124512885Y-91959174D03*
X124512885Y-90689171D03*
%TD*%
D34*
%TO.C,SW1*%
X110112886Y-118209187D03*
X110112886Y-124709187D03*
X105612886Y-118209187D03*
X105612886Y-124709187D03*
%TD*%
D35*
%TO.C,R10*%
X183912886Y-97109187D03*
X187312886Y-97109187D03*
%TD*%
D17*
%TO.C,TP2*%
X136312885Y-94109186D03*
%TD*%
D21*
%TO.C,R6*%
X140312885Y-87109186D03*
X140312885Y-89109186D03*
%TD*%
D11*
%TO.C,J9*%
X116052885Y-133730999D03*
D12*
X118592885Y-133730999D03*
X121132885Y-133730999D03*
X123672885Y-133730999D03*
X126212885Y-133730999D03*
X128752885Y-133730999D03*
X131292885Y-133730999D03*
X133832885Y-133730999D03*
X136372885Y-133730999D03*
X138912885Y-133730999D03*
X141452885Y-133730999D03*
X143992885Y-133730999D03*
X146532885Y-133730999D03*
X149072885Y-133730999D03*
X151612885Y-133730999D03*
X154152885Y-133730999D03*
X156692885Y-133730999D03*
X159232885Y-133730999D03*
X161772885Y-133730999D03*
X164312885Y-133730999D03*
X166852885Y-133730999D03*
X169392885Y-133730999D03*
X171932885Y-133730999D03*
X174472885Y-133730999D03*
%TD*%
M02*
