%TF.GenerationSoftware,KiCad,Pcbnew,(7.0.0)*%
%TF.CreationDate,2023-04-24T10:58:27+02:00*%
%TF.ProjectId,Main Schematic,4d61696e-2053-4636-9865-6d617469632e,rev?*%
%TF.SameCoordinates,Original*%
%TF.FileFunction,Soldermask,Bot*%
%TF.FilePolarity,Negative*%
%FSLAX46Y46*%
G04 Gerber Fmt 4.6, Leading zero omitted, Abs format (unit mm)*
G04 Created by KiCad (PCBNEW (7.0.0)) date 2023-04-24 10:58:27*
%MOMM*%
%LPD*%
G01*
G04 APERTURE LIST*
%ADD10R,1.700000X1.700000*%
%ADD11O,1.700000X1.700000*%
%ADD12C,4.000000*%
%ADD13C,2.700000*%
%ADD14R,1.800000X1.800000*%
%ADD15C,1.800000*%
%ADD16C,1.300000*%
%ADD17O,2.200000X1.300000*%
%ADD18C,2.000000*%
%ADD19C,1.500000*%
G04 APERTURE END LIST*
D10*
%TO.C,J7*%
X104912885Y-96369186D03*
D11*
X104912885Y-98909186D03*
%TD*%
D12*
%TO.C,BT1*%
X124312886Y-58109187D03*
X179512886Y-42109187D03*
D13*
X187732886Y-58109187D03*
%TD*%
D14*
%TO.C,D3*%
X186894999Y-90049999D03*
D15*
X184355000Y-90050000D03*
%TD*%
D10*
%TO.C,J3*%
X116052885Y-113599186D03*
D11*
X118592885Y-113599186D03*
X121132885Y-113599186D03*
X123672885Y-113599186D03*
X126212885Y-113599186D03*
X128752885Y-113599186D03*
X131292885Y-113599186D03*
X133832885Y-113599186D03*
X136372885Y-113599186D03*
X138912885Y-113599186D03*
X141452885Y-113599186D03*
X143992885Y-113599186D03*
X146532885Y-113599186D03*
X149072885Y-113599186D03*
X151612885Y-113599186D03*
X154152885Y-113599186D03*
X156692885Y-113599186D03*
X159232885Y-113599186D03*
X161772885Y-113599186D03*
X164312885Y-113599186D03*
X166852885Y-113599186D03*
X169392885Y-113599186D03*
X171932885Y-113599186D03*
X174472885Y-113599186D03*
%TD*%
D10*
%TO.C,J8*%
X116052885Y-108519186D03*
D11*
X118592885Y-108519186D03*
X121132885Y-108519186D03*
X123672885Y-108519186D03*
X126212885Y-108519186D03*
X128752885Y-108519186D03*
X131292885Y-108519186D03*
X133832885Y-108519186D03*
X136372885Y-108519186D03*
X138912885Y-108519186D03*
X141452885Y-108519186D03*
X143992885Y-108519186D03*
X146532885Y-108519186D03*
X149072885Y-108519186D03*
X151612885Y-108519186D03*
X154152885Y-108519186D03*
X156692885Y-108519186D03*
X159232885Y-108519186D03*
X161772885Y-108519186D03*
X164312885Y-108519186D03*
X166852885Y-108519186D03*
X169392885Y-108519186D03*
X171932885Y-108519186D03*
X174472885Y-108519186D03*
%TD*%
D10*
%TO.C,J10*%
X175909999Y-92559999D03*
D11*
X175909999Y-90019999D03*
%TD*%
D14*
%TO.C,D4*%
X120159999Y-75939999D03*
D15*
X117620000Y-75940000D03*
%TD*%
D14*
%TO.C,D1*%
X135572885Y-76909186D03*
D15*
X138112886Y-76909187D03*
%TD*%
D10*
%TO.C,J1*%
X116079999Y-129009999D03*
D11*
X118619999Y-129009999D03*
X121159999Y-129009999D03*
X123699999Y-129009999D03*
X126239999Y-129009999D03*
X128779999Y-129009999D03*
X131319999Y-129009999D03*
X133859999Y-129009999D03*
X136399999Y-129009999D03*
X138939999Y-129009999D03*
X141479999Y-129009999D03*
X144019999Y-129009999D03*
X146559999Y-129009999D03*
X149099999Y-129009999D03*
X151639999Y-129009999D03*
X154179999Y-129009999D03*
X156719999Y-129009999D03*
X159259999Y-129009999D03*
X161799999Y-129009999D03*
X164339999Y-129009999D03*
X166879999Y-129009999D03*
X169419999Y-129009999D03*
X171959999Y-129009999D03*
X174499999Y-129009999D03*
%TD*%
D10*
%TO.C,J4*%
X186812885Y-68569186D03*
D11*
X186812885Y-71109186D03*
%TD*%
D10*
%TO.C,J5*%
X179812885Y-68569186D03*
D11*
X179812885Y-71109186D03*
%TD*%
D10*
%TO.C,J11*%
X195719999Y-81619999D03*
D11*
X195719999Y-84159999D03*
X195719999Y-86699999D03*
X195719999Y-89239999D03*
X195719999Y-91779999D03*
X195719999Y-94319999D03*
X195719999Y-96859999D03*
X195719999Y-99399999D03*
X195719999Y-101939999D03*
%TD*%
D16*
%TO.C,J6*%
X105369554Y-81037943D03*
D17*
X102699500Y-82212948D03*
X102699500Y-75013050D03*
D16*
X105369554Y-76188057D03*
%TD*%
D18*
%TO.C,SW1*%
X110112886Y-118209187D03*
X110112886Y-124709187D03*
X105612886Y-118209187D03*
X105612886Y-124709187D03*
%TD*%
D19*
%TO.C,R10*%
X183912886Y-97109187D03*
X187312886Y-97109187D03*
%TD*%
D10*
%TO.C,J9*%
X116052885Y-133730999D03*
D11*
X118592885Y-133730999D03*
X121132885Y-133730999D03*
X123672885Y-133730999D03*
X126212885Y-133730999D03*
X128752885Y-133730999D03*
X131292885Y-133730999D03*
X133832885Y-133730999D03*
X136372885Y-133730999D03*
X138912885Y-133730999D03*
X141452885Y-133730999D03*
X143992885Y-133730999D03*
X146532885Y-133730999D03*
X149072885Y-133730999D03*
X151612885Y-133730999D03*
X154152885Y-133730999D03*
X156692885Y-133730999D03*
X159232885Y-133730999D03*
X161772885Y-133730999D03*
X164312885Y-133730999D03*
X166852885Y-133730999D03*
X169392885Y-133730999D03*
X171932885Y-133730999D03*
X174472885Y-133730999D03*
%TD*%
M02*
