M48
; DRILL file {KiCad (7.0.0)} date Mon Apr 24 10:58:27 2023
; FORMAT={-:-/ absolute / inch / decimal}
; #@! TF.CreationDate,2023-04-24T10:58:27+02:00
; #@! TF.GenerationSoftware,Kicad,Pcbnew,(7.0.0)
; #@! TF.FileFunction,Plated,1,2,PTH
FMAT,2
INCH
; #@! TA.AperFunction,Plated,PTH,ViaDrill
T1C0.0157
; #@! TA.AperFunction,Plated,PTH,ComponentDrill
T2C0.0276
; #@! TA.AperFunction,Plated,PTH,ComponentDrill
T3C0.0315
; #@! TA.AperFunction,Plated,PTH,ComponentDrill
T4C0.0354
; #@! TA.AperFunction,Plated,PTH,ComponentDrill
T5C0.0394
; #@! TA.AperFunction,Plated,PTH,ComponentDrill
T6C0.0433
; #@! TA.AperFunction,Plated,PTH,ComponentDrill
T7C0.0945
; #@! TA.AperFunction,Plated,PTH,ComponentDrill
T8C0.1457
%
G90
G05
T1
X4.29Y-3.29
X4.34Y-3.235
X4.57Y-3.56
X4.58Y-3.765
X4.6047Y-3.8012
X4.605Y-3.545
X4.625Y-3.99
X5.1Y-2.8
X5.1Y-3.5
X5.9198Y-2.7712
X6.0198Y-2.6212
X6.03Y-3.09
X6.1146Y-2.7256
X6.1265Y-3.0358
X6.155Y-3.8
X6.1594Y-3.935
X6.3386Y-3.622
X6.405Y-4.635
X6.405Y-4.635
X6.4698Y-2.7711
X6.4866Y-4.6618
X6.5537Y-2.7307
X6.5537Y-2.9374
X6.8Y-3.4
X7.0044Y-3.776
X7.0084Y-3.8567
X7.0418Y-4.4078
X7.1374Y-3.5319
X7.1954Y-3.0319
X7.219Y-4.3311
X7.2394Y-4.048
X7.3031Y-4.8622
X7.4513Y-3.6263
X7.5Y-3.9
X7.5044Y-4.1795
X7.5261Y-4.6933
X7.7732Y-3.6154
X7.8Y-4.0
T2
X4.1484Y-2.9995
X4.1484Y-3.1905
T3
X7.2407Y-3.8232
X7.3745Y-3.8232
T4
X4.6307Y-2.9898
X4.7307Y-2.9898
X5.3375Y-3.0279
X5.4375Y-3.0279
X7.2581Y-3.5453
X7.3581Y-3.5453
T5
X4.1304Y-3.7941
X4.1304Y-3.8941
X4.569Y-4.2724
X4.569Y-4.4724
X4.569Y-5.265
X4.5701Y-5.0791
X4.669Y-4.2724
X4.669Y-4.4724
X4.669Y-5.265
X4.6701Y-5.0791
X4.769Y-4.2724
X4.769Y-4.4724
X4.769Y-5.265
X4.7701Y-5.0791
X4.869Y-4.2724
X4.869Y-4.4724
X4.869Y-5.265
X4.8701Y-5.0791
X4.969Y-4.2724
X4.969Y-4.4724
X4.969Y-5.265
X4.9701Y-5.0791
X5.069Y-4.2724
X5.069Y-4.4724
X5.069Y-5.265
X5.0701Y-5.0791
X5.169Y-4.2724
X5.169Y-4.4724
X5.169Y-5.265
X5.1701Y-5.0791
X5.269Y-4.2724
X5.269Y-4.4724
X5.269Y-5.265
X5.2701Y-5.0791
X5.369Y-4.2724
X5.369Y-4.4724
X5.369Y-5.265
X5.3701Y-5.0791
X5.469Y-4.2724
X5.469Y-4.4724
X5.469Y-5.265
X5.4701Y-5.0791
X5.569Y-4.2724
X5.569Y-4.4724
X5.569Y-5.265
X5.5701Y-5.0791
X5.669Y-4.2724
X5.669Y-4.4724
X5.669Y-5.265
X5.6701Y-5.0791
X5.769Y-4.2724
X5.769Y-4.4724
X5.769Y-5.265
X5.7701Y-5.0791
X5.869Y-4.2724
X5.869Y-4.4724
X5.869Y-5.265
X5.8701Y-5.0791
X5.969Y-4.2724
X5.969Y-4.4724
X5.969Y-5.265
X5.9701Y-5.0791
X6.069Y-4.2724
X6.069Y-4.4724
X6.069Y-5.265
X6.0701Y-5.0791
X6.169Y-4.2724
X6.169Y-4.4724
X6.169Y-5.265
X6.1701Y-5.0791
X6.269Y-4.2724
X6.269Y-4.4724
X6.269Y-5.265
X6.2701Y-5.0791
X6.369Y-4.2724
X6.369Y-4.4724
X6.369Y-5.265
X6.3701Y-5.0791
X6.469Y-4.2724
X6.469Y-4.4724
X6.469Y-5.265
X6.4701Y-5.0791
X6.569Y-4.2724
X6.569Y-4.4724
X6.569Y-5.265
X6.5701Y-5.0791
X6.669Y-4.2724
X6.669Y-4.4724
X6.669Y-5.265
X6.6701Y-5.0791
X6.769Y-4.2724
X6.769Y-4.4724
X6.769Y-5.265
X6.7701Y-5.0791
X6.869Y-4.2724
X6.869Y-4.4724
X6.869Y-5.265
X6.8701Y-5.0791
X6.9256Y-3.5441
X6.9256Y-3.6441
X7.0792Y-2.6996
X7.0792Y-2.7996
X7.3548Y-2.6996
X7.3548Y-2.7996
X7.7055Y-3.2134
X7.7055Y-3.3134
X7.7055Y-3.4134
X7.7055Y-3.5134
X7.7055Y-3.6134
X7.7055Y-3.7134
X7.7055Y-3.8134
X7.7055Y-3.9134
X7.7055Y-4.0134
T6
X4.158Y-4.6539
X4.158Y-4.9098
X4.3352Y-4.6539
X4.3352Y-4.9098
T7
X7.3911Y-2.2878
T8
X4.8942Y-2.2878
X7.0674Y-1.6578
T2
G00X4.059Y-2.9533
M15
G01X4.0275Y-2.9533
M16
G05
G00X4.059Y-3.2367
M15
G01X4.0275Y-3.2367
M16
G05
T0
M30
