%TF.GenerationSoftware,KiCad,Pcbnew,(7.0.0)*%
%TF.CreationDate,2023-03-21T02:39:43+02:00*%
%TF.ProjectId,Main Schematic,4d61696e-2053-4636-9865-6d617469632e,rev?*%
%TF.SameCoordinates,Original*%
%TF.FileFunction,Soldermask,Bot*%
%TF.FilePolarity,Negative*%
%FSLAX46Y46*%
G04 Gerber Fmt 4.6, Leading zero omitted, Abs format (unit mm)*
G04 Created by KiCad (PCBNEW (7.0.0)) date 2023-03-21 02:39:43*
%MOMM*%
%LPD*%
G01*
G04 APERTURE LIST*
%ADD10O,2.200000X1.300000*%
%ADD11C,1.300000*%
%ADD12C,4.000000*%
%ADD13C,2.700000*%
%ADD14R,1.700000X1.700000*%
%ADD15O,1.700000X1.700000*%
%ADD16R,1.800000X1.800000*%
%ADD17C,1.800000*%
%ADD18C,2.000000*%
%ADD19C,1.500000*%
G04 APERTURE END LIST*
D10*
%TO.C,J6*%
X108671500Y-82199948D03*
X108671500Y-75000050D03*
D11*
X111341554Y-76175057D03*
X111341554Y-81024943D03*
%TD*%
D12*
%TO.C,BT1*%
X124312886Y-58109187D03*
X179512886Y-42109187D03*
D13*
X187732886Y-58109187D03*
%TD*%
D14*
%TO.C,J7*%
X104912885Y-96369186D03*
D15*
X104912885Y-98909186D03*
%TD*%
D14*
%TO.C,J10*%
X195712885Y-81609186D03*
D15*
X195712885Y-84149186D03*
X195712885Y-86689186D03*
X195712885Y-89229186D03*
X195712885Y-91769186D03*
X195712885Y-94309186D03*
X195712885Y-96849186D03*
X195712885Y-99389186D03*
%TD*%
D14*
%TO.C,J3*%
X116052885Y-113599186D03*
D15*
X118592885Y-113599186D03*
X121132885Y-113599186D03*
X123672885Y-113599186D03*
X126212885Y-113599186D03*
X128752885Y-113599186D03*
X131292885Y-113599186D03*
X133832885Y-113599186D03*
X136372885Y-113599186D03*
X138912885Y-113599186D03*
X141452885Y-113599186D03*
X143992885Y-113599186D03*
X146532885Y-113599186D03*
X149072885Y-113599186D03*
X151612885Y-113599186D03*
X154152885Y-113599186D03*
X156692885Y-113599186D03*
X159232885Y-113599186D03*
X161772885Y-113599186D03*
X164312885Y-113599186D03*
X166852885Y-113599186D03*
X169392885Y-113599186D03*
X171932885Y-113599186D03*
X174472885Y-113599186D03*
%TD*%
D14*
%TO.C,J8*%
X116052885Y-108519186D03*
D15*
X118592885Y-108519186D03*
X121132885Y-108519186D03*
X123672885Y-108519186D03*
X126212885Y-108519186D03*
X128752885Y-108519186D03*
X131292885Y-108519186D03*
X133832885Y-108519186D03*
X136372885Y-108519186D03*
X138912885Y-108519186D03*
X141452885Y-108519186D03*
X143992885Y-108519186D03*
X146532885Y-108519186D03*
X149072885Y-108519186D03*
X151612885Y-108519186D03*
X154152885Y-108519186D03*
X156692885Y-108519186D03*
X159232885Y-108519186D03*
X161772885Y-108519186D03*
X164312885Y-108519186D03*
X166852885Y-108519186D03*
X169392885Y-108519186D03*
X171932885Y-108519186D03*
X174472885Y-108519186D03*
%TD*%
D16*
%TO.C,D1*%
X135572885Y-76909186D03*
D17*
X138112886Y-76909187D03*
%TD*%
D14*
%TO.C,J1*%
X116052885Y-130109186D03*
D15*
X118592885Y-130109186D03*
X121132885Y-130109186D03*
X123672885Y-130109186D03*
X126212885Y-130109186D03*
X128752885Y-130109186D03*
X131292885Y-130109186D03*
X133832885Y-130109186D03*
X136372885Y-130109186D03*
X138912885Y-130109186D03*
X141452885Y-130109186D03*
X143992885Y-130109186D03*
X146532885Y-130109186D03*
X149072885Y-130109186D03*
X151612885Y-130109186D03*
X154152885Y-130109186D03*
X156692885Y-130109186D03*
X159232885Y-130109186D03*
X161772885Y-130109186D03*
X164312885Y-130109186D03*
X166852885Y-130109186D03*
X169392885Y-130109186D03*
X171932885Y-130109186D03*
X174472885Y-130109186D03*
%TD*%
D14*
%TO.C,J4*%
X186812885Y-68569186D03*
D15*
X186812885Y-71109186D03*
%TD*%
D14*
%TO.C,J5*%
X179812885Y-68569186D03*
D15*
X179812885Y-71109186D03*
%TD*%
D18*
%TO.C,SW1*%
X110112886Y-118209187D03*
X110112886Y-124709187D03*
X105612886Y-118209187D03*
X105612886Y-124709187D03*
%TD*%
D19*
%TO.C,R10*%
X183912886Y-97109187D03*
X187312886Y-97109187D03*
%TD*%
D14*
%TO.C,J9*%
X116052885Y-134759186D03*
D15*
X118592885Y-134759186D03*
X121132885Y-134759186D03*
X123672885Y-134759186D03*
X126212885Y-134759186D03*
X128752885Y-134759186D03*
X131292885Y-134759186D03*
X133832885Y-134759186D03*
X136372885Y-134759186D03*
X138912885Y-134759186D03*
X141452885Y-134759186D03*
X143992885Y-134759186D03*
X146532885Y-134759186D03*
X149072885Y-134759186D03*
X151612885Y-134759186D03*
X154152885Y-134759186D03*
X156692885Y-134759186D03*
X159232885Y-134759186D03*
X161772885Y-134759186D03*
X164312885Y-134759186D03*
X166852885Y-134759186D03*
X169392885Y-134759186D03*
X171932885Y-134759186D03*
X174472885Y-134759186D03*
%TD*%
M02*
