%TF.GenerationSoftware,KiCad,Pcbnew,(7.0.0)*%
%TF.CreationDate,2023-03-21T02:39:43+02:00*%
%TF.ProjectId,Main Schematic,4d61696e-2053-4636-9865-6d617469632e,rev?*%
%TF.SameCoordinates,Original*%
%TF.FileFunction,Soldermask,Top*%
%TF.FilePolarity,Negative*%
%FSLAX46Y46*%
G04 Gerber Fmt 4.6, Leading zero omitted, Abs format (unit mm)*
G04 Created by KiCad (PCBNEW (7.0.0)) date 2023-03-21 02:39:43*
%MOMM*%
%LPD*%
G01*
G04 APERTURE LIST*
G04 Aperture macros list*
%AMRoundRect*
0 Rectangle with rounded corners*
0 $1 Rounding radius*
0 $2 $3 $4 $5 $6 $7 $8 $9 X,Y pos of 4 corners*
0 Add a 4 corners polygon primitive as box body*
4,1,4,$2,$3,$4,$5,$6,$7,$8,$9,$2,$3,0*
0 Add four circle primitives for the rounded corners*
1,1,$1+$1,$2,$3*
1,1,$1+$1,$4,$5*
1,1,$1+$1,$6,$7*
1,1,$1+$1,$8,$9*
0 Add four rect primitives between the rounded corners*
20,1,$1+$1,$2,$3,$4,$5,0*
20,1,$1+$1,$4,$5,$6,$7,0*
20,1,$1+$1,$6,$7,$8,$9,0*
20,1,$1+$1,$8,$9,$2,$3,0*%
%AMFreePoly0*
4,1,9,3.862500,-0.866500,0.737500,-0.866500,0.737500,-0.450000,-0.737500,-0.450000,-0.737500,0.450000,0.737500,0.450000,0.737500,0.866500,3.862500,0.866500,3.862500,-0.866500,3.862500,-0.866500,$1*%
G04 Aperture macros list end*
%ADD10O,1.950216X0.568402*%
%ADD11O,1.745009X0.559995*%
%ADD12R,1.727991X1.485014*%
%ADD13R,0.540005X0.565659*%
%ADD14O,1.500000X0.400000*%
%ADD15R,1.400000X0.400000*%
%ADD16O,2.200000X1.300000*%
%ADD17C,1.300000*%
%ADD18R,1.000000X0.550013*%
%ADD19C,4.000000*%
%ADD20C,2.700000*%
%ADD21RoundRect,1.625000X-2.125000X-1.625000X2.125000X-1.625000X2.125000X1.625000X-2.125000X1.625000X0*%
%ADD22R,1.700000X1.700000*%
%ADD23O,1.700000X1.700000*%
%ADD24RoundRect,0.100000X-0.100000X0.130000X-0.100000X-0.130000X0.100000X-0.130000X0.100000X0.130000X0*%
%ADD25RoundRect,0.150000X-0.512500X-0.150000X0.512500X-0.150000X0.512500X0.150000X-0.512500X0.150000X0*%
%ADD26RoundRect,0.250000X-0.625000X0.312500X-0.625000X-0.312500X0.625000X-0.312500X0.625000X0.312500X0*%
%ADD27RoundRect,0.140000X-0.170000X0.140000X-0.170000X-0.140000X0.170000X-0.140000X0.170000X0.140000X0*%
%ADD28R,1.000000X1.000000*%
%ADD29RoundRect,0.140000X0.170000X-0.140000X0.170000X0.140000X-0.170000X0.140000X-0.170000X-0.140000X0*%
%ADD30R,1.800000X1.800000*%
%ADD31C,1.800000*%
%ADD32R,1.300000X0.900000*%
%ADD33FreePoly0,0.000000*%
%ADD34C,2.000000*%
%ADD35C,1.500000*%
G04 APERTURE END LIST*
D10*
%TO.C,U4*%
X183207780Y-117604182D03*
X183207780Y-118874185D03*
X183207780Y-120144187D03*
X183207780Y-121414190D03*
X188617990Y-117604182D03*
X188617990Y-118874185D03*
X188617990Y-120144187D03*
X188617990Y-121414190D03*
%TD*%
D11*
%TO.C,U3*%
X118767901Y-90689171D03*
X118767901Y-91959174D03*
X118767901Y-93229176D03*
X118767901Y-94499179D03*
X118767901Y-95769181D03*
X118767901Y-97039184D03*
X118767901Y-98309186D03*
X118767901Y-99579189D03*
X124512885Y-90689171D03*
X124512885Y-91959174D03*
X124512885Y-93229176D03*
X124512885Y-94499179D03*
X124512885Y-95769181D03*
X124512885Y-97039184D03*
X124512885Y-98309186D03*
X124512885Y-99579189D03*
%TD*%
D12*
%TO.C,R5*%
X168482885Y-65186603D03*
X168482885Y-68371769D03*
%TD*%
D13*
%TO.C,R4*%
X150982885Y-66346369D03*
X150982885Y-67212003D03*
%TD*%
%TO.C,R2*%
X126980091Y-66759577D03*
X126980091Y-65893943D03*
%TD*%
D14*
%TO.C,Q1*%
X156682530Y-66753913D03*
X156682530Y-67404154D03*
X156682530Y-68054396D03*
X156682530Y-68704637D03*
X163083342Y-66753913D03*
X163083342Y-67404154D03*
X163083342Y-68054396D03*
X163083342Y-68704637D03*
%TD*%
D15*
%TO.C,J6*%
X111714172Y-79899974D03*
X111714172Y-79249986D03*
X111714172Y-78599999D03*
X111714172Y-77950012D03*
X111714172Y-77300024D03*
D16*
X108671500Y-82199948D03*
X108671500Y-75000050D03*
D17*
X111341554Y-76175057D03*
X111341554Y-81024943D03*
%TD*%
D10*
%TO.C,IC2*%
X160607780Y-95204182D03*
X160607780Y-96474185D03*
X160607780Y-97744187D03*
X160607780Y-99014190D03*
X166017990Y-95204182D03*
X166017990Y-96474185D03*
X166017990Y-97744187D03*
X166017990Y-99014190D03*
%TD*%
D18*
%TO.C,IC1*%
X156812885Y-81009110D03*
X156812885Y-80059148D03*
X156812885Y-79109186D03*
X159612987Y-79109186D03*
X159612987Y-80059148D03*
X159612987Y-81009110D03*
%TD*%
D12*
%TO.C,C8*%
X193312885Y-114709186D03*
X193312885Y-111524020D03*
%TD*%
%TO.C,C7*%
X131112885Y-89909186D03*
X131112885Y-86724020D03*
%TD*%
%TO.C,C6*%
X166812885Y-86386520D03*
X166812885Y-89571686D03*
%TD*%
%TO.C,C5*%
X166812885Y-81609186D03*
X166812885Y-78424020D03*
%TD*%
D19*
%TO.C,BT1*%
X124312886Y-58109187D03*
X179512886Y-42109187D03*
D20*
X187732886Y-58109187D03*
D21*
X191562886Y-50109187D03*
X112262886Y-50109187D03*
%TD*%
D22*
%TO.C,J7*%
X104912885Y-96369186D03*
D23*
X104912885Y-98909186D03*
%TD*%
D22*
%TO.C,J10*%
X195712885Y-81609186D03*
D23*
X195712885Y-84149186D03*
X195712885Y-86689186D03*
X195712885Y-89229186D03*
X195712885Y-91769186D03*
X195712885Y-94309186D03*
X195712885Y-96849186D03*
X195712885Y-99389186D03*
%TD*%
D24*
%TO.C,C3*%
X120512886Y-68334187D03*
X120512886Y-68974187D03*
%TD*%
D25*
%TO.C,U2*%
X140982886Y-66779187D03*
X140982886Y-67729187D03*
X140982886Y-68679187D03*
X143257886Y-68679187D03*
X143257886Y-66779187D03*
%TD*%
D26*
%TO.C,R9*%
X174712886Y-96646687D03*
X174712886Y-99571687D03*
%TD*%
D27*
%TO.C,C1*%
X180175386Y-80129187D03*
X180175386Y-81089187D03*
%TD*%
%TO.C,C2*%
X180175386Y-88109187D03*
X180175386Y-89069187D03*
%TD*%
D26*
%TO.C,R7*%
X148312886Y-86646687D03*
X148312886Y-89571687D03*
%TD*%
D28*
%TO.C,TP13*%
X175175385Y-83109186D03*
%TD*%
D22*
%TO.C,J3*%
X116052885Y-113599186D03*
D23*
X118592885Y-113599186D03*
X121132885Y-113599186D03*
X123672885Y-113599186D03*
X126212885Y-113599186D03*
X128752885Y-113599186D03*
X131292885Y-113599186D03*
X133832885Y-113599186D03*
X136372885Y-113599186D03*
X138912885Y-113599186D03*
X141452885Y-113599186D03*
X143992885Y-113599186D03*
X146532885Y-113599186D03*
X149072885Y-113599186D03*
X151612885Y-113599186D03*
X154152885Y-113599186D03*
X156692885Y-113599186D03*
X159232885Y-113599186D03*
X161772885Y-113599186D03*
X164312885Y-113599186D03*
X166852885Y-113599186D03*
X169392885Y-113599186D03*
X171932885Y-113599186D03*
X174472885Y-113599186D03*
%TD*%
D28*
%TO.C,TP10*%
X197312885Y-121709186D03*
%TD*%
D22*
%TO.C,J8*%
X116052885Y-108519186D03*
D23*
X118592885Y-108519186D03*
X121132885Y-108519186D03*
X123672885Y-108519186D03*
X126212885Y-108519186D03*
X128752885Y-108519186D03*
X131292885Y-108519186D03*
X133832885Y-108519186D03*
X136372885Y-108519186D03*
X138912885Y-108519186D03*
X141452885Y-108519186D03*
X143992885Y-108519186D03*
X146532885Y-108519186D03*
X149072885Y-108519186D03*
X151612885Y-108519186D03*
X154152885Y-108519186D03*
X156692885Y-108519186D03*
X159232885Y-108519186D03*
X161772885Y-108519186D03*
X164312885Y-108519186D03*
X166852885Y-108519186D03*
X169392885Y-108519186D03*
X171932885Y-108519186D03*
X174472885Y-108519186D03*
%TD*%
D26*
%TO.C,R1*%
X126312886Y-122109187D03*
X126312886Y-125034187D03*
%TD*%
D29*
%TO.C,C4*%
X135982886Y-67739187D03*
X135982886Y-66779187D03*
%TD*%
D28*
%TO.C,TP7*%
X110712885Y-91109186D03*
%TD*%
D26*
%TO.C,R8*%
X155312886Y-86646687D03*
X155312886Y-89571687D03*
%TD*%
D30*
%TO.C,D1*%
X135572885Y-76909186D03*
D31*
X138112886Y-76909187D03*
%TD*%
D22*
%TO.C,J1*%
X116052885Y-130109186D03*
D23*
X118592885Y-130109186D03*
X121132885Y-130109186D03*
X123672885Y-130109186D03*
X126212885Y-130109186D03*
X128752885Y-130109186D03*
X131292885Y-130109186D03*
X133832885Y-130109186D03*
X136372885Y-130109186D03*
X138912885Y-130109186D03*
X141452885Y-130109186D03*
X143992885Y-130109186D03*
X146532885Y-130109186D03*
X149072885Y-130109186D03*
X151612885Y-130109186D03*
X154152885Y-130109186D03*
X156692885Y-130109186D03*
X159232885Y-130109186D03*
X161772885Y-130109186D03*
X164312885Y-130109186D03*
X166852885Y-130109186D03*
X169392885Y-130109186D03*
X171932885Y-130109186D03*
X174472885Y-130109186D03*
%TD*%
D28*
%TO.C,TP11*%
X197312885Y-126509186D03*
%TD*%
%TO.C,TP5*%
X179312885Y-102109186D03*
%TD*%
D22*
%TO.C,J4*%
X186812885Y-68569186D03*
D23*
X186812885Y-71109186D03*
%TD*%
D32*
%TO.C,U1*%
X183225385Y-81609186D03*
D33*
X183312886Y-83109187D03*
D32*
X183225385Y-84609186D03*
%TD*%
D22*
%TO.C,J5*%
X179812885Y-68569186D03*
D23*
X179812885Y-71109186D03*
%TD*%
D28*
%TO.C,TP12*%
X197112885Y-117509186D03*
%TD*%
%TO.C,TP1*%
X117099999Y-68399999D03*
%TD*%
%TO.C,TP3*%
X144312885Y-93571686D03*
%TD*%
D26*
%TO.C,R3*%
X130982886Y-66354187D03*
X130982886Y-69279187D03*
%TD*%
D28*
%TO.C,TP4*%
X152312885Y-93571686D03*
%TD*%
%TO.C,TP6*%
X110912885Y-94109186D03*
%TD*%
D34*
%TO.C,SW1*%
X110112886Y-118209187D03*
X110112886Y-124709187D03*
X105612886Y-118209187D03*
X105612886Y-124709187D03*
%TD*%
D35*
%TO.C,R10*%
X183912886Y-97109187D03*
X187312886Y-97109187D03*
%TD*%
D28*
%TO.C,TP2*%
X136312885Y-94109186D03*
%TD*%
D26*
%TO.C,R6*%
X140312886Y-86646687D03*
X140312886Y-89571687D03*
%TD*%
D22*
%TO.C,J9*%
X116052885Y-134759186D03*
D23*
X118592885Y-134759186D03*
X121132885Y-134759186D03*
X123672885Y-134759186D03*
X126212885Y-134759186D03*
X128752885Y-134759186D03*
X131292885Y-134759186D03*
X133832885Y-134759186D03*
X136372885Y-134759186D03*
X138912885Y-134759186D03*
X141452885Y-134759186D03*
X143992885Y-134759186D03*
X146532885Y-134759186D03*
X149072885Y-134759186D03*
X151612885Y-134759186D03*
X154152885Y-134759186D03*
X156692885Y-134759186D03*
X159232885Y-134759186D03*
X161772885Y-134759186D03*
X164312885Y-134759186D03*
X166852885Y-134759186D03*
X169392885Y-134759186D03*
X171932885Y-134759186D03*
X174472885Y-134759186D03*
%TD*%
M02*
