M48
; DRILL file {KiCad (7.0.0)} date Tue Mar 21 02:40:33 2023
; FORMAT={-:-/ absolute / metric / decimal}
; #@! TF.CreationDate,2023-03-21T02:40:33+02:00
; #@! TF.GenerationSoftware,Kicad,Pcbnew,(7.0.0)
; #@! TF.FileFunction,Plated,1,2,PTH
FMAT,2
METRIC
; #@! TA.AperFunction,Plated,PTH,ViaDrill
T1C0.400
; #@! TA.AperFunction,Plated,PTH,ComponentDrill
T2C0.700
; #@! TA.AperFunction,Plated,PTH,ComponentDrill
T3C0.800
; #@! TA.AperFunction,Plated,PTH,ComponentDrill
T4C0.900
; #@! TA.AperFunction,Plated,PTH,ComponentDrill
T5C1.000
; #@! TA.AperFunction,Plated,PTH,ComponentDrill
T6C1.100
; #@! TA.AperFunction,Plated,PTH,ComponentDrill
T7C2.400
; #@! TA.AperFunction,Plated,PTH,ComponentDrill
T8C3.700
%
G90
G05
T1
X108.453Y-88.169
X112.263Y-102.139
X113.533Y-95.789
X114.803Y-100.869
X116.513Y-94.509
X124.963Y-86.899
X133.0Y-72.5
X135.913Y-69.159
X138.933Y-70.389
X144.0Y-60.5
X150.363Y-70.389
X152.903Y-66.579
X154.173Y-69.119
X155.613Y-77.109
X156.063Y-73.559
X157.0Y-72.5
X161.0Y-92.0
X161.0Y-101.0
X164.333Y-70.385
X165.087Y-101.0
X165.603Y-75.469
X166.463Y-69.359
X169.5Y-73.5
X170.0Y-70.26
X170.5Y-90.0
X171.953Y-69.119
X171.953Y-72.929
X172.5Y-126.0
X177.913Y-95.909
X178.013Y-97.959
X178.5Y-93.5
X178.863Y-111.959
X180.0Y-84.0
X181.0Y-118.0
X182.763Y-77.009
X183.363Y-110.009
X183.5Y-79.5
X184.0Y-87.0
X185.5Y-123.5
X189.0Y-124.5
X189.263Y-92.109
X190.613Y-106.159
X191.163Y-119.209
X193.863Y-125.709
X194.263Y-122.859
X196.0Y-108.5
T2
X111.342Y-76.175
X111.342Y-81.025
T3
X183.913Y-97.109
X187.313Y-97.109
T4
X135.573Y-76.909
X138.113Y-76.909
T5
X104.913Y-96.369
X104.913Y-98.909
X116.053Y-108.519
X116.053Y-113.599
X116.053Y-130.109
X116.053Y-134.759
X118.593Y-108.519
X118.593Y-113.599
X118.593Y-130.109
X118.593Y-134.759
X121.133Y-108.519
X121.133Y-113.599
X121.133Y-130.109
X121.133Y-134.759
X123.673Y-108.519
X123.673Y-113.599
X123.673Y-130.109
X123.673Y-134.759
X126.213Y-108.519
X126.213Y-113.599
X126.213Y-130.109
X126.213Y-134.759
X128.753Y-108.519
X128.753Y-113.599
X128.753Y-130.109
X128.753Y-134.759
X131.293Y-108.519
X131.293Y-113.599
X131.293Y-130.109
X131.293Y-134.759
X133.833Y-108.519
X133.833Y-113.599
X133.833Y-130.109
X133.833Y-134.759
X136.373Y-108.519
X136.373Y-113.599
X136.373Y-130.109
X136.373Y-134.759
X138.913Y-108.519
X138.913Y-113.599
X138.913Y-130.109
X138.913Y-134.759
X141.453Y-108.519
X141.453Y-113.599
X141.453Y-130.109
X141.453Y-134.759
X143.993Y-108.519
X143.993Y-113.599
X143.993Y-130.109
X143.993Y-134.759
X146.533Y-108.519
X146.533Y-113.599
X146.533Y-130.109
X146.533Y-134.759
X149.073Y-108.519
X149.073Y-113.599
X149.073Y-130.109
X149.073Y-134.759
X151.613Y-108.519
X151.613Y-113.599
X151.613Y-130.109
X151.613Y-134.759
X154.153Y-108.519
X154.153Y-113.599
X154.153Y-130.109
X154.153Y-134.759
X156.693Y-108.519
X156.693Y-113.599
X156.693Y-130.109
X156.693Y-134.759
X159.233Y-108.519
X159.233Y-113.599
X159.233Y-130.109
X159.233Y-134.759
X161.773Y-108.519
X161.773Y-113.599
X161.773Y-130.109
X161.773Y-134.759
X164.313Y-108.519
X164.313Y-113.599
X164.313Y-130.109
X164.313Y-134.759
X166.853Y-108.519
X166.853Y-113.599
X166.853Y-130.109
X166.853Y-134.759
X169.393Y-108.519
X169.393Y-113.599
X169.393Y-130.109
X169.393Y-134.759
X171.933Y-108.519
X171.933Y-113.599
X171.933Y-130.109
X171.933Y-134.759
X174.473Y-108.519
X174.473Y-113.599
X174.473Y-130.109
X174.473Y-134.759
X179.813Y-68.569
X179.813Y-71.109
X186.813Y-68.569
X186.813Y-71.109
X195.713Y-81.609
X195.713Y-84.149
X195.713Y-86.689
X195.713Y-89.229
X195.713Y-91.769
X195.713Y-94.309
X195.713Y-96.849
X195.713Y-99.389
T6
X105.613Y-118.209
X105.613Y-124.709
X110.113Y-118.209
X110.113Y-124.709
T7
X187.733Y-58.109
T8
X124.313Y-58.109
X179.513Y-42.109
T2
G00X109.072Y-75.0
M15
G01X108.271Y-75.0
M16
G05
G00X109.072Y-82.2
M15
G01X108.271Y-82.2
M16
G05
T0
M30
