%TF.GenerationSoftware,KiCad,Pcbnew,(7.0.0)*%
%TF.CreationDate,2023-03-21T02:39:43+02:00*%
%TF.ProjectId,Main Schematic,4d61696e-2053-4636-9865-6d617469632e,rev?*%
%TF.SameCoordinates,Original*%
%TF.FileFunction,Legend,Top*%
%TF.FilePolarity,Positive*%
%FSLAX46Y46*%
G04 Gerber Fmt 4.6, Leading zero omitted, Abs format (unit mm)*
G04 Created by KiCad (PCBNEW (7.0.0)) date 2023-03-21 02:39:43*
%MOMM*%
%LPD*%
G01*
G04 APERTURE LIST*
%ADD10C,0.150000*%
%ADD11C,0.254001*%
%ADD12C,0.059995*%
%ADD13C,0.300000*%
%ADD14C,0.152400*%
%ADD15C,0.100000*%
%ADD16C,1.000000*%
%ADD17C,0.120000*%
G04 APERTURE END LIST*
D10*
X175000000Y-90000000D02*
X190000000Y-90000000D01*
X173990000Y-90170000D02*
X174000000Y-92000000D01*
X191000000Y-92000000D02*
X191000000Y-104000000D01*
X181095238Y-130841904D02*
X181666666Y-130841904D01*
X181380952Y-131641904D02*
X181380952Y-130841904D01*
X182000000Y-131222857D02*
X182333333Y-131222857D01*
X182476190Y-131641904D02*
X182000000Y-131641904D01*
X182000000Y-131641904D02*
X182000000Y-130841904D01*
X182000000Y-130841904D02*
X182476190Y-130841904D01*
X182857143Y-131413333D02*
X183333333Y-131413333D01*
X182761905Y-131641904D02*
X183095238Y-130841904D01*
X183095238Y-130841904D02*
X183428571Y-131641904D01*
X183761905Y-131641904D02*
X183761905Y-130841904D01*
X183761905Y-130841904D02*
X184095238Y-131413333D01*
X184095238Y-131413333D02*
X184428571Y-130841904D01*
X184428571Y-130841904D02*
X184428571Y-131641904D01*
X185457143Y-130918095D02*
X185504762Y-130880000D01*
X185504762Y-130880000D02*
X185600000Y-130841904D01*
X185600000Y-130841904D02*
X185838095Y-130841904D01*
X185838095Y-130841904D02*
X185933333Y-130880000D01*
X185933333Y-130880000D02*
X185980952Y-130918095D01*
X185980952Y-130918095D02*
X186028571Y-130994285D01*
X186028571Y-130994285D02*
X186028571Y-131070476D01*
X186028571Y-131070476D02*
X185980952Y-131184761D01*
X185980952Y-131184761D02*
X185409524Y-131641904D01*
X185409524Y-131641904D02*
X186028571Y-131641904D01*
X186885714Y-130841904D02*
X186695238Y-130841904D01*
X186695238Y-130841904D02*
X186600000Y-130880000D01*
X186600000Y-130880000D02*
X186552381Y-130918095D01*
X186552381Y-130918095D02*
X186457143Y-131032380D01*
X186457143Y-131032380D02*
X186409524Y-131184761D01*
X186409524Y-131184761D02*
X186409524Y-131489523D01*
X186409524Y-131489523D02*
X186457143Y-131565714D01*
X186457143Y-131565714D02*
X186504762Y-131603809D01*
X186504762Y-131603809D02*
X186600000Y-131641904D01*
X186600000Y-131641904D02*
X186790476Y-131641904D01*
X186790476Y-131641904D02*
X186885714Y-131603809D01*
X186885714Y-131603809D02*
X186933333Y-131565714D01*
X186933333Y-131565714D02*
X186980952Y-131489523D01*
X186980952Y-131489523D02*
X186980952Y-131299047D01*
X186980952Y-131299047D02*
X186933333Y-131222857D01*
X186933333Y-131222857D02*
X186885714Y-131184761D01*
X186885714Y-131184761D02*
X186790476Y-131146666D01*
X186790476Y-131146666D02*
X186600000Y-131146666D01*
X186600000Y-131146666D02*
X186504762Y-131184761D01*
X186504762Y-131184761D02*
X186457143Y-131222857D01*
X186457143Y-131222857D02*
X186409524Y-131299047D01*
X181142857Y-132137904D02*
X181809523Y-132137904D01*
X181809523Y-132137904D02*
X181142857Y-132937904D01*
X181142857Y-132937904D02*
X181809523Y-132937904D01*
X182095238Y-132137904D02*
X182333333Y-132937904D01*
X182333333Y-132937904D02*
X182523809Y-132366476D01*
X182523809Y-132366476D02*
X182714285Y-132937904D01*
X182714285Y-132937904D02*
X182952381Y-132137904D01*
X183333333Y-132937904D02*
X183333333Y-132137904D01*
X183666666Y-132137904D02*
X183999999Y-132937904D01*
X183999999Y-132937904D02*
X184333332Y-132137904D01*
X184666666Y-132937904D02*
X184666666Y-132137904D01*
X184666666Y-132518857D02*
X185238094Y-132518857D01*
X185238094Y-132937904D02*
X185238094Y-132137904D01*
X185714285Y-132137904D02*
X185714285Y-132785523D01*
X185714285Y-132785523D02*
X185761904Y-132861714D01*
X185761904Y-132861714D02*
X185809523Y-132899809D01*
X185809523Y-132899809D02*
X185904761Y-132937904D01*
X185904761Y-132937904D02*
X186095237Y-132937904D01*
X186095237Y-132937904D02*
X186190475Y-132899809D01*
X186190475Y-132899809D02*
X186238094Y-132861714D01*
X186238094Y-132861714D02*
X186285713Y-132785523D01*
X186285713Y-132785523D02*
X186285713Y-132137904D01*
X186952380Y-132556952D02*
X186952380Y-132937904D01*
X186619047Y-132137904D02*
X186952380Y-132556952D01*
X186952380Y-132556952D02*
X187285713Y-132137904D01*
X187571428Y-132709333D02*
X188047618Y-132709333D01*
X187476190Y-132937904D02*
X187809523Y-132137904D01*
X187809523Y-132137904D02*
X188142856Y-132937904D01*
X189076190Y-132937904D02*
X189076190Y-132137904D01*
X189076190Y-132137904D02*
X189647618Y-132937904D01*
X189647618Y-132937904D02*
X189647618Y-132137904D01*
X190123809Y-132937904D02*
X190123809Y-132137904D01*
X190123809Y-132137904D02*
X190361904Y-132137904D01*
X190361904Y-132137904D02*
X190504761Y-132176000D01*
X190504761Y-132176000D02*
X190599999Y-132252190D01*
X190599999Y-132252190D02*
X190647618Y-132328380D01*
X190647618Y-132328380D02*
X190695237Y-132480761D01*
X190695237Y-132480761D02*
X190695237Y-132595047D01*
X190695237Y-132595047D02*
X190647618Y-132747428D01*
X190647618Y-132747428D02*
X190599999Y-132823619D01*
X190599999Y-132823619D02*
X190504761Y-132899809D01*
X190504761Y-132899809D02*
X190361904Y-132937904D01*
X190361904Y-132937904D02*
X190123809Y-132937904D01*
X191314285Y-132137904D02*
X191504761Y-132137904D01*
X191504761Y-132137904D02*
X191599999Y-132176000D01*
X191599999Y-132176000D02*
X191695237Y-132252190D01*
X191695237Y-132252190D02*
X191742856Y-132404571D01*
X191742856Y-132404571D02*
X191742856Y-132671238D01*
X191742856Y-132671238D02*
X191695237Y-132823619D01*
X191695237Y-132823619D02*
X191599999Y-132899809D01*
X191599999Y-132899809D02*
X191504761Y-132937904D01*
X191504761Y-132937904D02*
X191314285Y-132937904D01*
X191314285Y-132937904D02*
X191219047Y-132899809D01*
X191219047Y-132899809D02*
X191123809Y-132823619D01*
X191123809Y-132823619D02*
X191076190Y-132671238D01*
X191076190Y-132671238D02*
X191076190Y-132404571D01*
X191076190Y-132404571D02*
X191123809Y-132252190D01*
X191123809Y-132252190D02*
X191219047Y-132176000D01*
X191219047Y-132176000D02*
X191314285Y-132137904D01*
X192171428Y-132137904D02*
X192171428Y-132785523D01*
X192171428Y-132785523D02*
X192219047Y-132861714D01*
X192219047Y-132861714D02*
X192266666Y-132899809D01*
X192266666Y-132899809D02*
X192361904Y-132937904D01*
X192361904Y-132937904D02*
X192552380Y-132937904D01*
X192552380Y-132937904D02*
X192647618Y-132899809D01*
X192647618Y-132899809D02*
X192695237Y-132861714D01*
X192695237Y-132861714D02*
X192742856Y-132785523D01*
X192742856Y-132785523D02*
X192742856Y-132137904D01*
X181190476Y-134195809D02*
X181333333Y-134233904D01*
X181333333Y-134233904D02*
X181571428Y-134233904D01*
X181571428Y-134233904D02*
X181666666Y-134195809D01*
X181666666Y-134195809D02*
X181714285Y-134157714D01*
X181714285Y-134157714D02*
X181761904Y-134081523D01*
X181761904Y-134081523D02*
X181761904Y-134005333D01*
X181761904Y-134005333D02*
X181714285Y-133929142D01*
X181714285Y-133929142D02*
X181666666Y-133891047D01*
X181666666Y-133891047D02*
X181571428Y-133852952D01*
X181571428Y-133852952D02*
X181380952Y-133814857D01*
X181380952Y-133814857D02*
X181285714Y-133776761D01*
X181285714Y-133776761D02*
X181238095Y-133738666D01*
X181238095Y-133738666D02*
X181190476Y-133662476D01*
X181190476Y-133662476D02*
X181190476Y-133586285D01*
X181190476Y-133586285D02*
X181238095Y-133510095D01*
X181238095Y-133510095D02*
X181285714Y-133472000D01*
X181285714Y-133472000D02*
X181380952Y-133433904D01*
X181380952Y-133433904D02*
X181619047Y-133433904D01*
X181619047Y-133433904D02*
X181761904Y-133472000D01*
X182190476Y-134233904D02*
X182190476Y-133433904D01*
X182523809Y-133433904D02*
X182857142Y-134233904D01*
X182857142Y-134233904D02*
X183190475Y-133433904D01*
X183523809Y-133433904D02*
X183523809Y-134081523D01*
X183523809Y-134081523D02*
X183571428Y-134157714D01*
X183571428Y-134157714D02*
X183619047Y-134195809D01*
X183619047Y-134195809D02*
X183714285Y-134233904D01*
X183714285Y-134233904D02*
X183904761Y-134233904D01*
X183904761Y-134233904D02*
X183999999Y-134195809D01*
X183999999Y-134195809D02*
X184047618Y-134157714D01*
X184047618Y-134157714D02*
X184095237Y-134081523D01*
X184095237Y-134081523D02*
X184095237Y-133433904D01*
X184761904Y-133852952D02*
X184761904Y-134233904D01*
X184428571Y-133433904D02*
X184761904Y-133852952D01*
X184761904Y-133852952D02*
X185095237Y-133433904D01*
X185428571Y-134233904D02*
X185428571Y-133433904D01*
X186380951Y-134233904D02*
X185904761Y-134233904D01*
X185904761Y-134233904D02*
X185904761Y-133433904D01*
X186714285Y-133814857D02*
X187047618Y-133814857D01*
X187190475Y-134233904D02*
X186714285Y-134233904D01*
X186714285Y-134233904D02*
X186714285Y-133433904D01*
X186714285Y-133433904D02*
X187190475Y-133433904D01*
X188219047Y-134233904D02*
X188219047Y-133433904D01*
X188219047Y-133433904D02*
X188790475Y-134233904D01*
X188790475Y-134233904D02*
X188790475Y-133433904D01*
X189457142Y-133433904D02*
X189647618Y-133433904D01*
X189647618Y-133433904D02*
X189742856Y-133472000D01*
X189742856Y-133472000D02*
X189838094Y-133548190D01*
X189838094Y-133548190D02*
X189885713Y-133700571D01*
X189885713Y-133700571D02*
X189885713Y-133967238D01*
X189885713Y-133967238D02*
X189838094Y-134119619D01*
X189838094Y-134119619D02*
X189742856Y-134195809D01*
X189742856Y-134195809D02*
X189647618Y-134233904D01*
X189647618Y-134233904D02*
X189457142Y-134233904D01*
X189457142Y-134233904D02*
X189361904Y-134195809D01*
X189361904Y-134195809D02*
X189266666Y-134119619D01*
X189266666Y-134119619D02*
X189219047Y-133967238D01*
X189219047Y-133967238D02*
X189219047Y-133700571D01*
X189219047Y-133700571D02*
X189266666Y-133548190D01*
X189266666Y-133548190D02*
X189361904Y-133472000D01*
X189361904Y-133472000D02*
X189457142Y-133433904D01*
X190266666Y-134195809D02*
X190409523Y-134233904D01*
X190409523Y-134233904D02*
X190647618Y-134233904D01*
X190647618Y-134233904D02*
X190742856Y-134195809D01*
X190742856Y-134195809D02*
X190790475Y-134157714D01*
X190790475Y-134157714D02*
X190838094Y-134081523D01*
X190838094Y-134081523D02*
X190838094Y-134005333D01*
X190838094Y-134005333D02*
X190790475Y-133929142D01*
X190790475Y-133929142D02*
X190742856Y-133891047D01*
X190742856Y-133891047D02*
X190647618Y-133852952D01*
X190647618Y-133852952D02*
X190457142Y-133814857D01*
X190457142Y-133814857D02*
X190361904Y-133776761D01*
X190361904Y-133776761D02*
X190314285Y-133738666D01*
X190314285Y-133738666D02*
X190266666Y-133662476D01*
X190266666Y-133662476D02*
X190266666Y-133586285D01*
X190266666Y-133586285D02*
X190314285Y-133510095D01*
X190314285Y-133510095D02*
X190361904Y-133472000D01*
X190361904Y-133472000D02*
X190457142Y-133433904D01*
X190457142Y-133433904D02*
X190695237Y-133433904D01*
X190695237Y-133433904D02*
X190838094Y-133472000D01*
X191266666Y-133814857D02*
X191599999Y-133814857D01*
X191742856Y-134233904D02*
X191266666Y-134233904D01*
X191266666Y-134233904D02*
X191266666Y-133433904D01*
X191266666Y-133433904D02*
X191742856Y-133433904D01*
X181095238Y-134729904D02*
X181666666Y-134729904D01*
X181380952Y-135529904D02*
X181380952Y-134729904D01*
X181952381Y-135301333D02*
X182428571Y-135301333D01*
X181857143Y-135529904D02*
X182190476Y-134729904D01*
X182190476Y-134729904D02*
X182523809Y-135529904D01*
X183333333Y-135529904D02*
X182857143Y-135529904D01*
X182857143Y-135529904D02*
X182857143Y-134729904D01*
X183666667Y-135529904D02*
X183666667Y-134729904D01*
X184476190Y-135110857D02*
X184142857Y-135110857D01*
X184142857Y-135529904D02*
X184142857Y-134729904D01*
X184142857Y-134729904D02*
X184619047Y-134729904D01*
X185000000Y-135529904D02*
X185000000Y-134729904D01*
X185000000Y-135110857D02*
X185571428Y-135110857D01*
X185571428Y-135529904D02*
X185571428Y-134729904D01*
X186000000Y-135301333D02*
X186476190Y-135301333D01*
X185904762Y-135529904D02*
X186238095Y-134729904D01*
X186238095Y-134729904D02*
X186571428Y-135529904D01*
X186904762Y-135529904D02*
X186904762Y-134729904D01*
X186904762Y-134729904D02*
X187476190Y-135529904D01*
X187476190Y-135529904D02*
X187476190Y-134729904D01*
X187952381Y-135529904D02*
X187952381Y-134729904D01*
X189028571Y-135529904D02*
X189028571Y-134729904D01*
X189028571Y-134729904D02*
X189599999Y-135529904D01*
X189599999Y-135529904D02*
X189599999Y-134729904D01*
X190076190Y-135110857D02*
X190409523Y-135110857D01*
X190552380Y-135529904D02*
X190076190Y-135529904D01*
X190076190Y-135529904D02*
X190076190Y-134729904D01*
X190076190Y-134729904D02*
X190552380Y-134729904D01*
X190980952Y-135529904D02*
X190980952Y-134729904D01*
X190980952Y-134729904D02*
X191314285Y-135301333D01*
X191314285Y-135301333D02*
X191647618Y-134729904D01*
X191647618Y-134729904D02*
X191647618Y-135529904D01*
X192076190Y-135301333D02*
X192552380Y-135301333D01*
X191980952Y-135529904D02*
X192314285Y-134729904D01*
X192314285Y-134729904D02*
X192647618Y-135529904D01*
X192933333Y-135301333D02*
X193409523Y-135301333D01*
X192838095Y-135529904D02*
X193171428Y-134729904D01*
X193171428Y-134729904D02*
X193504761Y-135529904D01*
X193838095Y-135529904D02*
X193838095Y-134729904D01*
X193838095Y-134729904D02*
X194409523Y-135529904D01*
X194409523Y-135529904D02*
X194409523Y-134729904D01*
X195409523Y-134768000D02*
X195314285Y-134729904D01*
X195314285Y-134729904D02*
X195171428Y-134729904D01*
X195171428Y-134729904D02*
X195028571Y-134768000D01*
X195028571Y-134768000D02*
X194933333Y-134844190D01*
X194933333Y-134844190D02*
X194885714Y-134920380D01*
X194885714Y-134920380D02*
X194838095Y-135072761D01*
X194838095Y-135072761D02*
X194838095Y-135187047D01*
X194838095Y-135187047D02*
X194885714Y-135339428D01*
X194885714Y-135339428D02*
X194933333Y-135415619D01*
X194933333Y-135415619D02*
X195028571Y-135491809D01*
X195028571Y-135491809D02*
X195171428Y-135529904D01*
X195171428Y-135529904D02*
X195266666Y-135529904D01*
X195266666Y-135529904D02*
X195409523Y-135491809D01*
X195409523Y-135491809D02*
X195457142Y-135453714D01*
X195457142Y-135453714D02*
X195457142Y-135187047D01*
X195457142Y-135187047D02*
X195266666Y-135187047D01*
X195838095Y-135301333D02*
X196314285Y-135301333D01*
X195742857Y-135529904D02*
X196076190Y-134729904D01*
X196076190Y-134729904D02*
X196409523Y-135529904D01*
X196742857Y-135529904D02*
X196742857Y-134729904D01*
X196742857Y-134729904D02*
X197314285Y-135529904D01*
X197314285Y-135529904D02*
X197314285Y-134729904D01*
X197790476Y-135529904D02*
X197790476Y-134729904D01*
X133000000Y-85000000D02*
X103000000Y-85000000D01*
X133000000Y-106000000D02*
X133000000Y-85000000D01*
X200000000Y-106000000D02*
X133000000Y-106000000D01*
X200000000Y-137000000D02*
X200000000Y-106000000D01*
X103000000Y-137000000D02*
X200000000Y-137000000D01*
X103000000Y-136000000D02*
X103000000Y-137000000D01*
X103000000Y-106000000D02*
X103000000Y-136000000D01*
X103000000Y-85000000D02*
X103000000Y-106000000D01*
X175000000Y-84000000D02*
X115000000Y-84000000D01*
X175000000Y-85000000D02*
X175000000Y-84000000D01*
X175000000Y-90000000D02*
X175000000Y-85000000D01*
X190000000Y-62230000D02*
X190000000Y-90000000D01*
X115000000Y-62230000D02*
X190000000Y-62230000D01*
X115000000Y-84000000D02*
X115000000Y-62230000D01*
X173990000Y-85090000D02*
X134620000Y-85090000D01*
X173990000Y-90170000D02*
X173990000Y-85090000D01*
X191000000Y-92000000D02*
X174000000Y-92000000D01*
X134620000Y-104000000D02*
X191000000Y-104000000D01*
X134620000Y-85090000D02*
X134620000Y-104000000D01*
%TO.C,U4*%
X189985371Y-120271091D02*
X190794895Y-120271091D01*
X190794895Y-120271091D02*
X190890133Y-120223472D01*
X190890133Y-120223472D02*
X190937752Y-120175853D01*
X190937752Y-120175853D02*
X190985371Y-120080615D01*
X190985371Y-120080615D02*
X190985371Y-119890139D01*
X190985371Y-119890139D02*
X190937752Y-119794901D01*
X190937752Y-119794901D02*
X190890133Y-119747282D01*
X190890133Y-119747282D02*
X190794895Y-119699663D01*
X190794895Y-119699663D02*
X189985371Y-119699663D01*
X190318705Y-118794901D02*
X190985371Y-118794901D01*
X189937752Y-119032996D02*
X190652038Y-119271091D01*
X190652038Y-119271091D02*
X190652038Y-118652044D01*
%TO.C,U3*%
X125880266Y-95896085D02*
X126689790Y-95896085D01*
X126689790Y-95896085D02*
X126785028Y-95848466D01*
X126785028Y-95848466D02*
X126832647Y-95800847D01*
X126832647Y-95800847D02*
X126880266Y-95705609D01*
X126880266Y-95705609D02*
X126880266Y-95515133D01*
X126880266Y-95515133D02*
X126832647Y-95419895D01*
X126832647Y-95419895D02*
X126785028Y-95372276D01*
X126785028Y-95372276D02*
X126689790Y-95324657D01*
X126689790Y-95324657D02*
X125880266Y-95324657D01*
X125880266Y-94943704D02*
X125880266Y-94324657D01*
X125880266Y-94324657D02*
X126261219Y-94657990D01*
X126261219Y-94657990D02*
X126261219Y-94515133D01*
X126261219Y-94515133D02*
X126308838Y-94419895D01*
X126308838Y-94419895D02*
X126356457Y-94372276D01*
X126356457Y-94372276D02*
X126451695Y-94324657D01*
X126451695Y-94324657D02*
X126689790Y-94324657D01*
X126689790Y-94324657D02*
X126785028Y-94372276D01*
X126785028Y-94372276D02*
X126832647Y-94419895D01*
X126832647Y-94419895D02*
X126880266Y-94515133D01*
X126880266Y-94515133D02*
X126880266Y-94800847D01*
X126880266Y-94800847D02*
X126832647Y-94896085D01*
X126832647Y-94896085D02*
X126785028Y-94943704D01*
%TO.C,R5*%
X165757657Y-66945853D02*
X165281467Y-67279186D01*
X165757657Y-67517281D02*
X164757657Y-67517281D01*
X164757657Y-67517281D02*
X164757657Y-67136329D01*
X164757657Y-67136329D02*
X164805277Y-67041091D01*
X164805277Y-67041091D02*
X164852896Y-66993472D01*
X164852896Y-66993472D02*
X164948134Y-66945853D01*
X164948134Y-66945853D02*
X165090991Y-66945853D01*
X165090991Y-66945853D02*
X165186229Y-66993472D01*
X165186229Y-66993472D02*
X165233848Y-67041091D01*
X165233848Y-67041091D02*
X165281467Y-67136329D01*
X165281467Y-67136329D02*
X165281467Y-67517281D01*
X164757657Y-66041091D02*
X164757657Y-66517281D01*
X164757657Y-66517281D02*
X165233848Y-66564900D01*
X165233848Y-66564900D02*
X165186229Y-66517281D01*
X165186229Y-66517281D02*
X165138610Y-66422043D01*
X165138610Y-66422043D02*
X165138610Y-66183948D01*
X165138610Y-66183948D02*
X165186229Y-66088710D01*
X165186229Y-66088710D02*
X165233848Y-66041091D01*
X165233848Y-66041091D02*
X165329086Y-65993472D01*
X165329086Y-65993472D02*
X165567181Y-65993472D01*
X165567181Y-65993472D02*
X165662419Y-66041091D01*
X165662419Y-66041091D02*
X165710038Y-66088710D01*
X165710038Y-66088710D02*
X165757657Y-66183948D01*
X165757657Y-66183948D02*
X165757657Y-66422043D01*
X165757657Y-66422043D02*
X165710038Y-66517281D01*
X165710038Y-66517281D02*
X165662419Y-66564900D01*
%TO.C,R4*%
X148851663Y-66945853D02*
X148375473Y-67279186D01*
X148851663Y-67517281D02*
X147851663Y-67517281D01*
X147851663Y-67517281D02*
X147851663Y-67136329D01*
X147851663Y-67136329D02*
X147899283Y-67041091D01*
X147899283Y-67041091D02*
X147946902Y-66993472D01*
X147946902Y-66993472D02*
X148042140Y-66945853D01*
X148042140Y-66945853D02*
X148184997Y-66945853D01*
X148184997Y-66945853D02*
X148280235Y-66993472D01*
X148280235Y-66993472D02*
X148327854Y-67041091D01*
X148327854Y-67041091D02*
X148375473Y-67136329D01*
X148375473Y-67136329D02*
X148375473Y-67517281D01*
X148184997Y-66088710D02*
X148851663Y-66088710D01*
X147804044Y-66326805D02*
X148518330Y-66564900D01*
X148518330Y-66564900D02*
X148518330Y-65945853D01*
%TO.C,R2*%
X129846075Y-66493427D02*
X129369885Y-66826760D01*
X129846075Y-67064855D02*
X128846075Y-67064855D01*
X128846075Y-67064855D02*
X128846075Y-66683903D01*
X128846075Y-66683903D02*
X128893695Y-66588665D01*
X128893695Y-66588665D02*
X128941314Y-66541046D01*
X128941314Y-66541046D02*
X129036552Y-66493427D01*
X129036552Y-66493427D02*
X129179409Y-66493427D01*
X129179409Y-66493427D02*
X129274647Y-66541046D01*
X129274647Y-66541046D02*
X129322266Y-66588665D01*
X129322266Y-66588665D02*
X129369885Y-66683903D01*
X129369885Y-66683903D02*
X129369885Y-67064855D01*
X128941314Y-66112474D02*
X128893695Y-66064855D01*
X128893695Y-66064855D02*
X128846075Y-65969617D01*
X128846075Y-65969617D02*
X128846075Y-65731522D01*
X128846075Y-65731522D02*
X128893695Y-65636284D01*
X128893695Y-65636284D02*
X128941314Y-65588665D01*
X128941314Y-65588665D02*
X129036552Y-65541046D01*
X129036552Y-65541046D02*
X129131790Y-65541046D01*
X129131790Y-65541046D02*
X129274647Y-65588665D01*
X129274647Y-65588665D02*
X129846075Y-66160093D01*
X129846075Y-66160093D02*
X129846075Y-65541046D01*
%TO.C,Q1*%
X165545962Y-67824311D02*
X165498343Y-67919549D01*
X165498343Y-67919549D02*
X165403104Y-68014787D01*
X165403104Y-68014787D02*
X165260247Y-68157644D01*
X165260247Y-68157644D02*
X165212628Y-68252882D01*
X165212628Y-68252882D02*
X165212628Y-68348120D01*
X165450723Y-68300501D02*
X165403104Y-68395739D01*
X165403104Y-68395739D02*
X165307866Y-68490977D01*
X165307866Y-68490977D02*
X165117390Y-68538596D01*
X165117390Y-68538596D02*
X164784057Y-68538596D01*
X164784057Y-68538596D02*
X164593581Y-68490977D01*
X164593581Y-68490977D02*
X164498343Y-68395739D01*
X164498343Y-68395739D02*
X164450723Y-68300501D01*
X164450723Y-68300501D02*
X164450723Y-68110025D01*
X164450723Y-68110025D02*
X164498343Y-68014787D01*
X164498343Y-68014787D02*
X164593581Y-67919549D01*
X164593581Y-67919549D02*
X164784057Y-67871930D01*
X164784057Y-67871930D02*
X165117390Y-67871930D01*
X165117390Y-67871930D02*
X165307866Y-67919549D01*
X165307866Y-67919549D02*
X165403104Y-68014787D01*
X165403104Y-68014787D02*
X165450723Y-68110025D01*
X165450723Y-68110025D02*
X165450723Y-68300501D01*
X165450723Y-66919549D02*
X165450723Y-67490977D01*
X165450723Y-67205263D02*
X164450723Y-67205263D01*
X164450723Y-67205263D02*
X164593581Y-67300501D01*
X164593581Y-67300501D02*
X164688819Y-67395739D01*
X164688819Y-67395739D02*
X164736438Y-67490977D01*
%TO.C,J6*%
X113350209Y-78953336D02*
X114064495Y-78953336D01*
X114064495Y-78953336D02*
X114207352Y-79000955D01*
X114207352Y-79000955D02*
X114302590Y-79096193D01*
X114302590Y-79096193D02*
X114350209Y-79239050D01*
X114350209Y-79239050D02*
X114350209Y-79334288D01*
X113350209Y-78048574D02*
X113350209Y-78239050D01*
X113350209Y-78239050D02*
X113397829Y-78334288D01*
X113397829Y-78334288D02*
X113445448Y-78381907D01*
X113445448Y-78381907D02*
X113588305Y-78477145D01*
X113588305Y-78477145D02*
X113778781Y-78524764D01*
X113778781Y-78524764D02*
X114159733Y-78524764D01*
X114159733Y-78524764D02*
X114254971Y-78477145D01*
X114254971Y-78477145D02*
X114302590Y-78429526D01*
X114302590Y-78429526D02*
X114350209Y-78334288D01*
X114350209Y-78334288D02*
X114350209Y-78143812D01*
X114350209Y-78143812D02*
X114302590Y-78048574D01*
X114302590Y-78048574D02*
X114254971Y-78000955D01*
X114254971Y-78000955D02*
X114159733Y-77953336D01*
X114159733Y-77953336D02*
X113921638Y-77953336D01*
X113921638Y-77953336D02*
X113826400Y-78000955D01*
X113826400Y-78000955D02*
X113778781Y-78048574D01*
X113778781Y-78048574D02*
X113731162Y-78143812D01*
X113731162Y-78143812D02*
X113731162Y-78334288D01*
X113731162Y-78334288D02*
X113778781Y-78429526D01*
X113778781Y-78429526D02*
X113826400Y-78477145D01*
X113826400Y-78477145D02*
X113921638Y-78524764D01*
%TO.C,IC2*%
X168385371Y-98085376D02*
X167385371Y-98085376D01*
X168290133Y-97037758D02*
X168337752Y-97085377D01*
X168337752Y-97085377D02*
X168385371Y-97228234D01*
X168385371Y-97228234D02*
X168385371Y-97323472D01*
X168385371Y-97323472D02*
X168337752Y-97466329D01*
X168337752Y-97466329D02*
X168242514Y-97561567D01*
X168242514Y-97561567D02*
X168147276Y-97609186D01*
X168147276Y-97609186D02*
X167956800Y-97656805D01*
X167956800Y-97656805D02*
X167813943Y-97656805D01*
X167813943Y-97656805D02*
X167623467Y-97609186D01*
X167623467Y-97609186D02*
X167528229Y-97561567D01*
X167528229Y-97561567D02*
X167432991Y-97466329D01*
X167432991Y-97466329D02*
X167385371Y-97323472D01*
X167385371Y-97323472D02*
X167385371Y-97228234D01*
X167385371Y-97228234D02*
X167432991Y-97085377D01*
X167432991Y-97085377D02*
X167480610Y-97037758D01*
X167480610Y-96656805D02*
X167432991Y-96609186D01*
X167432991Y-96609186D02*
X167385371Y-96513948D01*
X167385371Y-96513948D02*
X167385371Y-96275853D01*
X167385371Y-96275853D02*
X167432991Y-96180615D01*
X167432991Y-96180615D02*
X167480610Y-96132996D01*
X167480610Y-96132996D02*
X167575848Y-96085377D01*
X167575848Y-96085377D02*
X167671086Y-96085377D01*
X167671086Y-96085377D02*
X167813943Y-96132996D01*
X167813943Y-96132996D02*
X168385371Y-96704424D01*
X168385371Y-96704424D02*
X168385371Y-96085377D01*
%TO.C,IC1*%
X157236747Y-83976440D02*
X157236747Y-82976440D01*
X158284365Y-83881202D02*
X158236746Y-83928821D01*
X158236746Y-83928821D02*
X158093889Y-83976440D01*
X158093889Y-83976440D02*
X157998651Y-83976440D01*
X157998651Y-83976440D02*
X157855794Y-83928821D01*
X157855794Y-83928821D02*
X157760556Y-83833583D01*
X157760556Y-83833583D02*
X157712937Y-83738345D01*
X157712937Y-83738345D02*
X157665318Y-83547869D01*
X157665318Y-83547869D02*
X157665318Y-83405012D01*
X157665318Y-83405012D02*
X157712937Y-83214536D01*
X157712937Y-83214536D02*
X157760556Y-83119298D01*
X157760556Y-83119298D02*
X157855794Y-83024060D01*
X157855794Y-83024060D02*
X157998651Y-82976440D01*
X157998651Y-82976440D02*
X158093889Y-82976440D01*
X158093889Y-82976440D02*
X158236746Y-83024060D01*
X158236746Y-83024060D02*
X158284365Y-83071679D01*
X159236746Y-83976440D02*
X158665318Y-83976440D01*
X158951032Y-83976440D02*
X158951032Y-82976440D01*
X158951032Y-82976440D02*
X158855794Y-83119298D01*
X158855794Y-83119298D02*
X158760556Y-83214536D01*
X158760556Y-83214536D02*
X158665318Y-83262155D01*
%TO.C,C8*%
X196677637Y-113283270D02*
X196725256Y-113330889D01*
X196725256Y-113330889D02*
X196772875Y-113473746D01*
X196772875Y-113473746D02*
X196772875Y-113568984D01*
X196772875Y-113568984D02*
X196725256Y-113711841D01*
X196725256Y-113711841D02*
X196630018Y-113807079D01*
X196630018Y-113807079D02*
X196534780Y-113854698D01*
X196534780Y-113854698D02*
X196344304Y-113902317D01*
X196344304Y-113902317D02*
X196201447Y-113902317D01*
X196201447Y-113902317D02*
X196010971Y-113854698D01*
X196010971Y-113854698D02*
X195915733Y-113807079D01*
X195915733Y-113807079D02*
X195820495Y-113711841D01*
X195820495Y-113711841D02*
X195772875Y-113568984D01*
X195772875Y-113568984D02*
X195772875Y-113473746D01*
X195772875Y-113473746D02*
X195820495Y-113330889D01*
X195820495Y-113330889D02*
X195868114Y-113283270D01*
X196201447Y-112711841D02*
X196153828Y-112807079D01*
X196153828Y-112807079D02*
X196106209Y-112854698D01*
X196106209Y-112854698D02*
X196010971Y-112902317D01*
X196010971Y-112902317D02*
X195963352Y-112902317D01*
X195963352Y-112902317D02*
X195868114Y-112854698D01*
X195868114Y-112854698D02*
X195820495Y-112807079D01*
X195820495Y-112807079D02*
X195772875Y-112711841D01*
X195772875Y-112711841D02*
X195772875Y-112521365D01*
X195772875Y-112521365D02*
X195820495Y-112426127D01*
X195820495Y-112426127D02*
X195868114Y-112378508D01*
X195868114Y-112378508D02*
X195963352Y-112330889D01*
X195963352Y-112330889D02*
X196010971Y-112330889D01*
X196010971Y-112330889D02*
X196106209Y-112378508D01*
X196106209Y-112378508D02*
X196153828Y-112426127D01*
X196153828Y-112426127D02*
X196201447Y-112521365D01*
X196201447Y-112521365D02*
X196201447Y-112711841D01*
X196201447Y-112711841D02*
X196249066Y-112807079D01*
X196249066Y-112807079D02*
X196296685Y-112854698D01*
X196296685Y-112854698D02*
X196391923Y-112902317D01*
X196391923Y-112902317D02*
X196582399Y-112902317D01*
X196582399Y-112902317D02*
X196677637Y-112854698D01*
X196677637Y-112854698D02*
X196725256Y-112807079D01*
X196725256Y-112807079D02*
X196772875Y-112711841D01*
X196772875Y-112711841D02*
X196772875Y-112521365D01*
X196772875Y-112521365D02*
X196725256Y-112426127D01*
X196725256Y-112426127D02*
X196677637Y-112378508D01*
X196677637Y-112378508D02*
X196582399Y-112330889D01*
X196582399Y-112330889D02*
X196391923Y-112330889D01*
X196391923Y-112330889D02*
X196296685Y-112378508D01*
X196296685Y-112378508D02*
X196249066Y-112426127D01*
X196249066Y-112426127D02*
X196201447Y-112521365D01*
%TO.C,C7*%
X134477637Y-88483270D02*
X134525256Y-88530889D01*
X134525256Y-88530889D02*
X134572875Y-88673746D01*
X134572875Y-88673746D02*
X134572875Y-88768984D01*
X134572875Y-88768984D02*
X134525256Y-88911841D01*
X134525256Y-88911841D02*
X134430018Y-89007079D01*
X134430018Y-89007079D02*
X134334780Y-89054698D01*
X134334780Y-89054698D02*
X134144304Y-89102317D01*
X134144304Y-89102317D02*
X134001447Y-89102317D01*
X134001447Y-89102317D02*
X133810971Y-89054698D01*
X133810971Y-89054698D02*
X133715733Y-89007079D01*
X133715733Y-89007079D02*
X133620495Y-88911841D01*
X133620495Y-88911841D02*
X133572875Y-88768984D01*
X133572875Y-88768984D02*
X133572875Y-88673746D01*
X133572875Y-88673746D02*
X133620495Y-88530889D01*
X133620495Y-88530889D02*
X133668114Y-88483270D01*
X133572875Y-88149936D02*
X133572875Y-87483270D01*
X133572875Y-87483270D02*
X134572875Y-87911841D01*
%TO.C,C6*%
X163992419Y-88145770D02*
X164040038Y-88193389D01*
X164040038Y-88193389D02*
X164087657Y-88336246D01*
X164087657Y-88336246D02*
X164087657Y-88431484D01*
X164087657Y-88431484D02*
X164040038Y-88574341D01*
X164040038Y-88574341D02*
X163944800Y-88669579D01*
X163944800Y-88669579D02*
X163849562Y-88717198D01*
X163849562Y-88717198D02*
X163659086Y-88764817D01*
X163659086Y-88764817D02*
X163516229Y-88764817D01*
X163516229Y-88764817D02*
X163325753Y-88717198D01*
X163325753Y-88717198D02*
X163230515Y-88669579D01*
X163230515Y-88669579D02*
X163135277Y-88574341D01*
X163135277Y-88574341D02*
X163087657Y-88431484D01*
X163087657Y-88431484D02*
X163087657Y-88336246D01*
X163087657Y-88336246D02*
X163135277Y-88193389D01*
X163135277Y-88193389D02*
X163182896Y-88145770D01*
X163087657Y-87288627D02*
X163087657Y-87479103D01*
X163087657Y-87479103D02*
X163135277Y-87574341D01*
X163135277Y-87574341D02*
X163182896Y-87621960D01*
X163182896Y-87621960D02*
X163325753Y-87717198D01*
X163325753Y-87717198D02*
X163516229Y-87764817D01*
X163516229Y-87764817D02*
X163897181Y-87764817D01*
X163897181Y-87764817D02*
X163992419Y-87717198D01*
X163992419Y-87717198D02*
X164040038Y-87669579D01*
X164040038Y-87669579D02*
X164087657Y-87574341D01*
X164087657Y-87574341D02*
X164087657Y-87383865D01*
X164087657Y-87383865D02*
X164040038Y-87288627D01*
X164040038Y-87288627D02*
X163992419Y-87241008D01*
X163992419Y-87241008D02*
X163897181Y-87193389D01*
X163897181Y-87193389D02*
X163659086Y-87193389D01*
X163659086Y-87193389D02*
X163563848Y-87241008D01*
X163563848Y-87241008D02*
X163516229Y-87288627D01*
X163516229Y-87288627D02*
X163468610Y-87383865D01*
X163468610Y-87383865D02*
X163468610Y-87574341D01*
X163468610Y-87574341D02*
X163516229Y-87669579D01*
X163516229Y-87669579D02*
X163563848Y-87717198D01*
X163563848Y-87717198D02*
X163659086Y-87764817D01*
%TO.C,C5*%
X170177637Y-80183270D02*
X170225256Y-80230889D01*
X170225256Y-80230889D02*
X170272875Y-80373746D01*
X170272875Y-80373746D02*
X170272875Y-80468984D01*
X170272875Y-80468984D02*
X170225256Y-80611841D01*
X170225256Y-80611841D02*
X170130018Y-80707079D01*
X170130018Y-80707079D02*
X170034780Y-80754698D01*
X170034780Y-80754698D02*
X169844304Y-80802317D01*
X169844304Y-80802317D02*
X169701447Y-80802317D01*
X169701447Y-80802317D02*
X169510971Y-80754698D01*
X169510971Y-80754698D02*
X169415733Y-80707079D01*
X169415733Y-80707079D02*
X169320495Y-80611841D01*
X169320495Y-80611841D02*
X169272875Y-80468984D01*
X169272875Y-80468984D02*
X169272875Y-80373746D01*
X169272875Y-80373746D02*
X169320495Y-80230889D01*
X169320495Y-80230889D02*
X169368114Y-80183270D01*
X169272875Y-79278508D02*
X169272875Y-79754698D01*
X169272875Y-79754698D02*
X169749066Y-79802317D01*
X169749066Y-79802317D02*
X169701447Y-79754698D01*
X169701447Y-79754698D02*
X169653828Y-79659460D01*
X169653828Y-79659460D02*
X169653828Y-79421365D01*
X169653828Y-79421365D02*
X169701447Y-79326127D01*
X169701447Y-79326127D02*
X169749066Y-79278508D01*
X169749066Y-79278508D02*
X169844304Y-79230889D01*
X169844304Y-79230889D02*
X170082399Y-79230889D01*
X170082399Y-79230889D02*
X170177637Y-79278508D01*
X170177637Y-79278508D02*
X170225256Y-79326127D01*
X170225256Y-79326127D02*
X170272875Y-79421365D01*
X170272875Y-79421365D02*
X170272875Y-79659460D01*
X170272875Y-79659460D02*
X170225256Y-79754698D01*
X170225256Y-79754698D02*
X170177637Y-79802317D01*
%TO.C,BT1*%
X151127171Y-49977758D02*
X151270028Y-50025377D01*
X151270028Y-50025377D02*
X151317647Y-50072996D01*
X151317647Y-50072996D02*
X151365266Y-50168234D01*
X151365266Y-50168234D02*
X151365266Y-50311091D01*
X151365266Y-50311091D02*
X151317647Y-50406329D01*
X151317647Y-50406329D02*
X151270028Y-50453948D01*
X151270028Y-50453948D02*
X151174790Y-50501567D01*
X151174790Y-50501567D02*
X150793838Y-50501567D01*
X150793838Y-50501567D02*
X150793838Y-49501567D01*
X150793838Y-49501567D02*
X151127171Y-49501567D01*
X151127171Y-49501567D02*
X151222409Y-49549187D01*
X151222409Y-49549187D02*
X151270028Y-49596806D01*
X151270028Y-49596806D02*
X151317647Y-49692044D01*
X151317647Y-49692044D02*
X151317647Y-49787282D01*
X151317647Y-49787282D02*
X151270028Y-49882520D01*
X151270028Y-49882520D02*
X151222409Y-49930139D01*
X151222409Y-49930139D02*
X151127171Y-49977758D01*
X151127171Y-49977758D02*
X150793838Y-49977758D01*
X151650981Y-49501567D02*
X152222409Y-49501567D01*
X151936695Y-50501567D02*
X151936695Y-49501567D01*
X153079552Y-50501567D02*
X152508124Y-50501567D01*
X152793838Y-50501567D02*
X152793838Y-49501567D01*
X152793838Y-49501567D02*
X152698600Y-49644425D01*
X152698600Y-49644425D02*
X152603362Y-49739663D01*
X152603362Y-49739663D02*
X152508124Y-49787282D01*
%TO.C,J7*%
X104579552Y-93406567D02*
X104579552Y-94120853D01*
X104579552Y-94120853D02*
X104531933Y-94263710D01*
X104531933Y-94263710D02*
X104436695Y-94358948D01*
X104436695Y-94358948D02*
X104293838Y-94406567D01*
X104293838Y-94406567D02*
X104198600Y-94406567D01*
X104960505Y-93406567D02*
X105627171Y-93406567D01*
X105627171Y-93406567D02*
X105198600Y-94406567D01*
%TO.C,J10*%
X194903362Y-78646567D02*
X194903362Y-79360853D01*
X194903362Y-79360853D02*
X194855743Y-79503710D01*
X194855743Y-79503710D02*
X194760505Y-79598948D01*
X194760505Y-79598948D02*
X194617648Y-79646567D01*
X194617648Y-79646567D02*
X194522410Y-79646567D01*
X195903362Y-79646567D02*
X195331934Y-79646567D01*
X195617648Y-79646567D02*
X195617648Y-78646567D01*
X195617648Y-78646567D02*
X195522410Y-78789425D01*
X195522410Y-78789425D02*
X195427172Y-78884663D01*
X195427172Y-78884663D02*
X195331934Y-78932282D01*
X196522410Y-78646567D02*
X196617648Y-78646567D01*
X196617648Y-78646567D02*
X196712886Y-78694187D01*
X196712886Y-78694187D02*
X196760505Y-78741806D01*
X196760505Y-78741806D02*
X196808124Y-78837044D01*
X196808124Y-78837044D02*
X196855743Y-79027520D01*
X196855743Y-79027520D02*
X196855743Y-79265615D01*
X196855743Y-79265615D02*
X196808124Y-79456091D01*
X196808124Y-79456091D02*
X196760505Y-79551329D01*
X196760505Y-79551329D02*
X196712886Y-79598948D01*
X196712886Y-79598948D02*
X196617648Y-79646567D01*
X196617648Y-79646567D02*
X196522410Y-79646567D01*
X196522410Y-79646567D02*
X196427172Y-79598948D01*
X196427172Y-79598948D02*
X196379553Y-79551329D01*
X196379553Y-79551329D02*
X196331934Y-79456091D01*
X196331934Y-79456091D02*
X196284315Y-79265615D01*
X196284315Y-79265615D02*
X196284315Y-79027520D01*
X196284315Y-79027520D02*
X196331934Y-78837044D01*
X196331934Y-78837044D02*
X196379553Y-78741806D01*
X196379553Y-78741806D02*
X196427172Y-78694187D01*
X196427172Y-78694187D02*
X196522410Y-78646567D01*
%TO.C,C3*%
X121105028Y-66320853D02*
X121152647Y-66368472D01*
X121152647Y-66368472D02*
X121200266Y-66511329D01*
X121200266Y-66511329D02*
X121200266Y-66606567D01*
X121200266Y-66606567D02*
X121152647Y-66749424D01*
X121152647Y-66749424D02*
X121057409Y-66844662D01*
X121057409Y-66844662D02*
X120962171Y-66892281D01*
X120962171Y-66892281D02*
X120771695Y-66939900D01*
X120771695Y-66939900D02*
X120628838Y-66939900D01*
X120628838Y-66939900D02*
X120438362Y-66892281D01*
X120438362Y-66892281D02*
X120343124Y-66844662D01*
X120343124Y-66844662D02*
X120247886Y-66749424D01*
X120247886Y-66749424D02*
X120200266Y-66606567D01*
X120200266Y-66606567D02*
X120200266Y-66511329D01*
X120200266Y-66511329D02*
X120247886Y-66368472D01*
X120247886Y-66368472D02*
X120295505Y-66320853D01*
X120200266Y-65987519D02*
X120200266Y-65368472D01*
X120200266Y-65368472D02*
X120581219Y-65701805D01*
X120581219Y-65701805D02*
X120581219Y-65558948D01*
X120581219Y-65558948D02*
X120628838Y-65463710D01*
X120628838Y-65463710D02*
X120676457Y-65416091D01*
X120676457Y-65416091D02*
X120771695Y-65368472D01*
X120771695Y-65368472D02*
X121009790Y-65368472D01*
X121009790Y-65368472D02*
X121105028Y-65416091D01*
X121105028Y-65416091D02*
X121152647Y-65463710D01*
X121152647Y-65463710D02*
X121200266Y-65558948D01*
X121200266Y-65558948D02*
X121200266Y-65844662D01*
X121200266Y-65844662D02*
X121152647Y-65939900D01*
X121152647Y-65939900D02*
X121105028Y-65987519D01*
%TO.C,U2*%
X141358481Y-64696567D02*
X141358481Y-65506091D01*
X141358481Y-65506091D02*
X141406100Y-65601329D01*
X141406100Y-65601329D02*
X141453719Y-65648948D01*
X141453719Y-65648948D02*
X141548957Y-65696567D01*
X141548957Y-65696567D02*
X141739433Y-65696567D01*
X141739433Y-65696567D02*
X141834671Y-65648948D01*
X141834671Y-65648948D02*
X141882290Y-65601329D01*
X141882290Y-65601329D02*
X141929909Y-65506091D01*
X141929909Y-65506091D02*
X141929909Y-64696567D01*
X142358481Y-64791806D02*
X142406100Y-64744187D01*
X142406100Y-64744187D02*
X142501338Y-64696567D01*
X142501338Y-64696567D02*
X142739433Y-64696567D01*
X142739433Y-64696567D02*
X142834671Y-64744187D01*
X142834671Y-64744187D02*
X142882290Y-64791806D01*
X142882290Y-64791806D02*
X142929909Y-64887044D01*
X142929909Y-64887044D02*
X142929909Y-64982282D01*
X142929909Y-64982282D02*
X142882290Y-65125139D01*
X142882290Y-65125139D02*
X142310862Y-65696567D01*
X142310862Y-65696567D02*
X142929909Y-65696567D01*
%TO.C,R9*%
X175080266Y-94813353D02*
X174604076Y-95146686D01*
X175080266Y-95384781D02*
X174080266Y-95384781D01*
X174080266Y-95384781D02*
X174080266Y-95003829D01*
X174080266Y-95003829D02*
X174127886Y-94908591D01*
X174127886Y-94908591D02*
X174175505Y-94860972D01*
X174175505Y-94860972D02*
X174270743Y-94813353D01*
X174270743Y-94813353D02*
X174413600Y-94813353D01*
X174413600Y-94813353D02*
X174508838Y-94860972D01*
X174508838Y-94860972D02*
X174556457Y-94908591D01*
X174556457Y-94908591D02*
X174604076Y-95003829D01*
X174604076Y-95003829D02*
X174604076Y-95384781D01*
X175080266Y-94337162D02*
X175080266Y-94146686D01*
X175080266Y-94146686D02*
X175032647Y-94051448D01*
X175032647Y-94051448D02*
X174985028Y-94003829D01*
X174985028Y-94003829D02*
X174842171Y-93908591D01*
X174842171Y-93908591D02*
X174651695Y-93860972D01*
X174651695Y-93860972D02*
X174270743Y-93860972D01*
X174270743Y-93860972D02*
X174175505Y-93908591D01*
X174175505Y-93908591D02*
X174127886Y-93956210D01*
X174127886Y-93956210D02*
X174080266Y-94051448D01*
X174080266Y-94051448D02*
X174080266Y-94241924D01*
X174080266Y-94241924D02*
X174127886Y-94337162D01*
X174127886Y-94337162D02*
X174175505Y-94384781D01*
X174175505Y-94384781D02*
X174270743Y-94432400D01*
X174270743Y-94432400D02*
X174508838Y-94432400D01*
X174508838Y-94432400D02*
X174604076Y-94384781D01*
X174604076Y-94384781D02*
X174651695Y-94337162D01*
X174651695Y-94337162D02*
X174699314Y-94241924D01*
X174699314Y-94241924D02*
X174699314Y-94051448D01*
X174699314Y-94051448D02*
X174651695Y-93956210D01*
X174651695Y-93956210D02*
X174604076Y-93908591D01*
X174604076Y-93908591D02*
X174508838Y-93860972D01*
%TO.C,C1*%
X180447528Y-78275853D02*
X180495147Y-78323472D01*
X180495147Y-78323472D02*
X180542766Y-78466329D01*
X180542766Y-78466329D02*
X180542766Y-78561567D01*
X180542766Y-78561567D02*
X180495147Y-78704424D01*
X180495147Y-78704424D02*
X180399909Y-78799662D01*
X180399909Y-78799662D02*
X180304671Y-78847281D01*
X180304671Y-78847281D02*
X180114195Y-78894900D01*
X180114195Y-78894900D02*
X179971338Y-78894900D01*
X179971338Y-78894900D02*
X179780862Y-78847281D01*
X179780862Y-78847281D02*
X179685624Y-78799662D01*
X179685624Y-78799662D02*
X179590386Y-78704424D01*
X179590386Y-78704424D02*
X179542766Y-78561567D01*
X179542766Y-78561567D02*
X179542766Y-78466329D01*
X179542766Y-78466329D02*
X179590386Y-78323472D01*
X179590386Y-78323472D02*
X179638005Y-78275853D01*
X180542766Y-77323472D02*
X180542766Y-77894900D01*
X180542766Y-77609186D02*
X179542766Y-77609186D01*
X179542766Y-77609186D02*
X179685624Y-77704424D01*
X179685624Y-77704424D02*
X179780862Y-77799662D01*
X179780862Y-77799662D02*
X179828481Y-77894900D01*
%TO.C,C2*%
X180447528Y-85775853D02*
X180495147Y-85823472D01*
X180495147Y-85823472D02*
X180542766Y-85966329D01*
X180542766Y-85966329D02*
X180542766Y-86061567D01*
X180542766Y-86061567D02*
X180495147Y-86204424D01*
X180495147Y-86204424D02*
X180399909Y-86299662D01*
X180399909Y-86299662D02*
X180304671Y-86347281D01*
X180304671Y-86347281D02*
X180114195Y-86394900D01*
X180114195Y-86394900D02*
X179971338Y-86394900D01*
X179971338Y-86394900D02*
X179780862Y-86347281D01*
X179780862Y-86347281D02*
X179685624Y-86299662D01*
X179685624Y-86299662D02*
X179590386Y-86204424D01*
X179590386Y-86204424D02*
X179542766Y-86061567D01*
X179542766Y-86061567D02*
X179542766Y-85966329D01*
X179542766Y-85966329D02*
X179590386Y-85823472D01*
X179590386Y-85823472D02*
X179638005Y-85775853D01*
X179638005Y-85394900D02*
X179590386Y-85347281D01*
X179590386Y-85347281D02*
X179542766Y-85252043D01*
X179542766Y-85252043D02*
X179542766Y-85013948D01*
X179542766Y-85013948D02*
X179590386Y-84918710D01*
X179590386Y-84918710D02*
X179638005Y-84871091D01*
X179638005Y-84871091D02*
X179733243Y-84823472D01*
X179733243Y-84823472D02*
X179828481Y-84823472D01*
X179828481Y-84823472D02*
X179971338Y-84871091D01*
X179971338Y-84871091D02*
X180542766Y-85442519D01*
X180542766Y-85442519D02*
X180542766Y-84823472D01*
%TO.C,R7*%
X150500266Y-88275853D02*
X150024076Y-88609186D01*
X150500266Y-88847281D02*
X149500266Y-88847281D01*
X149500266Y-88847281D02*
X149500266Y-88466329D01*
X149500266Y-88466329D02*
X149547886Y-88371091D01*
X149547886Y-88371091D02*
X149595505Y-88323472D01*
X149595505Y-88323472D02*
X149690743Y-88275853D01*
X149690743Y-88275853D02*
X149833600Y-88275853D01*
X149833600Y-88275853D02*
X149928838Y-88323472D01*
X149928838Y-88323472D02*
X149976457Y-88371091D01*
X149976457Y-88371091D02*
X150024076Y-88466329D01*
X150024076Y-88466329D02*
X150024076Y-88847281D01*
X149500266Y-87942519D02*
X149500266Y-87275853D01*
X149500266Y-87275853D02*
X150500266Y-87704424D01*
%TO.C,TP13*%
X172362405Y-81087380D02*
X172933833Y-81087380D01*
X172648119Y-82087380D02*
X172648119Y-81087380D01*
X173267167Y-82087380D02*
X173267167Y-81087380D01*
X173267167Y-81087380D02*
X173648119Y-81087380D01*
X173648119Y-81087380D02*
X173743357Y-81135000D01*
X173743357Y-81135000D02*
X173790976Y-81182619D01*
X173790976Y-81182619D02*
X173838595Y-81277857D01*
X173838595Y-81277857D02*
X173838595Y-81420714D01*
X173838595Y-81420714D02*
X173790976Y-81515952D01*
X173790976Y-81515952D02*
X173743357Y-81563571D01*
X173743357Y-81563571D02*
X173648119Y-81611190D01*
X173648119Y-81611190D02*
X173267167Y-81611190D01*
X174790976Y-82087380D02*
X174219548Y-82087380D01*
X174505262Y-82087380D02*
X174505262Y-81087380D01*
X174505262Y-81087380D02*
X174410024Y-81230238D01*
X174410024Y-81230238D02*
X174314786Y-81325476D01*
X174314786Y-81325476D02*
X174219548Y-81373095D01*
X175124310Y-81087380D02*
X175743357Y-81087380D01*
X175743357Y-81087380D02*
X175410024Y-81468333D01*
X175410024Y-81468333D02*
X175552881Y-81468333D01*
X175552881Y-81468333D02*
X175648119Y-81515952D01*
X175648119Y-81515952D02*
X175695738Y-81563571D01*
X175695738Y-81563571D02*
X175743357Y-81658809D01*
X175743357Y-81658809D02*
X175743357Y-81896904D01*
X175743357Y-81896904D02*
X175695738Y-81992142D01*
X175695738Y-81992142D02*
X175648119Y-82039761D01*
X175648119Y-82039761D02*
X175552881Y-82087380D01*
X175552881Y-82087380D02*
X175267167Y-82087380D01*
X175267167Y-82087380D02*
X175171929Y-82039761D01*
X175171929Y-82039761D02*
X175124310Y-81992142D01*
%TO.C,J3*%
X112650266Y-113932520D02*
X113364552Y-113932520D01*
X113364552Y-113932520D02*
X113507409Y-113980139D01*
X113507409Y-113980139D02*
X113602647Y-114075377D01*
X113602647Y-114075377D02*
X113650266Y-114218234D01*
X113650266Y-114218234D02*
X113650266Y-114313472D01*
X112650266Y-113551567D02*
X112650266Y-112932520D01*
X112650266Y-112932520D02*
X113031219Y-113265853D01*
X113031219Y-113265853D02*
X113031219Y-113122996D01*
X113031219Y-113122996D02*
X113078838Y-113027758D01*
X113078838Y-113027758D02*
X113126457Y-112980139D01*
X113126457Y-112980139D02*
X113221695Y-112932520D01*
X113221695Y-112932520D02*
X113459790Y-112932520D01*
X113459790Y-112932520D02*
X113555028Y-112980139D01*
X113555028Y-112980139D02*
X113602647Y-113027758D01*
X113602647Y-113027758D02*
X113650266Y-113122996D01*
X113650266Y-113122996D02*
X113650266Y-113408710D01*
X113650266Y-113408710D02*
X113602647Y-113503948D01*
X113602647Y-113503948D02*
X113555028Y-113551567D01*
%TO.C,TP10*%
X195574791Y-119628567D02*
X196146219Y-119628567D01*
X195860505Y-120628567D02*
X195860505Y-119628567D01*
X196479553Y-120628567D02*
X196479553Y-119628567D01*
X196479553Y-119628567D02*
X196860505Y-119628567D01*
X196860505Y-119628567D02*
X196955743Y-119676187D01*
X196955743Y-119676187D02*
X197003362Y-119723806D01*
X197003362Y-119723806D02*
X197050981Y-119819044D01*
X197050981Y-119819044D02*
X197050981Y-119961901D01*
X197050981Y-119961901D02*
X197003362Y-120057139D01*
X197003362Y-120057139D02*
X196955743Y-120104758D01*
X196955743Y-120104758D02*
X196860505Y-120152377D01*
X196860505Y-120152377D02*
X196479553Y-120152377D01*
X198003362Y-120628567D02*
X197431934Y-120628567D01*
X197717648Y-120628567D02*
X197717648Y-119628567D01*
X197717648Y-119628567D02*
X197622410Y-119771425D01*
X197622410Y-119771425D02*
X197527172Y-119866663D01*
X197527172Y-119866663D02*
X197431934Y-119914282D01*
X198622410Y-119628567D02*
X198717648Y-119628567D01*
X198717648Y-119628567D02*
X198812886Y-119676187D01*
X198812886Y-119676187D02*
X198860505Y-119723806D01*
X198860505Y-119723806D02*
X198908124Y-119819044D01*
X198908124Y-119819044D02*
X198955743Y-120009520D01*
X198955743Y-120009520D02*
X198955743Y-120247615D01*
X198955743Y-120247615D02*
X198908124Y-120438091D01*
X198908124Y-120438091D02*
X198860505Y-120533329D01*
X198860505Y-120533329D02*
X198812886Y-120580948D01*
X198812886Y-120580948D02*
X198717648Y-120628567D01*
X198717648Y-120628567D02*
X198622410Y-120628567D01*
X198622410Y-120628567D02*
X198527172Y-120580948D01*
X198527172Y-120580948D02*
X198479553Y-120533329D01*
X198479553Y-120533329D02*
X198431934Y-120438091D01*
X198431934Y-120438091D02*
X198384315Y-120247615D01*
X198384315Y-120247615D02*
X198384315Y-120009520D01*
X198384315Y-120009520D02*
X198431934Y-119819044D01*
X198431934Y-119819044D02*
X198479553Y-119723806D01*
X198479553Y-119723806D02*
X198527172Y-119676187D01*
X198527172Y-119676187D02*
X198622410Y-119628567D01*
%TO.C,J8*%
X113090266Y-108852520D02*
X113804552Y-108852520D01*
X113804552Y-108852520D02*
X113947409Y-108900139D01*
X113947409Y-108900139D02*
X114042647Y-108995377D01*
X114042647Y-108995377D02*
X114090266Y-109138234D01*
X114090266Y-109138234D02*
X114090266Y-109233472D01*
X113518838Y-108233472D02*
X113471219Y-108328710D01*
X113471219Y-108328710D02*
X113423600Y-108376329D01*
X113423600Y-108376329D02*
X113328362Y-108423948D01*
X113328362Y-108423948D02*
X113280743Y-108423948D01*
X113280743Y-108423948D02*
X113185505Y-108376329D01*
X113185505Y-108376329D02*
X113137886Y-108328710D01*
X113137886Y-108328710D02*
X113090266Y-108233472D01*
X113090266Y-108233472D02*
X113090266Y-108042996D01*
X113090266Y-108042996D02*
X113137886Y-107947758D01*
X113137886Y-107947758D02*
X113185505Y-107900139D01*
X113185505Y-107900139D02*
X113280743Y-107852520D01*
X113280743Y-107852520D02*
X113328362Y-107852520D01*
X113328362Y-107852520D02*
X113423600Y-107900139D01*
X113423600Y-107900139D02*
X113471219Y-107947758D01*
X113471219Y-107947758D02*
X113518838Y-108042996D01*
X113518838Y-108042996D02*
X113518838Y-108233472D01*
X113518838Y-108233472D02*
X113566457Y-108328710D01*
X113566457Y-108328710D02*
X113614076Y-108376329D01*
X113614076Y-108376329D02*
X113709314Y-108423948D01*
X113709314Y-108423948D02*
X113899790Y-108423948D01*
X113899790Y-108423948D02*
X113995028Y-108376329D01*
X113995028Y-108376329D02*
X114042647Y-108328710D01*
X114042647Y-108328710D02*
X114090266Y-108233472D01*
X114090266Y-108233472D02*
X114090266Y-108042996D01*
X114090266Y-108042996D02*
X114042647Y-107947758D01*
X114042647Y-107947758D02*
X113995028Y-107900139D01*
X113995028Y-107900139D02*
X113899790Y-107852520D01*
X113899790Y-107852520D02*
X113709314Y-107852520D01*
X113709314Y-107852520D02*
X113614076Y-107900139D01*
X113614076Y-107900139D02*
X113566457Y-107947758D01*
X113566457Y-107947758D02*
X113518838Y-108042996D01*
%TO.C,R1*%
X123080266Y-123675853D02*
X122604076Y-124009186D01*
X123080266Y-124247281D02*
X122080266Y-124247281D01*
X122080266Y-124247281D02*
X122080266Y-123866329D01*
X122080266Y-123866329D02*
X122127886Y-123771091D01*
X122127886Y-123771091D02*
X122175505Y-123723472D01*
X122175505Y-123723472D02*
X122270743Y-123675853D01*
X122270743Y-123675853D02*
X122413600Y-123675853D01*
X122413600Y-123675853D02*
X122508838Y-123723472D01*
X122508838Y-123723472D02*
X122556457Y-123771091D01*
X122556457Y-123771091D02*
X122604076Y-123866329D01*
X122604076Y-123866329D02*
X122604076Y-124247281D01*
X123080266Y-122723472D02*
X123080266Y-123294900D01*
X123080266Y-123009186D02*
X122080266Y-123009186D01*
X122080266Y-123009186D02*
X122223124Y-123104424D01*
X122223124Y-123104424D02*
X122318362Y-123199662D01*
X122318362Y-123199662D02*
X122365981Y-123294900D01*
%TO.C,C4*%
X136255028Y-64445853D02*
X136302647Y-64493472D01*
X136302647Y-64493472D02*
X136350266Y-64636329D01*
X136350266Y-64636329D02*
X136350266Y-64731567D01*
X136350266Y-64731567D02*
X136302647Y-64874424D01*
X136302647Y-64874424D02*
X136207409Y-64969662D01*
X136207409Y-64969662D02*
X136112171Y-65017281D01*
X136112171Y-65017281D02*
X135921695Y-65064900D01*
X135921695Y-65064900D02*
X135778838Y-65064900D01*
X135778838Y-65064900D02*
X135588362Y-65017281D01*
X135588362Y-65017281D02*
X135493124Y-64969662D01*
X135493124Y-64969662D02*
X135397886Y-64874424D01*
X135397886Y-64874424D02*
X135350266Y-64731567D01*
X135350266Y-64731567D02*
X135350266Y-64636329D01*
X135350266Y-64636329D02*
X135397886Y-64493472D01*
X135397886Y-64493472D02*
X135445505Y-64445853D01*
X135683600Y-63588710D02*
X136350266Y-63588710D01*
X135302647Y-63826805D02*
X136016933Y-64064900D01*
X136016933Y-64064900D02*
X136016933Y-63445853D01*
%TO.C,TP7*%
X109250981Y-88876567D02*
X109822409Y-88876567D01*
X109536695Y-89876567D02*
X109536695Y-88876567D01*
X110155743Y-89876567D02*
X110155743Y-88876567D01*
X110155743Y-88876567D02*
X110536695Y-88876567D01*
X110536695Y-88876567D02*
X110631933Y-88924187D01*
X110631933Y-88924187D02*
X110679552Y-88971806D01*
X110679552Y-88971806D02*
X110727171Y-89067044D01*
X110727171Y-89067044D02*
X110727171Y-89209901D01*
X110727171Y-89209901D02*
X110679552Y-89305139D01*
X110679552Y-89305139D02*
X110631933Y-89352758D01*
X110631933Y-89352758D02*
X110536695Y-89400377D01*
X110536695Y-89400377D02*
X110155743Y-89400377D01*
X111060505Y-88876567D02*
X111727171Y-88876567D01*
X111727171Y-88876567D02*
X111298600Y-89876567D01*
%TO.C,R8*%
X157500266Y-88275853D02*
X157024076Y-88609186D01*
X157500266Y-88847281D02*
X156500266Y-88847281D01*
X156500266Y-88847281D02*
X156500266Y-88466329D01*
X156500266Y-88466329D02*
X156547886Y-88371091D01*
X156547886Y-88371091D02*
X156595505Y-88323472D01*
X156595505Y-88323472D02*
X156690743Y-88275853D01*
X156690743Y-88275853D02*
X156833600Y-88275853D01*
X156833600Y-88275853D02*
X156928838Y-88323472D01*
X156928838Y-88323472D02*
X156976457Y-88371091D01*
X156976457Y-88371091D02*
X157024076Y-88466329D01*
X157024076Y-88466329D02*
X157024076Y-88847281D01*
X156928838Y-87704424D02*
X156881219Y-87799662D01*
X156881219Y-87799662D02*
X156833600Y-87847281D01*
X156833600Y-87847281D02*
X156738362Y-87894900D01*
X156738362Y-87894900D02*
X156690743Y-87894900D01*
X156690743Y-87894900D02*
X156595505Y-87847281D01*
X156595505Y-87847281D02*
X156547886Y-87799662D01*
X156547886Y-87799662D02*
X156500266Y-87704424D01*
X156500266Y-87704424D02*
X156500266Y-87513948D01*
X156500266Y-87513948D02*
X156547886Y-87418710D01*
X156547886Y-87418710D02*
X156595505Y-87371091D01*
X156595505Y-87371091D02*
X156690743Y-87323472D01*
X156690743Y-87323472D02*
X156738362Y-87323472D01*
X156738362Y-87323472D02*
X156833600Y-87371091D01*
X156833600Y-87371091D02*
X156881219Y-87418710D01*
X156881219Y-87418710D02*
X156928838Y-87513948D01*
X156928838Y-87513948D02*
X156928838Y-87704424D01*
X156928838Y-87704424D02*
X156976457Y-87799662D01*
X156976457Y-87799662D02*
X157024076Y-87847281D01*
X157024076Y-87847281D02*
X157119314Y-87894900D01*
X157119314Y-87894900D02*
X157309790Y-87894900D01*
X157309790Y-87894900D02*
X157405028Y-87847281D01*
X157405028Y-87847281D02*
X157452647Y-87799662D01*
X157452647Y-87799662D02*
X157500266Y-87704424D01*
X157500266Y-87704424D02*
X157500266Y-87513948D01*
X157500266Y-87513948D02*
X157452647Y-87418710D01*
X157452647Y-87418710D02*
X157405028Y-87371091D01*
X157405028Y-87371091D02*
X157309790Y-87323472D01*
X157309790Y-87323472D02*
X157119314Y-87323472D01*
X157119314Y-87323472D02*
X157024076Y-87371091D01*
X157024076Y-87371091D02*
X156976457Y-87418710D01*
X156976457Y-87418710D02*
X156928838Y-87513948D01*
%TO.C,D1*%
X136104791Y-74316567D02*
X136104791Y-73316567D01*
X136104791Y-73316567D02*
X136342886Y-73316567D01*
X136342886Y-73316567D02*
X136485743Y-73364187D01*
X136485743Y-73364187D02*
X136580981Y-73459425D01*
X136580981Y-73459425D02*
X136628600Y-73554663D01*
X136628600Y-73554663D02*
X136676219Y-73745139D01*
X136676219Y-73745139D02*
X136676219Y-73887996D01*
X136676219Y-73887996D02*
X136628600Y-74078472D01*
X136628600Y-74078472D02*
X136580981Y-74173710D01*
X136580981Y-74173710D02*
X136485743Y-74268948D01*
X136485743Y-74268948D02*
X136342886Y-74316567D01*
X136342886Y-74316567D02*
X136104791Y-74316567D01*
X137628600Y-74316567D02*
X137057172Y-74316567D01*
X137342886Y-74316567D02*
X137342886Y-73316567D01*
X137342886Y-73316567D02*
X137247648Y-73459425D01*
X137247648Y-73459425D02*
X137152410Y-73554663D01*
X137152410Y-73554663D02*
X137057172Y-73602282D01*
%TO.C,J1*%
X112650266Y-130442520D02*
X113364552Y-130442520D01*
X113364552Y-130442520D02*
X113507409Y-130490139D01*
X113507409Y-130490139D02*
X113602647Y-130585377D01*
X113602647Y-130585377D02*
X113650266Y-130728234D01*
X113650266Y-130728234D02*
X113650266Y-130823472D01*
X113650266Y-129442520D02*
X113650266Y-130013948D01*
X113650266Y-129728234D02*
X112650266Y-129728234D01*
X112650266Y-129728234D02*
X112793124Y-129823472D01*
X112793124Y-129823472D02*
X112888362Y-129918710D01*
X112888362Y-129918710D02*
X112935981Y-130013948D01*
%TO.C,TP11*%
X195574791Y-124428567D02*
X196146219Y-124428567D01*
X195860505Y-125428567D02*
X195860505Y-124428567D01*
X196479553Y-125428567D02*
X196479553Y-124428567D01*
X196479553Y-124428567D02*
X196860505Y-124428567D01*
X196860505Y-124428567D02*
X196955743Y-124476187D01*
X196955743Y-124476187D02*
X197003362Y-124523806D01*
X197003362Y-124523806D02*
X197050981Y-124619044D01*
X197050981Y-124619044D02*
X197050981Y-124761901D01*
X197050981Y-124761901D02*
X197003362Y-124857139D01*
X197003362Y-124857139D02*
X196955743Y-124904758D01*
X196955743Y-124904758D02*
X196860505Y-124952377D01*
X196860505Y-124952377D02*
X196479553Y-124952377D01*
X198003362Y-125428567D02*
X197431934Y-125428567D01*
X197717648Y-125428567D02*
X197717648Y-124428567D01*
X197717648Y-124428567D02*
X197622410Y-124571425D01*
X197622410Y-124571425D02*
X197527172Y-124666663D01*
X197527172Y-124666663D02*
X197431934Y-124714282D01*
X198955743Y-125428567D02*
X198384315Y-125428567D01*
X198670029Y-125428567D02*
X198670029Y-124428567D01*
X198670029Y-124428567D02*
X198574791Y-124571425D01*
X198574791Y-124571425D02*
X198479553Y-124666663D01*
X198479553Y-124666663D02*
X198384315Y-124714282D01*
%TO.C,TP5*%
X178050981Y-100028567D02*
X178622409Y-100028567D01*
X178336695Y-101028567D02*
X178336695Y-100028567D01*
X178955743Y-101028567D02*
X178955743Y-100028567D01*
X178955743Y-100028567D02*
X179336695Y-100028567D01*
X179336695Y-100028567D02*
X179431933Y-100076187D01*
X179431933Y-100076187D02*
X179479552Y-100123806D01*
X179479552Y-100123806D02*
X179527171Y-100219044D01*
X179527171Y-100219044D02*
X179527171Y-100361901D01*
X179527171Y-100361901D02*
X179479552Y-100457139D01*
X179479552Y-100457139D02*
X179431933Y-100504758D01*
X179431933Y-100504758D02*
X179336695Y-100552377D01*
X179336695Y-100552377D02*
X178955743Y-100552377D01*
X180431933Y-100028567D02*
X179955743Y-100028567D01*
X179955743Y-100028567D02*
X179908124Y-100504758D01*
X179908124Y-100504758D02*
X179955743Y-100457139D01*
X179955743Y-100457139D02*
X180050981Y-100409520D01*
X180050981Y-100409520D02*
X180289076Y-100409520D01*
X180289076Y-100409520D02*
X180384314Y-100457139D01*
X180384314Y-100457139D02*
X180431933Y-100504758D01*
X180431933Y-100504758D02*
X180479552Y-100599996D01*
X180479552Y-100599996D02*
X180479552Y-100838091D01*
X180479552Y-100838091D02*
X180431933Y-100933329D01*
X180431933Y-100933329D02*
X180384314Y-100980948D01*
X180384314Y-100980948D02*
X180289076Y-101028567D01*
X180289076Y-101028567D02*
X180050981Y-101028567D01*
X180050981Y-101028567D02*
X179955743Y-100980948D01*
X179955743Y-100980948D02*
X179908124Y-100933329D01*
%TO.C,J4*%
X186979552Y-64476567D02*
X186979552Y-65190853D01*
X186979552Y-65190853D02*
X186931933Y-65333710D01*
X186931933Y-65333710D02*
X186836695Y-65428948D01*
X186836695Y-65428948D02*
X186693838Y-65476567D01*
X186693838Y-65476567D02*
X186598600Y-65476567D01*
X187884314Y-64809901D02*
X187884314Y-65476567D01*
X187646219Y-64428948D02*
X187408124Y-65143234D01*
X187408124Y-65143234D02*
X188027171Y-65143234D01*
%TO.C,U1*%
X184413481Y-78976567D02*
X184413481Y-79786091D01*
X184413481Y-79786091D02*
X184461100Y-79881329D01*
X184461100Y-79881329D02*
X184508719Y-79928948D01*
X184508719Y-79928948D02*
X184603957Y-79976567D01*
X184603957Y-79976567D02*
X184794433Y-79976567D01*
X184794433Y-79976567D02*
X184889671Y-79928948D01*
X184889671Y-79928948D02*
X184937290Y-79881329D01*
X184937290Y-79881329D02*
X184984909Y-79786091D01*
X184984909Y-79786091D02*
X184984909Y-78976567D01*
X185984909Y-79976567D02*
X185413481Y-79976567D01*
X185699195Y-79976567D02*
X185699195Y-78976567D01*
X185699195Y-78976567D02*
X185603957Y-79119425D01*
X185603957Y-79119425D02*
X185508719Y-79214663D01*
X185508719Y-79214663D02*
X185413481Y-79262282D01*
%TO.C,J5*%
X178979552Y-65476567D02*
X178979552Y-66190853D01*
X178979552Y-66190853D02*
X178931933Y-66333710D01*
X178931933Y-66333710D02*
X178836695Y-66428948D01*
X178836695Y-66428948D02*
X178693838Y-66476567D01*
X178693838Y-66476567D02*
X178598600Y-66476567D01*
X179931933Y-65476567D02*
X179455743Y-65476567D01*
X179455743Y-65476567D02*
X179408124Y-65952758D01*
X179408124Y-65952758D02*
X179455743Y-65905139D01*
X179455743Y-65905139D02*
X179550981Y-65857520D01*
X179550981Y-65857520D02*
X179789076Y-65857520D01*
X179789076Y-65857520D02*
X179884314Y-65905139D01*
X179884314Y-65905139D02*
X179931933Y-65952758D01*
X179931933Y-65952758D02*
X179979552Y-66047996D01*
X179979552Y-66047996D02*
X179979552Y-66286091D01*
X179979552Y-66286091D02*
X179931933Y-66381329D01*
X179931933Y-66381329D02*
X179884314Y-66428948D01*
X179884314Y-66428948D02*
X179789076Y-66476567D01*
X179789076Y-66476567D02*
X179550981Y-66476567D01*
X179550981Y-66476567D02*
X179455743Y-66428948D01*
X179455743Y-66428948D02*
X179408124Y-66381329D01*
%TO.C,TP12*%
X195374791Y-115428567D02*
X195946219Y-115428567D01*
X195660505Y-116428567D02*
X195660505Y-115428567D01*
X196279553Y-116428567D02*
X196279553Y-115428567D01*
X196279553Y-115428567D02*
X196660505Y-115428567D01*
X196660505Y-115428567D02*
X196755743Y-115476187D01*
X196755743Y-115476187D02*
X196803362Y-115523806D01*
X196803362Y-115523806D02*
X196850981Y-115619044D01*
X196850981Y-115619044D02*
X196850981Y-115761901D01*
X196850981Y-115761901D02*
X196803362Y-115857139D01*
X196803362Y-115857139D02*
X196755743Y-115904758D01*
X196755743Y-115904758D02*
X196660505Y-115952377D01*
X196660505Y-115952377D02*
X196279553Y-115952377D01*
X197803362Y-116428567D02*
X197231934Y-116428567D01*
X197517648Y-116428567D02*
X197517648Y-115428567D01*
X197517648Y-115428567D02*
X197422410Y-115571425D01*
X197422410Y-115571425D02*
X197327172Y-115666663D01*
X197327172Y-115666663D02*
X197231934Y-115714282D01*
X198184315Y-115523806D02*
X198231934Y-115476187D01*
X198231934Y-115476187D02*
X198327172Y-115428567D01*
X198327172Y-115428567D02*
X198565267Y-115428567D01*
X198565267Y-115428567D02*
X198660505Y-115476187D01*
X198660505Y-115476187D02*
X198708124Y-115523806D01*
X198708124Y-115523806D02*
X198755743Y-115619044D01*
X198755743Y-115619044D02*
X198755743Y-115714282D01*
X198755743Y-115714282D02*
X198708124Y-115857139D01*
X198708124Y-115857139D02*
X198136696Y-116428567D01*
X198136696Y-116428567D02*
X198755743Y-116428567D01*
%TO.C,TP1*%
X115838095Y-66319380D02*
X116409523Y-66319380D01*
X116123809Y-67319380D02*
X116123809Y-66319380D01*
X116742857Y-67319380D02*
X116742857Y-66319380D01*
X116742857Y-66319380D02*
X117123809Y-66319380D01*
X117123809Y-66319380D02*
X117219047Y-66367000D01*
X117219047Y-66367000D02*
X117266666Y-66414619D01*
X117266666Y-66414619D02*
X117314285Y-66509857D01*
X117314285Y-66509857D02*
X117314285Y-66652714D01*
X117314285Y-66652714D02*
X117266666Y-66747952D01*
X117266666Y-66747952D02*
X117219047Y-66795571D01*
X117219047Y-66795571D02*
X117123809Y-66843190D01*
X117123809Y-66843190D02*
X116742857Y-66843190D01*
X118266666Y-67319380D02*
X117695238Y-67319380D01*
X117980952Y-67319380D02*
X117980952Y-66319380D01*
X117980952Y-66319380D02*
X117885714Y-66462238D01*
X117885714Y-66462238D02*
X117790476Y-66557476D01*
X117790476Y-66557476D02*
X117695238Y-66605095D01*
%TO.C,TP3*%
X143050981Y-90941067D02*
X143622409Y-90941067D01*
X143336695Y-91941067D02*
X143336695Y-90941067D01*
X143955743Y-91941067D02*
X143955743Y-90941067D01*
X143955743Y-90941067D02*
X144336695Y-90941067D01*
X144336695Y-90941067D02*
X144431933Y-90988687D01*
X144431933Y-90988687D02*
X144479552Y-91036306D01*
X144479552Y-91036306D02*
X144527171Y-91131544D01*
X144527171Y-91131544D02*
X144527171Y-91274401D01*
X144527171Y-91274401D02*
X144479552Y-91369639D01*
X144479552Y-91369639D02*
X144431933Y-91417258D01*
X144431933Y-91417258D02*
X144336695Y-91464877D01*
X144336695Y-91464877D02*
X143955743Y-91464877D01*
X144860505Y-90941067D02*
X145479552Y-90941067D01*
X145479552Y-90941067D02*
X145146219Y-91322020D01*
X145146219Y-91322020D02*
X145289076Y-91322020D01*
X145289076Y-91322020D02*
X145384314Y-91369639D01*
X145384314Y-91369639D02*
X145431933Y-91417258D01*
X145431933Y-91417258D02*
X145479552Y-91512496D01*
X145479552Y-91512496D02*
X145479552Y-91750591D01*
X145479552Y-91750591D02*
X145431933Y-91845829D01*
X145431933Y-91845829D02*
X145384314Y-91893448D01*
X145384314Y-91893448D02*
X145289076Y-91941067D01*
X145289076Y-91941067D02*
X145003362Y-91941067D01*
X145003362Y-91941067D02*
X144908124Y-91893448D01*
X144908124Y-91893448D02*
X144860505Y-91845829D01*
%TO.C,R3*%
X131350266Y-64445853D02*
X130874076Y-64779186D01*
X131350266Y-65017281D02*
X130350266Y-65017281D01*
X130350266Y-65017281D02*
X130350266Y-64636329D01*
X130350266Y-64636329D02*
X130397886Y-64541091D01*
X130397886Y-64541091D02*
X130445505Y-64493472D01*
X130445505Y-64493472D02*
X130540743Y-64445853D01*
X130540743Y-64445853D02*
X130683600Y-64445853D01*
X130683600Y-64445853D02*
X130778838Y-64493472D01*
X130778838Y-64493472D02*
X130826457Y-64541091D01*
X130826457Y-64541091D02*
X130874076Y-64636329D01*
X130874076Y-64636329D02*
X130874076Y-65017281D01*
X130350266Y-64112519D02*
X130350266Y-63493472D01*
X130350266Y-63493472D02*
X130731219Y-63826805D01*
X130731219Y-63826805D02*
X130731219Y-63683948D01*
X130731219Y-63683948D02*
X130778838Y-63588710D01*
X130778838Y-63588710D02*
X130826457Y-63541091D01*
X130826457Y-63541091D02*
X130921695Y-63493472D01*
X130921695Y-63493472D02*
X131159790Y-63493472D01*
X131159790Y-63493472D02*
X131255028Y-63541091D01*
X131255028Y-63541091D02*
X131302647Y-63588710D01*
X131302647Y-63588710D02*
X131350266Y-63683948D01*
X131350266Y-63683948D02*
X131350266Y-63969662D01*
X131350266Y-63969662D02*
X131302647Y-64064900D01*
X131302647Y-64064900D02*
X131255028Y-64112519D01*
%TO.C,TP4*%
X151050981Y-90941067D02*
X151622409Y-90941067D01*
X151336695Y-91941067D02*
X151336695Y-90941067D01*
X151955743Y-91941067D02*
X151955743Y-90941067D01*
X151955743Y-90941067D02*
X152336695Y-90941067D01*
X152336695Y-90941067D02*
X152431933Y-90988687D01*
X152431933Y-90988687D02*
X152479552Y-91036306D01*
X152479552Y-91036306D02*
X152527171Y-91131544D01*
X152527171Y-91131544D02*
X152527171Y-91274401D01*
X152527171Y-91274401D02*
X152479552Y-91369639D01*
X152479552Y-91369639D02*
X152431933Y-91417258D01*
X152431933Y-91417258D02*
X152336695Y-91464877D01*
X152336695Y-91464877D02*
X151955743Y-91464877D01*
X153384314Y-91274401D02*
X153384314Y-91941067D01*
X153146219Y-90893448D02*
X152908124Y-91607734D01*
X152908124Y-91607734D02*
X153527171Y-91607734D01*
%TO.C,TP6*%
X109650981Y-91878567D02*
X110222409Y-91878567D01*
X109936695Y-92878567D02*
X109936695Y-91878567D01*
X110555743Y-92878567D02*
X110555743Y-91878567D01*
X110555743Y-91878567D02*
X110936695Y-91878567D01*
X110936695Y-91878567D02*
X111031933Y-91926187D01*
X111031933Y-91926187D02*
X111079552Y-91973806D01*
X111079552Y-91973806D02*
X111127171Y-92069044D01*
X111127171Y-92069044D02*
X111127171Y-92211901D01*
X111127171Y-92211901D02*
X111079552Y-92307139D01*
X111079552Y-92307139D02*
X111031933Y-92354758D01*
X111031933Y-92354758D02*
X110936695Y-92402377D01*
X110936695Y-92402377D02*
X110555743Y-92402377D01*
X111984314Y-91878567D02*
X111793838Y-91878567D01*
X111793838Y-91878567D02*
X111698600Y-91926187D01*
X111698600Y-91926187D02*
X111650981Y-91973806D01*
X111650981Y-91973806D02*
X111555743Y-92116663D01*
X111555743Y-92116663D02*
X111508124Y-92307139D01*
X111508124Y-92307139D02*
X111508124Y-92688091D01*
X111508124Y-92688091D02*
X111555743Y-92783329D01*
X111555743Y-92783329D02*
X111603362Y-92830948D01*
X111603362Y-92830948D02*
X111698600Y-92878567D01*
X111698600Y-92878567D02*
X111889076Y-92878567D01*
X111889076Y-92878567D02*
X111984314Y-92830948D01*
X111984314Y-92830948D02*
X112031933Y-92783329D01*
X112031933Y-92783329D02*
X112079552Y-92688091D01*
X112079552Y-92688091D02*
X112079552Y-92449996D01*
X112079552Y-92449996D02*
X112031933Y-92354758D01*
X112031933Y-92354758D02*
X111984314Y-92307139D01*
X111984314Y-92307139D02*
X111889076Y-92259520D01*
X111889076Y-92259520D02*
X111698600Y-92259520D01*
X111698600Y-92259520D02*
X111603362Y-92307139D01*
X111603362Y-92307139D02*
X111555743Y-92354758D01*
X111555743Y-92354758D02*
X111508124Y-92449996D01*
%TO.C,SW1*%
X107482647Y-115642519D02*
X107530266Y-115499662D01*
X107530266Y-115499662D02*
X107530266Y-115261567D01*
X107530266Y-115261567D02*
X107482647Y-115166329D01*
X107482647Y-115166329D02*
X107435028Y-115118710D01*
X107435028Y-115118710D02*
X107339790Y-115071091D01*
X107339790Y-115071091D02*
X107244552Y-115071091D01*
X107244552Y-115071091D02*
X107149314Y-115118710D01*
X107149314Y-115118710D02*
X107101695Y-115166329D01*
X107101695Y-115166329D02*
X107054076Y-115261567D01*
X107054076Y-115261567D02*
X107006457Y-115452043D01*
X107006457Y-115452043D02*
X106958838Y-115547281D01*
X106958838Y-115547281D02*
X106911219Y-115594900D01*
X106911219Y-115594900D02*
X106815981Y-115642519D01*
X106815981Y-115642519D02*
X106720743Y-115642519D01*
X106720743Y-115642519D02*
X106625505Y-115594900D01*
X106625505Y-115594900D02*
X106577886Y-115547281D01*
X106577886Y-115547281D02*
X106530266Y-115452043D01*
X106530266Y-115452043D02*
X106530266Y-115213948D01*
X106530266Y-115213948D02*
X106577886Y-115071091D01*
X106530266Y-114737757D02*
X107530266Y-114499662D01*
X107530266Y-114499662D02*
X106815981Y-114309186D01*
X106815981Y-114309186D02*
X107530266Y-114118710D01*
X107530266Y-114118710D02*
X106530266Y-113880615D01*
X107530266Y-112975853D02*
X107530266Y-113547281D01*
X107530266Y-113261567D02*
X106530266Y-113261567D01*
X106530266Y-113261567D02*
X106673124Y-113356805D01*
X106673124Y-113356805D02*
X106768362Y-113452043D01*
X106768362Y-113452043D02*
X106815981Y-113547281D01*
%TO.C,R10*%
X184970028Y-94576567D02*
X184636695Y-94100377D01*
X184398600Y-94576567D02*
X184398600Y-93576567D01*
X184398600Y-93576567D02*
X184779552Y-93576567D01*
X184779552Y-93576567D02*
X184874790Y-93624187D01*
X184874790Y-93624187D02*
X184922409Y-93671806D01*
X184922409Y-93671806D02*
X184970028Y-93767044D01*
X184970028Y-93767044D02*
X184970028Y-93909901D01*
X184970028Y-93909901D02*
X184922409Y-94005139D01*
X184922409Y-94005139D02*
X184874790Y-94052758D01*
X184874790Y-94052758D02*
X184779552Y-94100377D01*
X184779552Y-94100377D02*
X184398600Y-94100377D01*
X185922409Y-94576567D02*
X185350981Y-94576567D01*
X185636695Y-94576567D02*
X185636695Y-93576567D01*
X185636695Y-93576567D02*
X185541457Y-93719425D01*
X185541457Y-93719425D02*
X185446219Y-93814663D01*
X185446219Y-93814663D02*
X185350981Y-93862282D01*
X186541457Y-93576567D02*
X186636695Y-93576567D01*
X186636695Y-93576567D02*
X186731933Y-93624187D01*
X186731933Y-93624187D02*
X186779552Y-93671806D01*
X186779552Y-93671806D02*
X186827171Y-93767044D01*
X186827171Y-93767044D02*
X186874790Y-93957520D01*
X186874790Y-93957520D02*
X186874790Y-94195615D01*
X186874790Y-94195615D02*
X186827171Y-94386091D01*
X186827171Y-94386091D02*
X186779552Y-94481329D01*
X186779552Y-94481329D02*
X186731933Y-94528948D01*
X186731933Y-94528948D02*
X186636695Y-94576567D01*
X186636695Y-94576567D02*
X186541457Y-94576567D01*
X186541457Y-94576567D02*
X186446219Y-94528948D01*
X186446219Y-94528948D02*
X186398600Y-94481329D01*
X186398600Y-94481329D02*
X186350981Y-94386091D01*
X186350981Y-94386091D02*
X186303362Y-94195615D01*
X186303362Y-94195615D02*
X186303362Y-93957520D01*
X186303362Y-93957520D02*
X186350981Y-93767044D01*
X186350981Y-93767044D02*
X186398600Y-93671806D01*
X186398600Y-93671806D02*
X186446219Y-93624187D01*
X186446219Y-93624187D02*
X186541457Y-93576567D01*
%TO.C,TP2*%
X135050981Y-92028567D02*
X135622409Y-92028567D01*
X135336695Y-93028567D02*
X135336695Y-92028567D01*
X135955743Y-93028567D02*
X135955743Y-92028567D01*
X135955743Y-92028567D02*
X136336695Y-92028567D01*
X136336695Y-92028567D02*
X136431933Y-92076187D01*
X136431933Y-92076187D02*
X136479552Y-92123806D01*
X136479552Y-92123806D02*
X136527171Y-92219044D01*
X136527171Y-92219044D02*
X136527171Y-92361901D01*
X136527171Y-92361901D02*
X136479552Y-92457139D01*
X136479552Y-92457139D02*
X136431933Y-92504758D01*
X136431933Y-92504758D02*
X136336695Y-92552377D01*
X136336695Y-92552377D02*
X135955743Y-92552377D01*
X136908124Y-92123806D02*
X136955743Y-92076187D01*
X136955743Y-92076187D02*
X137050981Y-92028567D01*
X137050981Y-92028567D02*
X137289076Y-92028567D01*
X137289076Y-92028567D02*
X137384314Y-92076187D01*
X137384314Y-92076187D02*
X137431933Y-92123806D01*
X137431933Y-92123806D02*
X137479552Y-92219044D01*
X137479552Y-92219044D02*
X137479552Y-92314282D01*
X137479552Y-92314282D02*
X137431933Y-92457139D01*
X137431933Y-92457139D02*
X136860505Y-93028567D01*
X136860505Y-93028567D02*
X137479552Y-93028567D01*
%TO.C,R6*%
X142500266Y-88275853D02*
X142024076Y-88609186D01*
X142500266Y-88847281D02*
X141500266Y-88847281D01*
X141500266Y-88847281D02*
X141500266Y-88466329D01*
X141500266Y-88466329D02*
X141547886Y-88371091D01*
X141547886Y-88371091D02*
X141595505Y-88323472D01*
X141595505Y-88323472D02*
X141690743Y-88275853D01*
X141690743Y-88275853D02*
X141833600Y-88275853D01*
X141833600Y-88275853D02*
X141928838Y-88323472D01*
X141928838Y-88323472D02*
X141976457Y-88371091D01*
X141976457Y-88371091D02*
X142024076Y-88466329D01*
X142024076Y-88466329D02*
X142024076Y-88847281D01*
X141500266Y-87418710D02*
X141500266Y-87609186D01*
X141500266Y-87609186D02*
X141547886Y-87704424D01*
X141547886Y-87704424D02*
X141595505Y-87752043D01*
X141595505Y-87752043D02*
X141738362Y-87847281D01*
X141738362Y-87847281D02*
X141928838Y-87894900D01*
X141928838Y-87894900D02*
X142309790Y-87894900D01*
X142309790Y-87894900D02*
X142405028Y-87847281D01*
X142405028Y-87847281D02*
X142452647Y-87799662D01*
X142452647Y-87799662D02*
X142500266Y-87704424D01*
X142500266Y-87704424D02*
X142500266Y-87513948D01*
X142500266Y-87513948D02*
X142452647Y-87418710D01*
X142452647Y-87418710D02*
X142405028Y-87371091D01*
X142405028Y-87371091D02*
X142309790Y-87323472D01*
X142309790Y-87323472D02*
X142071695Y-87323472D01*
X142071695Y-87323472D02*
X141976457Y-87371091D01*
X141976457Y-87371091D02*
X141928838Y-87418710D01*
X141928838Y-87418710D02*
X141881219Y-87513948D01*
X141881219Y-87513948D02*
X141881219Y-87704424D01*
X141881219Y-87704424D02*
X141928838Y-87799662D01*
X141928838Y-87799662D02*
X141976457Y-87847281D01*
X141976457Y-87847281D02*
X142071695Y-87894900D01*
%TO.C,J9*%
X113090266Y-135092520D02*
X113804552Y-135092520D01*
X113804552Y-135092520D02*
X113947409Y-135140139D01*
X113947409Y-135140139D02*
X114042647Y-135235377D01*
X114042647Y-135235377D02*
X114090266Y-135378234D01*
X114090266Y-135378234D02*
X114090266Y-135473472D01*
X114090266Y-134568710D02*
X114090266Y-134378234D01*
X114090266Y-134378234D02*
X114042647Y-134282996D01*
X114042647Y-134282996D02*
X113995028Y-134235377D01*
X113995028Y-134235377D02*
X113852171Y-134140139D01*
X113852171Y-134140139D02*
X113661695Y-134092520D01*
X113661695Y-134092520D02*
X113280743Y-134092520D01*
X113280743Y-134092520D02*
X113185505Y-134140139D01*
X113185505Y-134140139D02*
X113137886Y-134187758D01*
X113137886Y-134187758D02*
X113090266Y-134282996D01*
X113090266Y-134282996D02*
X113090266Y-134473472D01*
X113090266Y-134473472D02*
X113137886Y-134568710D01*
X113137886Y-134568710D02*
X113185505Y-134616329D01*
X113185505Y-134616329D02*
X113280743Y-134663948D01*
X113280743Y-134663948D02*
X113518838Y-134663948D01*
X113518838Y-134663948D02*
X113614076Y-134616329D01*
X113614076Y-134616329D02*
X113661695Y-134568710D01*
X113661695Y-134568710D02*
X113709314Y-134473472D01*
X113709314Y-134473472D02*
X113709314Y-134282996D01*
X113709314Y-134282996D02*
X113661695Y-134187758D01*
X113661695Y-134187758D02*
X113614076Y-134140139D01*
X113614076Y-134140139D02*
X113518838Y-134092520D01*
D11*
%TO.C,U4*%
X185186318Y-117009188D02*
G75*
G03*
X186639175Y-117014089I726571J39802D01*
G01*
D12*
X182942858Y-117089070D02*
G75*
G03*
X182942858Y-117089070I-29972J0D01*
G01*
D13*
X183395995Y-116969182D02*
G75*
G03*
X183395995Y-116969182I-150114J0D01*
G01*
D11*
X184412886Y-117009187D02*
X185186318Y-117009187D01*
X187412886Y-117009187D02*
X186639175Y-117009187D01*
X187412886Y-117009187D02*
X187817890Y-117009187D01*
X187817890Y-117009187D02*
X187817890Y-117100602D01*
X184412886Y-122009187D02*
X184007882Y-122009187D01*
X184007882Y-122009187D02*
X184007882Y-121917772D01*
X184412886Y-117009187D02*
X184007882Y-117009187D01*
X184007882Y-117009187D02*
X184007882Y-117100602D01*
X187412886Y-122009187D02*
X187817890Y-122009187D01*
X187817890Y-122009187D02*
X187817890Y-121917772D01*
X187412886Y-122009187D02*
X184412886Y-122009187D01*
D12*
%TO.C,U3*%
X118520252Y-90134181D02*
G75*
G03*
X118520252Y-90134181I-29972J0D01*
G01*
D13*
X120771458Y-90689172D02*
G75*
G03*
X120771458Y-90689172I-150114J0D01*
G01*
X118918016Y-89956889D02*
G75*
G03*
X118918016Y-89956889I-150114J0D01*
G01*
D14*
X119868994Y-90057981D02*
X123411794Y-90057981D01*
X123411794Y-90057981D02*
X123411794Y-100210381D01*
X123411794Y-100210381D02*
X119868994Y-100210381D01*
X119868994Y-100210381D02*
X119868994Y-90057981D01*
%TO.C,R5*%
X169575495Y-64367986D02*
G75*
G03*
X169423094Y-64215585I-152401J0D01*
G01*
X167542678Y-64215585D02*
G75*
G03*
X167390277Y-64367986I0J-152401D01*
G01*
X169423094Y-69342789D02*
G75*
G03*
X169575495Y-69190388I0J152401D01*
G01*
X167390277Y-69190388D02*
G75*
G03*
X167542678Y-69342789I152401J0D01*
G01*
D12*
X169312960Y-68379136D02*
G75*
G03*
X169312960Y-68379136I-29972J0D01*
G01*
D14*
X167390277Y-64367986D02*
X167390277Y-65852974D01*
X169575495Y-65852974D02*
X169575495Y-64367986D01*
X169423094Y-64215585D02*
X167542678Y-64215585D01*
X167390277Y-69190388D02*
X167390277Y-67705400D01*
X169575495Y-67705400D02*
X169575495Y-69190388D01*
X169423094Y-69342789D02*
X167542678Y-69342789D01*
D12*
%TO.C,R4*%
X151262870Y-67279187D02*
G75*
G03*
X151262870Y-67279187I-29997J0D01*
G01*
D14*
X151481489Y-67005400D02*
X151481489Y-67723434D01*
X151481489Y-67723434D02*
X150484283Y-67723434D01*
X150484283Y-67723434D02*
X150484283Y-67005400D01*
X151481489Y-66552974D02*
X151481489Y-65834940D01*
X151481489Y-65834940D02*
X150484283Y-65834940D01*
X150484283Y-65834940D02*
X150484283Y-66552974D01*
D12*
%TO.C,R2*%
X126760102Y-65826761D02*
G75*
G03*
X126760102Y-65826761I-29997J0D01*
G01*
D14*
X126481489Y-66100548D02*
X126481489Y-65382514D01*
X126481489Y-65382514D02*
X127478695Y-65382514D01*
X127478695Y-65382514D02*
X127478695Y-66100548D01*
X126481489Y-66552974D02*
X126481489Y-67271008D01*
X126481489Y-67271008D02*
X127478695Y-67271008D01*
X127478695Y-67271008D02*
X127478695Y-66552974D01*
D13*
%TO.C,Q1*%
X157317535Y-65992205D02*
G75*
G03*
X157317532Y-65994326I-150010J-851D01*
G01*
D11*
X159197135Y-66228995D02*
G75*
G03*
X160644939Y-66228997I723902J-1D01*
G01*
D15*
X156733077Y-66229149D02*
G75*
G03*
X156733077Y-66229149I-50038J0D01*
G01*
D11*
X157774733Y-66228997D02*
X157774733Y-69229149D01*
X157774733Y-69229149D02*
X162041941Y-69229149D01*
X162041941Y-69192065D02*
X162041941Y-66229149D01*
X160644939Y-66228997D02*
X162041941Y-66228997D01*
X157774733Y-66228997D02*
X159171736Y-66228997D01*
D12*
%TO.C,J6*%
X112063779Y-74629947D02*
G75*
G03*
X112063779Y-74629947I-29997J0D01*
G01*
D11*
X106952832Y-75600000D02*
X106452832Y-75600000D01*
X106452832Y-75600000D02*
X106422834Y-81689992D01*
X106422834Y-81689992D02*
X106952832Y-81700000D01*
X109992659Y-74867285D02*
X110167234Y-74868123D01*
X106952832Y-75600000D02*
X106932842Y-75150013D01*
X106932842Y-75150013D02*
X106412827Y-74849987D01*
X106412827Y-74849987D02*
X107352578Y-74854534D01*
X109992304Y-74864999D02*
X110200076Y-74868707D01*
X106952832Y-75600000D02*
X106952832Y-81700000D01*
X106952832Y-81700000D02*
X106952832Y-82000000D01*
X106952832Y-82000000D02*
X106452832Y-82400000D01*
X106452832Y-82400000D02*
X107363525Y-82400000D01*
X109992304Y-74864999D02*
X111952832Y-74900000D01*
X111955778Y-81655804D02*
X111952832Y-82400000D01*
X111952832Y-82400000D02*
X109979680Y-82400000D01*
X111961036Y-80331140D02*
X111960782Y-80398984D01*
X111975108Y-76786411D02*
X111974778Y-76868885D01*
X111982829Y-74840005D02*
X111979934Y-75568733D01*
%TO.C,IC2*%
X162586318Y-94609188D02*
G75*
G03*
X164039175Y-94614089I726571J39802D01*
G01*
D12*
X160342858Y-94689070D02*
G75*
G03*
X160342858Y-94689070I-29972J0D01*
G01*
D13*
X160795995Y-94569182D02*
G75*
G03*
X160795995Y-94569182I-150114J0D01*
G01*
D11*
X161812886Y-94609187D02*
X162586318Y-94609187D01*
X164812886Y-94609187D02*
X164039175Y-94609187D01*
X164812886Y-94609187D02*
X165217890Y-94609187D01*
X165217890Y-94609187D02*
X165217890Y-94700602D01*
X161812886Y-99609187D02*
X161407882Y-99609187D01*
X161407882Y-99609187D02*
X161407882Y-99517772D01*
X161812886Y-94609187D02*
X161407882Y-94609187D01*
X161407882Y-94609187D02*
X161407882Y-94700602D01*
X164812886Y-99609187D02*
X165217890Y-99609187D01*
X165217890Y-99609187D02*
X165217890Y-99517772D01*
X164812886Y-99609187D02*
X161812886Y-99609187D01*
D12*
%TO.C,IC1*%
X156842910Y-78624072D02*
G75*
G03*
X156842910Y-78624072I-29998J0D01*
G01*
D11*
X156942934Y-78408146D02*
G75*
G03*
X156942934Y-78408146I-127000J0D01*
G01*
X159112937Y-81609060D02*
X157312912Y-81609060D01*
X159112937Y-78509035D02*
X157312912Y-78509035D01*
D14*
%TO.C,C8*%
X192220277Y-115527805D02*
G75*
G03*
X192372678Y-115680206I152401J0D01*
G01*
X194253094Y-115680206D02*
G75*
G03*
X194405495Y-115527805I0J152401D01*
G01*
X192372678Y-110553002D02*
G75*
G03*
X192220277Y-110705403I0J-152401D01*
G01*
X194405495Y-110705403D02*
G75*
G03*
X194253094Y-110553002I-152401J0D01*
G01*
D12*
X192542756Y-111516655D02*
G75*
G03*
X192542756Y-111516655I-29972J0D01*
G01*
D14*
X194405495Y-115527805D02*
X194405495Y-114042817D01*
X192220277Y-114042817D02*
X192220277Y-115527805D01*
X192372678Y-115680206D02*
X194253094Y-115680206D01*
X194405495Y-110705403D02*
X194405495Y-112190391D01*
X192220277Y-112190391D02*
X192220277Y-110705403D01*
X192372678Y-110553002D02*
X194253094Y-110553002D01*
%TO.C,C7*%
X130020277Y-90727805D02*
G75*
G03*
X130172678Y-90880206I152401J0D01*
G01*
X132053094Y-90880206D02*
G75*
G03*
X132205495Y-90727805I0J152401D01*
G01*
X130172678Y-85753002D02*
G75*
G03*
X130020277Y-85905403I0J-152401D01*
G01*
X132205495Y-85905403D02*
G75*
G03*
X132053094Y-85753002I-152401J0D01*
G01*
D12*
X130342756Y-86716655D02*
G75*
G03*
X130342756Y-86716655I-29972J0D01*
G01*
D14*
X132205495Y-90727805D02*
X132205495Y-89242817D01*
X130020277Y-89242817D02*
X130020277Y-90727805D01*
X130172678Y-90880206D02*
X132053094Y-90880206D01*
X132205495Y-85905403D02*
X132205495Y-87390391D01*
X130020277Y-87390391D02*
X130020277Y-85905403D01*
X130172678Y-85753002D02*
X132053094Y-85753002D01*
%TO.C,C6*%
X167905495Y-85567903D02*
G75*
G03*
X167753094Y-85415502I-152401J0D01*
G01*
X165872678Y-85415502D02*
G75*
G03*
X165720277Y-85567903I0J-152401D01*
G01*
X167753094Y-90542706D02*
G75*
G03*
X167905495Y-90390305I0J152401D01*
G01*
X165720277Y-90390305D02*
G75*
G03*
X165872678Y-90542706I152401J0D01*
G01*
D12*
X167642960Y-89579053D02*
G75*
G03*
X167642960Y-89579053I-29972J0D01*
G01*
D14*
X165720277Y-85567903D02*
X165720277Y-87052891D01*
X167905495Y-87052891D02*
X167905495Y-85567903D01*
X167753094Y-85415502D02*
X165872678Y-85415502D01*
X165720277Y-90390305D02*
X165720277Y-88905317D01*
X167905495Y-88905317D02*
X167905495Y-90390305D01*
X167753094Y-90542706D02*
X165872678Y-90542706D01*
%TO.C,C5*%
X165720277Y-82427805D02*
G75*
G03*
X165872678Y-82580206I152401J0D01*
G01*
X167753094Y-82580206D02*
G75*
G03*
X167905495Y-82427805I0J152401D01*
G01*
X165872678Y-77453002D02*
G75*
G03*
X165720277Y-77605403I0J-152401D01*
G01*
X167905495Y-77605403D02*
G75*
G03*
X167753094Y-77453002I-152401J0D01*
G01*
D12*
X166042756Y-78416655D02*
G75*
G03*
X166042756Y-78416655I-29972J0D01*
G01*
D14*
X167905495Y-82427805D02*
X167905495Y-80942817D01*
X165720277Y-80942817D02*
X165720277Y-82427805D01*
X165872678Y-82580206D02*
X167753094Y-82580206D01*
X167905495Y-77605403D02*
X167905495Y-79090391D01*
X165720277Y-79090391D02*
X165720277Y-77605403D01*
X165872678Y-77453002D02*
X167753094Y-77453002D01*
D10*
%TO.C,BT1*%
X113387886Y-39784187D02*
X190437886Y-39784187D01*
X113387886Y-60434187D02*
X190437886Y-60434187D01*
X113393786Y-46756387D02*
X113393786Y-39784087D01*
X113393786Y-60434287D02*
X113393786Y-53449287D01*
D16*
X179412886Y-47609187D02*
X179412886Y-52609187D01*
X181912886Y-50083787D02*
X176912886Y-50083787D01*
D10*
X190431986Y-39796787D02*
X190431986Y-46807187D01*
X190431986Y-60421587D02*
X190431986Y-53411187D01*
D17*
%TO.C,J7*%
X103582886Y-95039187D02*
X104912886Y-95039187D01*
X103582886Y-96369187D02*
X103582886Y-95039187D01*
X103582886Y-97639187D02*
X103582886Y-100239187D01*
X103582886Y-97639187D02*
X106242886Y-97639187D01*
X103582886Y-100239187D02*
X106242886Y-100239187D01*
X106242886Y-97639187D02*
X106242886Y-100239187D01*
%TO.C,J10*%
X194382886Y-80279187D02*
X195712886Y-80279187D01*
X194382886Y-81609187D02*
X194382886Y-80279187D01*
X194382886Y-82879187D02*
X194382886Y-100719187D01*
X194382886Y-82879187D02*
X197042886Y-82879187D01*
X194382886Y-100719187D02*
X197042886Y-100719187D01*
X197042886Y-82879187D02*
X197042886Y-100719187D01*
%TO.C,U2*%
X142120386Y-66169187D02*
X140320386Y-66169187D01*
X142120386Y-66169187D02*
X142920386Y-66169187D01*
X142120386Y-69289187D02*
X141320386Y-69289187D01*
X142120386Y-69289187D02*
X142920386Y-69289187D01*
%TO.C,R9*%
X175622886Y-97382123D02*
X175622886Y-98836251D01*
X173802886Y-97382123D02*
X173802886Y-98836251D01*
%TO.C,C1*%
X180535386Y-80501351D02*
X180535386Y-80717023D01*
X179815386Y-80501351D02*
X179815386Y-80717023D01*
%TO.C,C2*%
X180535386Y-88481351D02*
X180535386Y-88697023D01*
X179815386Y-88481351D02*
X179815386Y-88697023D01*
%TO.C,R7*%
X149222886Y-87382123D02*
X149222886Y-88836251D01*
X147402886Y-87382123D02*
X147402886Y-88836251D01*
%TO.C,TP13*%
X174475386Y-82409187D02*
X175875386Y-82409187D01*
X174475386Y-83809187D02*
X174475386Y-82409187D01*
X175875386Y-82409187D02*
X175875386Y-83809187D01*
X175875386Y-83809187D02*
X174475386Y-83809187D01*
%TO.C,J3*%
X117322886Y-114929187D02*
X175802886Y-114929187D01*
X117322886Y-114929187D02*
X117322886Y-112269187D01*
X175802886Y-114929187D02*
X175802886Y-112269187D01*
X114722886Y-113599187D02*
X114722886Y-112269187D01*
X114722886Y-112269187D02*
X116052886Y-112269187D01*
X117322886Y-112269187D02*
X175802886Y-112269187D01*
%TO.C,TP10*%
X196612886Y-121009187D02*
X198012886Y-121009187D01*
X196612886Y-122409187D02*
X196612886Y-121009187D01*
X198012886Y-121009187D02*
X198012886Y-122409187D01*
X198012886Y-122409187D02*
X196612886Y-122409187D01*
%TO.C,J8*%
X114722886Y-109849187D02*
X114722886Y-108519187D01*
X116052886Y-109849187D02*
X114722886Y-109849187D01*
X117322886Y-109849187D02*
X175802886Y-109849187D01*
X117322886Y-109849187D02*
X117322886Y-107189187D01*
X175802886Y-109849187D02*
X175802886Y-107189187D01*
X117322886Y-107189187D02*
X175802886Y-107189187D01*
%TO.C,R1*%
X127222886Y-122844623D02*
X127222886Y-124298751D01*
X125402886Y-122844623D02*
X125402886Y-124298751D01*
%TO.C,C4*%
X135622886Y-67367023D02*
X135622886Y-67151351D01*
X136342886Y-67367023D02*
X136342886Y-67151351D01*
%TO.C,TP7*%
X110012886Y-90409187D02*
X111412886Y-90409187D01*
X110012886Y-91809187D02*
X110012886Y-90409187D01*
X111412886Y-90409187D02*
X111412886Y-91809187D01*
X111412886Y-91809187D02*
X110012886Y-91809187D01*
%TO.C,R8*%
X156222886Y-87382123D02*
X156222886Y-88836251D01*
X154402886Y-87382123D02*
X154402886Y-88836251D01*
%TO.C,D1*%
X135282886Y-75673187D02*
X135282886Y-75829187D01*
X135282886Y-77989187D02*
X135282886Y-78145187D01*
X138515220Y-75830579D02*
G75*
G03*
X135282887Y-75673672I-1672334J-1078608D01*
G01*
X137884015Y-75829351D02*
G75*
G03*
X135801926Y-75829188I-1041129J-1079836D01*
G01*
X135801926Y-77989186D02*
G75*
G03*
X137884015Y-77989023I1040960J1079999D01*
G01*
X135282887Y-78144702D02*
G75*
G03*
X138515220Y-77987795I1559999J1235515D01*
G01*
%TO.C,J1*%
X117322886Y-131439187D02*
X175802886Y-131439187D01*
X117322886Y-131439187D02*
X117322886Y-128779187D01*
X175802886Y-131439187D02*
X175802886Y-128779187D01*
X114722886Y-130109187D02*
X114722886Y-128779187D01*
X114722886Y-128779187D02*
X116052886Y-128779187D01*
X117322886Y-128779187D02*
X175802886Y-128779187D01*
%TO.C,TP11*%
X196612886Y-125809187D02*
X198012886Y-125809187D01*
X196612886Y-127209187D02*
X196612886Y-125809187D01*
X198012886Y-125809187D02*
X198012886Y-127209187D01*
X198012886Y-127209187D02*
X196612886Y-127209187D01*
%TO.C,TP5*%
X178612886Y-101409187D02*
X180012886Y-101409187D01*
X178612886Y-102809187D02*
X178612886Y-101409187D01*
X180012886Y-101409187D02*
X180012886Y-102809187D01*
X180012886Y-102809187D02*
X178612886Y-102809187D01*
%TO.C,J4*%
X185482886Y-67239187D02*
X186812886Y-67239187D01*
X185482886Y-68569187D02*
X185482886Y-67239187D01*
X185482886Y-69839187D02*
X185482886Y-72439187D01*
X185482886Y-69839187D02*
X188142886Y-69839187D01*
X185482886Y-72439187D02*
X188142886Y-72439187D01*
X188142886Y-69839187D02*
X188142886Y-72439187D01*
%TO.C,U1*%
X182675386Y-80979187D02*
X183815386Y-80979187D01*
X183815386Y-80749187D02*
X183815386Y-80979187D01*
X183815386Y-80749187D02*
X186535386Y-80749187D01*
X183815386Y-85469187D02*
X183815386Y-85239187D01*
X186535386Y-80749187D02*
X186535386Y-82059187D01*
X186535386Y-84159187D02*
X186535386Y-85469187D01*
X186535386Y-85469187D02*
X183815386Y-85469187D01*
%TO.C,J5*%
X178482886Y-67239187D02*
X179812886Y-67239187D01*
X178482886Y-68569187D02*
X178482886Y-67239187D01*
X178482886Y-69839187D02*
X178482886Y-72439187D01*
X178482886Y-69839187D02*
X181142886Y-69839187D01*
X178482886Y-72439187D02*
X181142886Y-72439187D01*
X181142886Y-69839187D02*
X181142886Y-72439187D01*
%TO.C,TP12*%
X196412886Y-116809187D02*
X197812886Y-116809187D01*
X196412886Y-118209187D02*
X196412886Y-116809187D01*
X197812886Y-116809187D02*
X197812886Y-118209187D01*
X197812886Y-118209187D02*
X196412886Y-118209187D01*
%TO.C,TP1*%
X116400000Y-67700000D02*
X117800000Y-67700000D01*
X116400000Y-69100000D02*
X116400000Y-67700000D01*
X117800000Y-67700000D02*
X117800000Y-69100000D01*
X117800000Y-69100000D02*
X116400000Y-69100000D01*
%TO.C,TP3*%
X143612886Y-92871687D02*
X145012886Y-92871687D01*
X143612886Y-94271687D02*
X143612886Y-92871687D01*
X145012886Y-92871687D02*
X145012886Y-94271687D01*
X145012886Y-94271687D02*
X143612886Y-94271687D01*
%TO.C,R3*%
X131892886Y-67089623D02*
X131892886Y-68543751D01*
X130072886Y-67089623D02*
X130072886Y-68543751D01*
%TO.C,TP4*%
X151612886Y-92871687D02*
X153012886Y-92871687D01*
X151612886Y-94271687D02*
X151612886Y-92871687D01*
X153012886Y-92871687D02*
X153012886Y-94271687D01*
X153012886Y-94271687D02*
X151612886Y-94271687D01*
%TO.C,TP6*%
X110212886Y-93409187D02*
X111612886Y-93409187D01*
X110212886Y-94809187D02*
X110212886Y-93409187D01*
X111612886Y-93409187D02*
X111612886Y-94809187D01*
X111612886Y-94809187D02*
X110212886Y-94809187D01*
%TO.C,SW1*%
X108612886Y-117959187D02*
X107112886Y-117959187D01*
X104612886Y-119209187D02*
X104612886Y-123709187D01*
X111112886Y-123709187D02*
X111112886Y-119209187D01*
X107112886Y-124959187D02*
X108612886Y-124959187D01*
%TO.C,R10*%
X184062886Y-94959187D02*
X187112886Y-94959187D01*
X184062886Y-99259187D02*
X187112886Y-99259187D01*
X184084652Y-94943662D02*
G75*
G03*
X184062886Y-99259186I1528234J-2165525D01*
G01*
X187157399Y-99227436D02*
G75*
G03*
X187112886Y-94959187I-1544513J2118249D01*
G01*
%TO.C,TP2*%
X135612886Y-93409187D02*
X137012886Y-93409187D01*
X135612886Y-94809187D02*
X135612886Y-93409187D01*
X137012886Y-93409187D02*
X137012886Y-94809187D01*
X137012886Y-94809187D02*
X135612886Y-94809187D01*
%TO.C,R6*%
X141222886Y-87382123D02*
X141222886Y-88836251D01*
X139402886Y-87382123D02*
X139402886Y-88836251D01*
%TO.C,J9*%
X114722886Y-136089187D02*
X114722886Y-134759187D01*
X116052886Y-136089187D02*
X114722886Y-136089187D01*
X117322886Y-136089187D02*
X175802886Y-136089187D01*
X117322886Y-136089187D02*
X117322886Y-133429187D01*
X175802886Y-136089187D02*
X175802886Y-133429187D01*
X117322886Y-133429187D02*
X175802886Y-133429187D01*
%TD*%
M02*
