%TF.GenerationSoftware,KiCad,Pcbnew,(7.0.0)*%
%TF.CreationDate,2023-03-21T02:39:43+02:00*%
%TF.ProjectId,Main Schematic,4d61696e-2053-4636-9865-6d617469632e,rev?*%
%TF.SameCoordinates,Original*%
%TF.FileFunction,Paste,Top*%
%TF.FilePolarity,Positive*%
%FSLAX46Y46*%
G04 Gerber Fmt 4.6, Leading zero omitted, Abs format (unit mm)*
G04 Created by KiCad (PCBNEW (7.0.0)) date 2023-03-21 02:39:43*
%MOMM*%
%LPD*%
G01*
G04 APERTURE LIST*
G04 Aperture macros list*
%AMRoundRect*
0 Rectangle with rounded corners*
0 $1 Rounding radius*
0 $2 $3 $4 $5 $6 $7 $8 $9 X,Y pos of 4 corners*
0 Add a 4 corners polygon primitive as box body*
4,1,4,$2,$3,$4,$5,$6,$7,$8,$9,$2,$3,0*
0 Add four circle primitives for the rounded corners*
1,1,$1+$1,$2,$3*
1,1,$1+$1,$4,$5*
1,1,$1+$1,$6,$7*
1,1,$1+$1,$8,$9*
0 Add four rect primitives between the rounded corners*
20,1,$1+$1,$2,$3,$4,$5,0*
20,1,$1+$1,$4,$5,$6,$7,0*
20,1,$1+$1,$6,$7,$8,$9,0*
20,1,$1+$1,$8,$9,$2,$3,0*%
%AMFreePoly0*
4,1,9,3.862500,-0.866500,0.737500,-0.866500,0.737500,-0.450000,-0.737500,-0.450000,-0.737500,0.450000,0.737500,0.450000,0.737500,0.866500,3.862500,0.866500,3.862500,-0.866500,3.862500,-0.866500,$1*%
G04 Aperture macros list end*
%ADD10O,1.950216X0.568402*%
%ADD11O,1.745009X0.559995*%
%ADD12R,1.727991X1.485014*%
%ADD13R,0.540005X0.565659*%
%ADD14O,1.500000X0.400000*%
%ADD15R,1.400000X0.400000*%
%ADD16R,1.000000X0.550013*%
%ADD17RoundRect,1.625000X-2.125000X-1.625000X2.125000X-1.625000X2.125000X1.625000X-2.125000X1.625000X0*%
%ADD18RoundRect,0.079500X-0.100500X0.079500X-0.100500X-0.079500X0.100500X-0.079500X0.100500X0.079500X0*%
%ADD19RoundRect,0.150000X-0.512500X-0.150000X0.512500X-0.150000X0.512500X0.150000X-0.512500X0.150000X0*%
%ADD20RoundRect,0.250000X-0.625000X0.312500X-0.625000X-0.312500X0.625000X-0.312500X0.625000X0.312500X0*%
%ADD21RoundRect,0.140000X-0.170000X0.140000X-0.170000X-0.140000X0.170000X-0.140000X0.170000X0.140000X0*%
%ADD22RoundRect,0.140000X0.170000X-0.140000X0.170000X0.140000X-0.170000X0.140000X-0.170000X-0.140000X0*%
%ADD23R,1.300000X0.900000*%
%ADD24FreePoly0,0.000000*%
G04 APERTURE END LIST*
D10*
%TO.C,U4*%
X183207780Y-117604182D03*
X183207780Y-118874185D03*
X183207780Y-120144187D03*
X183207780Y-121414190D03*
X188617990Y-117604182D03*
X188617990Y-118874185D03*
X188617990Y-120144187D03*
X188617990Y-121414190D03*
%TD*%
D11*
%TO.C,U3*%
X118767901Y-90689171D03*
X118767901Y-91959174D03*
X118767901Y-93229176D03*
X118767901Y-94499179D03*
X118767901Y-95769181D03*
X118767901Y-97039184D03*
X118767901Y-98309186D03*
X118767901Y-99579189D03*
X124512885Y-90689171D03*
X124512885Y-91959174D03*
X124512885Y-93229176D03*
X124512885Y-94499179D03*
X124512885Y-95769181D03*
X124512885Y-97039184D03*
X124512885Y-98309186D03*
X124512885Y-99579189D03*
%TD*%
D12*
%TO.C,R5*%
X168482885Y-65186603D03*
X168482885Y-68371769D03*
%TD*%
D13*
%TO.C,R4*%
X150982885Y-66346369D03*
X150982885Y-67212003D03*
%TD*%
%TO.C,R2*%
X126980091Y-66759577D03*
X126980091Y-65893943D03*
%TD*%
D14*
%TO.C,Q1*%
X156682530Y-66753913D03*
X156682530Y-67404154D03*
X156682530Y-68054396D03*
X156682530Y-68704637D03*
X163083342Y-66753913D03*
X163083342Y-67404154D03*
X163083342Y-68054396D03*
X163083342Y-68704637D03*
%TD*%
D15*
%TO.C,J6*%
X111714172Y-79899974D03*
X111714172Y-79249986D03*
X111714172Y-78599999D03*
X111714172Y-77950012D03*
X111714172Y-77300024D03*
%TD*%
D10*
%TO.C,IC2*%
X160607780Y-95204182D03*
X160607780Y-96474185D03*
X160607780Y-97744187D03*
X160607780Y-99014190D03*
X166017990Y-95204182D03*
X166017990Y-96474185D03*
X166017990Y-97744187D03*
X166017990Y-99014190D03*
%TD*%
D16*
%TO.C,IC1*%
X156812885Y-81009110D03*
X156812885Y-80059148D03*
X156812885Y-79109186D03*
X159612987Y-79109186D03*
X159612987Y-80059148D03*
X159612987Y-81009110D03*
%TD*%
D12*
%TO.C,C8*%
X193312885Y-114709186D03*
X193312885Y-111524020D03*
%TD*%
%TO.C,C7*%
X131112885Y-89909186D03*
X131112885Y-86724020D03*
%TD*%
%TO.C,C6*%
X166812885Y-86386520D03*
X166812885Y-89571686D03*
%TD*%
%TO.C,C5*%
X166812885Y-81609186D03*
X166812885Y-78424020D03*
%TD*%
D17*
%TO.C,BT1*%
X191562886Y-50109187D03*
X112262886Y-50109187D03*
%TD*%
D18*
%TO.C,C3*%
X120512886Y-68309187D03*
X120512886Y-68999187D03*
%TD*%
D19*
%TO.C,U2*%
X140982886Y-66779187D03*
X140982886Y-67729187D03*
X140982886Y-68679187D03*
X143257886Y-68679187D03*
X143257886Y-66779187D03*
%TD*%
D20*
%TO.C,R9*%
X174712886Y-96646687D03*
X174712886Y-99571687D03*
%TD*%
D21*
%TO.C,C1*%
X180175386Y-80129187D03*
X180175386Y-81089187D03*
%TD*%
%TO.C,C2*%
X180175386Y-88109187D03*
X180175386Y-89069187D03*
%TD*%
D20*
%TO.C,R7*%
X148312886Y-86646687D03*
X148312886Y-89571687D03*
%TD*%
%TO.C,R1*%
X126312886Y-122109187D03*
X126312886Y-125034187D03*
%TD*%
D22*
%TO.C,C4*%
X135982886Y-67739187D03*
X135982886Y-66779187D03*
%TD*%
D20*
%TO.C,R8*%
X155312886Y-86646687D03*
X155312886Y-89571687D03*
%TD*%
D23*
%TO.C,U1*%
X183225385Y-81609186D03*
D24*
X183312886Y-83109187D03*
D23*
X183225385Y-84609186D03*
%TD*%
D20*
%TO.C,R3*%
X130982886Y-66354187D03*
X130982886Y-69279187D03*
%TD*%
%TO.C,R6*%
X140312886Y-86646687D03*
X140312886Y-89571687D03*
%TD*%
M02*
