%TF.GenerationSoftware,KiCad,Pcbnew,(7.0.0)*%
%TF.CreationDate,2023-03-21T02:39:43+02:00*%
%TF.ProjectId,Main Schematic,4d61696e-2053-4636-9865-6d617469632e,rev?*%
%TF.SameCoordinates,Original*%
%TF.FileFunction,Copper,L1,Top*%
%TF.FilePolarity,Positive*%
%FSLAX46Y46*%
G04 Gerber Fmt 4.6, Leading zero omitted, Abs format (unit mm)*
G04 Created by KiCad (PCBNEW (7.0.0)) date 2023-03-21 02:39:43*
%MOMM*%
%LPD*%
G01*
G04 APERTURE LIST*
G04 Aperture macros list*
%AMRoundRect*
0 Rectangle with rounded corners*
0 $1 Rounding radius*
0 $2 $3 $4 $5 $6 $7 $8 $9 X,Y pos of 4 corners*
0 Add a 4 corners polygon primitive as box body*
4,1,4,$2,$3,$4,$5,$6,$7,$8,$9,$2,$3,0*
0 Add four circle primitives for the rounded corners*
1,1,$1+$1,$2,$3*
1,1,$1+$1,$4,$5*
1,1,$1+$1,$6,$7*
1,1,$1+$1,$8,$9*
0 Add four rect primitives between the rounded corners*
20,1,$1+$1,$2,$3,$4,$5,0*
20,1,$1+$1,$4,$5,$6,$7,0*
20,1,$1+$1,$6,$7,$8,$9,0*
20,1,$1+$1,$8,$9,$2,$3,0*%
%AMFreePoly0*
4,1,9,3.862500,-0.866500,0.737500,-0.866500,0.737500,-0.450000,-0.737500,-0.450000,-0.737500,0.450000,0.737500,0.450000,0.737500,0.866500,3.862500,0.866500,3.862500,-0.866500,3.862500,-0.866500,$1*%
G04 Aperture macros list end*
%TA.AperFunction,SMDPad,CuDef*%
%ADD10O,1.950216X0.568402*%
%TD*%
%TA.AperFunction,SMDPad,CuDef*%
%ADD11O,1.745009X0.559995*%
%TD*%
%TA.AperFunction,SMDPad,CuDef*%
%ADD12R,1.727991X1.485014*%
%TD*%
%TA.AperFunction,SMDPad,CuDef*%
%ADD13R,0.540005X0.565659*%
%TD*%
%TA.AperFunction,SMDPad,CuDef*%
%ADD14O,1.500000X0.400000*%
%TD*%
%TA.AperFunction,SMDPad,CuDef*%
%ADD15R,1.400000X0.400000*%
%TD*%
%TA.AperFunction,ComponentPad*%
%ADD16O,2.200000X1.300000*%
%TD*%
%TA.AperFunction,ComponentPad*%
%ADD17C,1.300000*%
%TD*%
%TA.AperFunction,SMDPad,CuDef*%
%ADD18R,1.000000X0.550013*%
%TD*%
%TA.AperFunction,ComponentPad*%
%ADD19C,4.000000*%
%TD*%
%TA.AperFunction,ComponentPad*%
%ADD20C,2.700000*%
%TD*%
%TA.AperFunction,SMDPad,CuDef*%
%ADD21RoundRect,1.625000X-2.125000X-1.625000X2.125000X-1.625000X2.125000X1.625000X-2.125000X1.625000X0*%
%TD*%
%TA.AperFunction,ComponentPad*%
%ADD22R,1.700000X1.700000*%
%TD*%
%TA.AperFunction,ComponentPad*%
%ADD23O,1.700000X1.700000*%
%TD*%
%TA.AperFunction,SMDPad,CuDef*%
%ADD24RoundRect,0.100000X-0.100000X0.130000X-0.100000X-0.130000X0.100000X-0.130000X0.100000X0.130000X0*%
%TD*%
%TA.AperFunction,SMDPad,CuDef*%
%ADD25RoundRect,0.150000X-0.512500X-0.150000X0.512500X-0.150000X0.512500X0.150000X-0.512500X0.150000X0*%
%TD*%
%TA.AperFunction,SMDPad,CuDef*%
%ADD26RoundRect,0.250000X-0.625000X0.312500X-0.625000X-0.312500X0.625000X-0.312500X0.625000X0.312500X0*%
%TD*%
%TA.AperFunction,SMDPad,CuDef*%
%ADD27RoundRect,0.140000X-0.170000X0.140000X-0.170000X-0.140000X0.170000X-0.140000X0.170000X0.140000X0*%
%TD*%
%TA.AperFunction,SMDPad,CuDef*%
%ADD28R,1.000000X1.000000*%
%TD*%
%TA.AperFunction,SMDPad,CuDef*%
%ADD29RoundRect,0.140000X0.170000X-0.140000X0.170000X0.140000X-0.170000X0.140000X-0.170000X-0.140000X0*%
%TD*%
%TA.AperFunction,ComponentPad*%
%ADD30R,1.800000X1.800000*%
%TD*%
%TA.AperFunction,ComponentPad*%
%ADD31C,1.800000*%
%TD*%
%TA.AperFunction,SMDPad,CuDef*%
%ADD32R,1.300000X0.900000*%
%TD*%
%TA.AperFunction,SMDPad,CuDef*%
%ADD33FreePoly0,0.000000*%
%TD*%
%TA.AperFunction,ComponentPad*%
%ADD34C,2.000000*%
%TD*%
%TA.AperFunction,ComponentPad*%
%ADD35C,1.500000*%
%TD*%
%TA.AperFunction,ViaPad*%
%ADD36C,0.800000*%
%TD*%
%TA.AperFunction,Conductor*%
%ADD37C,0.500000*%
%TD*%
%TA.AperFunction,Conductor*%
%ADD38C,0.250000*%
%TD*%
%TA.AperFunction,Conductor*%
%ADD39C,0.300000*%
%TD*%
%TA.AperFunction,Conductor*%
%ADD40C,0.200000*%
%TD*%
G04 APERTURE END LIST*
D10*
%TO.P,U4,1,E0*%
%TO.N,GND*%
X183207780Y-117604182D03*
%TO.P,U4,2,E1*%
X183207780Y-118874185D03*
%TO.P,U4,3,E2*%
X183207780Y-120144187D03*
%TO.P,U4,4,VSS*%
X183207780Y-121414190D03*
%TO.P,U4,8,VCC*%
%TO.N,/3.3V*%
X188617990Y-117604182D03*
%TO.P,U4,7,~{WC}*%
%TO.N,/WRITE*%
X188617990Y-118874185D03*
%TO.P,U4,6,SCL*%
%TO.N,/SCL*%
X188617990Y-120144187D03*
%TO.P,U4,5,SDA*%
%TO.N,/SDL*%
X188617990Y-121414190D03*
%TD*%
D11*
%TO.P,U3,1,GND*%
%TO.N,GND*%
X118767901Y-90689171D03*
%TO.P,U3,2,TXD*%
%TO.N,/RXD*%
X118767901Y-91959174D03*
%TO.P,U3,3,RXD*%
%TO.N,/TXD*%
X118767901Y-93229176D03*
%TO.P,U3,4,V3*%
%TO.N,/3.3V*%
X118767901Y-94499179D03*
%TO.P,U3,5,UD+*%
%TO.N,/USB D+*%
X118767901Y-95769181D03*
%TO.P,U3,6,UD-*%
%TO.N,/USB D-*%
X118767901Y-97039184D03*
%TO.P,U3,7,NC.*%
%TO.N,unconnected-(U3-NC.-Pad7)*%
X118767901Y-98309186D03*
%TO.P,U3,8,~{OUT}*%
%TO.N,unconnected-(U3-~{OUT}-Pad8)*%
X118767901Y-99579189D03*
%TO.P,U3,16,VCC*%
%TO.N,/3.3V*%
X124512885Y-90689171D03*
%TO.P,U3,15,R232*%
%TO.N,unconnected-(U3-R232-Pad15)*%
X124512885Y-91959174D03*
%TO.P,U3,14,~{RTS}*%
%TO.N,unconnected-(U3-~{RTS}-Pad14)*%
X124512885Y-93229176D03*
%TO.P,U3,13,~{DTR}*%
%TO.N,unconnected-(U3-~{DTR}-Pad13)*%
X124512885Y-94499179D03*
%TO.P,U3,12,~{DCD}*%
%TO.N,unconnected-(U3-~{DCD}-Pad12)*%
X124512885Y-95769181D03*
%TO.P,U3,11,~{RI}*%
%TO.N,unconnected-(U3-~{RI}-Pad11)*%
X124512885Y-97039184D03*
%TO.P,U3,10,~{DSR}*%
%TO.N,unconnected-(U3-~{DSR}-Pad10)*%
X124512885Y-98309186D03*
%TO.P,U3,9,~{CTS}*%
%TO.N,unconnected-(U3-~{CTS}-Pad9)*%
X124512885Y-99579189D03*
%TD*%
D12*
%TO.P,R5,2*%
%TO.N,/Power Unit/V1*%
X168482885Y-65186603D03*
%TO.P,R5,1*%
%TO.N,Net-(IC1-VCC)*%
X168482885Y-68371769D03*
%TD*%
D13*
%TO.P,R4,2*%
%TO.N,Net-(IC1-CS)*%
X150982885Y-66346369D03*
%TO.P,R4,1*%
%TO.N,GND*%
X150982885Y-67212003D03*
%TD*%
%TO.P,R2,2*%
%TO.N,Net-(D1-A)*%
X126980091Y-66759577D03*
%TO.P,R2,1*%
%TO.N,/5V*%
X126980091Y-65893943D03*
%TD*%
D14*
%TO.P,Q1,1,D12_1*%
%TO.N,/Power Unit/D12*%
X156682530Y-66753913D03*
%TO.P,Q1,2,S1_1*%
%TO.N,GND*%
X156682530Y-67404154D03*
%TO.P,Q1,3,S1_2*%
X156682530Y-68054396D03*
%TO.P,Q1,4,G1*%
%TO.N,/Power Unit/OC*%
X156682530Y-68704637D03*
%TO.P,Q1,8,D12_2*%
%TO.N,/Power Unit/D12*%
X163083342Y-66753913D03*
%TO.P,Q1,7,S2_2*%
%TO.N,GND*%
X163083342Y-67404154D03*
%TO.P,Q1,6,S2_1*%
X163083342Y-68054396D03*
%TO.P,Q1,5,G2*%
%TO.N,/Power Unit/OD*%
X163083342Y-68704637D03*
%TD*%
D15*
%TO.P,J6,5,GND*%
%TO.N,GND*%
X111714172Y-79899974D03*
%TO.P,J6,4,ID*%
X111714172Y-79249986D03*
%TO.P,J6,3,D+*%
%TO.N,/USB D+*%
X111714172Y-78599999D03*
%TO.P,J6,2,D-*%
%TO.N,/USB D-*%
X111714172Y-77950012D03*
%TO.P,J6,1,VBUS*%
%TO.N,/5V*%
X111714172Y-77300024D03*
D16*
%TO.P,J6,7*%
%TO.N,N/C*%
X108671500Y-82199948D03*
%TO.P,J6,8*%
X108671500Y-75000050D03*
D17*
%TO.P,J6,9*%
X111341554Y-76175057D03*
%TO.P,J6,6,Shield*%
%TO.N,GND*%
X111341554Y-81024943D03*
%TD*%
D10*
%TO.P,IC2,1,SDA*%
%TO.N,/SDL*%
X160607780Y-95204182D03*
%TO.P,IC2,2,SCL*%
%TO.N,/SCL*%
X160607780Y-96474185D03*
%TO.P,IC2,3,OS*%
%TO.N,/OS*%
X160607780Y-97744187D03*
%TO.P,IC2,4,GND*%
%TO.N,GND*%
X160607780Y-99014190D03*
%TO.P,IC2,8,VCC*%
%TO.N,/3.3V*%
X166017990Y-95204182D03*
%TO.P,IC2,7,A0*%
%TO.N,GND*%
X166017990Y-96474185D03*
%TO.P,IC2,6,A1*%
X166017990Y-97744187D03*
%TO.P,IC2,5,A2*%
X166017990Y-99014190D03*
%TD*%
D18*
%TO.P,IC1,3,OC*%
%TO.N,/Power Unit/OC*%
X156812885Y-81009110D03*
%TO.P,IC1,2,CS*%
%TO.N,Net-(IC1-CS)*%
X156812885Y-80059148D03*
%TO.P,IC1,1,OD*%
%TO.N,/Power Unit/OD*%
X156812885Y-79109186D03*
%TO.P,IC1,6,GND*%
%TO.N,GND*%
X159612987Y-79109186D03*
%TO.P,IC1,5,VCC*%
%TO.N,Net-(IC1-VCC)*%
X159612987Y-80059148D03*
%TO.P,IC1,4,TD*%
%TO.N,unconnected-(IC1-TD-Pad4)*%
X159612987Y-81009110D03*
%TD*%
D12*
%TO.P,C8,2*%
%TO.N,GND*%
X193312885Y-114709186D03*
%TO.P,C8,1*%
%TO.N,/3.3V*%
X193312885Y-111524020D03*
%TD*%
%TO.P,C7,2*%
%TO.N,GND*%
X131112885Y-89909186D03*
%TO.P,C7,1*%
%TO.N,/3.3V*%
X131112885Y-86724020D03*
%TD*%
%TO.P,C6,2*%
%TO.N,/3.3V*%
X166812885Y-86386520D03*
%TO.P,C6,1*%
%TO.N,GND*%
X166812885Y-89571686D03*
%TD*%
%TO.P,C5,2*%
%TO.N,GND*%
X166812885Y-81609186D03*
%TO.P,C5,1*%
%TO.N,/Power Unit/V1*%
X166812885Y-78424020D03*
%TD*%
D19*
%TO.P,BT1,*%
%TO.N,*%
X124312886Y-58109187D03*
X179512886Y-42109187D03*
D20*
X187732886Y-58109187D03*
D21*
%TO.P,BT1,1,+*%
%TO.N,/Power Unit/V1*%
X191562886Y-50109187D03*
%TO.P,BT1,2,-*%
%TO.N,GND*%
X112262886Y-50109187D03*
%TD*%
D22*
%TO.P,J7,1,Pin_1*%
%TO.N,/USB D+*%
X104912885Y-96369186D03*
D23*
%TO.P,J7,2,Pin_2*%
%TO.N,/USB D-*%
X104912885Y-98909186D03*
%TD*%
D22*
%TO.P,J10,1,Pin_1*%
%TO.N,GND*%
X195712885Y-81609186D03*
D23*
%TO.P,J10,2,Pin_2*%
%TO.N,/RXD*%
X195712885Y-84149186D03*
%TO.P,J10,3,Pin_3*%
%TO.N,/TXD*%
X195712885Y-86689186D03*
%TO.P,J10,4,Pin_4*%
%TO.N,/WRITE*%
X195712885Y-89229186D03*
%TO.P,J10,5,Pin_5*%
%TO.N,/SCL*%
X195712885Y-91769186D03*
%TO.P,J10,6,Pin_6*%
%TO.N,/SDL*%
X195712885Y-94309186D03*
%TO.P,J10,7,Pin_7*%
%TO.N,/ADC*%
X195712885Y-96849186D03*
%TO.P,J10,8,Pin_8*%
%TO.N,/5V*%
X195712885Y-99389186D03*
%TD*%
D24*
%TO.P,C3,1*%
%TO.N,/5V*%
X120512886Y-68334187D03*
%TO.P,C3,2*%
%TO.N,GND*%
X120512886Y-68974187D03*
%TD*%
D25*
%TO.P,U2,1,STAT*%
%TO.N,Net-(D1-K)*%
X140982886Y-66779187D03*
%TO.P,U2,2,VSS*%
%TO.N,GND*%
X140982886Y-67729187D03*
%TO.P,U2,3,VBAT*%
%TO.N,/Power Unit/V1*%
X140982886Y-68679187D03*
%TO.P,U2,4,VDD*%
%TO.N,/5V*%
X143257886Y-68679187D03*
%TO.P,U2,5,PROG*%
%TO.N,Net-(U2-PROG)*%
X143257886Y-66779187D03*
%TD*%
D26*
%TO.P,R9,1*%
%TO.N,/3.3V*%
X174712886Y-96646687D03*
%TO.P,R9,2*%
%TO.N,/ADC*%
X174712886Y-99571687D03*
%TD*%
D27*
%TO.P,C1,1*%
%TO.N,Net-(J4-Pin_2)*%
X180175386Y-80129187D03*
%TO.P,C1,2*%
%TO.N,GND*%
X180175386Y-81089187D03*
%TD*%
%TO.P,C2,1*%
%TO.N,/3.3V*%
X180175386Y-88109187D03*
%TO.P,C2,2*%
%TO.N,GND*%
X180175386Y-89069187D03*
%TD*%
D26*
%TO.P,R7,1*%
%TO.N,/3.3V*%
X148312886Y-86646687D03*
%TO.P,R7,2*%
%TO.N,/SCL*%
X148312886Y-89571687D03*
%TD*%
D28*
%TO.P,TP13,1,1*%
%TO.N,Net-(J4-Pin_2)*%
X175175385Y-83109186D03*
%TD*%
D22*
%TO.P,J3,1,Pin_1*%
%TO.N,/3.3V*%
X116052885Y-113599186D03*
D23*
%TO.P,J3,2,Pin_2*%
%TO.N,GND*%
X118592885Y-113599186D03*
%TO.P,J3,3,Pin_3*%
%TO.N,/PB9*%
X121132885Y-113599186D03*
%TO.P,J3,4,Pin_4*%
%TO.N,/PB8*%
X123672885Y-113599186D03*
%TO.P,J3,5,Pin_5*%
%TO.N,/BOOT*%
X126212885Y-113599186D03*
%TO.P,J3,6,Pin_6*%
%TO.N,/PB7*%
X128752885Y-113599186D03*
%TO.P,J3,7,Pin_7*%
%TO.N,/PB6*%
X131292885Y-113599186D03*
%TO.P,J3,8,Pin_8*%
%TO.N,/PB5*%
X133832885Y-113599186D03*
%TO.P,J3,9,Pin_9*%
%TO.N,/PB4*%
X136372885Y-113599186D03*
%TO.P,J3,10,Pin_10*%
%TO.N,/PB3*%
X138912885Y-113599186D03*
%TO.P,J3,11,Pin_11*%
%TO.N,/PA15*%
X141452885Y-113599186D03*
%TO.P,J3,12,Pin_12*%
%TO.N,/PA14*%
X143992885Y-113599186D03*
%TO.P,J3,13,Pin_13*%
%TO.N,/PF7*%
X146532885Y-113599186D03*
%TO.P,J3,14,Pin_14*%
%TO.N,/PF6*%
X149072885Y-113599186D03*
%TO.P,J3,15,Pin_15*%
%TO.N,/PA13*%
X151612885Y-113599186D03*
%TO.P,J3,16,Pin_16*%
%TO.N,/PA12*%
X154152885Y-113599186D03*
%TO.P,J3,17,Pin_17*%
%TO.N,/PA11*%
X156692885Y-113599186D03*
%TO.P,J3,18,Pin_18*%
%TO.N,/TXD*%
X159232885Y-113599186D03*
%TO.P,J3,19,Pin_19*%
%TO.N,/RXD*%
X161772885Y-113599186D03*
%TO.P,J3,20,Pin_20*%
%TO.N,/PA8*%
X164312885Y-113599186D03*
%TO.P,J3,21,Pin_21*%
%TO.N,/PB15*%
X166852885Y-113599186D03*
%TO.P,J3,22,Pin_22*%
%TO.N,/PB14*%
X169392885Y-113599186D03*
%TO.P,J3,23,Pin_23*%
%TO.N,/PB13*%
X171932885Y-113599186D03*
%TO.P,J3,24,Pin_24*%
%TO.N,/WRITE*%
X174472885Y-113599186D03*
%TD*%
D28*
%TO.P,TP10,1,1*%
%TO.N,/SCL*%
X197312885Y-121709186D03*
%TD*%
D22*
%TO.P,J8,1,Pin_1*%
%TO.N,/3.3V*%
X116052885Y-108519186D03*
D23*
%TO.P,J8,2,Pin_2*%
%TO.N,GND*%
X118592885Y-108519186D03*
%TO.P,J8,3,Pin_3*%
%TO.N,/PB9*%
X121132885Y-108519186D03*
%TO.P,J8,4,Pin_4*%
%TO.N,/PB8*%
X123672885Y-108519186D03*
%TO.P,J8,5,Pin_5*%
%TO.N,/BOOT*%
X126212885Y-108519186D03*
%TO.P,J8,6,Pin_6*%
%TO.N,/PB7*%
X128752885Y-108519186D03*
%TO.P,J8,7,Pin_7*%
%TO.N,/PB6*%
X131292885Y-108519186D03*
%TO.P,J8,8,Pin_8*%
%TO.N,/PB5*%
X133832885Y-108519186D03*
%TO.P,J8,9,Pin_9*%
%TO.N,/PB4*%
X136372885Y-108519186D03*
%TO.P,J8,10,Pin_10*%
%TO.N,/PB3*%
X138912885Y-108519186D03*
%TO.P,J8,11,Pin_11*%
%TO.N,/PA15*%
X141452885Y-108519186D03*
%TO.P,J8,12,Pin_12*%
%TO.N,/PA14*%
X143992885Y-108519186D03*
%TO.P,J8,13,Pin_13*%
%TO.N,/PF7*%
X146532885Y-108519186D03*
%TO.P,J8,14,Pin_14*%
%TO.N,/PF6*%
X149072885Y-108519186D03*
%TO.P,J8,15,Pin_15*%
%TO.N,/PA13*%
X151612885Y-108519186D03*
%TO.P,J8,16,Pin_16*%
%TO.N,/PA12*%
X154152885Y-108519186D03*
%TO.P,J8,17,Pin_17*%
%TO.N,/PA11*%
X156692885Y-108519186D03*
%TO.P,J8,18,Pin_18*%
%TO.N,/TXD*%
X159232885Y-108519186D03*
%TO.P,J8,19,Pin_19*%
%TO.N,/RXD*%
X161772885Y-108519186D03*
%TO.P,J8,20,Pin_20*%
%TO.N,/PA8*%
X164312885Y-108519186D03*
%TO.P,J8,21,Pin_21*%
%TO.N,/PB15*%
X166852885Y-108519186D03*
%TO.P,J8,22,Pin_22*%
%TO.N,/PB14*%
X169392885Y-108519186D03*
%TO.P,J8,23,Pin_23*%
%TO.N,/PB13*%
X171932885Y-108519186D03*
%TO.P,J8,24,Pin_24*%
%TO.N,/WRITE*%
X174472885Y-108519186D03*
%TD*%
D26*
%TO.P,R1,1*%
%TO.N,/BOOT*%
X126312886Y-122109187D03*
%TO.P,R1,2*%
%TO.N,GND*%
X126312886Y-125034187D03*
%TD*%
D29*
%TO.P,C4,1*%
%TO.N,/Power Unit/V1*%
X135982886Y-67739187D03*
%TO.P,C4,2*%
%TO.N,GND*%
X135982886Y-66779187D03*
%TD*%
D28*
%TO.P,TP7,1,1*%
%TO.N,/RXD*%
X110712885Y-91109186D03*
%TD*%
D26*
%TO.P,R8,1*%
%TO.N,/3.3V*%
X155312886Y-86646687D03*
%TO.P,R8,2*%
%TO.N,/SDL*%
X155312886Y-89571687D03*
%TD*%
D30*
%TO.P,D1,1,K*%
%TO.N,Net-(D1-K)*%
X135572885Y-76909186D03*
D31*
%TO.P,D1,2,A*%
%TO.N,Net-(D1-A)*%
X138112886Y-76909187D03*
%TD*%
D22*
%TO.P,J1,1,Pin_1*%
%TO.N,/3.3V*%
X116052885Y-130109186D03*
D23*
%TO.P,J1,2,Pin_2*%
%TO.N,/PC13*%
X118592885Y-130109186D03*
%TO.P,J1,3,Pin_3*%
%TO.N,/PC14*%
X121132885Y-130109186D03*
%TO.P,J1,4,Pin_4*%
%TO.N,/PC15*%
X123672885Y-130109186D03*
%TO.P,J1,5,Pin_5*%
%TO.N,/PF0*%
X126212885Y-130109186D03*
%TO.P,J1,6,Pin_6*%
%TO.N,/PF1*%
X128752885Y-130109186D03*
%TO.P,J1,7,Pin_7*%
%TO.N,/NRST*%
X131292885Y-130109186D03*
%TO.P,J1,8,Pin_8*%
%TO.N,Net-(J1-Pin_8)*%
X133832885Y-130109186D03*
%TO.P,J1,9,Pin_9*%
%TO.N,/3.3V*%
X136372885Y-130109186D03*
%TO.P,J1,10,Pin_10*%
%TO.N,/PA0*%
X138912885Y-130109186D03*
%TO.P,J1,11,Pin_11*%
%TO.N,/PA1*%
X141452885Y-130109186D03*
%TO.P,J1,12,Pin_12*%
%TO.N,/PA2*%
X143992885Y-130109186D03*
%TO.P,J1,13,Pin_13*%
%TO.N,/PA3*%
X146532885Y-130109186D03*
%TO.P,J1,14,Pin_14*%
%TO.N,/ADC*%
X149072885Y-130109186D03*
%TO.P,J1,15,Pin_15*%
%TO.N,/PA5*%
X151612885Y-130109186D03*
%TO.P,J1,16,Pin_16*%
%TO.N,/PA6*%
X154152885Y-130109186D03*
%TO.P,J1,17,Pin_17*%
%TO.N,/PA7*%
X156692885Y-130109186D03*
%TO.P,J1,18,Pin_18*%
%TO.N,/PB0*%
X159232885Y-130109186D03*
%TO.P,J1,19,Pin_19*%
%TO.N,/PB1*%
X161772885Y-130109186D03*
%TO.P,J1,20,Pin_20*%
%TO.N,/OS*%
X164312885Y-130109186D03*
%TO.P,J1,21,Pin_21*%
%TO.N,/SCL*%
X166852885Y-130109186D03*
%TO.P,J1,22,Pin_22*%
%TO.N,/SDL*%
X169392885Y-130109186D03*
%TO.P,J1,23,Pin_23*%
%TO.N,GND*%
X171932885Y-130109186D03*
%TO.P,J1,24,Pin_24*%
%TO.N,/3.3V*%
X174472885Y-130109186D03*
%TD*%
D28*
%TO.P,TP11,1,1*%
%TO.N,/SDL*%
X197312885Y-126509186D03*
%TD*%
%TO.P,TP5,1,1*%
%TO.N,/ADC*%
X179312885Y-102109186D03*
%TD*%
D22*
%TO.P,J4,1,Pin_1*%
%TO.N,/Power Unit/V1*%
X186812885Y-68569186D03*
D23*
%TO.P,J4,2,Pin_2*%
%TO.N,Net-(J4-Pin_2)*%
X186812885Y-71109186D03*
%TD*%
D32*
%TO.P,U1,1,GND*%
%TO.N,GND*%
X183225385Y-81609186D03*
D33*
%TO.P,U1,2,VIN*%
%TO.N,Net-(J4-Pin_2)*%
X183312886Y-83109187D03*
D32*
%TO.P,U1,3,VOUT*%
%TO.N,/3.3V*%
X183225385Y-84609186D03*
%TD*%
D22*
%TO.P,J5,1,Pin_1*%
%TO.N,Net-(J4-Pin_2)*%
X179812885Y-68569186D03*
D23*
%TO.P,J5,2,Pin_2*%
%TO.N,/5V*%
X179812885Y-71109186D03*
%TD*%
D28*
%TO.P,TP12,1,1*%
%TO.N,/3.3V*%
X197112885Y-117509186D03*
%TD*%
%TO.P,TP1,1,1*%
%TO.N,/5V*%
X117099999Y-68399999D03*
%TD*%
%TO.P,TP3,1,1*%
%TO.N,/SCL*%
X144312885Y-93571686D03*
%TD*%
D26*
%TO.P,R3,1*%
%TO.N,Net-(U2-PROG)*%
X130982886Y-66354187D03*
%TO.P,R3,2*%
%TO.N,GND*%
X130982886Y-69279187D03*
%TD*%
D28*
%TO.P,TP4,1,1*%
%TO.N,/SDL*%
X152312885Y-93571686D03*
%TD*%
%TO.P,TP6,1,1*%
%TO.N,/TXD*%
X110912885Y-94109186D03*
%TD*%
D34*
%TO.P,SW1,1,1*%
%TO.N,GND*%
X110112886Y-118209187D03*
X110112886Y-124709187D03*
%TO.P,SW1,2,2*%
%TO.N,/NRST*%
X105612886Y-118209187D03*
X105612886Y-124709187D03*
%TD*%
D35*
%TO.P,R10,1*%
%TO.N,/ADC*%
X183912886Y-97109187D03*
%TO.P,R10,2*%
%TO.N,GND*%
X187312886Y-97109187D03*
%TD*%
D28*
%TO.P,TP2,1,1*%
%TO.N,/OS*%
X136312885Y-94109186D03*
%TD*%
D26*
%TO.P,R6,1*%
%TO.N,/3.3V*%
X140312886Y-86646687D03*
%TO.P,R6,2*%
%TO.N,/OS*%
X140312886Y-89571687D03*
%TD*%
D22*
%TO.P,J9,1,Pin_1*%
%TO.N,/NRST*%
X116052885Y-134759186D03*
D23*
%TO.P,J9,2,Pin_2*%
%TO.N,/PC13*%
X118592885Y-134759186D03*
%TO.P,J9,3,Pin_3*%
%TO.N,/PC14*%
X121132885Y-134759186D03*
%TO.P,J9,4,Pin_4*%
%TO.N,/PC15*%
X123672885Y-134759186D03*
%TO.P,J9,5,Pin_5*%
%TO.N,/PF0*%
X126212885Y-134759186D03*
%TO.P,J9,6,Pin_6*%
%TO.N,/PF1*%
X128752885Y-134759186D03*
%TO.P,J9,7,Pin_7*%
%TO.N,/NRST*%
X131292885Y-134759186D03*
%TO.P,J9,8,Pin_8*%
%TO.N,Net-(J1-Pin_8)*%
X133832885Y-134759186D03*
%TO.P,J9,9,Pin_9*%
%TO.N,/3.3V*%
X136372885Y-134759186D03*
%TO.P,J9,10,Pin_10*%
%TO.N,/PA0*%
X138912885Y-134759186D03*
%TO.P,J9,11,Pin_11*%
%TO.N,/PA1*%
X141452885Y-134759186D03*
%TO.P,J9,12,Pin_12*%
%TO.N,/PA2*%
X143992885Y-134759186D03*
%TO.P,J9,13,Pin_13*%
%TO.N,/PA3*%
X146532885Y-134759186D03*
%TO.P,J9,14,Pin_14*%
%TO.N,/ADC*%
X149072885Y-134759186D03*
%TO.P,J9,15,Pin_15*%
%TO.N,/PA5*%
X151612885Y-134759186D03*
%TO.P,J9,16,Pin_16*%
%TO.N,/PA6*%
X154152885Y-134759186D03*
%TO.P,J9,17,Pin_17*%
%TO.N,/PA7*%
X156692885Y-134759186D03*
%TO.P,J9,18,Pin_18*%
%TO.N,/PB0*%
X159232885Y-134759186D03*
%TO.P,J9,19,Pin_19*%
%TO.N,/PB1*%
X161772885Y-134759186D03*
%TO.P,J9,20,Pin_20*%
%TO.N,/OS*%
X164312885Y-134759186D03*
%TO.P,J9,21,Pin_21*%
%TO.N,/SCL*%
X166852885Y-134759186D03*
%TO.P,J9,22,Pin_22*%
%TO.N,/SDL*%
X169392885Y-134759186D03*
%TO.P,J9,23,Pin_23*%
%TO.N,GND*%
X171932885Y-134759186D03*
%TO.P,J9,24,Pin_24*%
%TO.N,/3.3V*%
X174472885Y-134759186D03*
%TD*%
D36*
%TO.N,/Power Unit/V1*%
X166462886Y-69359187D03*
X135912886Y-69159187D03*
X165602886Y-75469187D03*
X138932886Y-70389187D03*
%TO.N,GND*%
X178500000Y-93500000D03*
X161000000Y-101000000D03*
X184000000Y-87000000D03*
X165087386Y-101000000D03*
X169500000Y-73500000D03*
X157000000Y-72500000D03*
X172500000Y-126000000D03*
X196000000Y-108500000D03*
X180000000Y-84000000D03*
X183500000Y-79500000D03*
X181000000Y-118000000D03*
X170500000Y-90000000D03*
X133000000Y-72500000D03*
X170000000Y-70259687D03*
X144000000Y-60500000D03*
%TO.N,Net-(J4-Pin_2)*%
X182762886Y-77009187D03*
%TO.N,/3.3V*%
X124962886Y-86899187D03*
X116512886Y-94509187D03*
X183362886Y-110009187D03*
X178012886Y-97959187D03*
%TO.N,/Power Unit/OC*%
X156062886Y-73559187D03*
X154172886Y-69119187D03*
%TO.N,Net-(IC1-CS)*%
X150362886Y-70389187D03*
X152902886Y-66579187D03*
%TO.N,/Power Unit/OD*%
X155612886Y-77109187D03*
X164332886Y-70384687D03*
%TO.N,Net-(IC1-VCC)*%
X171952886Y-72929187D03*
X171952886Y-69119187D03*
%TO.N,/SDL*%
X189000000Y-124500000D03*
X193862886Y-125709187D03*
X161000000Y-92000000D03*
X191162886Y-119209187D03*
%TO.N,/SCL*%
X185500000Y-123500000D03*
X194262886Y-122859187D03*
%TO.N,/ADC*%
X178862886Y-111959187D03*
X190612886Y-106159187D03*
%TO.N,/TXD*%
X112262886Y-102139187D03*
X108452886Y-88169187D03*
X189262886Y-92109187D03*
%TO.N,/RXD*%
X114802886Y-100869187D03*
X113532886Y-95789187D03*
X177912886Y-95909187D03*
%TD*%
D37*
%TO.N,/Power Unit/V1*%
X165548052Y-78424021D02*
X166812886Y-78424021D01*
X186812886Y-66609187D02*
X184312886Y-64109187D01*
X184312886Y-64109187D02*
X171712886Y-64109187D01*
X168482886Y-66025821D02*
X167596252Y-66025821D01*
X167596252Y-66025821D02*
X166612886Y-67009187D01*
X140912886Y-74059187D02*
X143312886Y-76459187D01*
X169796252Y-66025821D02*
X168482886Y-66025821D01*
X152212886Y-84309187D02*
X164062886Y-84309187D01*
X165602886Y-75469187D02*
X166812886Y-76679187D01*
X149612886Y-76459187D02*
X151212886Y-78059187D01*
X186812886Y-68569187D02*
X192152886Y-68569187D01*
X164662886Y-83709187D02*
X164662886Y-79309187D01*
D38*
X192562886Y-51109187D02*
X191562886Y-50109187D01*
X140982886Y-68679187D02*
X140912886Y-68749187D01*
D37*
X140912886Y-68749187D02*
X140912886Y-74059187D01*
D38*
X135982886Y-69089187D02*
X135912886Y-69159187D01*
D37*
X186812886Y-68569187D02*
X186812886Y-66609187D01*
X195712886Y-51109187D02*
X192562886Y-51109187D01*
D38*
X166612886Y-69209187D02*
X166462886Y-69359187D01*
D37*
X138932886Y-70389187D02*
X140642886Y-68679187D01*
X171712886Y-64109187D02*
X169796252Y-66025821D01*
X151212886Y-83309187D02*
X152212886Y-84309187D01*
D38*
X140642886Y-68679187D02*
X140982886Y-68679187D01*
D37*
X195712886Y-65009187D02*
X195712886Y-51109187D01*
X135982886Y-67739187D02*
X135982886Y-69089187D01*
X164662886Y-79309187D02*
X165548052Y-78424021D01*
X166812886Y-76679187D02*
X166812886Y-78424021D01*
X164062886Y-84309187D02*
X164662886Y-83709187D01*
X192152886Y-68569187D02*
X195712886Y-65009187D01*
X151212886Y-78059187D02*
X151212886Y-83309187D01*
X143312886Y-76459187D02*
X149612886Y-76459187D01*
X166612886Y-67009187D02*
X166612886Y-69209187D01*
D38*
%TO.N,GND*%
X163083343Y-68054397D02*
X164083343Y-68054397D01*
X183500000Y-79500000D02*
X183500000Y-81334573D01*
X141970386Y-67125938D02*
X141970386Y-66432436D01*
X145750880Y-62250880D02*
X144000000Y-60500000D01*
X184000000Y-88000000D02*
X184000000Y-87000000D01*
X166017991Y-96474186D02*
X165474186Y-96474186D01*
X133482886Y-66779187D02*
X135982886Y-66779187D01*
X180000000Y-125500000D02*
X173000000Y-125500000D01*
X131112886Y-89909187D02*
X131112886Y-94427293D01*
X165474186Y-96474186D02*
X164000000Y-95000000D01*
X183207781Y-120144188D02*
X183207781Y-121414191D01*
X139337886Y-76401775D02*
X138207886Y-75271775D01*
X166288633Y-70259687D02*
X170000000Y-70259687D01*
X159612988Y-79109187D02*
X159612988Y-74112988D01*
X166017991Y-97744188D02*
X166017991Y-96474186D01*
X111341554Y-80307925D02*
X111714173Y-79935306D01*
X114877886Y-107344187D02*
X117227886Y-107344187D01*
X150982886Y-67212004D02*
X150462884Y-67212004D01*
X165428313Y-89571687D02*
X166812886Y-89571687D01*
X145750880Y-62500000D02*
X115000000Y-62500000D01*
X130122886Y-78584187D02*
X138170298Y-78584187D01*
X129727903Y-91294170D02*
X123669781Y-91294170D01*
X165087386Y-101000000D02*
X165087386Y-100912614D01*
X138207886Y-75271775D02*
X138207886Y-70088882D01*
X138170298Y-78584187D02*
X139337886Y-77416599D01*
X172049004Y-72000000D02*
X167500000Y-72000000D01*
X111714173Y-79935306D02*
X111714173Y-79249987D01*
X164083343Y-68054397D02*
X166288633Y-70259687D01*
X180175386Y-89069187D02*
X182930813Y-89069187D01*
X111341554Y-81024943D02*
X111341554Y-80307925D01*
X178000000Y-89000000D02*
X180106199Y-89000000D01*
X105500000Y-101000000D02*
X105420999Y-101079001D01*
X167500000Y-72000000D02*
X161725976Y-72000000D01*
X182930813Y-89069187D02*
X184000000Y-88000000D01*
X196000000Y-112022073D02*
X193312886Y-114709187D01*
X117227886Y-107344187D02*
X118592886Y-108709187D01*
X112000000Y-99000000D02*
X110000000Y-101000000D01*
X145750880Y-62500000D02*
X145750880Y-62250880D01*
X118592886Y-108709187D02*
X118592886Y-117314187D01*
X150462884Y-67212004D02*
X145750880Y-62500000D01*
X110112886Y-118209187D02*
X110112886Y-112109187D01*
X173000000Y-125500000D02*
X172500000Y-126000000D01*
X110112886Y-118209187D02*
X110112886Y-124709187D01*
X170500000Y-90000000D02*
X170071687Y-89571687D01*
X118592886Y-117314187D02*
X126312886Y-125034187D01*
X136607886Y-66154187D02*
X135982886Y-66779187D01*
X139337886Y-77416599D02*
X139337886Y-76401775D01*
X113350000Y-85271270D02*
X115522917Y-87444187D01*
X164000000Y-91000000D02*
X165428313Y-89571687D01*
X140567581Y-67729187D02*
X141367137Y-67729187D01*
X167500000Y-73000000D02*
X167500000Y-72000000D01*
X115522917Y-87444187D02*
X118767902Y-90689172D01*
X183207781Y-118874186D02*
X183207781Y-120144188D01*
X131112886Y-94427293D02*
X127500000Y-98040179D01*
X130982886Y-69279187D02*
X130982886Y-70982886D01*
X169203699Y-84000000D02*
X178400000Y-84000000D01*
X172677886Y-72628882D02*
X172049004Y-72000000D01*
X118592886Y-113599187D02*
X118592886Y-117314187D01*
X178400000Y-84000000D02*
X180000000Y-84000000D01*
X178380000Y-83980000D02*
X178400000Y-84000000D01*
X118592886Y-113599187D02*
X118592886Y-108519187D01*
X179140813Y-81089187D02*
X178380000Y-81850000D01*
X141970386Y-66432436D02*
X141692137Y-66154187D01*
X115000000Y-62500000D02*
X112262886Y-59762886D01*
X164000000Y-95000000D02*
X164000000Y-91000000D01*
X127500000Y-100000000D02*
X126500000Y-101000000D01*
X180106199Y-89000000D02*
X180175386Y-89069187D01*
X123315381Y-85391692D02*
X130122886Y-78584187D01*
X113959004Y-99000000D02*
X112000000Y-99000000D01*
X132500000Y-72500000D02*
X133000000Y-72500000D01*
X177500000Y-89500000D02*
X178000000Y-89000000D01*
X112262886Y-59762886D02*
X112262886Y-50109187D01*
X127500000Y-98040179D02*
X127500000Y-100000000D01*
X172677886Y-75744187D02*
X172677886Y-72628882D01*
X169500000Y-73500000D02*
X168000000Y-73500000D01*
X103737886Y-91858882D02*
X108152581Y-87444187D01*
X160607781Y-100607781D02*
X161000000Y-101000000D01*
X156682531Y-67404155D02*
X156682531Y-68054397D01*
X131112886Y-89909187D02*
X129727903Y-91294170D01*
X108152581Y-87444187D02*
X115522917Y-87444187D01*
X166812886Y-81609187D02*
X172677886Y-75744187D01*
X151175037Y-67404155D02*
X150982886Y-67212004D01*
X126500000Y-101000000D02*
X115959004Y-101000000D01*
X183207781Y-121414191D02*
X183207781Y-122292219D01*
X160607781Y-99014191D02*
X160607781Y-100607781D01*
X120512886Y-68974187D02*
X130122886Y-78584187D01*
X130982886Y-69279187D02*
X133482886Y-66779187D01*
X141367137Y-67729187D02*
X141970386Y-67125938D01*
X183207781Y-118874186D02*
X183207781Y-117604183D01*
X170071687Y-89571687D02*
X166812886Y-89571687D01*
X123315381Y-90939770D02*
X123315381Y-85391692D01*
X161725976Y-72000000D02*
X159612988Y-74112988D01*
X159612988Y-74112988D02*
X158000000Y-72500000D01*
X138207886Y-70088882D02*
X140567581Y-67729187D01*
X108851185Y-104509187D02*
X103737886Y-99395888D01*
X168000000Y-73500000D02*
X167500000Y-73000000D01*
X115959004Y-101000000D02*
X113959004Y-99000000D01*
X166812886Y-81609187D02*
X169203699Y-84000000D01*
X183207781Y-122292219D02*
X180000000Y-125500000D01*
X113350000Y-81650000D02*
X113350000Y-85271270D01*
X178380000Y-81850000D02*
X178380000Y-83980000D01*
X156682531Y-68054397D02*
X163083343Y-68054397D01*
X166017991Y-99982009D02*
X166017991Y-99014191D01*
X178500000Y-93500000D02*
X177500000Y-92500000D01*
X110112886Y-112109187D02*
X114877886Y-107344187D01*
X123669781Y-91294170D02*
X123315381Y-90939770D01*
X180175386Y-81089187D02*
X179140813Y-81089187D01*
X141692137Y-66154187D02*
X136607886Y-66154187D01*
X111341554Y-81024943D02*
X112724943Y-81024943D01*
X181000000Y-118000000D02*
X182811964Y-118000000D01*
X140982886Y-67729187D02*
X141367137Y-67729187D01*
X110000000Y-101000000D02*
X105500000Y-101000000D01*
X183225386Y-81609187D02*
X195712886Y-81609187D01*
X156682531Y-67404155D02*
X163083343Y-67404155D01*
X183500000Y-81334573D02*
X183225386Y-81609187D01*
X177500000Y-92500000D02*
X177500000Y-89500000D01*
X130982886Y-70982886D02*
X132500000Y-72500000D01*
X196000000Y-108500000D02*
X196000000Y-112022073D01*
X112724943Y-81024943D02*
X113350000Y-81650000D01*
X165087386Y-100912614D02*
X166017991Y-99982009D01*
X166017991Y-99014191D02*
X166017991Y-97744188D01*
X118592886Y-108519187D02*
X114582886Y-104509187D01*
X182811964Y-118000000D02*
X183207781Y-117604183D01*
X158000000Y-72500000D02*
X157000000Y-72500000D01*
X103737886Y-99395888D02*
X103737886Y-91858882D01*
X156682531Y-67404155D02*
X151175037Y-67404155D01*
X114582886Y-104509187D02*
X108851185Y-104509187D01*
%TO.N,Net-(J4-Pin_2)*%
X183312886Y-83109187D02*
X182975386Y-83109187D01*
X182172886Y-68569187D02*
X183312886Y-69709187D01*
X176712886Y-83109187D02*
X177362886Y-82459187D01*
X183312886Y-69709187D02*
X183312886Y-70809187D01*
X181312886Y-81446687D02*
X181312886Y-80259187D01*
X182762886Y-77409187D02*
X182762886Y-77009187D01*
X182975386Y-83109187D02*
X181312886Y-81446687D01*
X183612886Y-71109187D02*
X186812886Y-71109187D01*
X179812886Y-68569187D02*
X182172886Y-68569187D01*
X181312886Y-80259187D02*
X181312886Y-80109187D01*
X180195386Y-80109187D02*
X180175386Y-80129187D01*
X175175386Y-83109187D02*
X176712886Y-83109187D01*
X177842886Y-80129187D02*
X180175386Y-80129187D01*
X181312886Y-80109187D02*
X180195386Y-80109187D01*
X181312886Y-78859187D02*
X182762886Y-77409187D01*
X177362886Y-82459187D02*
X177362886Y-80609187D01*
X177362886Y-80609187D02*
X177842886Y-80129187D01*
X183312886Y-70809187D02*
X183612886Y-71109187D01*
X181312886Y-80259187D02*
X181312886Y-78859187D01*
%TO.N,/3.3V*%
X124962886Y-86899187D02*
X125138052Y-86724021D01*
X140235552Y-86724021D02*
X131112886Y-86724021D01*
X169807882Y-95204183D02*
X166017991Y-95204183D01*
X183225386Y-86996687D02*
X183225386Y-84609187D01*
X174472886Y-134759187D02*
X174472886Y-130109187D01*
X190862886Y-112809187D02*
X187062886Y-112809187D01*
X135197886Y-128934187D02*
X136372886Y-130109187D01*
X117227886Y-128934187D02*
X135197886Y-128934187D01*
X192362886Y-117609187D02*
X192462886Y-117509187D01*
X171762886Y-88459187D02*
X169690220Y-86386521D01*
X192162886Y-111509187D02*
X192177720Y-111524021D01*
X175912886Y-95059187D02*
X175912886Y-90059187D01*
X192362886Y-123606639D02*
X192362886Y-117609187D01*
X197112886Y-117509187D02*
X192462886Y-117509187D01*
X187062886Y-112809187D02*
X184262886Y-110009187D01*
X136372886Y-130109187D02*
X136372886Y-134759187D01*
X177862886Y-88109187D02*
X180175386Y-88109187D01*
X116052886Y-108519187D02*
X116052886Y-113599187D01*
X192177720Y-111524021D02*
X193312886Y-111524021D01*
X184262886Y-110009187D02*
X183362886Y-110009187D01*
X124512886Y-89889187D02*
X127678052Y-86724021D01*
X171250386Y-96646687D02*
X169807882Y-95204183D01*
X148312886Y-86646687D02*
X140312886Y-86646687D01*
X175912886Y-95446687D02*
X175912886Y-95059187D01*
X190862886Y-112809187D02*
X192162886Y-111509187D01*
X171762886Y-93249179D02*
X171762886Y-88459187D01*
X190862886Y-117509187D02*
X188712987Y-117509187D01*
X166812886Y-86386521D02*
X155573052Y-86386521D01*
X124512886Y-90689172D02*
X124512886Y-89889187D01*
X176962886Y-96909187D02*
X178012886Y-97959187D01*
X176512886Y-95059187D02*
X176962886Y-95509187D01*
X116052886Y-127052886D02*
X114500000Y-125500000D01*
X174712886Y-96646687D02*
X175912886Y-95446687D01*
X182112886Y-88109187D02*
X183225386Y-86996687D01*
X192562886Y-123806639D02*
X192362886Y-123606639D01*
X118767902Y-94499180D02*
X116522893Y-94499180D01*
X140312886Y-86646687D02*
X140235552Y-86724021D01*
X174712886Y-96646687D02*
X171250386Y-96646687D01*
X188712987Y-117509187D02*
X188617991Y-117604183D01*
X175912886Y-90059187D02*
X177862886Y-88109187D01*
X174472886Y-130109187D02*
X189362886Y-130109187D01*
X189362886Y-130109187D02*
X192562886Y-126909187D01*
X116052886Y-116447114D02*
X116052886Y-113599187D01*
X114500000Y-125500000D02*
X114500000Y-118000000D01*
X155573052Y-86386521D02*
X155312886Y-86646687D01*
X169690220Y-86386521D02*
X166812886Y-86386521D01*
X190862886Y-117509187D02*
X190862886Y-112809187D01*
X127678052Y-86724021D02*
X128772886Y-86724021D01*
X114500000Y-118000000D02*
X116052886Y-116447114D01*
X176962886Y-95509187D02*
X176962886Y-96909187D01*
X155312886Y-86646687D02*
X148312886Y-86646687D01*
X169807882Y-95204183D02*
X171762886Y-93249179D01*
X175912886Y-95059187D02*
X176512886Y-95059187D01*
X180175386Y-88109187D02*
X182112886Y-88109187D01*
X125138052Y-86724021D02*
X128772886Y-86724021D01*
X192462886Y-117509187D02*
X190862886Y-117509187D01*
X192562886Y-126909187D02*
X192562886Y-123806639D01*
X128772886Y-86724021D02*
X131112886Y-86724021D01*
X116522893Y-94499180D02*
X116512886Y-94509187D01*
X116052886Y-130109187D02*
X117227886Y-128934187D01*
X116052886Y-130109187D02*
X116052886Y-127052886D01*
%TO.N,/5V*%
X116250000Y-68400000D02*
X117100000Y-68400000D01*
X117222073Y-68400000D02*
X117287886Y-68334187D01*
D37*
X199112886Y-98609187D02*
X199112886Y-75509187D01*
X145812886Y-68309187D02*
X145442886Y-68679187D01*
X198012886Y-74409187D02*
X183112886Y-74409187D01*
X145112886Y-68679187D02*
X150682886Y-68679187D01*
D38*
X114550000Y-70100000D02*
X116250000Y-68400000D01*
D39*
X117287886Y-68334187D02*
X120512886Y-68334187D01*
D37*
X179687386Y-71234687D02*
X153238386Y-71234687D01*
X183112886Y-74409187D02*
X179812886Y-71109187D01*
D38*
X111714173Y-77300025D02*
X112949975Y-77300025D01*
D37*
X129012886Y-63809187D02*
X144912886Y-63809187D01*
X145812886Y-64709187D02*
X145812886Y-68309187D01*
X145112886Y-68679187D02*
X143257886Y-68679187D01*
D38*
X114550000Y-75700000D02*
X114550000Y-70100000D01*
D37*
X195712886Y-99389187D02*
X198332886Y-99389187D01*
D39*
X125552909Y-65893944D02*
X124850092Y-66596761D01*
D38*
X145442886Y-68679187D02*
X145112886Y-68679187D01*
D39*
X150682886Y-68679187D02*
X153112886Y-71109187D01*
D37*
X153238386Y-71234687D02*
X153112886Y-71109187D01*
D38*
X117100000Y-68400000D02*
X117222073Y-68400000D01*
D37*
X198332886Y-99389187D02*
X199112886Y-98609187D01*
D38*
X126980092Y-65893944D02*
X126980092Y-65841981D01*
D37*
X199112886Y-75509187D02*
X198012886Y-74409187D01*
X179812886Y-71109187D02*
X179687386Y-71234687D01*
D38*
X112949975Y-77300025D02*
X114550000Y-75700000D01*
D37*
X144912886Y-63809187D02*
X145812886Y-64709187D01*
D39*
X124850092Y-67171981D02*
X124850092Y-66596761D01*
X123687886Y-68334187D02*
X124850092Y-67171981D01*
X126980092Y-65893944D02*
X125552909Y-65893944D01*
D37*
X126980092Y-65841981D02*
X129012886Y-63809187D01*
D39*
X120512886Y-68334187D02*
X123687886Y-68334187D01*
D38*
%TO.N,Net-(D1-K)*%
X140982886Y-66779187D02*
X140542886Y-66779187D01*
X140982886Y-66779187D02*
X139042886Y-66779187D01*
X137412886Y-71509187D02*
X135572886Y-73349187D01*
X139042886Y-66779187D02*
X137412886Y-68409187D01*
X140542886Y-66779187D02*
X140412886Y-66909187D01*
X137412886Y-68409187D02*
X137412886Y-71509187D01*
X135572886Y-73349187D02*
X135572886Y-76909187D01*
%TO.N,Net-(D1-A)*%
X138112886Y-76909187D02*
X136887886Y-78134187D01*
X126980092Y-70766393D02*
X126980092Y-66759578D01*
X136887886Y-78134187D02*
X134347886Y-78134187D01*
X134347886Y-78134187D02*
X126980092Y-70766393D01*
%TO.N,/Power Unit/OC*%
X158012962Y-81009111D02*
X158412886Y-80609187D01*
X154172886Y-69119187D02*
X154587435Y-68704638D01*
X158412886Y-75109187D02*
X156862886Y-73559187D01*
X156812886Y-81009111D02*
X158012962Y-81009111D01*
X154587435Y-68704638D02*
X156682531Y-68704638D01*
X156862886Y-73559187D02*
X156062886Y-73559187D01*
X158412886Y-80609187D02*
X158412886Y-75109187D01*
%TO.N,Net-(IC1-CS)*%
X155162848Y-80059149D02*
X154412886Y-79309187D01*
X151612886Y-74609187D02*
X150262886Y-74609187D01*
X156812886Y-80059149D02*
X155162848Y-80059149D01*
X149362886Y-73959187D02*
X149362886Y-71459187D01*
X154412886Y-79309187D02*
X154412886Y-77409187D01*
X150012886Y-74609187D02*
X149362886Y-73959187D01*
X149362886Y-71389187D02*
X150362886Y-70389187D01*
X154412886Y-77409187D02*
X151612886Y-74609187D01*
X151215703Y-66579187D02*
X150982886Y-66346370D01*
X149362886Y-71459187D02*
X149362886Y-71389187D01*
X152902886Y-66579187D02*
X151215703Y-66579187D01*
X150262886Y-74609187D02*
X150012886Y-74609187D01*
%TO.N,/Power Unit/OD*%
X164332886Y-70384687D02*
X164332886Y-69954181D01*
X164332886Y-69954181D02*
X163083343Y-68704638D01*
X156812886Y-79109187D02*
X155962886Y-79109187D01*
X155312886Y-77409187D02*
X155612886Y-77109187D01*
X155962886Y-79109187D02*
X155312886Y-78459187D01*
X155312886Y-78459187D02*
X155312886Y-77409187D01*
%TO.N,Net-(IC1-VCC)*%
X162412886Y-78959187D02*
X162412886Y-76209187D01*
X159612988Y-80059149D02*
X161262924Y-80059149D01*
X164112886Y-74509187D02*
X169662886Y-74509187D01*
X170366252Y-67532553D02*
X168482886Y-67532553D01*
X162412886Y-76209187D02*
X164112886Y-74509187D01*
X161312924Y-80059149D02*
X162412886Y-78959187D01*
X169662886Y-74509187D02*
X170372886Y-74509187D01*
X171952886Y-69119187D02*
X170366252Y-67532553D01*
X161262924Y-80059149D02*
X161312924Y-80059149D01*
X170372886Y-74509187D02*
X171952886Y-72929187D01*
%TO.N,/SDL*%
X188617991Y-121414191D02*
X190807882Y-121414191D01*
X188617991Y-124117991D02*
X188617991Y-121414191D01*
X189000000Y-124500000D02*
X188617991Y-124117991D01*
X153500386Y-89571687D02*
X155312886Y-89571687D01*
X158500000Y-95204183D02*
X160607781Y-95204183D01*
X170567886Y-128934187D02*
X181097995Y-128934187D01*
X158500000Y-94500000D02*
X158500000Y-95204183D01*
X155312886Y-92809187D02*
X157707882Y-95204183D01*
X152312886Y-93571687D02*
X152312886Y-90759187D01*
X191162886Y-121059187D02*
X191162886Y-119209187D01*
X169392886Y-130109187D02*
X170567886Y-128934187D01*
X194662886Y-126509187D02*
X193862886Y-125709187D01*
X155312886Y-89571687D02*
X155312886Y-92809187D01*
X157707882Y-95204183D02*
X158500000Y-95204183D01*
X197312886Y-126509187D02*
X194662886Y-126509187D01*
X161000000Y-92000000D02*
X158500000Y-94500000D01*
X169392886Y-130109187D02*
X169392886Y-134759187D01*
X152312886Y-90759187D02*
X153500386Y-89571687D01*
X181097995Y-128934187D02*
X188617991Y-121414191D01*
X190807882Y-121414191D02*
X191162886Y-121059187D01*
%TO.N,/SCL*%
X150477885Y-96474186D02*
X160607781Y-96474186D01*
X165487886Y-128744187D02*
X165487886Y-103534187D01*
X188617991Y-120144188D02*
X189477885Y-120144188D01*
X184500000Y-123000000D02*
X184311036Y-122811036D01*
X197312886Y-121709187D02*
X195412886Y-121709187D01*
X180162886Y-126959187D02*
X168162886Y-126959187D01*
X164362886Y-102409187D02*
X164362886Y-98609187D01*
X164362886Y-98609187D02*
X162227885Y-96474186D01*
X185000000Y-123000000D02*
X184500000Y-123000000D01*
X145950386Y-89571687D02*
X148312886Y-89571687D01*
X166852886Y-130109187D02*
X166852886Y-134759187D01*
X188617991Y-120144188D02*
X186977885Y-120144188D01*
X165487886Y-103534187D02*
X164362886Y-102409187D01*
X144312886Y-91209187D02*
X145950386Y-89571687D01*
X185500000Y-123500000D02*
X185000000Y-123000000D01*
X184311036Y-122811036D02*
X180162886Y-126959187D01*
X166852886Y-128269187D02*
X166852886Y-130109187D01*
X186977885Y-120144188D02*
X184311036Y-122811036D01*
X195412886Y-121709187D02*
X194262886Y-122859187D01*
X168162886Y-126959187D02*
X166852886Y-128269187D01*
X148312886Y-94309187D02*
X150477885Y-96474186D01*
X166852886Y-130109187D02*
X165487886Y-128744187D01*
X148312886Y-89571687D02*
X148312886Y-94309187D01*
X162227885Y-96474186D02*
X160607781Y-96474186D01*
X144312886Y-93571687D02*
X144312886Y-91209187D01*
%TO.N,/OS*%
X163137886Y-106234187D02*
X162462886Y-105559187D01*
X162462886Y-98559187D02*
X161647887Y-97744188D01*
X164312886Y-130109187D02*
X164312886Y-134759187D01*
X161647887Y-97744188D02*
X160607781Y-97744188D01*
X136312886Y-91609187D02*
X138350386Y-89571687D01*
X162462886Y-105559187D02*
X162462886Y-98559187D01*
X141897887Y-97744188D02*
X140312886Y-96159187D01*
X163137886Y-128934187D02*
X163137886Y-106234187D01*
X164312886Y-130109187D02*
X163137886Y-128934187D01*
X138350386Y-89571687D02*
X140312886Y-89571687D01*
X160607781Y-97744188D02*
X141897887Y-97744188D01*
X136312886Y-94109187D02*
X136312886Y-91609187D01*
X140312886Y-96159187D02*
X140312886Y-89571687D01*
%TO.N,/PC13*%
X118592886Y-130109187D02*
X118592886Y-134759187D01*
%TO.N,/PC14*%
X121132886Y-130109187D02*
X121132886Y-134759187D01*
%TO.N,/PC15*%
X123672886Y-130109187D02*
X123672886Y-134759187D01*
%TO.N,/PF0*%
X126212886Y-130109187D02*
X126212886Y-134759187D01*
%TO.N,/PF1*%
X128752886Y-130109187D02*
X128752886Y-134759187D01*
%TO.N,/NRST*%
X117227886Y-135934187D02*
X130117886Y-135934187D01*
X110262886Y-134759187D02*
X110262886Y-134659187D01*
X105612886Y-131359187D02*
X105612886Y-124709187D01*
X116052886Y-134759187D02*
X110262886Y-134759187D01*
X108912886Y-134659187D02*
X105612886Y-131359187D01*
X130117886Y-135934187D02*
X131292886Y-134759187D01*
X131292886Y-130109187D02*
X131292886Y-134759187D01*
X110262886Y-134659187D02*
X108912886Y-134659187D01*
X116052886Y-134759187D02*
X117227886Y-135934187D01*
%TO.N,Net-(J1-Pin_8)*%
X133832886Y-130109187D02*
X133832886Y-134759187D01*
%TO.N,/PA0*%
X138912886Y-130109187D02*
X138912886Y-134759187D01*
%TO.N,/PA1*%
X141452886Y-130109187D02*
X141452886Y-134759187D01*
%TO.N,/PA2*%
X143992886Y-130109187D02*
X143992886Y-134759187D01*
%TO.N,/PA3*%
X146532886Y-130109187D02*
X146532886Y-134759187D01*
%TO.N,/ADC*%
X192762886Y-104009187D02*
X190612886Y-106159187D01*
X193422886Y-96849187D02*
X193272886Y-96849187D01*
X179312886Y-102109187D02*
X179312886Y-111509187D01*
X174712886Y-101509187D02*
X175312886Y-102109187D01*
X183912886Y-97109187D02*
X181012886Y-97109187D01*
X181012886Y-97109187D02*
X179312886Y-98809187D01*
X174712886Y-99571687D02*
X174712886Y-101509187D01*
X192762886Y-97359187D02*
X192762886Y-104009187D01*
X193272886Y-96849187D02*
X192762886Y-97359187D01*
X195712886Y-96849187D02*
X193422886Y-96849187D01*
X179312886Y-111509187D02*
X178862886Y-111959187D01*
X179312886Y-102209187D02*
X179362886Y-102259187D01*
X149072886Y-130109187D02*
X149072886Y-134759187D01*
X179312886Y-102109187D02*
X179312886Y-102209187D01*
X179312886Y-98809187D02*
X179312886Y-102109187D01*
X175312886Y-102109187D02*
X179312886Y-102109187D01*
%TO.N,/PA5*%
X151612886Y-130109187D02*
X151612886Y-134759187D01*
%TO.N,/PA6*%
X154152886Y-130109187D02*
X154152886Y-134759187D01*
%TO.N,/PA7*%
X156692886Y-130109187D02*
X156692886Y-134759187D01*
%TO.N,/PB0*%
X159232886Y-130109187D02*
X159232886Y-134759187D01*
%TO.N,/PB1*%
X161772886Y-130109187D02*
X161772886Y-134759187D01*
%TO.N,/PB9*%
X121132886Y-108519187D02*
X121132886Y-113599187D01*
%TO.N,/PB8*%
X123672886Y-113599187D02*
X123672886Y-108519187D01*
%TO.N,/BOOT*%
X126212886Y-113599187D02*
X126212886Y-108519187D01*
X126212886Y-113599187D02*
X126212886Y-122009187D01*
X126212886Y-122009187D02*
X126312886Y-122109187D01*
%TO.N,/PB7*%
X128752886Y-108519187D02*
X128752886Y-113599187D01*
%TO.N,/PB6*%
X131292886Y-113599187D02*
X131292886Y-108519187D01*
%TO.N,/PB5*%
X133832886Y-108519187D02*
X133832886Y-113599187D01*
%TO.N,/PB4*%
X136372886Y-113599187D02*
X136372886Y-108519187D01*
%TO.N,/PB3*%
X138912886Y-108519187D02*
X138912886Y-113599187D01*
%TO.N,/PA15*%
X141452886Y-108519187D02*
X141452886Y-113599187D01*
%TO.N,/PA14*%
X143992886Y-113599187D02*
X143992886Y-108519187D01*
%TO.N,/PF7*%
X146532886Y-113599187D02*
X146532886Y-108519187D01*
%TO.N,/PF6*%
X149072886Y-113599187D02*
X149072886Y-108519187D01*
%TO.N,/PA13*%
X151612886Y-113599187D02*
X151612886Y-108519187D01*
%TO.N,/PA12*%
X154152886Y-113599187D02*
X154152886Y-108519187D01*
%TO.N,/PA11*%
X156692886Y-113599187D02*
X156692886Y-108519187D01*
%TO.N,/TXD*%
X159232886Y-113599187D02*
X159232886Y-108519187D01*
X189662886Y-90759187D02*
X189662886Y-91709187D01*
X114182886Y-104059187D02*
X112262886Y-102139187D01*
X118767902Y-91959175D02*
X114162874Y-91959175D01*
X189662886Y-91709187D02*
X189262886Y-92109187D01*
X193732886Y-86689187D02*
X189662886Y-90759187D01*
X154772886Y-104059187D02*
X122062886Y-104059187D01*
X112262886Y-91109187D02*
X110712886Y-91109187D01*
X112262886Y-89439187D02*
X112262886Y-91109187D01*
X113312886Y-91109187D02*
X112262886Y-91109187D01*
X122062886Y-104059187D02*
X114182886Y-104059187D01*
X114162874Y-91959175D02*
X113312886Y-91109187D01*
X108452886Y-88169187D02*
X110992886Y-88169187D01*
X110992886Y-88169187D02*
X112262886Y-89439187D01*
X195712886Y-86689187D02*
X193732886Y-86689187D01*
X159232886Y-108519187D02*
X154772886Y-104059187D01*
%TO.N,/RXD*%
X114192895Y-93229177D02*
X113961036Y-93461036D01*
X114802886Y-93249187D02*
X114802886Y-93824492D01*
X114192896Y-93229177D02*
X113961036Y-93461036D01*
X115992886Y-102059187D02*
X114802886Y-100869187D01*
X113312886Y-94109187D02*
X110912886Y-94109187D01*
X186312886Y-90059187D02*
X186312886Y-92059187D01*
X113961036Y-93461036D02*
X113312886Y-94109187D01*
X114802886Y-94519187D02*
X114802886Y-93249187D01*
X192222886Y-84149187D02*
X186312886Y-90059187D01*
X155312886Y-102059187D02*
X120812886Y-102059187D01*
X120812886Y-102059187D02*
X115992886Y-102059187D01*
X113532886Y-95789187D02*
X114802886Y-94519187D01*
X195712886Y-84149187D02*
X192222886Y-84149187D01*
X161772886Y-108519187D02*
X155312886Y-102059187D01*
X180762886Y-93059187D02*
X177912886Y-95909187D01*
X118767902Y-93229177D02*
X114192895Y-93229177D01*
X185312886Y-93059187D02*
X180762886Y-93059187D01*
X161772886Y-113599187D02*
X161772886Y-108519187D01*
X186312886Y-92059187D02*
X185312886Y-93059187D01*
%TO.N,/PA8*%
X164312886Y-113599187D02*
X164312886Y-108519187D01*
%TO.N,/PB15*%
X166852886Y-113599187D02*
X166852886Y-108519187D01*
%TO.N,/PB14*%
X169392886Y-113599187D02*
X169392886Y-108519187D01*
%TO.N,/PB13*%
X171932886Y-113599187D02*
X171932886Y-108519187D01*
%TO.N,/WRITE*%
X191112886Y-101559187D02*
X186612886Y-106059187D01*
X186612886Y-106059187D02*
X183612886Y-106059187D01*
X186777885Y-118874186D02*
X181502886Y-113599187D01*
X183612886Y-106059187D02*
X181502886Y-108169187D01*
X174472886Y-113599187D02*
X174472886Y-108519187D01*
X181502886Y-108169187D02*
X181502886Y-113599187D01*
X195712886Y-89229187D02*
X191112886Y-93829187D01*
X181502886Y-113599187D02*
X174472886Y-113599187D01*
X191112886Y-93829187D02*
X191112886Y-101559187D01*
X188617991Y-118874186D02*
X186777885Y-118874186D01*
D40*
%TO.N,/USB D+*%
X112764174Y-78600000D02*
X112864168Y-78500006D01*
X116980152Y-97414187D02*
X117935152Y-96459187D01*
X117935152Y-96459187D02*
X118077897Y-96459187D01*
X107232887Y-97414187D02*
X116980152Y-97414187D01*
X119401508Y-95769182D02*
X118767902Y-95769182D01*
X121487886Y-93682804D02*
X119401508Y-95769182D01*
X121487886Y-83706086D02*
X121487886Y-93682804D01*
X112864168Y-78500006D02*
X116281806Y-78500006D01*
X118077897Y-96459187D02*
X118767902Y-95769182D01*
X106187887Y-96369187D02*
X107232887Y-97414187D01*
X104912886Y-96369187D02*
X106187887Y-96369187D01*
X111714173Y-78600000D02*
X112764174Y-78600000D01*
X116281806Y-78500006D02*
X121487886Y-83706086D01*
%TO.N,/USB D-*%
X118134296Y-97039185D02*
X118767902Y-97039185D01*
X119600652Y-96349180D02*
X119457907Y-96349180D01*
X112764174Y-77950013D02*
X112864168Y-78050007D01*
X119457907Y-96349180D02*
X118767902Y-97039185D01*
X111714173Y-77950013D02*
X112764174Y-77950013D01*
X107232887Y-97864187D02*
X117309294Y-97864187D01*
X117309294Y-97864187D02*
X118134296Y-97039185D01*
X106187887Y-98909187D02*
X107232887Y-97864187D01*
X119940407Y-96009425D02*
X119600652Y-96349180D01*
X121937886Y-83519686D02*
X121937886Y-93869201D01*
X112864168Y-78050007D02*
X116468207Y-78050007D01*
X121937886Y-93869201D02*
X119940407Y-95866680D01*
X119940407Y-95866680D02*
X119940407Y-96009425D01*
X104912886Y-98909187D02*
X106187887Y-98909187D01*
X116468207Y-78050007D02*
X121937886Y-83519686D01*
D38*
%TO.N,/Power Unit/D12*%
X163083343Y-66753914D02*
X156682531Y-66753914D01*
%TO.N,Net-(U2-PROG)*%
X143257886Y-66779187D02*
X144842886Y-66779187D01*
X144512886Y-64609187D02*
X133912886Y-64609187D01*
X145012886Y-66609187D02*
X145012886Y-65109187D01*
X133112886Y-66309187D02*
X131027886Y-66309187D01*
X133112886Y-65409187D02*
X133112886Y-66309187D01*
X131027886Y-66309187D02*
X130982886Y-66354187D01*
X133912886Y-64609187D02*
X133112886Y-65409187D01*
X145012886Y-65109187D02*
X144512886Y-64609187D01*
X144842886Y-66779187D02*
X145012886Y-66609187D01*
%TD*%
M02*
