M48
; DRILL file {KiCad (7.0.0)} date Tue Apr  4 11:18:01 2023
; FORMAT={-:-/ absolute / metric / decimal}
; #@! TF.CreationDate,2023-04-04T11:18:01+02:00
; #@! TF.GenerationSoftware,Kicad,Pcbnew,(7.0.0)
; #@! TF.FileFunction,MixedPlating,1,2
FMAT,2
METRIC
; #@! TA.AperFunction,Plated,PTH,ViaDrill
T1C0.400
; #@! TA.AperFunction,Plated,PTH,ComponentDrill
T2C0.700
; #@! TA.AperFunction,Plated,PTH,ComponentDrill
T3C0.800
; #@! TA.AperFunction,Plated,PTH,ComponentDrill
T4C0.900
; #@! TA.AperFunction,Plated,PTH,ComponentDrill
T5C1.000
; #@! TA.AperFunction,Plated,PTH,ComponentDrill
T6C1.100
; #@! TA.AperFunction,Plated,PTH,ComponentDrill
T7C2.400
; #@! TA.AperFunction,Plated,PTH,ComponentDrill
T8C3.700
%
G90
G05
T1
X108.966Y-83.566
X110.236Y-82.169
X116.078Y-90.424
X116.332Y-95.631
X116.96Y-96.55
X116.967Y-90.043
X117.475Y-101.346
X150.363Y-70.389
X152.903Y-66.579
X153.162Y-78.486
X154.173Y-69.119
X155.613Y-77.109
X156.337Y-96.52
X156.45Y-99.95
X161.0Y-92.0
X162.687Y-117.729
X162.687Y-117.729
X164.333Y-70.385
X164.76Y-118.41
X166.463Y-69.359
X166.463Y-74.609
X177.913Y-95.909
X178.013Y-97.959
X178.863Y-111.959
X181.23Y-85.27
X181.29Y-89.71
X182.763Y-77.009
X183.363Y-110.009
X185.5Y-123.5
X189.263Y-92.109
X190.613Y-106.159
X191.163Y-119.209
T2
X105.37Y-76.188
X105.37Y-81.038
T3
X183.913Y-97.109
X187.313Y-97.109
T4
X117.62Y-75.94
X120.16Y-75.94
X135.573Y-76.909
X138.113Y-76.909
X184.355Y-90.05
X186.895Y-90.05
T5
X104.913Y-96.369
X104.913Y-98.909
X116.053Y-108.519
X116.053Y-113.599
X116.053Y-133.731
X116.08Y-129.01
X118.593Y-108.519
X118.593Y-113.599
X118.593Y-133.731
X118.62Y-129.01
X121.133Y-108.519
X121.133Y-113.599
X121.133Y-133.731
X121.16Y-129.01
X123.673Y-108.519
X123.673Y-113.599
X123.673Y-133.731
X123.7Y-129.01
X126.213Y-108.519
X126.213Y-113.599
X126.213Y-133.731
X126.24Y-129.01
X128.753Y-108.519
X128.753Y-113.599
X128.753Y-133.731
X128.78Y-129.01
X131.293Y-108.519
X131.293Y-113.599
X131.293Y-133.731
X131.32Y-129.01
X133.833Y-108.519
X133.833Y-113.599
X133.833Y-133.731
X133.86Y-129.01
X136.373Y-108.519
X136.373Y-113.599
X136.373Y-133.731
X136.4Y-129.01
X138.913Y-108.519
X138.913Y-113.599
X138.913Y-133.731
X138.94Y-129.01
X141.453Y-108.519
X141.453Y-113.599
X141.453Y-133.731
X141.48Y-129.01
X143.993Y-108.519
X143.993Y-113.599
X143.993Y-133.731
X144.02Y-129.01
X146.533Y-108.519
X146.533Y-113.599
X146.533Y-133.731
X146.56Y-129.01
X149.073Y-108.519
X149.073Y-113.599
X149.073Y-133.731
X149.1Y-129.01
X151.613Y-108.519
X151.613Y-113.599
X151.613Y-133.731
X151.64Y-129.01
X154.153Y-108.519
X154.153Y-113.599
X154.153Y-133.731
X154.18Y-129.01
X156.693Y-108.519
X156.693Y-113.599
X156.693Y-133.731
X156.72Y-129.01
X159.233Y-108.519
X159.233Y-113.599
X159.233Y-133.731
X159.26Y-129.01
X161.773Y-108.519
X161.773Y-113.599
X161.773Y-133.731
X161.8Y-129.01
X164.313Y-108.519
X164.313Y-113.599
X164.313Y-133.731
X164.34Y-129.01
X166.853Y-108.519
X166.853Y-113.599
X166.853Y-133.731
X166.88Y-129.01
X169.393Y-108.519
X169.393Y-113.599
X169.393Y-133.731
X169.42Y-129.01
X171.933Y-108.519
X171.933Y-113.599
X171.933Y-133.731
X171.96Y-129.01
X173.17Y-96.71
X173.17Y-99.25
X174.473Y-108.519
X174.473Y-113.599
X174.473Y-133.731
X174.5Y-129.01
X179.813Y-68.569
X179.813Y-71.109
X186.813Y-68.569
X186.813Y-71.109
X195.72Y-81.62
X195.72Y-84.16
X195.72Y-86.7
X195.72Y-89.24
X195.72Y-91.78
X195.72Y-94.32
X195.72Y-96.86
X195.72Y-99.4
X195.72Y-101.94
T6
X105.613Y-118.209
X105.613Y-124.709
X110.113Y-118.209
X110.113Y-124.709
T7
X187.733Y-58.109
T8
X124.313Y-58.109
X179.513Y-42.109
T2
G00X103.1Y-75.013
M15
G01X102.299Y-75.013
M16
G05
G00X103.1Y-82.213
M15
G01X102.299Y-82.213
M16
G05
T0
M30
