%TF.GenerationSoftware,KiCad,Pcbnew,(7.0.0)*%
%TF.CreationDate,2023-04-04T08:27:44+02:00*%
%TF.ProjectId,Main Schematic,4d61696e-2053-4636-9865-6d617469632e,rev?*%
%TF.SameCoordinates,Original*%
%TF.FileFunction,Drillmap*%
%TF.FilePolarity,Positive*%
%FSLAX45Y45*%
G04 Gerber Fmt 4.5, Leading zero omitted, Abs format (unit mm)*
G04 Created by KiCad (PCBNEW (7.0.0)) date 2023-04-04 08:27:44*
%MOMM*%
%LPD*%
G01*
G04 APERTURE LIST*
%ADD10C,0.100000*%
%ADD11C,0.200000*%
%ADD12C,0.040000*%
%ADD13C,0.070002*%
%ADD14C,0.080000*%
%ADD15C,0.090000*%
%ADD16C,0.110000*%
%ADD17C,0.240000*%
%ADD18C,0.370000*%
G04 APERTURE END LIST*
D10*
X10116800Y-3843000D02*
X20116800Y-3843000D01*
X20116800Y-3843000D02*
X20116800Y-13843000D01*
X20116800Y-13843000D02*
X10116800Y-13843000D01*
X10116800Y-13843000D02*
X10116800Y-3843000D01*
D11*
D12*
X10876600Y-8336600D02*
X10916600Y-8376600D01*
X10916600Y-8336600D02*
X10876600Y-8376600D01*
X11003600Y-8196900D02*
X11043600Y-8236900D01*
X11043600Y-8196900D02*
X11003600Y-8236900D01*
X11587800Y-9022400D02*
X11627800Y-9062400D01*
X11627800Y-9022400D02*
X11587800Y-9062400D01*
X11613200Y-9543100D02*
X11653200Y-9583100D01*
X11653200Y-9543100D02*
X11613200Y-9583100D01*
X11676000Y-9635000D02*
X11716000Y-9675000D01*
X11716000Y-9635000D02*
X11676000Y-9675000D01*
X11676700Y-8984300D02*
X11716700Y-9024300D01*
X11716700Y-8984300D02*
X11676700Y-9024300D01*
X11727500Y-10114600D02*
X11767500Y-10154600D01*
X11767500Y-10114600D02*
X11727500Y-10154600D01*
X15016289Y-7018919D02*
X15056289Y-7058919D01*
X15056289Y-7018919D02*
X15016289Y-7058919D01*
X15270289Y-6637919D02*
X15310289Y-6677919D01*
X15310289Y-6637919D02*
X15270289Y-6677919D01*
X15296200Y-7828600D02*
X15336200Y-7868600D01*
X15336200Y-7828600D02*
X15296200Y-7868600D01*
X15397289Y-6891919D02*
X15437289Y-6931919D01*
X15437289Y-6891919D02*
X15397289Y-6931919D01*
X15541289Y-7690919D02*
X15581289Y-7730919D01*
X15581289Y-7690919D02*
X15541289Y-7730919D01*
X15613700Y-9632000D02*
X15653700Y-9672000D01*
X15653700Y-9632000D02*
X15613700Y-9672000D01*
X15625000Y-9975000D02*
X15665000Y-10015000D01*
X15665000Y-9975000D02*
X15625000Y-10015000D01*
X16080000Y-9180000D02*
X16120000Y-9220000D01*
X16120000Y-9180000D02*
X16080000Y-9220000D01*
X16248700Y-11752900D02*
X16288700Y-11792900D01*
X16288700Y-11752900D02*
X16248700Y-11792900D01*
X16248700Y-11752900D02*
X16288700Y-11792900D01*
X16288700Y-11752900D02*
X16248700Y-11792900D01*
X16413289Y-7018469D02*
X16453289Y-7058469D01*
X16453289Y-7018469D02*
X16413289Y-7058469D01*
X16456000Y-11821000D02*
X16496000Y-11861000D01*
X16496000Y-11821000D02*
X16456000Y-11861000D01*
X16626289Y-6915919D02*
X16666289Y-6955919D01*
X16666289Y-6915919D02*
X16626289Y-6955919D01*
X16626289Y-7440919D02*
X16666289Y-7480919D01*
X16666289Y-7440919D02*
X16626289Y-7480919D01*
X17771289Y-9570919D02*
X17811289Y-9610919D01*
X17811289Y-9570919D02*
X17771289Y-9610919D01*
X17781289Y-9775919D02*
X17821289Y-9815919D01*
X17821289Y-9775919D02*
X17781289Y-9815919D01*
X17866289Y-11175919D02*
X17906289Y-11215919D01*
X17906289Y-11175919D02*
X17866289Y-11215919D01*
X18103000Y-8507000D02*
X18143000Y-8547000D01*
X18143000Y-8507000D02*
X18103000Y-8547000D01*
X18109000Y-8951000D02*
X18149000Y-8991000D01*
X18149000Y-8951000D02*
X18109000Y-8991000D01*
X18256289Y-7680919D02*
X18296289Y-7720919D01*
X18296289Y-7680919D02*
X18256289Y-7720919D01*
X18316289Y-10980919D02*
X18356289Y-11020919D01*
X18356289Y-10980919D02*
X18316289Y-11020919D01*
X18530000Y-12330000D02*
X18570000Y-12370000D01*
X18570000Y-12330000D02*
X18530000Y-12370000D01*
X18906289Y-9190919D02*
X18946289Y-9230919D01*
X18946289Y-9190919D02*
X18906289Y-9230919D01*
X19041289Y-10595919D02*
X19081289Y-10635919D01*
X19081289Y-10595919D02*
X19041289Y-10635919D01*
X19096289Y-11900919D02*
X19136289Y-11940919D01*
X19136289Y-11900919D02*
X19096289Y-11940919D01*
D13*
X10304951Y-7501305D02*
G75*
G03*
X10304951Y-7501305I-35001J0D01*
G01*
D11*
X10309955Y-7466304D02*
X10229945Y-7466304D01*
X10229945Y-7466304D02*
G75*
G03*
X10229945Y-7536306I0J-35001D01*
G01*
X10229945Y-7536306D02*
X10309955Y-7536306D01*
X10309955Y-7536306D02*
G75*
G03*
X10309955Y-7466304I0J35001D01*
G01*
D13*
X10304951Y-8221295D02*
G75*
G03*
X10304951Y-8221295I-35001J0D01*
G01*
D11*
X10309955Y-8186294D02*
X10229945Y-8186294D01*
X10229945Y-8186294D02*
G75*
G03*
X10229945Y-8256296I0J-35001D01*
G01*
X10229945Y-8256296D02*
X10309955Y-8256296D01*
X10309955Y-8256296D02*
G75*
G03*
X10309955Y-8186294I0J35001D01*
G01*
D13*
X10571957Y-7618806D02*
G75*
G03*
X10571957Y-7618806I-35001J0D01*
G01*
X10571957Y-8103794D02*
G75*
G03*
X10571957Y-8103794I-35001J0D01*
G01*
D14*
X18391289Y-9670919D02*
X18391289Y-9750919D01*
X18351289Y-9710919D02*
X18431289Y-9710919D01*
X18731289Y-9670919D02*
X18731289Y-9750919D01*
X18691289Y-9710919D02*
X18771289Y-9710919D01*
D15*
X11793820Y-7625820D02*
X11793820Y-7562180D01*
X11730180Y-7562180D01*
X11730180Y-7625820D01*
X11793820Y-7625820D01*
X12047820Y-7625820D02*
X12047820Y-7562180D01*
X11984180Y-7562180D01*
X11984180Y-7625820D01*
X12047820Y-7625820D01*
X13589109Y-7722739D02*
X13589109Y-7659099D01*
X13525468Y-7659099D01*
X13525468Y-7722739D01*
X13589109Y-7722739D01*
X13843109Y-7722739D02*
X13843109Y-7659099D01*
X13779468Y-7659099D01*
X13779468Y-7722739D01*
X13843109Y-7722739D01*
X18467320Y-9036820D02*
X18467320Y-8973180D01*
X18403680Y-8973180D01*
X18403680Y-9036820D01*
X18467320Y-9036820D01*
X18721320Y-9036820D02*
X18721320Y-8973180D01*
X18657680Y-8973180D01*
X18657680Y-9036820D01*
X18721320Y-9036820D01*
D10*
X10491289Y-9686919D02*
X10541289Y-9636919D01*
X10491289Y-9586919D01*
X10441289Y-9636919D01*
X10491289Y-9686919D01*
X10491289Y-9940919D02*
X10541289Y-9890919D01*
X10491289Y-9840919D01*
X10441289Y-9890919D01*
X10491289Y-9940919D01*
X11605289Y-10901919D02*
X11655289Y-10851919D01*
X11605289Y-10801919D01*
X11555289Y-10851919D01*
X11605289Y-10901919D01*
X11605289Y-11409919D02*
X11655289Y-11359919D01*
X11605289Y-11309919D01*
X11555289Y-11359919D01*
X11605289Y-11409919D01*
X11605289Y-13423100D02*
X11655289Y-13373100D01*
X11605289Y-13323100D01*
X11555289Y-13373100D01*
X11605289Y-13423100D01*
X11608000Y-12951000D02*
X11658000Y-12901000D01*
X11608000Y-12851000D01*
X11558000Y-12901000D01*
X11608000Y-12951000D01*
X11859289Y-10901919D02*
X11909289Y-10851919D01*
X11859289Y-10801919D01*
X11809289Y-10851919D01*
X11859289Y-10901919D01*
X11859289Y-11409919D02*
X11909289Y-11359919D01*
X11859289Y-11309919D01*
X11809289Y-11359919D01*
X11859289Y-11409919D01*
X11859289Y-13423100D02*
X11909289Y-13373100D01*
X11859289Y-13323100D01*
X11809289Y-13373100D01*
X11859289Y-13423100D01*
X11862000Y-12951000D02*
X11912000Y-12901000D01*
X11862000Y-12851000D01*
X11812000Y-12901000D01*
X11862000Y-12951000D01*
X12113289Y-10901919D02*
X12163289Y-10851919D01*
X12113289Y-10801919D01*
X12063289Y-10851919D01*
X12113289Y-10901919D01*
X12113289Y-11409919D02*
X12163289Y-11359919D01*
X12113289Y-11309919D01*
X12063289Y-11359919D01*
X12113289Y-11409919D01*
X12113289Y-13423100D02*
X12163289Y-13373100D01*
X12113289Y-13323100D01*
X12063289Y-13373100D01*
X12113289Y-13423100D01*
X12116000Y-12951000D02*
X12166000Y-12901000D01*
X12116000Y-12851000D01*
X12066000Y-12901000D01*
X12116000Y-12951000D01*
X12367289Y-10901919D02*
X12417289Y-10851919D01*
X12367289Y-10801919D01*
X12317289Y-10851919D01*
X12367289Y-10901919D01*
X12367289Y-11409919D02*
X12417289Y-11359919D01*
X12367289Y-11309919D01*
X12317289Y-11359919D01*
X12367289Y-11409919D01*
X12367289Y-13423100D02*
X12417289Y-13373100D01*
X12367289Y-13323100D01*
X12317289Y-13373100D01*
X12367289Y-13423100D01*
X12370000Y-12951000D02*
X12420000Y-12901000D01*
X12370000Y-12851000D01*
X12320000Y-12901000D01*
X12370000Y-12951000D01*
X12621289Y-10901919D02*
X12671289Y-10851919D01*
X12621289Y-10801919D01*
X12571289Y-10851919D01*
X12621289Y-10901919D01*
X12621289Y-11409919D02*
X12671289Y-11359919D01*
X12621289Y-11309919D01*
X12571289Y-11359919D01*
X12621289Y-11409919D01*
X12621289Y-13423100D02*
X12671289Y-13373100D01*
X12621289Y-13323100D01*
X12571289Y-13373100D01*
X12621289Y-13423100D01*
X12624000Y-12951000D02*
X12674000Y-12901000D01*
X12624000Y-12851000D01*
X12574000Y-12901000D01*
X12624000Y-12951000D01*
X12875289Y-10901919D02*
X12925289Y-10851919D01*
X12875289Y-10801919D01*
X12825289Y-10851919D01*
X12875289Y-10901919D01*
X12875289Y-11409919D02*
X12925289Y-11359919D01*
X12875289Y-11309919D01*
X12825289Y-11359919D01*
X12875289Y-11409919D01*
X12875289Y-13423100D02*
X12925289Y-13373100D01*
X12875289Y-13323100D01*
X12825289Y-13373100D01*
X12875289Y-13423100D01*
X12878000Y-12951000D02*
X12928000Y-12901000D01*
X12878000Y-12851000D01*
X12828000Y-12901000D01*
X12878000Y-12951000D01*
X13129289Y-10901919D02*
X13179289Y-10851919D01*
X13129289Y-10801919D01*
X13079289Y-10851919D01*
X13129289Y-10901919D01*
X13129289Y-11409919D02*
X13179289Y-11359919D01*
X13129289Y-11309919D01*
X13079289Y-11359919D01*
X13129289Y-11409919D01*
X13129289Y-13423100D02*
X13179289Y-13373100D01*
X13129289Y-13323100D01*
X13079289Y-13373100D01*
X13129289Y-13423100D01*
X13132000Y-12951000D02*
X13182000Y-12901000D01*
X13132000Y-12851000D01*
X13082000Y-12901000D01*
X13132000Y-12951000D01*
X13383289Y-10901919D02*
X13433289Y-10851919D01*
X13383289Y-10801919D01*
X13333289Y-10851919D01*
X13383289Y-10901919D01*
X13383289Y-11409919D02*
X13433289Y-11359919D01*
X13383289Y-11309919D01*
X13333289Y-11359919D01*
X13383289Y-11409919D01*
X13383289Y-13423100D02*
X13433289Y-13373100D01*
X13383289Y-13323100D01*
X13333289Y-13373100D01*
X13383289Y-13423100D01*
X13386000Y-12951000D02*
X13436000Y-12901000D01*
X13386000Y-12851000D01*
X13336000Y-12901000D01*
X13386000Y-12951000D01*
X13637289Y-10901919D02*
X13687289Y-10851919D01*
X13637289Y-10801919D01*
X13587289Y-10851919D01*
X13637289Y-10901919D01*
X13637289Y-11409919D02*
X13687289Y-11359919D01*
X13637289Y-11309919D01*
X13587289Y-11359919D01*
X13637289Y-11409919D01*
X13637289Y-13423100D02*
X13687289Y-13373100D01*
X13637289Y-13323100D01*
X13587289Y-13373100D01*
X13637289Y-13423100D01*
X13640000Y-12951000D02*
X13690000Y-12901000D01*
X13640000Y-12851000D01*
X13590000Y-12901000D01*
X13640000Y-12951000D01*
X13891289Y-10901919D02*
X13941289Y-10851919D01*
X13891289Y-10801919D01*
X13841289Y-10851919D01*
X13891289Y-10901919D01*
X13891289Y-11409919D02*
X13941289Y-11359919D01*
X13891289Y-11309919D01*
X13841289Y-11359919D01*
X13891289Y-11409919D01*
X13891289Y-13423100D02*
X13941289Y-13373100D01*
X13891289Y-13323100D01*
X13841289Y-13373100D01*
X13891289Y-13423100D01*
X13894000Y-12951000D02*
X13944000Y-12901000D01*
X13894000Y-12851000D01*
X13844000Y-12901000D01*
X13894000Y-12951000D01*
X14145289Y-10901919D02*
X14195289Y-10851919D01*
X14145289Y-10801919D01*
X14095289Y-10851919D01*
X14145289Y-10901919D01*
X14145289Y-11409919D02*
X14195289Y-11359919D01*
X14145289Y-11309919D01*
X14095289Y-11359919D01*
X14145289Y-11409919D01*
X14145289Y-13423100D02*
X14195289Y-13373100D01*
X14145289Y-13323100D01*
X14095289Y-13373100D01*
X14145289Y-13423100D01*
X14148000Y-12951000D02*
X14198000Y-12901000D01*
X14148000Y-12851000D01*
X14098000Y-12901000D01*
X14148000Y-12951000D01*
X14399289Y-10901919D02*
X14449289Y-10851919D01*
X14399289Y-10801919D01*
X14349289Y-10851919D01*
X14399289Y-10901919D01*
X14399289Y-11409919D02*
X14449289Y-11359919D01*
X14399289Y-11309919D01*
X14349289Y-11359919D01*
X14399289Y-11409919D01*
X14399289Y-13423100D02*
X14449289Y-13373100D01*
X14399289Y-13323100D01*
X14349289Y-13373100D01*
X14399289Y-13423100D01*
X14402000Y-12951000D02*
X14452000Y-12901000D01*
X14402000Y-12851000D01*
X14352000Y-12901000D01*
X14402000Y-12951000D01*
X14653289Y-10901919D02*
X14703289Y-10851919D01*
X14653289Y-10801919D01*
X14603289Y-10851919D01*
X14653289Y-10901919D01*
X14653289Y-11409919D02*
X14703289Y-11359919D01*
X14653289Y-11309919D01*
X14603289Y-11359919D01*
X14653289Y-11409919D01*
X14653289Y-13423100D02*
X14703289Y-13373100D01*
X14653289Y-13323100D01*
X14603289Y-13373100D01*
X14653289Y-13423100D01*
X14656000Y-12951000D02*
X14706000Y-12901000D01*
X14656000Y-12851000D01*
X14606000Y-12901000D01*
X14656000Y-12951000D01*
X14907289Y-10901919D02*
X14957289Y-10851919D01*
X14907289Y-10801919D01*
X14857289Y-10851919D01*
X14907289Y-10901919D01*
X14907289Y-11409919D02*
X14957289Y-11359919D01*
X14907289Y-11309919D01*
X14857289Y-11359919D01*
X14907289Y-11409919D01*
X14907289Y-13423100D02*
X14957289Y-13373100D01*
X14907289Y-13323100D01*
X14857289Y-13373100D01*
X14907289Y-13423100D01*
X14910000Y-12951000D02*
X14960000Y-12901000D01*
X14910000Y-12851000D01*
X14860000Y-12901000D01*
X14910000Y-12951000D01*
X15161289Y-10901919D02*
X15211289Y-10851919D01*
X15161289Y-10801919D01*
X15111289Y-10851919D01*
X15161289Y-10901919D01*
X15161289Y-11409919D02*
X15211289Y-11359919D01*
X15161289Y-11309919D01*
X15111289Y-11359919D01*
X15161289Y-11409919D01*
X15161289Y-13423100D02*
X15211289Y-13373100D01*
X15161289Y-13323100D01*
X15111289Y-13373100D01*
X15161289Y-13423100D01*
X15164000Y-12951000D02*
X15214000Y-12901000D01*
X15164000Y-12851000D01*
X15114000Y-12901000D01*
X15164000Y-12951000D01*
X15415289Y-10901919D02*
X15465289Y-10851919D01*
X15415289Y-10801919D01*
X15365289Y-10851919D01*
X15415289Y-10901919D01*
X15415289Y-11409919D02*
X15465289Y-11359919D01*
X15415289Y-11309919D01*
X15365289Y-11359919D01*
X15415289Y-11409919D01*
X15415289Y-13423100D02*
X15465289Y-13373100D01*
X15415289Y-13323100D01*
X15365289Y-13373100D01*
X15415289Y-13423100D01*
X15418000Y-12951000D02*
X15468000Y-12901000D01*
X15418000Y-12851000D01*
X15368000Y-12901000D01*
X15418000Y-12951000D01*
X15669289Y-10901919D02*
X15719289Y-10851919D01*
X15669289Y-10801919D01*
X15619289Y-10851919D01*
X15669289Y-10901919D01*
X15669289Y-11409919D02*
X15719289Y-11359919D01*
X15669289Y-11309919D01*
X15619289Y-11359919D01*
X15669289Y-11409919D01*
X15669289Y-13423100D02*
X15719289Y-13373100D01*
X15669289Y-13323100D01*
X15619289Y-13373100D01*
X15669289Y-13423100D01*
X15672000Y-12951000D02*
X15722000Y-12901000D01*
X15672000Y-12851000D01*
X15622000Y-12901000D01*
X15672000Y-12951000D01*
X15923289Y-10901919D02*
X15973289Y-10851919D01*
X15923289Y-10801919D01*
X15873289Y-10851919D01*
X15923289Y-10901919D01*
X15923289Y-11409919D02*
X15973289Y-11359919D01*
X15923289Y-11309919D01*
X15873289Y-11359919D01*
X15923289Y-11409919D01*
X15923289Y-13423100D02*
X15973289Y-13373100D01*
X15923289Y-13323100D01*
X15873289Y-13373100D01*
X15923289Y-13423100D01*
X15926000Y-12951000D02*
X15976000Y-12901000D01*
X15926000Y-12851000D01*
X15876000Y-12901000D01*
X15926000Y-12951000D01*
X16177289Y-10901919D02*
X16227289Y-10851919D01*
X16177289Y-10801919D01*
X16127289Y-10851919D01*
X16177289Y-10901919D01*
X16177289Y-11409919D02*
X16227289Y-11359919D01*
X16177289Y-11309919D01*
X16127289Y-11359919D01*
X16177289Y-11409919D01*
X16177289Y-13423100D02*
X16227289Y-13373100D01*
X16177289Y-13323100D01*
X16127289Y-13373100D01*
X16177289Y-13423100D01*
X16180000Y-12951000D02*
X16230000Y-12901000D01*
X16180000Y-12851000D01*
X16130000Y-12901000D01*
X16180000Y-12951000D01*
X16431289Y-10901919D02*
X16481289Y-10851919D01*
X16431289Y-10801919D01*
X16381289Y-10851919D01*
X16431289Y-10901919D01*
X16431289Y-11409919D02*
X16481289Y-11359919D01*
X16431289Y-11309919D01*
X16381289Y-11359919D01*
X16431289Y-11409919D01*
X16431289Y-13423100D02*
X16481289Y-13373100D01*
X16431289Y-13323100D01*
X16381289Y-13373100D01*
X16431289Y-13423100D01*
X16434000Y-12951000D02*
X16484000Y-12901000D01*
X16434000Y-12851000D01*
X16384000Y-12901000D01*
X16434000Y-12951000D01*
X16685289Y-10901919D02*
X16735289Y-10851919D01*
X16685289Y-10801919D01*
X16635289Y-10851919D01*
X16685289Y-10901919D01*
X16685289Y-11409919D02*
X16735289Y-11359919D01*
X16685289Y-11309919D01*
X16635289Y-11359919D01*
X16685289Y-11409919D01*
X16685289Y-13423100D02*
X16735289Y-13373100D01*
X16685289Y-13323100D01*
X16635289Y-13373100D01*
X16685289Y-13423100D01*
X16688000Y-12951000D02*
X16738000Y-12901000D01*
X16688000Y-12851000D01*
X16638000Y-12901000D01*
X16688000Y-12951000D01*
X16939289Y-10901919D02*
X16989289Y-10851919D01*
X16939289Y-10801919D01*
X16889289Y-10851919D01*
X16939289Y-10901919D01*
X16939289Y-11409919D02*
X16989289Y-11359919D01*
X16939289Y-11309919D01*
X16889289Y-11359919D01*
X16939289Y-11409919D01*
X16939289Y-13423100D02*
X16989289Y-13373100D01*
X16939289Y-13323100D01*
X16889289Y-13373100D01*
X16939289Y-13423100D01*
X16942000Y-12951000D02*
X16992000Y-12901000D01*
X16942000Y-12851000D01*
X16892000Y-12901000D01*
X16942000Y-12951000D01*
X17193289Y-10901919D02*
X17243289Y-10851919D01*
X17193289Y-10801919D01*
X17143289Y-10851919D01*
X17193289Y-10901919D01*
X17193289Y-11409919D02*
X17243289Y-11359919D01*
X17193289Y-11309919D01*
X17143289Y-11359919D01*
X17193289Y-11409919D01*
X17193289Y-13423100D02*
X17243289Y-13373100D01*
X17193289Y-13323100D01*
X17143289Y-13373100D01*
X17193289Y-13423100D01*
X17196000Y-12951000D02*
X17246000Y-12901000D01*
X17196000Y-12851000D01*
X17146000Y-12901000D01*
X17196000Y-12951000D01*
X17317000Y-9721000D02*
X17367000Y-9671000D01*
X17317000Y-9621000D01*
X17267000Y-9671000D01*
X17317000Y-9721000D01*
X17317000Y-9975000D02*
X17367000Y-9925000D01*
X17317000Y-9875000D01*
X17267000Y-9925000D01*
X17317000Y-9975000D01*
X17447289Y-10901919D02*
X17497289Y-10851919D01*
X17447289Y-10801919D01*
X17397289Y-10851919D01*
X17447289Y-10901919D01*
X17447289Y-11409919D02*
X17497289Y-11359919D01*
X17447289Y-11309919D01*
X17397289Y-11359919D01*
X17447289Y-11409919D01*
X17447289Y-13423100D02*
X17497289Y-13373100D01*
X17447289Y-13323100D01*
X17397289Y-13373100D01*
X17447289Y-13423100D01*
X17450000Y-12951000D02*
X17500000Y-12901000D01*
X17450000Y-12851000D01*
X17400000Y-12901000D01*
X17450000Y-12951000D01*
X17981289Y-6906919D02*
X18031289Y-6856919D01*
X17981289Y-6806919D01*
X17931289Y-6856919D01*
X17981289Y-6906919D01*
X17981289Y-7160919D02*
X18031289Y-7110919D01*
X17981289Y-7060919D01*
X17931289Y-7110919D01*
X17981289Y-7160919D01*
X18681289Y-6906919D02*
X18731289Y-6856919D01*
X18681289Y-6806919D01*
X18631289Y-6856919D01*
X18681289Y-6906919D01*
X18681289Y-7160919D02*
X18731289Y-7110919D01*
X18681289Y-7060919D01*
X18631289Y-7110919D01*
X18681289Y-7160919D01*
X19572000Y-8212000D02*
X19622000Y-8162000D01*
X19572000Y-8112000D01*
X19522000Y-8162000D01*
X19572000Y-8212000D01*
X19572000Y-8466000D02*
X19622000Y-8416000D01*
X19572000Y-8366000D01*
X19522000Y-8416000D01*
X19572000Y-8466000D01*
X19572000Y-8720000D02*
X19622000Y-8670000D01*
X19572000Y-8620000D01*
X19522000Y-8670000D01*
X19572000Y-8720000D01*
X19572000Y-8974000D02*
X19622000Y-8924000D01*
X19572000Y-8874000D01*
X19522000Y-8924000D01*
X19572000Y-8974000D01*
X19572000Y-9228000D02*
X19622000Y-9178000D01*
X19572000Y-9128000D01*
X19522000Y-9178000D01*
X19572000Y-9228000D01*
X19572000Y-9482000D02*
X19622000Y-9432000D01*
X19572000Y-9382000D01*
X19522000Y-9432000D01*
X19572000Y-9482000D01*
X19572000Y-9736000D02*
X19622000Y-9686000D01*
X19572000Y-9636000D01*
X19522000Y-9686000D01*
X19572000Y-9736000D01*
X19572000Y-9990000D02*
X19622000Y-9940000D01*
X19572000Y-9890000D01*
X19522000Y-9940000D01*
X19572000Y-9990000D01*
X19572000Y-10244000D02*
X19622000Y-10194000D01*
X19572000Y-10144000D01*
X19522000Y-10194000D01*
X19572000Y-10244000D01*
D16*
X10506289Y-11765919D02*
X10616289Y-11875919D01*
X10616289Y-11765919D02*
X10506289Y-11875919D01*
X10616289Y-11820919D02*
G75*
G03*
X10616289Y-11820919I-55000J0D01*
G01*
X10506289Y-12415919D02*
X10616289Y-12525919D01*
X10616289Y-12415919D02*
X10506289Y-12525919D01*
X10616289Y-12470919D02*
G75*
G03*
X10616289Y-12470919I-55000J0D01*
G01*
X10956289Y-11765919D02*
X11066289Y-11875919D01*
X11066289Y-11765919D02*
X10956289Y-11875919D01*
X11066289Y-11820919D02*
G75*
G03*
X11066289Y-11820919I-55000J0D01*
G01*
X10956289Y-12415919D02*
X11066289Y-12525919D01*
X11066289Y-12415919D02*
X10956289Y-12525919D01*
X11066289Y-12470919D02*
G75*
G03*
X11066289Y-12470919I-55000J0D01*
G01*
D17*
X18653289Y-5690919D02*
X18893289Y-5930919D01*
X18893289Y-5690919D02*
X18653289Y-5930919D01*
X18773289Y-5690919D02*
X18773289Y-5930919D01*
X18653289Y-5810919D02*
X18893289Y-5810919D01*
D18*
X12246289Y-5625919D02*
X12616289Y-5995919D01*
X12616289Y-5625919D02*
X12246289Y-5995919D01*
X12562105Y-5941735D02*
X12562105Y-5680103D01*
X12300473Y-5680103D01*
X12300473Y-5941735D01*
X12562105Y-5941735D01*
X17766289Y-4025919D02*
X18136289Y-4395919D01*
X18136289Y-4025919D02*
X17766289Y-4395919D01*
X18082105Y-4341735D02*
X18082105Y-4080103D01*
X17820473Y-4080103D01*
X17820473Y-4341735D01*
X18082105Y-4341735D01*
D11*
X10359419Y-14141476D02*
X10359419Y-13941476D01*
X10359419Y-13941476D02*
X10407038Y-13941476D01*
X10407038Y-13941476D02*
X10435610Y-13951000D01*
X10435610Y-13951000D02*
X10454657Y-13970048D01*
X10454657Y-13970048D02*
X10464181Y-13989095D01*
X10464181Y-13989095D02*
X10473705Y-14027190D01*
X10473705Y-14027190D02*
X10473705Y-14055762D01*
X10473705Y-14055762D02*
X10464181Y-14093857D01*
X10464181Y-14093857D02*
X10454657Y-14112905D01*
X10454657Y-14112905D02*
X10435610Y-14131952D01*
X10435610Y-14131952D02*
X10407038Y-14141476D01*
X10407038Y-14141476D02*
X10359419Y-14141476D01*
X10559419Y-14141476D02*
X10559419Y-14008143D01*
X10559419Y-14046238D02*
X10568943Y-14027190D01*
X10568943Y-14027190D02*
X10578467Y-14017667D01*
X10578467Y-14017667D02*
X10597514Y-14008143D01*
X10597514Y-14008143D02*
X10616562Y-14008143D01*
X10683229Y-14141476D02*
X10683229Y-14008143D01*
X10683229Y-13941476D02*
X10673705Y-13951000D01*
X10673705Y-13951000D02*
X10683229Y-13960524D01*
X10683229Y-13960524D02*
X10692752Y-13951000D01*
X10692752Y-13951000D02*
X10683229Y-13941476D01*
X10683229Y-13941476D02*
X10683229Y-13960524D01*
X10807038Y-14141476D02*
X10787990Y-14131952D01*
X10787990Y-14131952D02*
X10778467Y-14112905D01*
X10778467Y-14112905D02*
X10778467Y-13941476D01*
X10911800Y-14141476D02*
X10892752Y-14131952D01*
X10892752Y-14131952D02*
X10883229Y-14112905D01*
X10883229Y-14112905D02*
X10883229Y-13941476D01*
X11107990Y-14141476D02*
X11107990Y-13941476D01*
X11107990Y-13941476D02*
X11174657Y-14084333D01*
X11174657Y-14084333D02*
X11241324Y-13941476D01*
X11241324Y-13941476D02*
X11241324Y-14141476D01*
X11422276Y-14141476D02*
X11422276Y-14036714D01*
X11422276Y-14036714D02*
X11412752Y-14017667D01*
X11412752Y-14017667D02*
X11393705Y-14008143D01*
X11393705Y-14008143D02*
X11355609Y-14008143D01*
X11355609Y-14008143D02*
X11336562Y-14017667D01*
X11422276Y-14131952D02*
X11403228Y-14141476D01*
X11403228Y-14141476D02*
X11355609Y-14141476D01*
X11355609Y-14141476D02*
X11336562Y-14131952D01*
X11336562Y-14131952D02*
X11327038Y-14112905D01*
X11327038Y-14112905D02*
X11327038Y-14093857D01*
X11327038Y-14093857D02*
X11336562Y-14074809D01*
X11336562Y-14074809D02*
X11355609Y-14065286D01*
X11355609Y-14065286D02*
X11403228Y-14065286D01*
X11403228Y-14065286D02*
X11422276Y-14055762D01*
X11517514Y-14008143D02*
X11517514Y-14208143D01*
X11517514Y-14017667D02*
X11536562Y-14008143D01*
X11536562Y-14008143D02*
X11574657Y-14008143D01*
X11574657Y-14008143D02*
X11593705Y-14017667D01*
X11593705Y-14017667D02*
X11603228Y-14027190D01*
X11603228Y-14027190D02*
X11612752Y-14046238D01*
X11612752Y-14046238D02*
X11612752Y-14103381D01*
X11612752Y-14103381D02*
X11603228Y-14122428D01*
X11603228Y-14122428D02*
X11593705Y-14131952D01*
X11593705Y-14131952D02*
X11574657Y-14141476D01*
X11574657Y-14141476D02*
X11536562Y-14141476D01*
X11536562Y-14141476D02*
X11517514Y-14131952D01*
X11698467Y-14122428D02*
X11707990Y-14131952D01*
X11707990Y-14131952D02*
X11698467Y-14141476D01*
X11698467Y-14141476D02*
X11688943Y-14131952D01*
X11688943Y-14131952D02*
X11698467Y-14122428D01*
X11698467Y-14122428D02*
X11698467Y-14141476D01*
X11698467Y-14017667D02*
X11707990Y-14027190D01*
X11707990Y-14027190D02*
X11698467Y-14036714D01*
X11698467Y-14036714D02*
X11688943Y-14027190D01*
X11688943Y-14027190D02*
X11698467Y-14017667D01*
X11698467Y-14017667D02*
X11698467Y-14036714D01*
D12*
X10071800Y-14468000D02*
X10111800Y-14508000D01*
X10111800Y-14468000D02*
X10071800Y-14508000D01*
D11*
X10397514Y-14361476D02*
X10416562Y-14361476D01*
X10416562Y-14361476D02*
X10435610Y-14371000D01*
X10435610Y-14371000D02*
X10445133Y-14380524D01*
X10445133Y-14380524D02*
X10454657Y-14399571D01*
X10454657Y-14399571D02*
X10464181Y-14437667D01*
X10464181Y-14437667D02*
X10464181Y-14485286D01*
X10464181Y-14485286D02*
X10454657Y-14523381D01*
X10454657Y-14523381D02*
X10445133Y-14542428D01*
X10445133Y-14542428D02*
X10435610Y-14551952D01*
X10435610Y-14551952D02*
X10416562Y-14561476D01*
X10416562Y-14561476D02*
X10397514Y-14561476D01*
X10397514Y-14561476D02*
X10378467Y-14551952D01*
X10378467Y-14551952D02*
X10368943Y-14542428D01*
X10368943Y-14542428D02*
X10359419Y-14523381D01*
X10359419Y-14523381D02*
X10349895Y-14485286D01*
X10349895Y-14485286D02*
X10349895Y-14437667D01*
X10349895Y-14437667D02*
X10359419Y-14399571D01*
X10359419Y-14399571D02*
X10368943Y-14380524D01*
X10368943Y-14380524D02*
X10378467Y-14371000D01*
X10378467Y-14371000D02*
X10397514Y-14361476D01*
X10549895Y-14542428D02*
X10559419Y-14551952D01*
X10559419Y-14551952D02*
X10549895Y-14561476D01*
X10549895Y-14561476D02*
X10540371Y-14551952D01*
X10540371Y-14551952D02*
X10549895Y-14542428D01*
X10549895Y-14542428D02*
X10549895Y-14561476D01*
X10730848Y-14428143D02*
X10730848Y-14561476D01*
X10683229Y-14351952D02*
X10635610Y-14494809D01*
X10635610Y-14494809D02*
X10759419Y-14494809D01*
X10873705Y-14361476D02*
X10892752Y-14361476D01*
X10892752Y-14361476D02*
X10911800Y-14371000D01*
X10911800Y-14371000D02*
X10921324Y-14380524D01*
X10921324Y-14380524D02*
X10930848Y-14399571D01*
X10930848Y-14399571D02*
X10940371Y-14437667D01*
X10940371Y-14437667D02*
X10940371Y-14485286D01*
X10940371Y-14485286D02*
X10930848Y-14523381D01*
X10930848Y-14523381D02*
X10921324Y-14542428D01*
X10921324Y-14542428D02*
X10911800Y-14551952D01*
X10911800Y-14551952D02*
X10892752Y-14561476D01*
X10892752Y-14561476D02*
X10873705Y-14561476D01*
X10873705Y-14561476D02*
X10854657Y-14551952D01*
X10854657Y-14551952D02*
X10845133Y-14542428D01*
X10845133Y-14542428D02*
X10835610Y-14523381D01*
X10835610Y-14523381D02*
X10826086Y-14485286D01*
X10826086Y-14485286D02*
X10826086Y-14437667D01*
X10826086Y-14437667D02*
X10835610Y-14399571D01*
X10835610Y-14399571D02*
X10845133Y-14380524D01*
X10845133Y-14380524D02*
X10854657Y-14371000D01*
X10854657Y-14371000D02*
X10873705Y-14361476D01*
X11064181Y-14361476D02*
X11083229Y-14361476D01*
X11083229Y-14361476D02*
X11102276Y-14371000D01*
X11102276Y-14371000D02*
X11111800Y-14380524D01*
X11111800Y-14380524D02*
X11121324Y-14399571D01*
X11121324Y-14399571D02*
X11130848Y-14437667D01*
X11130848Y-14437667D02*
X11130848Y-14485286D01*
X11130848Y-14485286D02*
X11121324Y-14523381D01*
X11121324Y-14523381D02*
X11111800Y-14542428D01*
X11111800Y-14542428D02*
X11102276Y-14551952D01*
X11102276Y-14551952D02*
X11083229Y-14561476D01*
X11083229Y-14561476D02*
X11064181Y-14561476D01*
X11064181Y-14561476D02*
X11045133Y-14551952D01*
X11045133Y-14551952D02*
X11035610Y-14542428D01*
X11035610Y-14542428D02*
X11026086Y-14523381D01*
X11026086Y-14523381D02*
X11016562Y-14485286D01*
X11016562Y-14485286D02*
X11016562Y-14437667D01*
X11016562Y-14437667D02*
X11026086Y-14399571D01*
X11026086Y-14399571D02*
X11035610Y-14380524D01*
X11035610Y-14380524D02*
X11045133Y-14371000D01*
X11045133Y-14371000D02*
X11064181Y-14361476D01*
X11216562Y-14561476D02*
X11216562Y-14428143D01*
X11216562Y-14447190D02*
X11226086Y-14437667D01*
X11226086Y-14437667D02*
X11245133Y-14428143D01*
X11245133Y-14428143D02*
X11273705Y-14428143D01*
X11273705Y-14428143D02*
X11292752Y-14437667D01*
X11292752Y-14437667D02*
X11302276Y-14456714D01*
X11302276Y-14456714D02*
X11302276Y-14561476D01*
X11302276Y-14456714D02*
X11311800Y-14437667D01*
X11311800Y-14437667D02*
X11330848Y-14428143D01*
X11330848Y-14428143D02*
X11359419Y-14428143D01*
X11359419Y-14428143D02*
X11378467Y-14437667D01*
X11378467Y-14437667D02*
X11387990Y-14456714D01*
X11387990Y-14456714D02*
X11387990Y-14561476D01*
X11483229Y-14561476D02*
X11483229Y-14428143D01*
X11483229Y-14447190D02*
X11492752Y-14437667D01*
X11492752Y-14437667D02*
X11511800Y-14428143D01*
X11511800Y-14428143D02*
X11540371Y-14428143D01*
X11540371Y-14428143D02*
X11559419Y-14437667D01*
X11559419Y-14437667D02*
X11568943Y-14456714D01*
X11568943Y-14456714D02*
X11568943Y-14561476D01*
X11568943Y-14456714D02*
X11578467Y-14437667D01*
X11578467Y-14437667D02*
X11597514Y-14428143D01*
X11597514Y-14428143D02*
X11626086Y-14428143D01*
X11626086Y-14428143D02*
X11645133Y-14437667D01*
X11645133Y-14437667D02*
X11654657Y-14456714D01*
X11654657Y-14456714D02*
X11654657Y-14561476D01*
X12012752Y-14351952D02*
X11841324Y-14609095D01*
X12237514Y-14361476D02*
X12256562Y-14361476D01*
X12256562Y-14361476D02*
X12275610Y-14371000D01*
X12275610Y-14371000D02*
X12285133Y-14380524D01*
X12285133Y-14380524D02*
X12294657Y-14399571D01*
X12294657Y-14399571D02*
X12304181Y-14437667D01*
X12304181Y-14437667D02*
X12304181Y-14485286D01*
X12304181Y-14485286D02*
X12294657Y-14523381D01*
X12294657Y-14523381D02*
X12285133Y-14542428D01*
X12285133Y-14542428D02*
X12275610Y-14551952D01*
X12275610Y-14551952D02*
X12256562Y-14561476D01*
X12256562Y-14561476D02*
X12237514Y-14561476D01*
X12237514Y-14561476D02*
X12218467Y-14551952D01*
X12218467Y-14551952D02*
X12208943Y-14542428D01*
X12208943Y-14542428D02*
X12199419Y-14523381D01*
X12199419Y-14523381D02*
X12189895Y-14485286D01*
X12189895Y-14485286D02*
X12189895Y-14437667D01*
X12189895Y-14437667D02*
X12199419Y-14399571D01*
X12199419Y-14399571D02*
X12208943Y-14380524D01*
X12208943Y-14380524D02*
X12218467Y-14371000D01*
X12218467Y-14371000D02*
X12237514Y-14361476D01*
X12389895Y-14542428D02*
X12399419Y-14551952D01*
X12399419Y-14551952D02*
X12389895Y-14561476D01*
X12389895Y-14561476D02*
X12380371Y-14551952D01*
X12380371Y-14551952D02*
X12389895Y-14542428D01*
X12389895Y-14542428D02*
X12389895Y-14561476D01*
X12523229Y-14361476D02*
X12542276Y-14361476D01*
X12542276Y-14361476D02*
X12561324Y-14371000D01*
X12561324Y-14371000D02*
X12570848Y-14380524D01*
X12570848Y-14380524D02*
X12580371Y-14399571D01*
X12580371Y-14399571D02*
X12589895Y-14437667D01*
X12589895Y-14437667D02*
X12589895Y-14485286D01*
X12589895Y-14485286D02*
X12580371Y-14523381D01*
X12580371Y-14523381D02*
X12570848Y-14542428D01*
X12570848Y-14542428D02*
X12561324Y-14551952D01*
X12561324Y-14551952D02*
X12542276Y-14561476D01*
X12542276Y-14561476D02*
X12523229Y-14561476D01*
X12523229Y-14561476D02*
X12504181Y-14551952D01*
X12504181Y-14551952D02*
X12494657Y-14542428D01*
X12494657Y-14542428D02*
X12485133Y-14523381D01*
X12485133Y-14523381D02*
X12475610Y-14485286D01*
X12475610Y-14485286D02*
X12475610Y-14437667D01*
X12475610Y-14437667D02*
X12485133Y-14399571D01*
X12485133Y-14399571D02*
X12494657Y-14380524D01*
X12494657Y-14380524D02*
X12504181Y-14371000D01*
X12504181Y-14371000D02*
X12523229Y-14361476D01*
X12780371Y-14561476D02*
X12666086Y-14561476D01*
X12723229Y-14561476D02*
X12723229Y-14361476D01*
X12723229Y-14361476D02*
X12704181Y-14390048D01*
X12704181Y-14390048D02*
X12685133Y-14409095D01*
X12685133Y-14409095D02*
X12666086Y-14418619D01*
X12961324Y-14361476D02*
X12866086Y-14361476D01*
X12866086Y-14361476D02*
X12856562Y-14456714D01*
X12856562Y-14456714D02*
X12866086Y-14447190D01*
X12866086Y-14447190D02*
X12885133Y-14437667D01*
X12885133Y-14437667D02*
X12932752Y-14437667D01*
X12932752Y-14437667D02*
X12951800Y-14447190D01*
X12951800Y-14447190D02*
X12961324Y-14456714D01*
X12961324Y-14456714D02*
X12970848Y-14475762D01*
X12970848Y-14475762D02*
X12970848Y-14523381D01*
X12970848Y-14523381D02*
X12961324Y-14542428D01*
X12961324Y-14542428D02*
X12951800Y-14551952D01*
X12951800Y-14551952D02*
X12932752Y-14561476D01*
X12932752Y-14561476D02*
X12885133Y-14561476D01*
X12885133Y-14561476D02*
X12866086Y-14551952D01*
X12866086Y-14551952D02*
X12856562Y-14542428D01*
X13037514Y-14361476D02*
X13170848Y-14361476D01*
X13170848Y-14361476D02*
X13085133Y-14561476D01*
X13237514Y-14361476D02*
X13237514Y-14399571D01*
X13313705Y-14361476D02*
X13313705Y-14399571D01*
X13576562Y-14637667D02*
X13567038Y-14628143D01*
X13567038Y-14628143D02*
X13547991Y-14599571D01*
X13547991Y-14599571D02*
X13538467Y-14580524D01*
X13538467Y-14580524D02*
X13528943Y-14551952D01*
X13528943Y-14551952D02*
X13519419Y-14504333D01*
X13519419Y-14504333D02*
X13519419Y-14466238D01*
X13519419Y-14466238D02*
X13528943Y-14418619D01*
X13528943Y-14418619D02*
X13538467Y-14390048D01*
X13538467Y-14390048D02*
X13547991Y-14371000D01*
X13547991Y-14371000D02*
X13567038Y-14342428D01*
X13567038Y-14342428D02*
X13576562Y-14332905D01*
X13633705Y-14361476D02*
X13757514Y-14361476D01*
X13757514Y-14361476D02*
X13690848Y-14437667D01*
X13690848Y-14437667D02*
X13719419Y-14437667D01*
X13719419Y-14437667D02*
X13738467Y-14447190D01*
X13738467Y-14447190D02*
X13747991Y-14456714D01*
X13747991Y-14456714D02*
X13757514Y-14475762D01*
X13757514Y-14475762D02*
X13757514Y-14523381D01*
X13757514Y-14523381D02*
X13747991Y-14542428D01*
X13747991Y-14542428D02*
X13738467Y-14551952D01*
X13738467Y-14551952D02*
X13719419Y-14561476D01*
X13719419Y-14561476D02*
X13662276Y-14561476D01*
X13662276Y-14561476D02*
X13643229Y-14551952D01*
X13643229Y-14551952D02*
X13633705Y-14542428D01*
X13833705Y-14380524D02*
X13843229Y-14371000D01*
X13843229Y-14371000D02*
X13862276Y-14361476D01*
X13862276Y-14361476D02*
X13909895Y-14361476D01*
X13909895Y-14361476D02*
X13928943Y-14371000D01*
X13928943Y-14371000D02*
X13938467Y-14380524D01*
X13938467Y-14380524D02*
X13947991Y-14399571D01*
X13947991Y-14399571D02*
X13947991Y-14418619D01*
X13947991Y-14418619D02*
X13938467Y-14447190D01*
X13938467Y-14447190D02*
X13824181Y-14561476D01*
X13824181Y-14561476D02*
X13947991Y-14561476D01*
X14153705Y-14561476D02*
X14153705Y-14361476D01*
X14239419Y-14561476D02*
X14239419Y-14456714D01*
X14239419Y-14456714D02*
X14229895Y-14437667D01*
X14229895Y-14437667D02*
X14210848Y-14428143D01*
X14210848Y-14428143D02*
X14182276Y-14428143D01*
X14182276Y-14428143D02*
X14163229Y-14437667D01*
X14163229Y-14437667D02*
X14153705Y-14447190D01*
X14363229Y-14561476D02*
X14344181Y-14551952D01*
X14344181Y-14551952D02*
X14334657Y-14542428D01*
X14334657Y-14542428D02*
X14325133Y-14523381D01*
X14325133Y-14523381D02*
X14325133Y-14466238D01*
X14325133Y-14466238D02*
X14334657Y-14447190D01*
X14334657Y-14447190D02*
X14344181Y-14437667D01*
X14344181Y-14437667D02*
X14363229Y-14428143D01*
X14363229Y-14428143D02*
X14391800Y-14428143D01*
X14391800Y-14428143D02*
X14410848Y-14437667D01*
X14410848Y-14437667D02*
X14420372Y-14447190D01*
X14420372Y-14447190D02*
X14429895Y-14466238D01*
X14429895Y-14466238D02*
X14429895Y-14523381D01*
X14429895Y-14523381D02*
X14420372Y-14542428D01*
X14420372Y-14542428D02*
X14410848Y-14551952D01*
X14410848Y-14551952D02*
X14391800Y-14561476D01*
X14391800Y-14561476D02*
X14363229Y-14561476D01*
X14544181Y-14561476D02*
X14525133Y-14551952D01*
X14525133Y-14551952D02*
X14515610Y-14532905D01*
X14515610Y-14532905D02*
X14515610Y-14361476D01*
X14696562Y-14551952D02*
X14677514Y-14561476D01*
X14677514Y-14561476D02*
X14639419Y-14561476D01*
X14639419Y-14561476D02*
X14620372Y-14551952D01*
X14620372Y-14551952D02*
X14610848Y-14532905D01*
X14610848Y-14532905D02*
X14610848Y-14456714D01*
X14610848Y-14456714D02*
X14620372Y-14437667D01*
X14620372Y-14437667D02*
X14639419Y-14428143D01*
X14639419Y-14428143D02*
X14677514Y-14428143D01*
X14677514Y-14428143D02*
X14696562Y-14437667D01*
X14696562Y-14437667D02*
X14706086Y-14456714D01*
X14706086Y-14456714D02*
X14706086Y-14475762D01*
X14706086Y-14475762D02*
X14610848Y-14494809D01*
X14782276Y-14551952D02*
X14801324Y-14561476D01*
X14801324Y-14561476D02*
X14839419Y-14561476D01*
X14839419Y-14561476D02*
X14858467Y-14551952D01*
X14858467Y-14551952D02*
X14867991Y-14532905D01*
X14867991Y-14532905D02*
X14867991Y-14523381D01*
X14867991Y-14523381D02*
X14858467Y-14504333D01*
X14858467Y-14504333D02*
X14839419Y-14494809D01*
X14839419Y-14494809D02*
X14810848Y-14494809D01*
X14810848Y-14494809D02*
X14791800Y-14485286D01*
X14791800Y-14485286D02*
X14782276Y-14466238D01*
X14782276Y-14466238D02*
X14782276Y-14456714D01*
X14782276Y-14456714D02*
X14791800Y-14437667D01*
X14791800Y-14437667D02*
X14810848Y-14428143D01*
X14810848Y-14428143D02*
X14839419Y-14428143D01*
X14839419Y-14428143D02*
X14858467Y-14437667D01*
X14934657Y-14637667D02*
X14944181Y-14628143D01*
X14944181Y-14628143D02*
X14963229Y-14599571D01*
X14963229Y-14599571D02*
X14972753Y-14580524D01*
X14972753Y-14580524D02*
X14982276Y-14551952D01*
X14982276Y-14551952D02*
X14991800Y-14504333D01*
X14991800Y-14504333D02*
X14991800Y-14466238D01*
X14991800Y-14466238D02*
X14982276Y-14418619D01*
X14982276Y-14418619D02*
X14972753Y-14390048D01*
X14972753Y-14390048D02*
X14963229Y-14371000D01*
X14963229Y-14371000D02*
X14944181Y-14342428D01*
X14944181Y-14342428D02*
X14934657Y-14332905D01*
D13*
X10111800Y-14752000D02*
G75*
G03*
X10111800Y-14752000I-35001J0D01*
G01*
D11*
X10397514Y-14625476D02*
X10416562Y-14625476D01*
X10416562Y-14625476D02*
X10435610Y-14635000D01*
X10435610Y-14635000D02*
X10445133Y-14644524D01*
X10445133Y-14644524D02*
X10454657Y-14663571D01*
X10454657Y-14663571D02*
X10464181Y-14701667D01*
X10464181Y-14701667D02*
X10464181Y-14749286D01*
X10464181Y-14749286D02*
X10454657Y-14787381D01*
X10454657Y-14787381D02*
X10445133Y-14806428D01*
X10445133Y-14806428D02*
X10435610Y-14815952D01*
X10435610Y-14815952D02*
X10416562Y-14825476D01*
X10416562Y-14825476D02*
X10397514Y-14825476D01*
X10397514Y-14825476D02*
X10378467Y-14815952D01*
X10378467Y-14815952D02*
X10368943Y-14806428D01*
X10368943Y-14806428D02*
X10359419Y-14787381D01*
X10359419Y-14787381D02*
X10349895Y-14749286D01*
X10349895Y-14749286D02*
X10349895Y-14701667D01*
X10349895Y-14701667D02*
X10359419Y-14663571D01*
X10359419Y-14663571D02*
X10368943Y-14644524D01*
X10368943Y-14644524D02*
X10378467Y-14635000D01*
X10378467Y-14635000D02*
X10397514Y-14625476D01*
X10549895Y-14806428D02*
X10559419Y-14815952D01*
X10559419Y-14815952D02*
X10549895Y-14825476D01*
X10549895Y-14825476D02*
X10540371Y-14815952D01*
X10540371Y-14815952D02*
X10549895Y-14806428D01*
X10549895Y-14806428D02*
X10549895Y-14825476D01*
X10626086Y-14625476D02*
X10759419Y-14625476D01*
X10759419Y-14625476D02*
X10673705Y-14825476D01*
X10873705Y-14625476D02*
X10892752Y-14625476D01*
X10892752Y-14625476D02*
X10911800Y-14635000D01*
X10911800Y-14635000D02*
X10921324Y-14644524D01*
X10921324Y-14644524D02*
X10930848Y-14663571D01*
X10930848Y-14663571D02*
X10940371Y-14701667D01*
X10940371Y-14701667D02*
X10940371Y-14749286D01*
X10940371Y-14749286D02*
X10930848Y-14787381D01*
X10930848Y-14787381D02*
X10921324Y-14806428D01*
X10921324Y-14806428D02*
X10911800Y-14815952D01*
X10911800Y-14815952D02*
X10892752Y-14825476D01*
X10892752Y-14825476D02*
X10873705Y-14825476D01*
X10873705Y-14825476D02*
X10854657Y-14815952D01*
X10854657Y-14815952D02*
X10845133Y-14806428D01*
X10845133Y-14806428D02*
X10835610Y-14787381D01*
X10835610Y-14787381D02*
X10826086Y-14749286D01*
X10826086Y-14749286D02*
X10826086Y-14701667D01*
X10826086Y-14701667D02*
X10835610Y-14663571D01*
X10835610Y-14663571D02*
X10845133Y-14644524D01*
X10845133Y-14644524D02*
X10854657Y-14635000D01*
X10854657Y-14635000D02*
X10873705Y-14625476D01*
X11064181Y-14625476D02*
X11083229Y-14625476D01*
X11083229Y-14625476D02*
X11102276Y-14635000D01*
X11102276Y-14635000D02*
X11111800Y-14644524D01*
X11111800Y-14644524D02*
X11121324Y-14663571D01*
X11121324Y-14663571D02*
X11130848Y-14701667D01*
X11130848Y-14701667D02*
X11130848Y-14749286D01*
X11130848Y-14749286D02*
X11121324Y-14787381D01*
X11121324Y-14787381D02*
X11111800Y-14806428D01*
X11111800Y-14806428D02*
X11102276Y-14815952D01*
X11102276Y-14815952D02*
X11083229Y-14825476D01*
X11083229Y-14825476D02*
X11064181Y-14825476D01*
X11064181Y-14825476D02*
X11045133Y-14815952D01*
X11045133Y-14815952D02*
X11035610Y-14806428D01*
X11035610Y-14806428D02*
X11026086Y-14787381D01*
X11026086Y-14787381D02*
X11016562Y-14749286D01*
X11016562Y-14749286D02*
X11016562Y-14701667D01*
X11016562Y-14701667D02*
X11026086Y-14663571D01*
X11026086Y-14663571D02*
X11035610Y-14644524D01*
X11035610Y-14644524D02*
X11045133Y-14635000D01*
X11045133Y-14635000D02*
X11064181Y-14625476D01*
X11216562Y-14825476D02*
X11216562Y-14692143D01*
X11216562Y-14711190D02*
X11226086Y-14701667D01*
X11226086Y-14701667D02*
X11245133Y-14692143D01*
X11245133Y-14692143D02*
X11273705Y-14692143D01*
X11273705Y-14692143D02*
X11292752Y-14701667D01*
X11292752Y-14701667D02*
X11302276Y-14720714D01*
X11302276Y-14720714D02*
X11302276Y-14825476D01*
X11302276Y-14720714D02*
X11311800Y-14701667D01*
X11311800Y-14701667D02*
X11330848Y-14692143D01*
X11330848Y-14692143D02*
X11359419Y-14692143D01*
X11359419Y-14692143D02*
X11378467Y-14701667D01*
X11378467Y-14701667D02*
X11387990Y-14720714D01*
X11387990Y-14720714D02*
X11387990Y-14825476D01*
X11483229Y-14825476D02*
X11483229Y-14692143D01*
X11483229Y-14711190D02*
X11492752Y-14701667D01*
X11492752Y-14701667D02*
X11511800Y-14692143D01*
X11511800Y-14692143D02*
X11540371Y-14692143D01*
X11540371Y-14692143D02*
X11559419Y-14701667D01*
X11559419Y-14701667D02*
X11568943Y-14720714D01*
X11568943Y-14720714D02*
X11568943Y-14825476D01*
X11568943Y-14720714D02*
X11578467Y-14701667D01*
X11578467Y-14701667D02*
X11597514Y-14692143D01*
X11597514Y-14692143D02*
X11626086Y-14692143D01*
X11626086Y-14692143D02*
X11645133Y-14701667D01*
X11645133Y-14701667D02*
X11654657Y-14720714D01*
X11654657Y-14720714D02*
X11654657Y-14825476D01*
X12012752Y-14615952D02*
X11841324Y-14873095D01*
X12237514Y-14625476D02*
X12256562Y-14625476D01*
X12256562Y-14625476D02*
X12275610Y-14635000D01*
X12275610Y-14635000D02*
X12285133Y-14644524D01*
X12285133Y-14644524D02*
X12294657Y-14663571D01*
X12294657Y-14663571D02*
X12304181Y-14701667D01*
X12304181Y-14701667D02*
X12304181Y-14749286D01*
X12304181Y-14749286D02*
X12294657Y-14787381D01*
X12294657Y-14787381D02*
X12285133Y-14806428D01*
X12285133Y-14806428D02*
X12275610Y-14815952D01*
X12275610Y-14815952D02*
X12256562Y-14825476D01*
X12256562Y-14825476D02*
X12237514Y-14825476D01*
X12237514Y-14825476D02*
X12218467Y-14815952D01*
X12218467Y-14815952D02*
X12208943Y-14806428D01*
X12208943Y-14806428D02*
X12199419Y-14787381D01*
X12199419Y-14787381D02*
X12189895Y-14749286D01*
X12189895Y-14749286D02*
X12189895Y-14701667D01*
X12189895Y-14701667D02*
X12199419Y-14663571D01*
X12199419Y-14663571D02*
X12208943Y-14644524D01*
X12208943Y-14644524D02*
X12218467Y-14635000D01*
X12218467Y-14635000D02*
X12237514Y-14625476D01*
X12389895Y-14806428D02*
X12399419Y-14815952D01*
X12399419Y-14815952D02*
X12389895Y-14825476D01*
X12389895Y-14825476D02*
X12380371Y-14815952D01*
X12380371Y-14815952D02*
X12389895Y-14806428D01*
X12389895Y-14806428D02*
X12389895Y-14825476D01*
X12523229Y-14625476D02*
X12542276Y-14625476D01*
X12542276Y-14625476D02*
X12561324Y-14635000D01*
X12561324Y-14635000D02*
X12570848Y-14644524D01*
X12570848Y-14644524D02*
X12580371Y-14663571D01*
X12580371Y-14663571D02*
X12589895Y-14701667D01*
X12589895Y-14701667D02*
X12589895Y-14749286D01*
X12589895Y-14749286D02*
X12580371Y-14787381D01*
X12580371Y-14787381D02*
X12570848Y-14806428D01*
X12570848Y-14806428D02*
X12561324Y-14815952D01*
X12561324Y-14815952D02*
X12542276Y-14825476D01*
X12542276Y-14825476D02*
X12523229Y-14825476D01*
X12523229Y-14825476D02*
X12504181Y-14815952D01*
X12504181Y-14815952D02*
X12494657Y-14806428D01*
X12494657Y-14806428D02*
X12485133Y-14787381D01*
X12485133Y-14787381D02*
X12475610Y-14749286D01*
X12475610Y-14749286D02*
X12475610Y-14701667D01*
X12475610Y-14701667D02*
X12485133Y-14663571D01*
X12485133Y-14663571D02*
X12494657Y-14644524D01*
X12494657Y-14644524D02*
X12504181Y-14635000D01*
X12504181Y-14635000D02*
X12523229Y-14625476D01*
X12666086Y-14644524D02*
X12675610Y-14635000D01*
X12675610Y-14635000D02*
X12694657Y-14625476D01*
X12694657Y-14625476D02*
X12742276Y-14625476D01*
X12742276Y-14625476D02*
X12761324Y-14635000D01*
X12761324Y-14635000D02*
X12770848Y-14644524D01*
X12770848Y-14644524D02*
X12780371Y-14663571D01*
X12780371Y-14663571D02*
X12780371Y-14682619D01*
X12780371Y-14682619D02*
X12770848Y-14711190D01*
X12770848Y-14711190D02*
X12656562Y-14825476D01*
X12656562Y-14825476D02*
X12780371Y-14825476D01*
X12847038Y-14625476D02*
X12980371Y-14625476D01*
X12980371Y-14625476D02*
X12894657Y-14825476D01*
X13142276Y-14625476D02*
X13104181Y-14625476D01*
X13104181Y-14625476D02*
X13085133Y-14635000D01*
X13085133Y-14635000D02*
X13075610Y-14644524D01*
X13075610Y-14644524D02*
X13056562Y-14673095D01*
X13056562Y-14673095D02*
X13047038Y-14711190D01*
X13047038Y-14711190D02*
X13047038Y-14787381D01*
X13047038Y-14787381D02*
X13056562Y-14806428D01*
X13056562Y-14806428D02*
X13066086Y-14815952D01*
X13066086Y-14815952D02*
X13085133Y-14825476D01*
X13085133Y-14825476D02*
X13123229Y-14825476D01*
X13123229Y-14825476D02*
X13142276Y-14815952D01*
X13142276Y-14815952D02*
X13151800Y-14806428D01*
X13151800Y-14806428D02*
X13161324Y-14787381D01*
X13161324Y-14787381D02*
X13161324Y-14739762D01*
X13161324Y-14739762D02*
X13151800Y-14720714D01*
X13151800Y-14720714D02*
X13142276Y-14711190D01*
X13142276Y-14711190D02*
X13123229Y-14701667D01*
X13123229Y-14701667D02*
X13085133Y-14701667D01*
X13085133Y-14701667D02*
X13066086Y-14711190D01*
X13066086Y-14711190D02*
X13056562Y-14720714D01*
X13056562Y-14720714D02*
X13047038Y-14739762D01*
X13237514Y-14625476D02*
X13237514Y-14663571D01*
X13313705Y-14625476D02*
X13313705Y-14663571D01*
X13576562Y-14901667D02*
X13567038Y-14892143D01*
X13567038Y-14892143D02*
X13547991Y-14863571D01*
X13547991Y-14863571D02*
X13538467Y-14844524D01*
X13538467Y-14844524D02*
X13528943Y-14815952D01*
X13528943Y-14815952D02*
X13519419Y-14768333D01*
X13519419Y-14768333D02*
X13519419Y-14730238D01*
X13519419Y-14730238D02*
X13528943Y-14682619D01*
X13528943Y-14682619D02*
X13538467Y-14654048D01*
X13538467Y-14654048D02*
X13547991Y-14635000D01*
X13547991Y-14635000D02*
X13567038Y-14606428D01*
X13567038Y-14606428D02*
X13576562Y-14596905D01*
X13643229Y-14644524D02*
X13652752Y-14635000D01*
X13652752Y-14635000D02*
X13671800Y-14625476D01*
X13671800Y-14625476D02*
X13719419Y-14625476D01*
X13719419Y-14625476D02*
X13738467Y-14635000D01*
X13738467Y-14635000D02*
X13747991Y-14644524D01*
X13747991Y-14644524D02*
X13757514Y-14663571D01*
X13757514Y-14663571D02*
X13757514Y-14682619D01*
X13757514Y-14682619D02*
X13747991Y-14711190D01*
X13747991Y-14711190D02*
X13633705Y-14825476D01*
X13633705Y-14825476D02*
X13757514Y-14825476D01*
X13963229Y-14825476D02*
X13963229Y-14625476D01*
X14048943Y-14825476D02*
X14048943Y-14720714D01*
X14048943Y-14720714D02*
X14039419Y-14701667D01*
X14039419Y-14701667D02*
X14020372Y-14692143D01*
X14020372Y-14692143D02*
X13991800Y-14692143D01*
X13991800Y-14692143D02*
X13972752Y-14701667D01*
X13972752Y-14701667D02*
X13963229Y-14711190D01*
X14172752Y-14825476D02*
X14153705Y-14815952D01*
X14153705Y-14815952D02*
X14144181Y-14806428D01*
X14144181Y-14806428D02*
X14134657Y-14787381D01*
X14134657Y-14787381D02*
X14134657Y-14730238D01*
X14134657Y-14730238D02*
X14144181Y-14711190D01*
X14144181Y-14711190D02*
X14153705Y-14701667D01*
X14153705Y-14701667D02*
X14172752Y-14692143D01*
X14172752Y-14692143D02*
X14201324Y-14692143D01*
X14201324Y-14692143D02*
X14220372Y-14701667D01*
X14220372Y-14701667D02*
X14229895Y-14711190D01*
X14229895Y-14711190D02*
X14239419Y-14730238D01*
X14239419Y-14730238D02*
X14239419Y-14787381D01*
X14239419Y-14787381D02*
X14229895Y-14806428D01*
X14229895Y-14806428D02*
X14220372Y-14815952D01*
X14220372Y-14815952D02*
X14201324Y-14825476D01*
X14201324Y-14825476D02*
X14172752Y-14825476D01*
X14353705Y-14825476D02*
X14334657Y-14815952D01*
X14334657Y-14815952D02*
X14325133Y-14796905D01*
X14325133Y-14796905D02*
X14325133Y-14625476D01*
X14506086Y-14815952D02*
X14487038Y-14825476D01*
X14487038Y-14825476D02*
X14448943Y-14825476D01*
X14448943Y-14825476D02*
X14429895Y-14815952D01*
X14429895Y-14815952D02*
X14420372Y-14796905D01*
X14420372Y-14796905D02*
X14420372Y-14720714D01*
X14420372Y-14720714D02*
X14429895Y-14701667D01*
X14429895Y-14701667D02*
X14448943Y-14692143D01*
X14448943Y-14692143D02*
X14487038Y-14692143D01*
X14487038Y-14692143D02*
X14506086Y-14701667D01*
X14506086Y-14701667D02*
X14515610Y-14720714D01*
X14515610Y-14720714D02*
X14515610Y-14739762D01*
X14515610Y-14739762D02*
X14420372Y-14758809D01*
X14591800Y-14815952D02*
X14610848Y-14825476D01*
X14610848Y-14825476D02*
X14648943Y-14825476D01*
X14648943Y-14825476D02*
X14667991Y-14815952D01*
X14667991Y-14815952D02*
X14677514Y-14796905D01*
X14677514Y-14796905D02*
X14677514Y-14787381D01*
X14677514Y-14787381D02*
X14667991Y-14768333D01*
X14667991Y-14768333D02*
X14648943Y-14758809D01*
X14648943Y-14758809D02*
X14620372Y-14758809D01*
X14620372Y-14758809D02*
X14601324Y-14749286D01*
X14601324Y-14749286D02*
X14591800Y-14730238D01*
X14591800Y-14730238D02*
X14591800Y-14720714D01*
X14591800Y-14720714D02*
X14601324Y-14701667D01*
X14601324Y-14701667D02*
X14620372Y-14692143D01*
X14620372Y-14692143D02*
X14648943Y-14692143D01*
X14648943Y-14692143D02*
X14667991Y-14701667D01*
X14883229Y-14749286D02*
X15035610Y-14749286D01*
X14959419Y-14825476D02*
X14959419Y-14673095D01*
X15241324Y-14644524D02*
X15250848Y-14635000D01*
X15250848Y-14635000D02*
X15269895Y-14625476D01*
X15269895Y-14625476D02*
X15317514Y-14625476D01*
X15317514Y-14625476D02*
X15336562Y-14635000D01*
X15336562Y-14635000D02*
X15346086Y-14644524D01*
X15346086Y-14644524D02*
X15355610Y-14663571D01*
X15355610Y-14663571D02*
X15355610Y-14682619D01*
X15355610Y-14682619D02*
X15346086Y-14711190D01*
X15346086Y-14711190D02*
X15231800Y-14825476D01*
X15231800Y-14825476D02*
X15355610Y-14825476D01*
X15551800Y-14815952D02*
X15570848Y-14825476D01*
X15570848Y-14825476D02*
X15608943Y-14825476D01*
X15608943Y-14825476D02*
X15627991Y-14815952D01*
X15627991Y-14815952D02*
X15637514Y-14796905D01*
X15637514Y-14796905D02*
X15637514Y-14787381D01*
X15637514Y-14787381D02*
X15627991Y-14768333D01*
X15627991Y-14768333D02*
X15608943Y-14758809D01*
X15608943Y-14758809D02*
X15580372Y-14758809D01*
X15580372Y-14758809D02*
X15561324Y-14749286D01*
X15561324Y-14749286D02*
X15551800Y-14730238D01*
X15551800Y-14730238D02*
X15551800Y-14720714D01*
X15551800Y-14720714D02*
X15561324Y-14701667D01*
X15561324Y-14701667D02*
X15580372Y-14692143D01*
X15580372Y-14692143D02*
X15608943Y-14692143D01*
X15608943Y-14692143D02*
X15627991Y-14701667D01*
X15751800Y-14825476D02*
X15732753Y-14815952D01*
X15732753Y-14815952D02*
X15723229Y-14796905D01*
X15723229Y-14796905D02*
X15723229Y-14625476D01*
X15856562Y-14825476D02*
X15837514Y-14815952D01*
X15837514Y-14815952D02*
X15827991Y-14806428D01*
X15827991Y-14806428D02*
X15818467Y-14787381D01*
X15818467Y-14787381D02*
X15818467Y-14730238D01*
X15818467Y-14730238D02*
X15827991Y-14711190D01*
X15827991Y-14711190D02*
X15837514Y-14701667D01*
X15837514Y-14701667D02*
X15856562Y-14692143D01*
X15856562Y-14692143D02*
X15885134Y-14692143D01*
X15885134Y-14692143D02*
X15904181Y-14701667D01*
X15904181Y-14701667D02*
X15913705Y-14711190D01*
X15913705Y-14711190D02*
X15923229Y-14730238D01*
X15923229Y-14730238D02*
X15923229Y-14787381D01*
X15923229Y-14787381D02*
X15913705Y-14806428D01*
X15913705Y-14806428D02*
X15904181Y-14815952D01*
X15904181Y-14815952D02*
X15885134Y-14825476D01*
X15885134Y-14825476D02*
X15856562Y-14825476D01*
X15980372Y-14692143D02*
X16056562Y-14692143D01*
X16008943Y-14625476D02*
X16008943Y-14796905D01*
X16008943Y-14796905D02*
X16018467Y-14815952D01*
X16018467Y-14815952D02*
X16037514Y-14825476D01*
X16037514Y-14825476D02*
X16056562Y-14825476D01*
X16113705Y-14815952D02*
X16132753Y-14825476D01*
X16132753Y-14825476D02*
X16170848Y-14825476D01*
X16170848Y-14825476D02*
X16189895Y-14815952D01*
X16189895Y-14815952D02*
X16199419Y-14796905D01*
X16199419Y-14796905D02*
X16199419Y-14787381D01*
X16199419Y-14787381D02*
X16189895Y-14768333D01*
X16189895Y-14768333D02*
X16170848Y-14758809D01*
X16170848Y-14758809D02*
X16142276Y-14758809D01*
X16142276Y-14758809D02*
X16123229Y-14749286D01*
X16123229Y-14749286D02*
X16113705Y-14730238D01*
X16113705Y-14730238D02*
X16113705Y-14720714D01*
X16113705Y-14720714D02*
X16123229Y-14701667D01*
X16123229Y-14701667D02*
X16142276Y-14692143D01*
X16142276Y-14692143D02*
X16170848Y-14692143D01*
X16170848Y-14692143D02*
X16189895Y-14701667D01*
X16266086Y-14901667D02*
X16275610Y-14892143D01*
X16275610Y-14892143D02*
X16294657Y-14863571D01*
X16294657Y-14863571D02*
X16304181Y-14844524D01*
X16304181Y-14844524D02*
X16313705Y-14815952D01*
X16313705Y-14815952D02*
X16323229Y-14768333D01*
X16323229Y-14768333D02*
X16323229Y-14730238D01*
X16323229Y-14730238D02*
X16313705Y-14682619D01*
X16313705Y-14682619D02*
X16304181Y-14654048D01*
X16304181Y-14654048D02*
X16294657Y-14635000D01*
X16294657Y-14635000D02*
X16275610Y-14606428D01*
X16275610Y-14606428D02*
X16266086Y-14596905D01*
D14*
X10071800Y-14976000D02*
X10071800Y-15056000D01*
X10031800Y-15016000D02*
X10111800Y-15016000D01*
D11*
X10397514Y-14889476D02*
X10416562Y-14889476D01*
X10416562Y-14889476D02*
X10435610Y-14899000D01*
X10435610Y-14899000D02*
X10445133Y-14908524D01*
X10445133Y-14908524D02*
X10454657Y-14927571D01*
X10454657Y-14927571D02*
X10464181Y-14965667D01*
X10464181Y-14965667D02*
X10464181Y-15013286D01*
X10464181Y-15013286D02*
X10454657Y-15051381D01*
X10454657Y-15051381D02*
X10445133Y-15070428D01*
X10445133Y-15070428D02*
X10435610Y-15079952D01*
X10435610Y-15079952D02*
X10416562Y-15089476D01*
X10416562Y-15089476D02*
X10397514Y-15089476D01*
X10397514Y-15089476D02*
X10378467Y-15079952D01*
X10378467Y-15079952D02*
X10368943Y-15070428D01*
X10368943Y-15070428D02*
X10359419Y-15051381D01*
X10359419Y-15051381D02*
X10349895Y-15013286D01*
X10349895Y-15013286D02*
X10349895Y-14965667D01*
X10349895Y-14965667D02*
X10359419Y-14927571D01*
X10359419Y-14927571D02*
X10368943Y-14908524D01*
X10368943Y-14908524D02*
X10378467Y-14899000D01*
X10378467Y-14899000D02*
X10397514Y-14889476D01*
X10549895Y-15070428D02*
X10559419Y-15079952D01*
X10559419Y-15079952D02*
X10549895Y-15089476D01*
X10549895Y-15089476D02*
X10540371Y-15079952D01*
X10540371Y-15079952D02*
X10549895Y-15070428D01*
X10549895Y-15070428D02*
X10549895Y-15089476D01*
X10673705Y-14975190D02*
X10654657Y-14965667D01*
X10654657Y-14965667D02*
X10645133Y-14956143D01*
X10645133Y-14956143D02*
X10635610Y-14937095D01*
X10635610Y-14937095D02*
X10635610Y-14927571D01*
X10635610Y-14927571D02*
X10645133Y-14908524D01*
X10645133Y-14908524D02*
X10654657Y-14899000D01*
X10654657Y-14899000D02*
X10673705Y-14889476D01*
X10673705Y-14889476D02*
X10711800Y-14889476D01*
X10711800Y-14889476D02*
X10730848Y-14899000D01*
X10730848Y-14899000D02*
X10740371Y-14908524D01*
X10740371Y-14908524D02*
X10749895Y-14927571D01*
X10749895Y-14927571D02*
X10749895Y-14937095D01*
X10749895Y-14937095D02*
X10740371Y-14956143D01*
X10740371Y-14956143D02*
X10730848Y-14965667D01*
X10730848Y-14965667D02*
X10711800Y-14975190D01*
X10711800Y-14975190D02*
X10673705Y-14975190D01*
X10673705Y-14975190D02*
X10654657Y-14984714D01*
X10654657Y-14984714D02*
X10645133Y-14994238D01*
X10645133Y-14994238D02*
X10635610Y-15013286D01*
X10635610Y-15013286D02*
X10635610Y-15051381D01*
X10635610Y-15051381D02*
X10645133Y-15070428D01*
X10645133Y-15070428D02*
X10654657Y-15079952D01*
X10654657Y-15079952D02*
X10673705Y-15089476D01*
X10673705Y-15089476D02*
X10711800Y-15089476D01*
X10711800Y-15089476D02*
X10730848Y-15079952D01*
X10730848Y-15079952D02*
X10740371Y-15070428D01*
X10740371Y-15070428D02*
X10749895Y-15051381D01*
X10749895Y-15051381D02*
X10749895Y-15013286D01*
X10749895Y-15013286D02*
X10740371Y-14994238D01*
X10740371Y-14994238D02*
X10730848Y-14984714D01*
X10730848Y-14984714D02*
X10711800Y-14975190D01*
X10873705Y-14889476D02*
X10892752Y-14889476D01*
X10892752Y-14889476D02*
X10911800Y-14899000D01*
X10911800Y-14899000D02*
X10921324Y-14908524D01*
X10921324Y-14908524D02*
X10930848Y-14927571D01*
X10930848Y-14927571D02*
X10940371Y-14965667D01*
X10940371Y-14965667D02*
X10940371Y-15013286D01*
X10940371Y-15013286D02*
X10930848Y-15051381D01*
X10930848Y-15051381D02*
X10921324Y-15070428D01*
X10921324Y-15070428D02*
X10911800Y-15079952D01*
X10911800Y-15079952D02*
X10892752Y-15089476D01*
X10892752Y-15089476D02*
X10873705Y-15089476D01*
X10873705Y-15089476D02*
X10854657Y-15079952D01*
X10854657Y-15079952D02*
X10845133Y-15070428D01*
X10845133Y-15070428D02*
X10835610Y-15051381D01*
X10835610Y-15051381D02*
X10826086Y-15013286D01*
X10826086Y-15013286D02*
X10826086Y-14965667D01*
X10826086Y-14965667D02*
X10835610Y-14927571D01*
X10835610Y-14927571D02*
X10845133Y-14908524D01*
X10845133Y-14908524D02*
X10854657Y-14899000D01*
X10854657Y-14899000D02*
X10873705Y-14889476D01*
X11064181Y-14889476D02*
X11083229Y-14889476D01*
X11083229Y-14889476D02*
X11102276Y-14899000D01*
X11102276Y-14899000D02*
X11111800Y-14908524D01*
X11111800Y-14908524D02*
X11121324Y-14927571D01*
X11121324Y-14927571D02*
X11130848Y-14965667D01*
X11130848Y-14965667D02*
X11130848Y-15013286D01*
X11130848Y-15013286D02*
X11121324Y-15051381D01*
X11121324Y-15051381D02*
X11111800Y-15070428D01*
X11111800Y-15070428D02*
X11102276Y-15079952D01*
X11102276Y-15079952D02*
X11083229Y-15089476D01*
X11083229Y-15089476D02*
X11064181Y-15089476D01*
X11064181Y-15089476D02*
X11045133Y-15079952D01*
X11045133Y-15079952D02*
X11035610Y-15070428D01*
X11035610Y-15070428D02*
X11026086Y-15051381D01*
X11026086Y-15051381D02*
X11016562Y-15013286D01*
X11016562Y-15013286D02*
X11016562Y-14965667D01*
X11016562Y-14965667D02*
X11026086Y-14927571D01*
X11026086Y-14927571D02*
X11035610Y-14908524D01*
X11035610Y-14908524D02*
X11045133Y-14899000D01*
X11045133Y-14899000D02*
X11064181Y-14889476D01*
X11216562Y-15089476D02*
X11216562Y-14956143D01*
X11216562Y-14975190D02*
X11226086Y-14965667D01*
X11226086Y-14965667D02*
X11245133Y-14956143D01*
X11245133Y-14956143D02*
X11273705Y-14956143D01*
X11273705Y-14956143D02*
X11292752Y-14965667D01*
X11292752Y-14965667D02*
X11302276Y-14984714D01*
X11302276Y-14984714D02*
X11302276Y-15089476D01*
X11302276Y-14984714D02*
X11311800Y-14965667D01*
X11311800Y-14965667D02*
X11330848Y-14956143D01*
X11330848Y-14956143D02*
X11359419Y-14956143D01*
X11359419Y-14956143D02*
X11378467Y-14965667D01*
X11378467Y-14965667D02*
X11387990Y-14984714D01*
X11387990Y-14984714D02*
X11387990Y-15089476D01*
X11483229Y-15089476D02*
X11483229Y-14956143D01*
X11483229Y-14975190D02*
X11492752Y-14965667D01*
X11492752Y-14965667D02*
X11511800Y-14956143D01*
X11511800Y-14956143D02*
X11540371Y-14956143D01*
X11540371Y-14956143D02*
X11559419Y-14965667D01*
X11559419Y-14965667D02*
X11568943Y-14984714D01*
X11568943Y-14984714D02*
X11568943Y-15089476D01*
X11568943Y-14984714D02*
X11578467Y-14965667D01*
X11578467Y-14965667D02*
X11597514Y-14956143D01*
X11597514Y-14956143D02*
X11626086Y-14956143D01*
X11626086Y-14956143D02*
X11645133Y-14965667D01*
X11645133Y-14965667D02*
X11654657Y-14984714D01*
X11654657Y-14984714D02*
X11654657Y-15089476D01*
X12012752Y-14879952D02*
X11841324Y-15137095D01*
X12237514Y-14889476D02*
X12256562Y-14889476D01*
X12256562Y-14889476D02*
X12275610Y-14899000D01*
X12275610Y-14899000D02*
X12285133Y-14908524D01*
X12285133Y-14908524D02*
X12294657Y-14927571D01*
X12294657Y-14927571D02*
X12304181Y-14965667D01*
X12304181Y-14965667D02*
X12304181Y-15013286D01*
X12304181Y-15013286D02*
X12294657Y-15051381D01*
X12294657Y-15051381D02*
X12285133Y-15070428D01*
X12285133Y-15070428D02*
X12275610Y-15079952D01*
X12275610Y-15079952D02*
X12256562Y-15089476D01*
X12256562Y-15089476D02*
X12237514Y-15089476D01*
X12237514Y-15089476D02*
X12218467Y-15079952D01*
X12218467Y-15079952D02*
X12208943Y-15070428D01*
X12208943Y-15070428D02*
X12199419Y-15051381D01*
X12199419Y-15051381D02*
X12189895Y-15013286D01*
X12189895Y-15013286D02*
X12189895Y-14965667D01*
X12189895Y-14965667D02*
X12199419Y-14927571D01*
X12199419Y-14927571D02*
X12208943Y-14908524D01*
X12208943Y-14908524D02*
X12218467Y-14899000D01*
X12218467Y-14899000D02*
X12237514Y-14889476D01*
X12389895Y-15070428D02*
X12399419Y-15079952D01*
X12399419Y-15079952D02*
X12389895Y-15089476D01*
X12389895Y-15089476D02*
X12380371Y-15079952D01*
X12380371Y-15079952D02*
X12389895Y-15070428D01*
X12389895Y-15070428D02*
X12389895Y-15089476D01*
X12523229Y-14889476D02*
X12542276Y-14889476D01*
X12542276Y-14889476D02*
X12561324Y-14899000D01*
X12561324Y-14899000D02*
X12570848Y-14908524D01*
X12570848Y-14908524D02*
X12580371Y-14927571D01*
X12580371Y-14927571D02*
X12589895Y-14965667D01*
X12589895Y-14965667D02*
X12589895Y-15013286D01*
X12589895Y-15013286D02*
X12580371Y-15051381D01*
X12580371Y-15051381D02*
X12570848Y-15070428D01*
X12570848Y-15070428D02*
X12561324Y-15079952D01*
X12561324Y-15079952D02*
X12542276Y-15089476D01*
X12542276Y-15089476D02*
X12523229Y-15089476D01*
X12523229Y-15089476D02*
X12504181Y-15079952D01*
X12504181Y-15079952D02*
X12494657Y-15070428D01*
X12494657Y-15070428D02*
X12485133Y-15051381D01*
X12485133Y-15051381D02*
X12475610Y-15013286D01*
X12475610Y-15013286D02*
X12475610Y-14965667D01*
X12475610Y-14965667D02*
X12485133Y-14927571D01*
X12485133Y-14927571D02*
X12494657Y-14908524D01*
X12494657Y-14908524D02*
X12504181Y-14899000D01*
X12504181Y-14899000D02*
X12523229Y-14889476D01*
X12656562Y-14889476D02*
X12780371Y-14889476D01*
X12780371Y-14889476D02*
X12713705Y-14965667D01*
X12713705Y-14965667D02*
X12742276Y-14965667D01*
X12742276Y-14965667D02*
X12761324Y-14975190D01*
X12761324Y-14975190D02*
X12770848Y-14984714D01*
X12770848Y-14984714D02*
X12780371Y-15003762D01*
X12780371Y-15003762D02*
X12780371Y-15051381D01*
X12780371Y-15051381D02*
X12770848Y-15070428D01*
X12770848Y-15070428D02*
X12761324Y-15079952D01*
X12761324Y-15079952D02*
X12742276Y-15089476D01*
X12742276Y-15089476D02*
X12685133Y-15089476D01*
X12685133Y-15089476D02*
X12666086Y-15079952D01*
X12666086Y-15079952D02*
X12656562Y-15070428D01*
X12970848Y-15089476D02*
X12856562Y-15089476D01*
X12913705Y-15089476D02*
X12913705Y-14889476D01*
X12913705Y-14889476D02*
X12894657Y-14918048D01*
X12894657Y-14918048D02*
X12875610Y-14937095D01*
X12875610Y-14937095D02*
X12856562Y-14946619D01*
X13151800Y-14889476D02*
X13056562Y-14889476D01*
X13056562Y-14889476D02*
X13047038Y-14984714D01*
X13047038Y-14984714D02*
X13056562Y-14975190D01*
X13056562Y-14975190D02*
X13075610Y-14965667D01*
X13075610Y-14965667D02*
X13123229Y-14965667D01*
X13123229Y-14965667D02*
X13142276Y-14975190D01*
X13142276Y-14975190D02*
X13151800Y-14984714D01*
X13151800Y-14984714D02*
X13161324Y-15003762D01*
X13161324Y-15003762D02*
X13161324Y-15051381D01*
X13161324Y-15051381D02*
X13151800Y-15070428D01*
X13151800Y-15070428D02*
X13142276Y-15079952D01*
X13142276Y-15079952D02*
X13123229Y-15089476D01*
X13123229Y-15089476D02*
X13075610Y-15089476D01*
X13075610Y-15089476D02*
X13056562Y-15079952D01*
X13056562Y-15079952D02*
X13047038Y-15070428D01*
X13237514Y-14889476D02*
X13237514Y-14927571D01*
X13313705Y-14889476D02*
X13313705Y-14927571D01*
X13576562Y-15165667D02*
X13567038Y-15156143D01*
X13567038Y-15156143D02*
X13547991Y-15127571D01*
X13547991Y-15127571D02*
X13538467Y-15108524D01*
X13538467Y-15108524D02*
X13528943Y-15079952D01*
X13528943Y-15079952D02*
X13519419Y-15032333D01*
X13519419Y-15032333D02*
X13519419Y-14994238D01*
X13519419Y-14994238D02*
X13528943Y-14946619D01*
X13528943Y-14946619D02*
X13538467Y-14918048D01*
X13538467Y-14918048D02*
X13547991Y-14899000D01*
X13547991Y-14899000D02*
X13567038Y-14870428D01*
X13567038Y-14870428D02*
X13576562Y-14860905D01*
X13643229Y-14908524D02*
X13652752Y-14899000D01*
X13652752Y-14899000D02*
X13671800Y-14889476D01*
X13671800Y-14889476D02*
X13719419Y-14889476D01*
X13719419Y-14889476D02*
X13738467Y-14899000D01*
X13738467Y-14899000D02*
X13747991Y-14908524D01*
X13747991Y-14908524D02*
X13757514Y-14927571D01*
X13757514Y-14927571D02*
X13757514Y-14946619D01*
X13757514Y-14946619D02*
X13747991Y-14975190D01*
X13747991Y-14975190D02*
X13633705Y-15089476D01*
X13633705Y-15089476D02*
X13757514Y-15089476D01*
X13963229Y-15089476D02*
X13963229Y-14889476D01*
X14048943Y-15089476D02*
X14048943Y-14984714D01*
X14048943Y-14984714D02*
X14039419Y-14965667D01*
X14039419Y-14965667D02*
X14020372Y-14956143D01*
X14020372Y-14956143D02*
X13991800Y-14956143D01*
X13991800Y-14956143D02*
X13972752Y-14965667D01*
X13972752Y-14965667D02*
X13963229Y-14975190D01*
X14172752Y-15089476D02*
X14153705Y-15079952D01*
X14153705Y-15079952D02*
X14144181Y-15070428D01*
X14144181Y-15070428D02*
X14134657Y-15051381D01*
X14134657Y-15051381D02*
X14134657Y-14994238D01*
X14134657Y-14994238D02*
X14144181Y-14975190D01*
X14144181Y-14975190D02*
X14153705Y-14965667D01*
X14153705Y-14965667D02*
X14172752Y-14956143D01*
X14172752Y-14956143D02*
X14201324Y-14956143D01*
X14201324Y-14956143D02*
X14220372Y-14965667D01*
X14220372Y-14965667D02*
X14229895Y-14975190D01*
X14229895Y-14975190D02*
X14239419Y-14994238D01*
X14239419Y-14994238D02*
X14239419Y-15051381D01*
X14239419Y-15051381D02*
X14229895Y-15070428D01*
X14229895Y-15070428D02*
X14220372Y-15079952D01*
X14220372Y-15079952D02*
X14201324Y-15089476D01*
X14201324Y-15089476D02*
X14172752Y-15089476D01*
X14353705Y-15089476D02*
X14334657Y-15079952D01*
X14334657Y-15079952D02*
X14325133Y-15060905D01*
X14325133Y-15060905D02*
X14325133Y-14889476D01*
X14506086Y-15079952D02*
X14487038Y-15089476D01*
X14487038Y-15089476D02*
X14448943Y-15089476D01*
X14448943Y-15089476D02*
X14429895Y-15079952D01*
X14429895Y-15079952D02*
X14420372Y-15060905D01*
X14420372Y-15060905D02*
X14420372Y-14984714D01*
X14420372Y-14984714D02*
X14429895Y-14965667D01*
X14429895Y-14965667D02*
X14448943Y-14956143D01*
X14448943Y-14956143D02*
X14487038Y-14956143D01*
X14487038Y-14956143D02*
X14506086Y-14965667D01*
X14506086Y-14965667D02*
X14515610Y-14984714D01*
X14515610Y-14984714D02*
X14515610Y-15003762D01*
X14515610Y-15003762D02*
X14420372Y-15022809D01*
X14591800Y-15079952D02*
X14610848Y-15089476D01*
X14610848Y-15089476D02*
X14648943Y-15089476D01*
X14648943Y-15089476D02*
X14667991Y-15079952D01*
X14667991Y-15079952D02*
X14677514Y-15060905D01*
X14677514Y-15060905D02*
X14677514Y-15051381D01*
X14677514Y-15051381D02*
X14667991Y-15032333D01*
X14667991Y-15032333D02*
X14648943Y-15022809D01*
X14648943Y-15022809D02*
X14620372Y-15022809D01*
X14620372Y-15022809D02*
X14601324Y-15013286D01*
X14601324Y-15013286D02*
X14591800Y-14994238D01*
X14591800Y-14994238D02*
X14591800Y-14984714D01*
X14591800Y-14984714D02*
X14601324Y-14965667D01*
X14601324Y-14965667D02*
X14620372Y-14956143D01*
X14620372Y-14956143D02*
X14648943Y-14956143D01*
X14648943Y-14956143D02*
X14667991Y-14965667D01*
X14744181Y-15165667D02*
X14753705Y-15156143D01*
X14753705Y-15156143D02*
X14772753Y-15127571D01*
X14772753Y-15127571D02*
X14782276Y-15108524D01*
X14782276Y-15108524D02*
X14791800Y-15079952D01*
X14791800Y-15079952D02*
X14801324Y-15032333D01*
X14801324Y-15032333D02*
X14801324Y-14994238D01*
X14801324Y-14994238D02*
X14791800Y-14946619D01*
X14791800Y-14946619D02*
X14782276Y-14918048D01*
X14782276Y-14918048D02*
X14772753Y-14899000D01*
X14772753Y-14899000D02*
X14753705Y-14870428D01*
X14753705Y-14870428D02*
X14744181Y-14860905D01*
D15*
X10098620Y-15311820D02*
X10098620Y-15248180D01*
X10034980Y-15248180D01*
X10034980Y-15311820D01*
X10098620Y-15311820D01*
D11*
X10397514Y-15153476D02*
X10416562Y-15153476D01*
X10416562Y-15153476D02*
X10435610Y-15163000D01*
X10435610Y-15163000D02*
X10445133Y-15172524D01*
X10445133Y-15172524D02*
X10454657Y-15191571D01*
X10454657Y-15191571D02*
X10464181Y-15229667D01*
X10464181Y-15229667D02*
X10464181Y-15277286D01*
X10464181Y-15277286D02*
X10454657Y-15315381D01*
X10454657Y-15315381D02*
X10445133Y-15334428D01*
X10445133Y-15334428D02*
X10435610Y-15343952D01*
X10435610Y-15343952D02*
X10416562Y-15353476D01*
X10416562Y-15353476D02*
X10397514Y-15353476D01*
X10397514Y-15353476D02*
X10378467Y-15343952D01*
X10378467Y-15343952D02*
X10368943Y-15334428D01*
X10368943Y-15334428D02*
X10359419Y-15315381D01*
X10359419Y-15315381D02*
X10349895Y-15277286D01*
X10349895Y-15277286D02*
X10349895Y-15229667D01*
X10349895Y-15229667D02*
X10359419Y-15191571D01*
X10359419Y-15191571D02*
X10368943Y-15172524D01*
X10368943Y-15172524D02*
X10378467Y-15163000D01*
X10378467Y-15163000D02*
X10397514Y-15153476D01*
X10549895Y-15334428D02*
X10559419Y-15343952D01*
X10559419Y-15343952D02*
X10549895Y-15353476D01*
X10549895Y-15353476D02*
X10540371Y-15343952D01*
X10540371Y-15343952D02*
X10549895Y-15334428D01*
X10549895Y-15334428D02*
X10549895Y-15353476D01*
X10654657Y-15353476D02*
X10692752Y-15353476D01*
X10692752Y-15353476D02*
X10711800Y-15343952D01*
X10711800Y-15343952D02*
X10721324Y-15334428D01*
X10721324Y-15334428D02*
X10740371Y-15305857D01*
X10740371Y-15305857D02*
X10749895Y-15267762D01*
X10749895Y-15267762D02*
X10749895Y-15191571D01*
X10749895Y-15191571D02*
X10740371Y-15172524D01*
X10740371Y-15172524D02*
X10730848Y-15163000D01*
X10730848Y-15163000D02*
X10711800Y-15153476D01*
X10711800Y-15153476D02*
X10673705Y-15153476D01*
X10673705Y-15153476D02*
X10654657Y-15163000D01*
X10654657Y-15163000D02*
X10645133Y-15172524D01*
X10645133Y-15172524D02*
X10635610Y-15191571D01*
X10635610Y-15191571D02*
X10635610Y-15239190D01*
X10635610Y-15239190D02*
X10645133Y-15258238D01*
X10645133Y-15258238D02*
X10654657Y-15267762D01*
X10654657Y-15267762D02*
X10673705Y-15277286D01*
X10673705Y-15277286D02*
X10711800Y-15277286D01*
X10711800Y-15277286D02*
X10730848Y-15267762D01*
X10730848Y-15267762D02*
X10740371Y-15258238D01*
X10740371Y-15258238D02*
X10749895Y-15239190D01*
X10873705Y-15153476D02*
X10892752Y-15153476D01*
X10892752Y-15153476D02*
X10911800Y-15163000D01*
X10911800Y-15163000D02*
X10921324Y-15172524D01*
X10921324Y-15172524D02*
X10930848Y-15191571D01*
X10930848Y-15191571D02*
X10940371Y-15229667D01*
X10940371Y-15229667D02*
X10940371Y-15277286D01*
X10940371Y-15277286D02*
X10930848Y-15315381D01*
X10930848Y-15315381D02*
X10921324Y-15334428D01*
X10921324Y-15334428D02*
X10911800Y-15343952D01*
X10911800Y-15343952D02*
X10892752Y-15353476D01*
X10892752Y-15353476D02*
X10873705Y-15353476D01*
X10873705Y-15353476D02*
X10854657Y-15343952D01*
X10854657Y-15343952D02*
X10845133Y-15334428D01*
X10845133Y-15334428D02*
X10835610Y-15315381D01*
X10835610Y-15315381D02*
X10826086Y-15277286D01*
X10826086Y-15277286D02*
X10826086Y-15229667D01*
X10826086Y-15229667D02*
X10835610Y-15191571D01*
X10835610Y-15191571D02*
X10845133Y-15172524D01*
X10845133Y-15172524D02*
X10854657Y-15163000D01*
X10854657Y-15163000D02*
X10873705Y-15153476D01*
X11064181Y-15153476D02*
X11083229Y-15153476D01*
X11083229Y-15153476D02*
X11102276Y-15163000D01*
X11102276Y-15163000D02*
X11111800Y-15172524D01*
X11111800Y-15172524D02*
X11121324Y-15191571D01*
X11121324Y-15191571D02*
X11130848Y-15229667D01*
X11130848Y-15229667D02*
X11130848Y-15277286D01*
X11130848Y-15277286D02*
X11121324Y-15315381D01*
X11121324Y-15315381D02*
X11111800Y-15334428D01*
X11111800Y-15334428D02*
X11102276Y-15343952D01*
X11102276Y-15343952D02*
X11083229Y-15353476D01*
X11083229Y-15353476D02*
X11064181Y-15353476D01*
X11064181Y-15353476D02*
X11045133Y-15343952D01*
X11045133Y-15343952D02*
X11035610Y-15334428D01*
X11035610Y-15334428D02*
X11026086Y-15315381D01*
X11026086Y-15315381D02*
X11016562Y-15277286D01*
X11016562Y-15277286D02*
X11016562Y-15229667D01*
X11016562Y-15229667D02*
X11026086Y-15191571D01*
X11026086Y-15191571D02*
X11035610Y-15172524D01*
X11035610Y-15172524D02*
X11045133Y-15163000D01*
X11045133Y-15163000D02*
X11064181Y-15153476D01*
X11216562Y-15353476D02*
X11216562Y-15220143D01*
X11216562Y-15239190D02*
X11226086Y-15229667D01*
X11226086Y-15229667D02*
X11245133Y-15220143D01*
X11245133Y-15220143D02*
X11273705Y-15220143D01*
X11273705Y-15220143D02*
X11292752Y-15229667D01*
X11292752Y-15229667D02*
X11302276Y-15248714D01*
X11302276Y-15248714D02*
X11302276Y-15353476D01*
X11302276Y-15248714D02*
X11311800Y-15229667D01*
X11311800Y-15229667D02*
X11330848Y-15220143D01*
X11330848Y-15220143D02*
X11359419Y-15220143D01*
X11359419Y-15220143D02*
X11378467Y-15229667D01*
X11378467Y-15229667D02*
X11387990Y-15248714D01*
X11387990Y-15248714D02*
X11387990Y-15353476D01*
X11483229Y-15353476D02*
X11483229Y-15220143D01*
X11483229Y-15239190D02*
X11492752Y-15229667D01*
X11492752Y-15229667D02*
X11511800Y-15220143D01*
X11511800Y-15220143D02*
X11540371Y-15220143D01*
X11540371Y-15220143D02*
X11559419Y-15229667D01*
X11559419Y-15229667D02*
X11568943Y-15248714D01*
X11568943Y-15248714D02*
X11568943Y-15353476D01*
X11568943Y-15248714D02*
X11578467Y-15229667D01*
X11578467Y-15229667D02*
X11597514Y-15220143D01*
X11597514Y-15220143D02*
X11626086Y-15220143D01*
X11626086Y-15220143D02*
X11645133Y-15229667D01*
X11645133Y-15229667D02*
X11654657Y-15248714D01*
X11654657Y-15248714D02*
X11654657Y-15353476D01*
X12012752Y-15143952D02*
X11841324Y-15401095D01*
X12237514Y-15153476D02*
X12256562Y-15153476D01*
X12256562Y-15153476D02*
X12275610Y-15163000D01*
X12275610Y-15163000D02*
X12285133Y-15172524D01*
X12285133Y-15172524D02*
X12294657Y-15191571D01*
X12294657Y-15191571D02*
X12304181Y-15229667D01*
X12304181Y-15229667D02*
X12304181Y-15277286D01*
X12304181Y-15277286D02*
X12294657Y-15315381D01*
X12294657Y-15315381D02*
X12285133Y-15334428D01*
X12285133Y-15334428D02*
X12275610Y-15343952D01*
X12275610Y-15343952D02*
X12256562Y-15353476D01*
X12256562Y-15353476D02*
X12237514Y-15353476D01*
X12237514Y-15353476D02*
X12218467Y-15343952D01*
X12218467Y-15343952D02*
X12208943Y-15334428D01*
X12208943Y-15334428D02*
X12199419Y-15315381D01*
X12199419Y-15315381D02*
X12189895Y-15277286D01*
X12189895Y-15277286D02*
X12189895Y-15229667D01*
X12189895Y-15229667D02*
X12199419Y-15191571D01*
X12199419Y-15191571D02*
X12208943Y-15172524D01*
X12208943Y-15172524D02*
X12218467Y-15163000D01*
X12218467Y-15163000D02*
X12237514Y-15153476D01*
X12389895Y-15334428D02*
X12399419Y-15343952D01*
X12399419Y-15343952D02*
X12389895Y-15353476D01*
X12389895Y-15353476D02*
X12380371Y-15343952D01*
X12380371Y-15343952D02*
X12389895Y-15334428D01*
X12389895Y-15334428D02*
X12389895Y-15353476D01*
X12523229Y-15153476D02*
X12542276Y-15153476D01*
X12542276Y-15153476D02*
X12561324Y-15163000D01*
X12561324Y-15163000D02*
X12570848Y-15172524D01*
X12570848Y-15172524D02*
X12580371Y-15191571D01*
X12580371Y-15191571D02*
X12589895Y-15229667D01*
X12589895Y-15229667D02*
X12589895Y-15277286D01*
X12589895Y-15277286D02*
X12580371Y-15315381D01*
X12580371Y-15315381D02*
X12570848Y-15334428D01*
X12570848Y-15334428D02*
X12561324Y-15343952D01*
X12561324Y-15343952D02*
X12542276Y-15353476D01*
X12542276Y-15353476D02*
X12523229Y-15353476D01*
X12523229Y-15353476D02*
X12504181Y-15343952D01*
X12504181Y-15343952D02*
X12494657Y-15334428D01*
X12494657Y-15334428D02*
X12485133Y-15315381D01*
X12485133Y-15315381D02*
X12475610Y-15277286D01*
X12475610Y-15277286D02*
X12475610Y-15229667D01*
X12475610Y-15229667D02*
X12485133Y-15191571D01*
X12485133Y-15191571D02*
X12494657Y-15172524D01*
X12494657Y-15172524D02*
X12504181Y-15163000D01*
X12504181Y-15163000D02*
X12523229Y-15153476D01*
X12656562Y-15153476D02*
X12780371Y-15153476D01*
X12780371Y-15153476D02*
X12713705Y-15229667D01*
X12713705Y-15229667D02*
X12742276Y-15229667D01*
X12742276Y-15229667D02*
X12761324Y-15239190D01*
X12761324Y-15239190D02*
X12770848Y-15248714D01*
X12770848Y-15248714D02*
X12780371Y-15267762D01*
X12780371Y-15267762D02*
X12780371Y-15315381D01*
X12780371Y-15315381D02*
X12770848Y-15334428D01*
X12770848Y-15334428D02*
X12761324Y-15343952D01*
X12761324Y-15343952D02*
X12742276Y-15353476D01*
X12742276Y-15353476D02*
X12685133Y-15353476D01*
X12685133Y-15353476D02*
X12666086Y-15343952D01*
X12666086Y-15343952D02*
X12656562Y-15334428D01*
X12961324Y-15153476D02*
X12866086Y-15153476D01*
X12866086Y-15153476D02*
X12856562Y-15248714D01*
X12856562Y-15248714D02*
X12866086Y-15239190D01*
X12866086Y-15239190D02*
X12885133Y-15229667D01*
X12885133Y-15229667D02*
X12932752Y-15229667D01*
X12932752Y-15229667D02*
X12951800Y-15239190D01*
X12951800Y-15239190D02*
X12961324Y-15248714D01*
X12961324Y-15248714D02*
X12970848Y-15267762D01*
X12970848Y-15267762D02*
X12970848Y-15315381D01*
X12970848Y-15315381D02*
X12961324Y-15334428D01*
X12961324Y-15334428D02*
X12951800Y-15343952D01*
X12951800Y-15343952D02*
X12932752Y-15353476D01*
X12932752Y-15353476D02*
X12885133Y-15353476D01*
X12885133Y-15353476D02*
X12866086Y-15343952D01*
X12866086Y-15343952D02*
X12856562Y-15334428D01*
X13142276Y-15220143D02*
X13142276Y-15353476D01*
X13094657Y-15143952D02*
X13047038Y-15286809D01*
X13047038Y-15286809D02*
X13170848Y-15286809D01*
X13237514Y-15153476D02*
X13237514Y-15191571D01*
X13313705Y-15153476D02*
X13313705Y-15191571D01*
X13576562Y-15429667D02*
X13567038Y-15420143D01*
X13567038Y-15420143D02*
X13547991Y-15391571D01*
X13547991Y-15391571D02*
X13538467Y-15372524D01*
X13538467Y-15372524D02*
X13528943Y-15343952D01*
X13528943Y-15343952D02*
X13519419Y-15296333D01*
X13519419Y-15296333D02*
X13519419Y-15258238D01*
X13519419Y-15258238D02*
X13528943Y-15210619D01*
X13528943Y-15210619D02*
X13538467Y-15182048D01*
X13538467Y-15182048D02*
X13547991Y-15163000D01*
X13547991Y-15163000D02*
X13567038Y-15134428D01*
X13567038Y-15134428D02*
X13576562Y-15124905D01*
X13738467Y-15153476D02*
X13700371Y-15153476D01*
X13700371Y-15153476D02*
X13681324Y-15163000D01*
X13681324Y-15163000D02*
X13671800Y-15172524D01*
X13671800Y-15172524D02*
X13652752Y-15201095D01*
X13652752Y-15201095D02*
X13643229Y-15239190D01*
X13643229Y-15239190D02*
X13643229Y-15315381D01*
X13643229Y-15315381D02*
X13652752Y-15334428D01*
X13652752Y-15334428D02*
X13662276Y-15343952D01*
X13662276Y-15343952D02*
X13681324Y-15353476D01*
X13681324Y-15353476D02*
X13719419Y-15353476D01*
X13719419Y-15353476D02*
X13738467Y-15343952D01*
X13738467Y-15343952D02*
X13747991Y-15334428D01*
X13747991Y-15334428D02*
X13757514Y-15315381D01*
X13757514Y-15315381D02*
X13757514Y-15267762D01*
X13757514Y-15267762D02*
X13747991Y-15248714D01*
X13747991Y-15248714D02*
X13738467Y-15239190D01*
X13738467Y-15239190D02*
X13719419Y-15229667D01*
X13719419Y-15229667D02*
X13681324Y-15229667D01*
X13681324Y-15229667D02*
X13662276Y-15239190D01*
X13662276Y-15239190D02*
X13652752Y-15248714D01*
X13652752Y-15248714D02*
X13643229Y-15267762D01*
X13963229Y-15353476D02*
X13963229Y-15153476D01*
X14048943Y-15353476D02*
X14048943Y-15248714D01*
X14048943Y-15248714D02*
X14039419Y-15229667D01*
X14039419Y-15229667D02*
X14020372Y-15220143D01*
X14020372Y-15220143D02*
X13991800Y-15220143D01*
X13991800Y-15220143D02*
X13972752Y-15229667D01*
X13972752Y-15229667D02*
X13963229Y-15239190D01*
X14172752Y-15353476D02*
X14153705Y-15343952D01*
X14153705Y-15343952D02*
X14144181Y-15334428D01*
X14144181Y-15334428D02*
X14134657Y-15315381D01*
X14134657Y-15315381D02*
X14134657Y-15258238D01*
X14134657Y-15258238D02*
X14144181Y-15239190D01*
X14144181Y-15239190D02*
X14153705Y-15229667D01*
X14153705Y-15229667D02*
X14172752Y-15220143D01*
X14172752Y-15220143D02*
X14201324Y-15220143D01*
X14201324Y-15220143D02*
X14220372Y-15229667D01*
X14220372Y-15229667D02*
X14229895Y-15239190D01*
X14229895Y-15239190D02*
X14239419Y-15258238D01*
X14239419Y-15258238D02*
X14239419Y-15315381D01*
X14239419Y-15315381D02*
X14229895Y-15334428D01*
X14229895Y-15334428D02*
X14220372Y-15343952D01*
X14220372Y-15343952D02*
X14201324Y-15353476D01*
X14201324Y-15353476D02*
X14172752Y-15353476D01*
X14353705Y-15353476D02*
X14334657Y-15343952D01*
X14334657Y-15343952D02*
X14325133Y-15324905D01*
X14325133Y-15324905D02*
X14325133Y-15153476D01*
X14506086Y-15343952D02*
X14487038Y-15353476D01*
X14487038Y-15353476D02*
X14448943Y-15353476D01*
X14448943Y-15353476D02*
X14429895Y-15343952D01*
X14429895Y-15343952D02*
X14420372Y-15324905D01*
X14420372Y-15324905D02*
X14420372Y-15248714D01*
X14420372Y-15248714D02*
X14429895Y-15229667D01*
X14429895Y-15229667D02*
X14448943Y-15220143D01*
X14448943Y-15220143D02*
X14487038Y-15220143D01*
X14487038Y-15220143D02*
X14506086Y-15229667D01*
X14506086Y-15229667D02*
X14515610Y-15248714D01*
X14515610Y-15248714D02*
X14515610Y-15267762D01*
X14515610Y-15267762D02*
X14420372Y-15286809D01*
X14591800Y-15343952D02*
X14610848Y-15353476D01*
X14610848Y-15353476D02*
X14648943Y-15353476D01*
X14648943Y-15353476D02*
X14667991Y-15343952D01*
X14667991Y-15343952D02*
X14677514Y-15324905D01*
X14677514Y-15324905D02*
X14677514Y-15315381D01*
X14677514Y-15315381D02*
X14667991Y-15296333D01*
X14667991Y-15296333D02*
X14648943Y-15286809D01*
X14648943Y-15286809D02*
X14620372Y-15286809D01*
X14620372Y-15286809D02*
X14601324Y-15277286D01*
X14601324Y-15277286D02*
X14591800Y-15258238D01*
X14591800Y-15258238D02*
X14591800Y-15248714D01*
X14591800Y-15248714D02*
X14601324Y-15229667D01*
X14601324Y-15229667D02*
X14620372Y-15220143D01*
X14620372Y-15220143D02*
X14648943Y-15220143D01*
X14648943Y-15220143D02*
X14667991Y-15229667D01*
X14744181Y-15429667D02*
X14753705Y-15420143D01*
X14753705Y-15420143D02*
X14772753Y-15391571D01*
X14772753Y-15391571D02*
X14782276Y-15372524D01*
X14782276Y-15372524D02*
X14791800Y-15343952D01*
X14791800Y-15343952D02*
X14801324Y-15296333D01*
X14801324Y-15296333D02*
X14801324Y-15258238D01*
X14801324Y-15258238D02*
X14791800Y-15210619D01*
X14791800Y-15210619D02*
X14782276Y-15182048D01*
X14782276Y-15182048D02*
X14772753Y-15163000D01*
X14772753Y-15163000D02*
X14753705Y-15134428D01*
X14753705Y-15134428D02*
X14744181Y-15124905D01*
D10*
X10061800Y-15594000D02*
X10111800Y-15544000D01*
X10061800Y-15494000D01*
X10011800Y-15544000D01*
X10061800Y-15594000D01*
D11*
X10464181Y-15617476D02*
X10349895Y-15617476D01*
X10407038Y-15617476D02*
X10407038Y-15417476D01*
X10407038Y-15417476D02*
X10387990Y-15446048D01*
X10387990Y-15446048D02*
X10368943Y-15465095D01*
X10368943Y-15465095D02*
X10349895Y-15474619D01*
X10549895Y-15598428D02*
X10559419Y-15607952D01*
X10559419Y-15607952D02*
X10549895Y-15617476D01*
X10549895Y-15617476D02*
X10540371Y-15607952D01*
X10540371Y-15607952D02*
X10549895Y-15598428D01*
X10549895Y-15598428D02*
X10549895Y-15617476D01*
X10683229Y-15417476D02*
X10702276Y-15417476D01*
X10702276Y-15417476D02*
X10721324Y-15427000D01*
X10721324Y-15427000D02*
X10730848Y-15436524D01*
X10730848Y-15436524D02*
X10740371Y-15455571D01*
X10740371Y-15455571D02*
X10749895Y-15493667D01*
X10749895Y-15493667D02*
X10749895Y-15541286D01*
X10749895Y-15541286D02*
X10740371Y-15579381D01*
X10740371Y-15579381D02*
X10730848Y-15598428D01*
X10730848Y-15598428D02*
X10721324Y-15607952D01*
X10721324Y-15607952D02*
X10702276Y-15617476D01*
X10702276Y-15617476D02*
X10683229Y-15617476D01*
X10683229Y-15617476D02*
X10664181Y-15607952D01*
X10664181Y-15607952D02*
X10654657Y-15598428D01*
X10654657Y-15598428D02*
X10645133Y-15579381D01*
X10645133Y-15579381D02*
X10635610Y-15541286D01*
X10635610Y-15541286D02*
X10635610Y-15493667D01*
X10635610Y-15493667D02*
X10645133Y-15455571D01*
X10645133Y-15455571D02*
X10654657Y-15436524D01*
X10654657Y-15436524D02*
X10664181Y-15427000D01*
X10664181Y-15427000D02*
X10683229Y-15417476D01*
X10873705Y-15417476D02*
X10892752Y-15417476D01*
X10892752Y-15417476D02*
X10911800Y-15427000D01*
X10911800Y-15427000D02*
X10921324Y-15436524D01*
X10921324Y-15436524D02*
X10930848Y-15455571D01*
X10930848Y-15455571D02*
X10940371Y-15493667D01*
X10940371Y-15493667D02*
X10940371Y-15541286D01*
X10940371Y-15541286D02*
X10930848Y-15579381D01*
X10930848Y-15579381D02*
X10921324Y-15598428D01*
X10921324Y-15598428D02*
X10911800Y-15607952D01*
X10911800Y-15607952D02*
X10892752Y-15617476D01*
X10892752Y-15617476D02*
X10873705Y-15617476D01*
X10873705Y-15617476D02*
X10854657Y-15607952D01*
X10854657Y-15607952D02*
X10845133Y-15598428D01*
X10845133Y-15598428D02*
X10835610Y-15579381D01*
X10835610Y-15579381D02*
X10826086Y-15541286D01*
X10826086Y-15541286D02*
X10826086Y-15493667D01*
X10826086Y-15493667D02*
X10835610Y-15455571D01*
X10835610Y-15455571D02*
X10845133Y-15436524D01*
X10845133Y-15436524D02*
X10854657Y-15427000D01*
X10854657Y-15427000D02*
X10873705Y-15417476D01*
X11064181Y-15417476D02*
X11083229Y-15417476D01*
X11083229Y-15417476D02*
X11102276Y-15427000D01*
X11102276Y-15427000D02*
X11111800Y-15436524D01*
X11111800Y-15436524D02*
X11121324Y-15455571D01*
X11121324Y-15455571D02*
X11130848Y-15493667D01*
X11130848Y-15493667D02*
X11130848Y-15541286D01*
X11130848Y-15541286D02*
X11121324Y-15579381D01*
X11121324Y-15579381D02*
X11111800Y-15598428D01*
X11111800Y-15598428D02*
X11102276Y-15607952D01*
X11102276Y-15607952D02*
X11083229Y-15617476D01*
X11083229Y-15617476D02*
X11064181Y-15617476D01*
X11064181Y-15617476D02*
X11045133Y-15607952D01*
X11045133Y-15607952D02*
X11035610Y-15598428D01*
X11035610Y-15598428D02*
X11026086Y-15579381D01*
X11026086Y-15579381D02*
X11016562Y-15541286D01*
X11016562Y-15541286D02*
X11016562Y-15493667D01*
X11016562Y-15493667D02*
X11026086Y-15455571D01*
X11026086Y-15455571D02*
X11035610Y-15436524D01*
X11035610Y-15436524D02*
X11045133Y-15427000D01*
X11045133Y-15427000D02*
X11064181Y-15417476D01*
X11216562Y-15617476D02*
X11216562Y-15484143D01*
X11216562Y-15503190D02*
X11226086Y-15493667D01*
X11226086Y-15493667D02*
X11245133Y-15484143D01*
X11245133Y-15484143D02*
X11273705Y-15484143D01*
X11273705Y-15484143D02*
X11292752Y-15493667D01*
X11292752Y-15493667D02*
X11302276Y-15512714D01*
X11302276Y-15512714D02*
X11302276Y-15617476D01*
X11302276Y-15512714D02*
X11311800Y-15493667D01*
X11311800Y-15493667D02*
X11330848Y-15484143D01*
X11330848Y-15484143D02*
X11359419Y-15484143D01*
X11359419Y-15484143D02*
X11378467Y-15493667D01*
X11378467Y-15493667D02*
X11387990Y-15512714D01*
X11387990Y-15512714D02*
X11387990Y-15617476D01*
X11483229Y-15617476D02*
X11483229Y-15484143D01*
X11483229Y-15503190D02*
X11492752Y-15493667D01*
X11492752Y-15493667D02*
X11511800Y-15484143D01*
X11511800Y-15484143D02*
X11540371Y-15484143D01*
X11540371Y-15484143D02*
X11559419Y-15493667D01*
X11559419Y-15493667D02*
X11568943Y-15512714D01*
X11568943Y-15512714D02*
X11568943Y-15617476D01*
X11568943Y-15512714D02*
X11578467Y-15493667D01*
X11578467Y-15493667D02*
X11597514Y-15484143D01*
X11597514Y-15484143D02*
X11626086Y-15484143D01*
X11626086Y-15484143D02*
X11645133Y-15493667D01*
X11645133Y-15493667D02*
X11654657Y-15512714D01*
X11654657Y-15512714D02*
X11654657Y-15617476D01*
X12012752Y-15407952D02*
X11841324Y-15665095D01*
X12237514Y-15417476D02*
X12256562Y-15417476D01*
X12256562Y-15417476D02*
X12275610Y-15427000D01*
X12275610Y-15427000D02*
X12285133Y-15436524D01*
X12285133Y-15436524D02*
X12294657Y-15455571D01*
X12294657Y-15455571D02*
X12304181Y-15493667D01*
X12304181Y-15493667D02*
X12304181Y-15541286D01*
X12304181Y-15541286D02*
X12294657Y-15579381D01*
X12294657Y-15579381D02*
X12285133Y-15598428D01*
X12285133Y-15598428D02*
X12275610Y-15607952D01*
X12275610Y-15607952D02*
X12256562Y-15617476D01*
X12256562Y-15617476D02*
X12237514Y-15617476D01*
X12237514Y-15617476D02*
X12218467Y-15607952D01*
X12218467Y-15607952D02*
X12208943Y-15598428D01*
X12208943Y-15598428D02*
X12199419Y-15579381D01*
X12199419Y-15579381D02*
X12189895Y-15541286D01*
X12189895Y-15541286D02*
X12189895Y-15493667D01*
X12189895Y-15493667D02*
X12199419Y-15455571D01*
X12199419Y-15455571D02*
X12208943Y-15436524D01*
X12208943Y-15436524D02*
X12218467Y-15427000D01*
X12218467Y-15427000D02*
X12237514Y-15417476D01*
X12389895Y-15598428D02*
X12399419Y-15607952D01*
X12399419Y-15607952D02*
X12389895Y-15617476D01*
X12389895Y-15617476D02*
X12380371Y-15607952D01*
X12380371Y-15607952D02*
X12389895Y-15598428D01*
X12389895Y-15598428D02*
X12389895Y-15617476D01*
X12523229Y-15417476D02*
X12542276Y-15417476D01*
X12542276Y-15417476D02*
X12561324Y-15427000D01*
X12561324Y-15427000D02*
X12570848Y-15436524D01*
X12570848Y-15436524D02*
X12580371Y-15455571D01*
X12580371Y-15455571D02*
X12589895Y-15493667D01*
X12589895Y-15493667D02*
X12589895Y-15541286D01*
X12589895Y-15541286D02*
X12580371Y-15579381D01*
X12580371Y-15579381D02*
X12570848Y-15598428D01*
X12570848Y-15598428D02*
X12561324Y-15607952D01*
X12561324Y-15607952D02*
X12542276Y-15617476D01*
X12542276Y-15617476D02*
X12523229Y-15617476D01*
X12523229Y-15617476D02*
X12504181Y-15607952D01*
X12504181Y-15607952D02*
X12494657Y-15598428D01*
X12494657Y-15598428D02*
X12485133Y-15579381D01*
X12485133Y-15579381D02*
X12475610Y-15541286D01*
X12475610Y-15541286D02*
X12475610Y-15493667D01*
X12475610Y-15493667D02*
X12485133Y-15455571D01*
X12485133Y-15455571D02*
X12494657Y-15436524D01*
X12494657Y-15436524D02*
X12504181Y-15427000D01*
X12504181Y-15427000D02*
X12523229Y-15417476D01*
X12656562Y-15417476D02*
X12780371Y-15417476D01*
X12780371Y-15417476D02*
X12713705Y-15493667D01*
X12713705Y-15493667D02*
X12742276Y-15493667D01*
X12742276Y-15493667D02*
X12761324Y-15503190D01*
X12761324Y-15503190D02*
X12770848Y-15512714D01*
X12770848Y-15512714D02*
X12780371Y-15531762D01*
X12780371Y-15531762D02*
X12780371Y-15579381D01*
X12780371Y-15579381D02*
X12770848Y-15598428D01*
X12770848Y-15598428D02*
X12761324Y-15607952D01*
X12761324Y-15607952D02*
X12742276Y-15617476D01*
X12742276Y-15617476D02*
X12685133Y-15617476D01*
X12685133Y-15617476D02*
X12666086Y-15607952D01*
X12666086Y-15607952D02*
X12656562Y-15598428D01*
X12875610Y-15617476D02*
X12913705Y-15617476D01*
X12913705Y-15617476D02*
X12932752Y-15607952D01*
X12932752Y-15607952D02*
X12942276Y-15598428D01*
X12942276Y-15598428D02*
X12961324Y-15569857D01*
X12961324Y-15569857D02*
X12970848Y-15531762D01*
X12970848Y-15531762D02*
X12970848Y-15455571D01*
X12970848Y-15455571D02*
X12961324Y-15436524D01*
X12961324Y-15436524D02*
X12951800Y-15427000D01*
X12951800Y-15427000D02*
X12932752Y-15417476D01*
X12932752Y-15417476D02*
X12894657Y-15417476D01*
X12894657Y-15417476D02*
X12875610Y-15427000D01*
X12875610Y-15427000D02*
X12866086Y-15436524D01*
X12866086Y-15436524D02*
X12856562Y-15455571D01*
X12856562Y-15455571D02*
X12856562Y-15503190D01*
X12856562Y-15503190D02*
X12866086Y-15522238D01*
X12866086Y-15522238D02*
X12875610Y-15531762D01*
X12875610Y-15531762D02*
X12894657Y-15541286D01*
X12894657Y-15541286D02*
X12932752Y-15541286D01*
X12932752Y-15541286D02*
X12951800Y-15531762D01*
X12951800Y-15531762D02*
X12961324Y-15522238D01*
X12961324Y-15522238D02*
X12970848Y-15503190D01*
X13142276Y-15484143D02*
X13142276Y-15617476D01*
X13094657Y-15407952D02*
X13047038Y-15550809D01*
X13047038Y-15550809D02*
X13170848Y-15550809D01*
X13237514Y-15417476D02*
X13237514Y-15455571D01*
X13313705Y-15417476D02*
X13313705Y-15455571D01*
X13576562Y-15693667D02*
X13567038Y-15684143D01*
X13567038Y-15684143D02*
X13547991Y-15655571D01*
X13547991Y-15655571D02*
X13538467Y-15636524D01*
X13538467Y-15636524D02*
X13528943Y-15607952D01*
X13528943Y-15607952D02*
X13519419Y-15560333D01*
X13519419Y-15560333D02*
X13519419Y-15522238D01*
X13519419Y-15522238D02*
X13528943Y-15474619D01*
X13528943Y-15474619D02*
X13538467Y-15446048D01*
X13538467Y-15446048D02*
X13547991Y-15427000D01*
X13547991Y-15427000D02*
X13567038Y-15398428D01*
X13567038Y-15398428D02*
X13576562Y-15388905D01*
X13757514Y-15617476D02*
X13643229Y-15617476D01*
X13700371Y-15617476D02*
X13700371Y-15417476D01*
X13700371Y-15417476D02*
X13681324Y-15446048D01*
X13681324Y-15446048D02*
X13662276Y-15465095D01*
X13662276Y-15465095D02*
X13643229Y-15474619D01*
X13947991Y-15617476D02*
X13833705Y-15617476D01*
X13890848Y-15617476D02*
X13890848Y-15417476D01*
X13890848Y-15417476D02*
X13871800Y-15446048D01*
X13871800Y-15446048D02*
X13852752Y-15465095D01*
X13852752Y-15465095D02*
X13833705Y-15474619D01*
X14014657Y-15417476D02*
X14138467Y-15417476D01*
X14138467Y-15417476D02*
X14071800Y-15493667D01*
X14071800Y-15493667D02*
X14100372Y-15493667D01*
X14100372Y-15493667D02*
X14119419Y-15503190D01*
X14119419Y-15503190D02*
X14128943Y-15512714D01*
X14128943Y-15512714D02*
X14138467Y-15531762D01*
X14138467Y-15531762D02*
X14138467Y-15579381D01*
X14138467Y-15579381D02*
X14128943Y-15598428D01*
X14128943Y-15598428D02*
X14119419Y-15607952D01*
X14119419Y-15607952D02*
X14100372Y-15617476D01*
X14100372Y-15617476D02*
X14043229Y-15617476D01*
X14043229Y-15617476D02*
X14024181Y-15607952D01*
X14024181Y-15607952D02*
X14014657Y-15598428D01*
X14344181Y-15617476D02*
X14344181Y-15417476D01*
X14429895Y-15617476D02*
X14429895Y-15512714D01*
X14429895Y-15512714D02*
X14420372Y-15493667D01*
X14420372Y-15493667D02*
X14401324Y-15484143D01*
X14401324Y-15484143D02*
X14372752Y-15484143D01*
X14372752Y-15484143D02*
X14353705Y-15493667D01*
X14353705Y-15493667D02*
X14344181Y-15503190D01*
X14553705Y-15617476D02*
X14534657Y-15607952D01*
X14534657Y-15607952D02*
X14525133Y-15598428D01*
X14525133Y-15598428D02*
X14515610Y-15579381D01*
X14515610Y-15579381D02*
X14515610Y-15522238D01*
X14515610Y-15522238D02*
X14525133Y-15503190D01*
X14525133Y-15503190D02*
X14534657Y-15493667D01*
X14534657Y-15493667D02*
X14553705Y-15484143D01*
X14553705Y-15484143D02*
X14582276Y-15484143D01*
X14582276Y-15484143D02*
X14601324Y-15493667D01*
X14601324Y-15493667D02*
X14610848Y-15503190D01*
X14610848Y-15503190D02*
X14620372Y-15522238D01*
X14620372Y-15522238D02*
X14620372Y-15579381D01*
X14620372Y-15579381D02*
X14610848Y-15598428D01*
X14610848Y-15598428D02*
X14601324Y-15607952D01*
X14601324Y-15607952D02*
X14582276Y-15617476D01*
X14582276Y-15617476D02*
X14553705Y-15617476D01*
X14734657Y-15617476D02*
X14715610Y-15607952D01*
X14715610Y-15607952D02*
X14706086Y-15588905D01*
X14706086Y-15588905D02*
X14706086Y-15417476D01*
X14887038Y-15607952D02*
X14867991Y-15617476D01*
X14867991Y-15617476D02*
X14829895Y-15617476D01*
X14829895Y-15617476D02*
X14810848Y-15607952D01*
X14810848Y-15607952D02*
X14801324Y-15588905D01*
X14801324Y-15588905D02*
X14801324Y-15512714D01*
X14801324Y-15512714D02*
X14810848Y-15493667D01*
X14810848Y-15493667D02*
X14829895Y-15484143D01*
X14829895Y-15484143D02*
X14867991Y-15484143D01*
X14867991Y-15484143D02*
X14887038Y-15493667D01*
X14887038Y-15493667D02*
X14896562Y-15512714D01*
X14896562Y-15512714D02*
X14896562Y-15531762D01*
X14896562Y-15531762D02*
X14801324Y-15550809D01*
X14972753Y-15607952D02*
X14991800Y-15617476D01*
X14991800Y-15617476D02*
X15029895Y-15617476D01*
X15029895Y-15617476D02*
X15048943Y-15607952D01*
X15048943Y-15607952D02*
X15058467Y-15588905D01*
X15058467Y-15588905D02*
X15058467Y-15579381D01*
X15058467Y-15579381D02*
X15048943Y-15560333D01*
X15048943Y-15560333D02*
X15029895Y-15550809D01*
X15029895Y-15550809D02*
X15001324Y-15550809D01*
X15001324Y-15550809D02*
X14982276Y-15541286D01*
X14982276Y-15541286D02*
X14972753Y-15522238D01*
X14972753Y-15522238D02*
X14972753Y-15512714D01*
X14972753Y-15512714D02*
X14982276Y-15493667D01*
X14982276Y-15493667D02*
X15001324Y-15484143D01*
X15001324Y-15484143D02*
X15029895Y-15484143D01*
X15029895Y-15484143D02*
X15048943Y-15493667D01*
X15125134Y-15693667D02*
X15134657Y-15684143D01*
X15134657Y-15684143D02*
X15153705Y-15655571D01*
X15153705Y-15655571D02*
X15163229Y-15636524D01*
X15163229Y-15636524D02*
X15172753Y-15607952D01*
X15172753Y-15607952D02*
X15182276Y-15560333D01*
X15182276Y-15560333D02*
X15182276Y-15522238D01*
X15182276Y-15522238D02*
X15172753Y-15474619D01*
X15172753Y-15474619D02*
X15163229Y-15446048D01*
X15163229Y-15446048D02*
X15153705Y-15427000D01*
X15153705Y-15427000D02*
X15134657Y-15398428D01*
X15134657Y-15398428D02*
X15125134Y-15388905D01*
D16*
X10001800Y-15753000D02*
X10111800Y-15863000D01*
X10111800Y-15753000D02*
X10001800Y-15863000D01*
X10111800Y-15808000D02*
G75*
G03*
X10111800Y-15808000I-55000J0D01*
G01*
D11*
X10464181Y-15881476D02*
X10349895Y-15881476D01*
X10407038Y-15881476D02*
X10407038Y-15681476D01*
X10407038Y-15681476D02*
X10387990Y-15710048D01*
X10387990Y-15710048D02*
X10368943Y-15729095D01*
X10368943Y-15729095D02*
X10349895Y-15738619D01*
X10549895Y-15862428D02*
X10559419Y-15871952D01*
X10559419Y-15871952D02*
X10549895Y-15881476D01*
X10549895Y-15881476D02*
X10540371Y-15871952D01*
X10540371Y-15871952D02*
X10549895Y-15862428D01*
X10549895Y-15862428D02*
X10549895Y-15881476D01*
X10749895Y-15881476D02*
X10635610Y-15881476D01*
X10692752Y-15881476D02*
X10692752Y-15681476D01*
X10692752Y-15681476D02*
X10673705Y-15710048D01*
X10673705Y-15710048D02*
X10654657Y-15729095D01*
X10654657Y-15729095D02*
X10635610Y-15738619D01*
X10873705Y-15681476D02*
X10892752Y-15681476D01*
X10892752Y-15681476D02*
X10911800Y-15691000D01*
X10911800Y-15691000D02*
X10921324Y-15700524D01*
X10921324Y-15700524D02*
X10930848Y-15719571D01*
X10930848Y-15719571D02*
X10940371Y-15757667D01*
X10940371Y-15757667D02*
X10940371Y-15805286D01*
X10940371Y-15805286D02*
X10930848Y-15843381D01*
X10930848Y-15843381D02*
X10921324Y-15862428D01*
X10921324Y-15862428D02*
X10911800Y-15871952D01*
X10911800Y-15871952D02*
X10892752Y-15881476D01*
X10892752Y-15881476D02*
X10873705Y-15881476D01*
X10873705Y-15881476D02*
X10854657Y-15871952D01*
X10854657Y-15871952D02*
X10845133Y-15862428D01*
X10845133Y-15862428D02*
X10835610Y-15843381D01*
X10835610Y-15843381D02*
X10826086Y-15805286D01*
X10826086Y-15805286D02*
X10826086Y-15757667D01*
X10826086Y-15757667D02*
X10835610Y-15719571D01*
X10835610Y-15719571D02*
X10845133Y-15700524D01*
X10845133Y-15700524D02*
X10854657Y-15691000D01*
X10854657Y-15691000D02*
X10873705Y-15681476D01*
X11064181Y-15681476D02*
X11083229Y-15681476D01*
X11083229Y-15681476D02*
X11102276Y-15691000D01*
X11102276Y-15691000D02*
X11111800Y-15700524D01*
X11111800Y-15700524D02*
X11121324Y-15719571D01*
X11121324Y-15719571D02*
X11130848Y-15757667D01*
X11130848Y-15757667D02*
X11130848Y-15805286D01*
X11130848Y-15805286D02*
X11121324Y-15843381D01*
X11121324Y-15843381D02*
X11111800Y-15862428D01*
X11111800Y-15862428D02*
X11102276Y-15871952D01*
X11102276Y-15871952D02*
X11083229Y-15881476D01*
X11083229Y-15881476D02*
X11064181Y-15881476D01*
X11064181Y-15881476D02*
X11045133Y-15871952D01*
X11045133Y-15871952D02*
X11035610Y-15862428D01*
X11035610Y-15862428D02*
X11026086Y-15843381D01*
X11026086Y-15843381D02*
X11016562Y-15805286D01*
X11016562Y-15805286D02*
X11016562Y-15757667D01*
X11016562Y-15757667D02*
X11026086Y-15719571D01*
X11026086Y-15719571D02*
X11035610Y-15700524D01*
X11035610Y-15700524D02*
X11045133Y-15691000D01*
X11045133Y-15691000D02*
X11064181Y-15681476D01*
X11216562Y-15881476D02*
X11216562Y-15748143D01*
X11216562Y-15767190D02*
X11226086Y-15757667D01*
X11226086Y-15757667D02*
X11245133Y-15748143D01*
X11245133Y-15748143D02*
X11273705Y-15748143D01*
X11273705Y-15748143D02*
X11292752Y-15757667D01*
X11292752Y-15757667D02*
X11302276Y-15776714D01*
X11302276Y-15776714D02*
X11302276Y-15881476D01*
X11302276Y-15776714D02*
X11311800Y-15757667D01*
X11311800Y-15757667D02*
X11330848Y-15748143D01*
X11330848Y-15748143D02*
X11359419Y-15748143D01*
X11359419Y-15748143D02*
X11378467Y-15757667D01*
X11378467Y-15757667D02*
X11387990Y-15776714D01*
X11387990Y-15776714D02*
X11387990Y-15881476D01*
X11483229Y-15881476D02*
X11483229Y-15748143D01*
X11483229Y-15767190D02*
X11492752Y-15757667D01*
X11492752Y-15757667D02*
X11511800Y-15748143D01*
X11511800Y-15748143D02*
X11540371Y-15748143D01*
X11540371Y-15748143D02*
X11559419Y-15757667D01*
X11559419Y-15757667D02*
X11568943Y-15776714D01*
X11568943Y-15776714D02*
X11568943Y-15881476D01*
X11568943Y-15776714D02*
X11578467Y-15757667D01*
X11578467Y-15757667D02*
X11597514Y-15748143D01*
X11597514Y-15748143D02*
X11626086Y-15748143D01*
X11626086Y-15748143D02*
X11645133Y-15757667D01*
X11645133Y-15757667D02*
X11654657Y-15776714D01*
X11654657Y-15776714D02*
X11654657Y-15881476D01*
X12012752Y-15671952D02*
X11841324Y-15929095D01*
X12237514Y-15681476D02*
X12256562Y-15681476D01*
X12256562Y-15681476D02*
X12275610Y-15691000D01*
X12275610Y-15691000D02*
X12285133Y-15700524D01*
X12285133Y-15700524D02*
X12294657Y-15719571D01*
X12294657Y-15719571D02*
X12304181Y-15757667D01*
X12304181Y-15757667D02*
X12304181Y-15805286D01*
X12304181Y-15805286D02*
X12294657Y-15843381D01*
X12294657Y-15843381D02*
X12285133Y-15862428D01*
X12285133Y-15862428D02*
X12275610Y-15871952D01*
X12275610Y-15871952D02*
X12256562Y-15881476D01*
X12256562Y-15881476D02*
X12237514Y-15881476D01*
X12237514Y-15881476D02*
X12218467Y-15871952D01*
X12218467Y-15871952D02*
X12208943Y-15862428D01*
X12208943Y-15862428D02*
X12199419Y-15843381D01*
X12199419Y-15843381D02*
X12189895Y-15805286D01*
X12189895Y-15805286D02*
X12189895Y-15757667D01*
X12189895Y-15757667D02*
X12199419Y-15719571D01*
X12199419Y-15719571D02*
X12208943Y-15700524D01*
X12208943Y-15700524D02*
X12218467Y-15691000D01*
X12218467Y-15691000D02*
X12237514Y-15681476D01*
X12389895Y-15862428D02*
X12399419Y-15871952D01*
X12399419Y-15871952D02*
X12389895Y-15881476D01*
X12389895Y-15881476D02*
X12380371Y-15871952D01*
X12380371Y-15871952D02*
X12389895Y-15862428D01*
X12389895Y-15862428D02*
X12389895Y-15881476D01*
X12523229Y-15681476D02*
X12542276Y-15681476D01*
X12542276Y-15681476D02*
X12561324Y-15691000D01*
X12561324Y-15691000D02*
X12570848Y-15700524D01*
X12570848Y-15700524D02*
X12580371Y-15719571D01*
X12580371Y-15719571D02*
X12589895Y-15757667D01*
X12589895Y-15757667D02*
X12589895Y-15805286D01*
X12589895Y-15805286D02*
X12580371Y-15843381D01*
X12580371Y-15843381D02*
X12570848Y-15862428D01*
X12570848Y-15862428D02*
X12561324Y-15871952D01*
X12561324Y-15871952D02*
X12542276Y-15881476D01*
X12542276Y-15881476D02*
X12523229Y-15881476D01*
X12523229Y-15881476D02*
X12504181Y-15871952D01*
X12504181Y-15871952D02*
X12494657Y-15862428D01*
X12494657Y-15862428D02*
X12485133Y-15843381D01*
X12485133Y-15843381D02*
X12475610Y-15805286D01*
X12475610Y-15805286D02*
X12475610Y-15757667D01*
X12475610Y-15757667D02*
X12485133Y-15719571D01*
X12485133Y-15719571D02*
X12494657Y-15700524D01*
X12494657Y-15700524D02*
X12504181Y-15691000D01*
X12504181Y-15691000D02*
X12523229Y-15681476D01*
X12761324Y-15748143D02*
X12761324Y-15881476D01*
X12713705Y-15671952D02*
X12666086Y-15814809D01*
X12666086Y-15814809D02*
X12789895Y-15814809D01*
X12847038Y-15681476D02*
X12970848Y-15681476D01*
X12970848Y-15681476D02*
X12904181Y-15757667D01*
X12904181Y-15757667D02*
X12932752Y-15757667D01*
X12932752Y-15757667D02*
X12951800Y-15767190D01*
X12951800Y-15767190D02*
X12961324Y-15776714D01*
X12961324Y-15776714D02*
X12970848Y-15795762D01*
X12970848Y-15795762D02*
X12970848Y-15843381D01*
X12970848Y-15843381D02*
X12961324Y-15862428D01*
X12961324Y-15862428D02*
X12951800Y-15871952D01*
X12951800Y-15871952D02*
X12932752Y-15881476D01*
X12932752Y-15881476D02*
X12875610Y-15881476D01*
X12875610Y-15881476D02*
X12856562Y-15871952D01*
X12856562Y-15871952D02*
X12847038Y-15862428D01*
X13037514Y-15681476D02*
X13161324Y-15681476D01*
X13161324Y-15681476D02*
X13094657Y-15757667D01*
X13094657Y-15757667D02*
X13123229Y-15757667D01*
X13123229Y-15757667D02*
X13142276Y-15767190D01*
X13142276Y-15767190D02*
X13151800Y-15776714D01*
X13151800Y-15776714D02*
X13161324Y-15795762D01*
X13161324Y-15795762D02*
X13161324Y-15843381D01*
X13161324Y-15843381D02*
X13151800Y-15862428D01*
X13151800Y-15862428D02*
X13142276Y-15871952D01*
X13142276Y-15871952D02*
X13123229Y-15881476D01*
X13123229Y-15881476D02*
X13066086Y-15881476D01*
X13066086Y-15881476D02*
X13047038Y-15871952D01*
X13047038Y-15871952D02*
X13037514Y-15862428D01*
X13237514Y-15681476D02*
X13237514Y-15719571D01*
X13313705Y-15681476D02*
X13313705Y-15719571D01*
X13576562Y-15957667D02*
X13567038Y-15948143D01*
X13567038Y-15948143D02*
X13547991Y-15919571D01*
X13547991Y-15919571D02*
X13538467Y-15900524D01*
X13538467Y-15900524D02*
X13528943Y-15871952D01*
X13528943Y-15871952D02*
X13519419Y-15824333D01*
X13519419Y-15824333D02*
X13519419Y-15786238D01*
X13519419Y-15786238D02*
X13528943Y-15738619D01*
X13528943Y-15738619D02*
X13538467Y-15710048D01*
X13538467Y-15710048D02*
X13547991Y-15691000D01*
X13547991Y-15691000D02*
X13567038Y-15662428D01*
X13567038Y-15662428D02*
X13576562Y-15652905D01*
X13738467Y-15748143D02*
X13738467Y-15881476D01*
X13690848Y-15671952D02*
X13643229Y-15814809D01*
X13643229Y-15814809D02*
X13767038Y-15814809D01*
X13963229Y-15881476D02*
X13963229Y-15681476D01*
X14048943Y-15881476D02*
X14048943Y-15776714D01*
X14048943Y-15776714D02*
X14039419Y-15757667D01*
X14039419Y-15757667D02*
X14020372Y-15748143D01*
X14020372Y-15748143D02*
X13991800Y-15748143D01*
X13991800Y-15748143D02*
X13972752Y-15757667D01*
X13972752Y-15757667D02*
X13963229Y-15767190D01*
X14172752Y-15881476D02*
X14153705Y-15871952D01*
X14153705Y-15871952D02*
X14144181Y-15862428D01*
X14144181Y-15862428D02*
X14134657Y-15843381D01*
X14134657Y-15843381D02*
X14134657Y-15786238D01*
X14134657Y-15786238D02*
X14144181Y-15767190D01*
X14144181Y-15767190D02*
X14153705Y-15757667D01*
X14153705Y-15757667D02*
X14172752Y-15748143D01*
X14172752Y-15748143D02*
X14201324Y-15748143D01*
X14201324Y-15748143D02*
X14220372Y-15757667D01*
X14220372Y-15757667D02*
X14229895Y-15767190D01*
X14229895Y-15767190D02*
X14239419Y-15786238D01*
X14239419Y-15786238D02*
X14239419Y-15843381D01*
X14239419Y-15843381D02*
X14229895Y-15862428D01*
X14229895Y-15862428D02*
X14220372Y-15871952D01*
X14220372Y-15871952D02*
X14201324Y-15881476D01*
X14201324Y-15881476D02*
X14172752Y-15881476D01*
X14353705Y-15881476D02*
X14334657Y-15871952D01*
X14334657Y-15871952D02*
X14325133Y-15852905D01*
X14325133Y-15852905D02*
X14325133Y-15681476D01*
X14506086Y-15871952D02*
X14487038Y-15881476D01*
X14487038Y-15881476D02*
X14448943Y-15881476D01*
X14448943Y-15881476D02*
X14429895Y-15871952D01*
X14429895Y-15871952D02*
X14420372Y-15852905D01*
X14420372Y-15852905D02*
X14420372Y-15776714D01*
X14420372Y-15776714D02*
X14429895Y-15757667D01*
X14429895Y-15757667D02*
X14448943Y-15748143D01*
X14448943Y-15748143D02*
X14487038Y-15748143D01*
X14487038Y-15748143D02*
X14506086Y-15757667D01*
X14506086Y-15757667D02*
X14515610Y-15776714D01*
X14515610Y-15776714D02*
X14515610Y-15795762D01*
X14515610Y-15795762D02*
X14420372Y-15814809D01*
X14591800Y-15871952D02*
X14610848Y-15881476D01*
X14610848Y-15881476D02*
X14648943Y-15881476D01*
X14648943Y-15881476D02*
X14667991Y-15871952D01*
X14667991Y-15871952D02*
X14677514Y-15852905D01*
X14677514Y-15852905D02*
X14677514Y-15843381D01*
X14677514Y-15843381D02*
X14667991Y-15824333D01*
X14667991Y-15824333D02*
X14648943Y-15814809D01*
X14648943Y-15814809D02*
X14620372Y-15814809D01*
X14620372Y-15814809D02*
X14601324Y-15805286D01*
X14601324Y-15805286D02*
X14591800Y-15786238D01*
X14591800Y-15786238D02*
X14591800Y-15776714D01*
X14591800Y-15776714D02*
X14601324Y-15757667D01*
X14601324Y-15757667D02*
X14620372Y-15748143D01*
X14620372Y-15748143D02*
X14648943Y-15748143D01*
X14648943Y-15748143D02*
X14667991Y-15757667D01*
X14744181Y-15957667D02*
X14753705Y-15948143D01*
X14753705Y-15948143D02*
X14772753Y-15919571D01*
X14772753Y-15919571D02*
X14782276Y-15900524D01*
X14782276Y-15900524D02*
X14791800Y-15871952D01*
X14791800Y-15871952D02*
X14801324Y-15824333D01*
X14801324Y-15824333D02*
X14801324Y-15786238D01*
X14801324Y-15786238D02*
X14791800Y-15738619D01*
X14791800Y-15738619D02*
X14782276Y-15710048D01*
X14782276Y-15710048D02*
X14772753Y-15691000D01*
X14772753Y-15691000D02*
X14753705Y-15662428D01*
X14753705Y-15662428D02*
X14744181Y-15652905D01*
X9911800Y-15972000D02*
X10111800Y-16172000D01*
X10111800Y-15972000D02*
X9911800Y-16172000D01*
X10011800Y-15972000D02*
X10011800Y-16172000D01*
X9911800Y-16072000D02*
X10111800Y-16072000D01*
X10349895Y-15964524D02*
X10359419Y-15955000D01*
X10359419Y-15955000D02*
X10378467Y-15945476D01*
X10378467Y-15945476D02*
X10426086Y-15945476D01*
X10426086Y-15945476D02*
X10445133Y-15955000D01*
X10445133Y-15955000D02*
X10454657Y-15964524D01*
X10454657Y-15964524D02*
X10464181Y-15983571D01*
X10464181Y-15983571D02*
X10464181Y-16002619D01*
X10464181Y-16002619D02*
X10454657Y-16031190D01*
X10454657Y-16031190D02*
X10340371Y-16145476D01*
X10340371Y-16145476D02*
X10464181Y-16145476D01*
X10549895Y-16126428D02*
X10559419Y-16135952D01*
X10559419Y-16135952D02*
X10549895Y-16145476D01*
X10549895Y-16145476D02*
X10540371Y-16135952D01*
X10540371Y-16135952D02*
X10549895Y-16126428D01*
X10549895Y-16126428D02*
X10549895Y-16145476D01*
X10730848Y-16012143D02*
X10730848Y-16145476D01*
X10683229Y-15935952D02*
X10635610Y-16078809D01*
X10635610Y-16078809D02*
X10759419Y-16078809D01*
X10873705Y-15945476D02*
X10892752Y-15945476D01*
X10892752Y-15945476D02*
X10911800Y-15955000D01*
X10911800Y-15955000D02*
X10921324Y-15964524D01*
X10921324Y-15964524D02*
X10930848Y-15983571D01*
X10930848Y-15983571D02*
X10940371Y-16021667D01*
X10940371Y-16021667D02*
X10940371Y-16069286D01*
X10940371Y-16069286D02*
X10930848Y-16107381D01*
X10930848Y-16107381D02*
X10921324Y-16126428D01*
X10921324Y-16126428D02*
X10911800Y-16135952D01*
X10911800Y-16135952D02*
X10892752Y-16145476D01*
X10892752Y-16145476D02*
X10873705Y-16145476D01*
X10873705Y-16145476D02*
X10854657Y-16135952D01*
X10854657Y-16135952D02*
X10845133Y-16126428D01*
X10845133Y-16126428D02*
X10835610Y-16107381D01*
X10835610Y-16107381D02*
X10826086Y-16069286D01*
X10826086Y-16069286D02*
X10826086Y-16021667D01*
X10826086Y-16021667D02*
X10835610Y-15983571D01*
X10835610Y-15983571D02*
X10845133Y-15964524D01*
X10845133Y-15964524D02*
X10854657Y-15955000D01*
X10854657Y-15955000D02*
X10873705Y-15945476D01*
X11064181Y-15945476D02*
X11083229Y-15945476D01*
X11083229Y-15945476D02*
X11102276Y-15955000D01*
X11102276Y-15955000D02*
X11111800Y-15964524D01*
X11111800Y-15964524D02*
X11121324Y-15983571D01*
X11121324Y-15983571D02*
X11130848Y-16021667D01*
X11130848Y-16021667D02*
X11130848Y-16069286D01*
X11130848Y-16069286D02*
X11121324Y-16107381D01*
X11121324Y-16107381D02*
X11111800Y-16126428D01*
X11111800Y-16126428D02*
X11102276Y-16135952D01*
X11102276Y-16135952D02*
X11083229Y-16145476D01*
X11083229Y-16145476D02*
X11064181Y-16145476D01*
X11064181Y-16145476D02*
X11045133Y-16135952D01*
X11045133Y-16135952D02*
X11035610Y-16126428D01*
X11035610Y-16126428D02*
X11026086Y-16107381D01*
X11026086Y-16107381D02*
X11016562Y-16069286D01*
X11016562Y-16069286D02*
X11016562Y-16021667D01*
X11016562Y-16021667D02*
X11026086Y-15983571D01*
X11026086Y-15983571D02*
X11035610Y-15964524D01*
X11035610Y-15964524D02*
X11045133Y-15955000D01*
X11045133Y-15955000D02*
X11064181Y-15945476D01*
X11216562Y-16145476D02*
X11216562Y-16012143D01*
X11216562Y-16031190D02*
X11226086Y-16021667D01*
X11226086Y-16021667D02*
X11245133Y-16012143D01*
X11245133Y-16012143D02*
X11273705Y-16012143D01*
X11273705Y-16012143D02*
X11292752Y-16021667D01*
X11292752Y-16021667D02*
X11302276Y-16040714D01*
X11302276Y-16040714D02*
X11302276Y-16145476D01*
X11302276Y-16040714D02*
X11311800Y-16021667D01*
X11311800Y-16021667D02*
X11330848Y-16012143D01*
X11330848Y-16012143D02*
X11359419Y-16012143D01*
X11359419Y-16012143D02*
X11378467Y-16021667D01*
X11378467Y-16021667D02*
X11387990Y-16040714D01*
X11387990Y-16040714D02*
X11387990Y-16145476D01*
X11483229Y-16145476D02*
X11483229Y-16012143D01*
X11483229Y-16031190D02*
X11492752Y-16021667D01*
X11492752Y-16021667D02*
X11511800Y-16012143D01*
X11511800Y-16012143D02*
X11540371Y-16012143D01*
X11540371Y-16012143D02*
X11559419Y-16021667D01*
X11559419Y-16021667D02*
X11568943Y-16040714D01*
X11568943Y-16040714D02*
X11568943Y-16145476D01*
X11568943Y-16040714D02*
X11578467Y-16021667D01*
X11578467Y-16021667D02*
X11597514Y-16012143D01*
X11597514Y-16012143D02*
X11626086Y-16012143D01*
X11626086Y-16012143D02*
X11645133Y-16021667D01*
X11645133Y-16021667D02*
X11654657Y-16040714D01*
X11654657Y-16040714D02*
X11654657Y-16145476D01*
X12012752Y-15935952D02*
X11841324Y-16193095D01*
X12237514Y-15945476D02*
X12256562Y-15945476D01*
X12256562Y-15945476D02*
X12275610Y-15955000D01*
X12275610Y-15955000D02*
X12285133Y-15964524D01*
X12285133Y-15964524D02*
X12294657Y-15983571D01*
X12294657Y-15983571D02*
X12304181Y-16021667D01*
X12304181Y-16021667D02*
X12304181Y-16069286D01*
X12304181Y-16069286D02*
X12294657Y-16107381D01*
X12294657Y-16107381D02*
X12285133Y-16126428D01*
X12285133Y-16126428D02*
X12275610Y-16135952D01*
X12275610Y-16135952D02*
X12256562Y-16145476D01*
X12256562Y-16145476D02*
X12237514Y-16145476D01*
X12237514Y-16145476D02*
X12218467Y-16135952D01*
X12218467Y-16135952D02*
X12208943Y-16126428D01*
X12208943Y-16126428D02*
X12199419Y-16107381D01*
X12199419Y-16107381D02*
X12189895Y-16069286D01*
X12189895Y-16069286D02*
X12189895Y-16021667D01*
X12189895Y-16021667D02*
X12199419Y-15983571D01*
X12199419Y-15983571D02*
X12208943Y-15964524D01*
X12208943Y-15964524D02*
X12218467Y-15955000D01*
X12218467Y-15955000D02*
X12237514Y-15945476D01*
X12389895Y-16126428D02*
X12399419Y-16135952D01*
X12399419Y-16135952D02*
X12389895Y-16145476D01*
X12389895Y-16145476D02*
X12380371Y-16135952D01*
X12380371Y-16135952D02*
X12389895Y-16126428D01*
X12389895Y-16126428D02*
X12389895Y-16145476D01*
X12523229Y-15945476D02*
X12542276Y-15945476D01*
X12542276Y-15945476D02*
X12561324Y-15955000D01*
X12561324Y-15955000D02*
X12570848Y-15964524D01*
X12570848Y-15964524D02*
X12580371Y-15983571D01*
X12580371Y-15983571D02*
X12589895Y-16021667D01*
X12589895Y-16021667D02*
X12589895Y-16069286D01*
X12589895Y-16069286D02*
X12580371Y-16107381D01*
X12580371Y-16107381D02*
X12570848Y-16126428D01*
X12570848Y-16126428D02*
X12561324Y-16135952D01*
X12561324Y-16135952D02*
X12542276Y-16145476D01*
X12542276Y-16145476D02*
X12523229Y-16145476D01*
X12523229Y-16145476D02*
X12504181Y-16135952D01*
X12504181Y-16135952D02*
X12494657Y-16126428D01*
X12494657Y-16126428D02*
X12485133Y-16107381D01*
X12485133Y-16107381D02*
X12475610Y-16069286D01*
X12475610Y-16069286D02*
X12475610Y-16021667D01*
X12475610Y-16021667D02*
X12485133Y-15983571D01*
X12485133Y-15983571D02*
X12494657Y-15964524D01*
X12494657Y-15964524D02*
X12504181Y-15955000D01*
X12504181Y-15955000D02*
X12523229Y-15945476D01*
X12685133Y-16145476D02*
X12723229Y-16145476D01*
X12723229Y-16145476D02*
X12742276Y-16135952D01*
X12742276Y-16135952D02*
X12751800Y-16126428D01*
X12751800Y-16126428D02*
X12770848Y-16097857D01*
X12770848Y-16097857D02*
X12780371Y-16059762D01*
X12780371Y-16059762D02*
X12780371Y-15983571D01*
X12780371Y-15983571D02*
X12770848Y-15964524D01*
X12770848Y-15964524D02*
X12761324Y-15955000D01*
X12761324Y-15955000D02*
X12742276Y-15945476D01*
X12742276Y-15945476D02*
X12704181Y-15945476D01*
X12704181Y-15945476D02*
X12685133Y-15955000D01*
X12685133Y-15955000D02*
X12675610Y-15964524D01*
X12675610Y-15964524D02*
X12666086Y-15983571D01*
X12666086Y-15983571D02*
X12666086Y-16031190D01*
X12666086Y-16031190D02*
X12675610Y-16050238D01*
X12675610Y-16050238D02*
X12685133Y-16059762D01*
X12685133Y-16059762D02*
X12704181Y-16069286D01*
X12704181Y-16069286D02*
X12742276Y-16069286D01*
X12742276Y-16069286D02*
X12761324Y-16059762D01*
X12761324Y-16059762D02*
X12770848Y-16050238D01*
X12770848Y-16050238D02*
X12780371Y-16031190D01*
X12951800Y-16012143D02*
X12951800Y-16145476D01*
X12904181Y-15935952D02*
X12856562Y-16078809D01*
X12856562Y-16078809D02*
X12980371Y-16078809D01*
X13151800Y-15945476D02*
X13056562Y-15945476D01*
X13056562Y-15945476D02*
X13047038Y-16040714D01*
X13047038Y-16040714D02*
X13056562Y-16031190D01*
X13056562Y-16031190D02*
X13075610Y-16021667D01*
X13075610Y-16021667D02*
X13123229Y-16021667D01*
X13123229Y-16021667D02*
X13142276Y-16031190D01*
X13142276Y-16031190D02*
X13151800Y-16040714D01*
X13151800Y-16040714D02*
X13161324Y-16059762D01*
X13161324Y-16059762D02*
X13161324Y-16107381D01*
X13161324Y-16107381D02*
X13151800Y-16126428D01*
X13151800Y-16126428D02*
X13142276Y-16135952D01*
X13142276Y-16135952D02*
X13123229Y-16145476D01*
X13123229Y-16145476D02*
X13075610Y-16145476D01*
X13075610Y-16145476D02*
X13056562Y-16135952D01*
X13056562Y-16135952D02*
X13047038Y-16126428D01*
X13237514Y-15945476D02*
X13237514Y-15983571D01*
X13313705Y-15945476D02*
X13313705Y-15983571D01*
X13576562Y-16221667D02*
X13567038Y-16212143D01*
X13567038Y-16212143D02*
X13547991Y-16183571D01*
X13547991Y-16183571D02*
X13538467Y-16164524D01*
X13538467Y-16164524D02*
X13528943Y-16135952D01*
X13528943Y-16135952D02*
X13519419Y-16088333D01*
X13519419Y-16088333D02*
X13519419Y-16050238D01*
X13519419Y-16050238D02*
X13528943Y-16002619D01*
X13528943Y-16002619D02*
X13538467Y-15974048D01*
X13538467Y-15974048D02*
X13547991Y-15955000D01*
X13547991Y-15955000D02*
X13567038Y-15926428D01*
X13567038Y-15926428D02*
X13576562Y-15916905D01*
X13757514Y-16145476D02*
X13643229Y-16145476D01*
X13700371Y-16145476D02*
X13700371Y-15945476D01*
X13700371Y-15945476D02*
X13681324Y-15974048D01*
X13681324Y-15974048D02*
X13662276Y-15993095D01*
X13662276Y-15993095D02*
X13643229Y-16002619D01*
X13963229Y-16145476D02*
X13963229Y-15945476D01*
X14048943Y-16145476D02*
X14048943Y-16040714D01*
X14048943Y-16040714D02*
X14039419Y-16021667D01*
X14039419Y-16021667D02*
X14020372Y-16012143D01*
X14020372Y-16012143D02*
X13991800Y-16012143D01*
X13991800Y-16012143D02*
X13972752Y-16021667D01*
X13972752Y-16021667D02*
X13963229Y-16031190D01*
X14172752Y-16145476D02*
X14153705Y-16135952D01*
X14153705Y-16135952D02*
X14144181Y-16126428D01*
X14144181Y-16126428D02*
X14134657Y-16107381D01*
X14134657Y-16107381D02*
X14134657Y-16050238D01*
X14134657Y-16050238D02*
X14144181Y-16031190D01*
X14144181Y-16031190D02*
X14153705Y-16021667D01*
X14153705Y-16021667D02*
X14172752Y-16012143D01*
X14172752Y-16012143D02*
X14201324Y-16012143D01*
X14201324Y-16012143D02*
X14220372Y-16021667D01*
X14220372Y-16021667D02*
X14229895Y-16031190D01*
X14229895Y-16031190D02*
X14239419Y-16050238D01*
X14239419Y-16050238D02*
X14239419Y-16107381D01*
X14239419Y-16107381D02*
X14229895Y-16126428D01*
X14229895Y-16126428D02*
X14220372Y-16135952D01*
X14220372Y-16135952D02*
X14201324Y-16145476D01*
X14201324Y-16145476D02*
X14172752Y-16145476D01*
X14353705Y-16145476D02*
X14334657Y-16135952D01*
X14334657Y-16135952D02*
X14325133Y-16116905D01*
X14325133Y-16116905D02*
X14325133Y-15945476D01*
X14506086Y-16135952D02*
X14487038Y-16145476D01*
X14487038Y-16145476D02*
X14448943Y-16145476D01*
X14448943Y-16145476D02*
X14429895Y-16135952D01*
X14429895Y-16135952D02*
X14420372Y-16116905D01*
X14420372Y-16116905D02*
X14420372Y-16040714D01*
X14420372Y-16040714D02*
X14429895Y-16021667D01*
X14429895Y-16021667D02*
X14448943Y-16012143D01*
X14448943Y-16012143D02*
X14487038Y-16012143D01*
X14487038Y-16012143D02*
X14506086Y-16021667D01*
X14506086Y-16021667D02*
X14515610Y-16040714D01*
X14515610Y-16040714D02*
X14515610Y-16059762D01*
X14515610Y-16059762D02*
X14420372Y-16078809D01*
X14582276Y-16221667D02*
X14591800Y-16212143D01*
X14591800Y-16212143D02*
X14610848Y-16183571D01*
X14610848Y-16183571D02*
X14620372Y-16164524D01*
X14620372Y-16164524D02*
X14629895Y-16135952D01*
X14629895Y-16135952D02*
X14639419Y-16088333D01*
X14639419Y-16088333D02*
X14639419Y-16050238D01*
X14639419Y-16050238D02*
X14629895Y-16002619D01*
X14629895Y-16002619D02*
X14620372Y-15974048D01*
X14620372Y-15974048D02*
X14610848Y-15955000D01*
X14610848Y-15955000D02*
X14591800Y-15926428D01*
X14591800Y-15926428D02*
X14582276Y-15916905D01*
X9911800Y-16292000D02*
X10111800Y-16492000D01*
X10111800Y-16292000D02*
X9911800Y-16492000D01*
X10082511Y-16462711D02*
X10082511Y-16321289D01*
X9941089Y-16321289D01*
X9941089Y-16462711D01*
X10082511Y-16462711D01*
X10340371Y-16265476D02*
X10464181Y-16265476D01*
X10464181Y-16265476D02*
X10397514Y-16341667D01*
X10397514Y-16341667D02*
X10426086Y-16341667D01*
X10426086Y-16341667D02*
X10445133Y-16351190D01*
X10445133Y-16351190D02*
X10454657Y-16360714D01*
X10454657Y-16360714D02*
X10464181Y-16379762D01*
X10464181Y-16379762D02*
X10464181Y-16427381D01*
X10464181Y-16427381D02*
X10454657Y-16446428D01*
X10454657Y-16446428D02*
X10445133Y-16455952D01*
X10445133Y-16455952D02*
X10426086Y-16465476D01*
X10426086Y-16465476D02*
X10368943Y-16465476D01*
X10368943Y-16465476D02*
X10349895Y-16455952D01*
X10349895Y-16455952D02*
X10340371Y-16446428D01*
X10549895Y-16446428D02*
X10559419Y-16455952D01*
X10559419Y-16455952D02*
X10549895Y-16465476D01*
X10549895Y-16465476D02*
X10540371Y-16455952D01*
X10540371Y-16455952D02*
X10549895Y-16446428D01*
X10549895Y-16446428D02*
X10549895Y-16465476D01*
X10626086Y-16265476D02*
X10759419Y-16265476D01*
X10759419Y-16265476D02*
X10673705Y-16465476D01*
X10873705Y-16265476D02*
X10892752Y-16265476D01*
X10892752Y-16265476D02*
X10911800Y-16275000D01*
X10911800Y-16275000D02*
X10921324Y-16284524D01*
X10921324Y-16284524D02*
X10930848Y-16303571D01*
X10930848Y-16303571D02*
X10940371Y-16341667D01*
X10940371Y-16341667D02*
X10940371Y-16389286D01*
X10940371Y-16389286D02*
X10930848Y-16427381D01*
X10930848Y-16427381D02*
X10921324Y-16446428D01*
X10921324Y-16446428D02*
X10911800Y-16455952D01*
X10911800Y-16455952D02*
X10892752Y-16465476D01*
X10892752Y-16465476D02*
X10873705Y-16465476D01*
X10873705Y-16465476D02*
X10854657Y-16455952D01*
X10854657Y-16455952D02*
X10845133Y-16446428D01*
X10845133Y-16446428D02*
X10835610Y-16427381D01*
X10835610Y-16427381D02*
X10826086Y-16389286D01*
X10826086Y-16389286D02*
X10826086Y-16341667D01*
X10826086Y-16341667D02*
X10835610Y-16303571D01*
X10835610Y-16303571D02*
X10845133Y-16284524D01*
X10845133Y-16284524D02*
X10854657Y-16275000D01*
X10854657Y-16275000D02*
X10873705Y-16265476D01*
X11064181Y-16265476D02*
X11083229Y-16265476D01*
X11083229Y-16265476D02*
X11102276Y-16275000D01*
X11102276Y-16275000D02*
X11111800Y-16284524D01*
X11111800Y-16284524D02*
X11121324Y-16303571D01*
X11121324Y-16303571D02*
X11130848Y-16341667D01*
X11130848Y-16341667D02*
X11130848Y-16389286D01*
X11130848Y-16389286D02*
X11121324Y-16427381D01*
X11121324Y-16427381D02*
X11111800Y-16446428D01*
X11111800Y-16446428D02*
X11102276Y-16455952D01*
X11102276Y-16455952D02*
X11083229Y-16465476D01*
X11083229Y-16465476D02*
X11064181Y-16465476D01*
X11064181Y-16465476D02*
X11045133Y-16455952D01*
X11045133Y-16455952D02*
X11035610Y-16446428D01*
X11035610Y-16446428D02*
X11026086Y-16427381D01*
X11026086Y-16427381D02*
X11016562Y-16389286D01*
X11016562Y-16389286D02*
X11016562Y-16341667D01*
X11016562Y-16341667D02*
X11026086Y-16303571D01*
X11026086Y-16303571D02*
X11035610Y-16284524D01*
X11035610Y-16284524D02*
X11045133Y-16275000D01*
X11045133Y-16275000D02*
X11064181Y-16265476D01*
X11216562Y-16465476D02*
X11216562Y-16332143D01*
X11216562Y-16351190D02*
X11226086Y-16341667D01*
X11226086Y-16341667D02*
X11245133Y-16332143D01*
X11245133Y-16332143D02*
X11273705Y-16332143D01*
X11273705Y-16332143D02*
X11292752Y-16341667D01*
X11292752Y-16341667D02*
X11302276Y-16360714D01*
X11302276Y-16360714D02*
X11302276Y-16465476D01*
X11302276Y-16360714D02*
X11311800Y-16341667D01*
X11311800Y-16341667D02*
X11330848Y-16332143D01*
X11330848Y-16332143D02*
X11359419Y-16332143D01*
X11359419Y-16332143D02*
X11378467Y-16341667D01*
X11378467Y-16341667D02*
X11387990Y-16360714D01*
X11387990Y-16360714D02*
X11387990Y-16465476D01*
X11483229Y-16465476D02*
X11483229Y-16332143D01*
X11483229Y-16351190D02*
X11492752Y-16341667D01*
X11492752Y-16341667D02*
X11511800Y-16332143D01*
X11511800Y-16332143D02*
X11540371Y-16332143D01*
X11540371Y-16332143D02*
X11559419Y-16341667D01*
X11559419Y-16341667D02*
X11568943Y-16360714D01*
X11568943Y-16360714D02*
X11568943Y-16465476D01*
X11568943Y-16360714D02*
X11578467Y-16341667D01*
X11578467Y-16341667D02*
X11597514Y-16332143D01*
X11597514Y-16332143D02*
X11626086Y-16332143D01*
X11626086Y-16332143D02*
X11645133Y-16341667D01*
X11645133Y-16341667D02*
X11654657Y-16360714D01*
X11654657Y-16360714D02*
X11654657Y-16465476D01*
X12012752Y-16255952D02*
X11841324Y-16513095D01*
X12237514Y-16265476D02*
X12256562Y-16265476D01*
X12256562Y-16265476D02*
X12275610Y-16275000D01*
X12275610Y-16275000D02*
X12285133Y-16284524D01*
X12285133Y-16284524D02*
X12294657Y-16303571D01*
X12294657Y-16303571D02*
X12304181Y-16341667D01*
X12304181Y-16341667D02*
X12304181Y-16389286D01*
X12304181Y-16389286D02*
X12294657Y-16427381D01*
X12294657Y-16427381D02*
X12285133Y-16446428D01*
X12285133Y-16446428D02*
X12275610Y-16455952D01*
X12275610Y-16455952D02*
X12256562Y-16465476D01*
X12256562Y-16465476D02*
X12237514Y-16465476D01*
X12237514Y-16465476D02*
X12218467Y-16455952D01*
X12218467Y-16455952D02*
X12208943Y-16446428D01*
X12208943Y-16446428D02*
X12199419Y-16427381D01*
X12199419Y-16427381D02*
X12189895Y-16389286D01*
X12189895Y-16389286D02*
X12189895Y-16341667D01*
X12189895Y-16341667D02*
X12199419Y-16303571D01*
X12199419Y-16303571D02*
X12208943Y-16284524D01*
X12208943Y-16284524D02*
X12218467Y-16275000D01*
X12218467Y-16275000D02*
X12237514Y-16265476D01*
X12389895Y-16446428D02*
X12399419Y-16455952D01*
X12399419Y-16455952D02*
X12389895Y-16465476D01*
X12389895Y-16465476D02*
X12380371Y-16455952D01*
X12380371Y-16455952D02*
X12389895Y-16446428D01*
X12389895Y-16446428D02*
X12389895Y-16465476D01*
X12589895Y-16465476D02*
X12475610Y-16465476D01*
X12532752Y-16465476D02*
X12532752Y-16265476D01*
X12532752Y-16265476D02*
X12513705Y-16294048D01*
X12513705Y-16294048D02*
X12494657Y-16313095D01*
X12494657Y-16313095D02*
X12475610Y-16322619D01*
X12761324Y-16332143D02*
X12761324Y-16465476D01*
X12713705Y-16255952D02*
X12666086Y-16398809D01*
X12666086Y-16398809D02*
X12789895Y-16398809D01*
X12961324Y-16265476D02*
X12866086Y-16265476D01*
X12866086Y-16265476D02*
X12856562Y-16360714D01*
X12856562Y-16360714D02*
X12866086Y-16351190D01*
X12866086Y-16351190D02*
X12885133Y-16341667D01*
X12885133Y-16341667D02*
X12932752Y-16341667D01*
X12932752Y-16341667D02*
X12951800Y-16351190D01*
X12951800Y-16351190D02*
X12961324Y-16360714D01*
X12961324Y-16360714D02*
X12970848Y-16379762D01*
X12970848Y-16379762D02*
X12970848Y-16427381D01*
X12970848Y-16427381D02*
X12961324Y-16446428D01*
X12961324Y-16446428D02*
X12951800Y-16455952D01*
X12951800Y-16455952D02*
X12932752Y-16465476D01*
X12932752Y-16465476D02*
X12885133Y-16465476D01*
X12885133Y-16465476D02*
X12866086Y-16455952D01*
X12866086Y-16455952D02*
X12856562Y-16446428D01*
X13037514Y-16265476D02*
X13170848Y-16265476D01*
X13170848Y-16265476D02*
X13085133Y-16465476D01*
X13237514Y-16265476D02*
X13237514Y-16303571D01*
X13313705Y-16265476D02*
X13313705Y-16303571D01*
X13576562Y-16541667D02*
X13567038Y-16532143D01*
X13567038Y-16532143D02*
X13547991Y-16503571D01*
X13547991Y-16503571D02*
X13538467Y-16484524D01*
X13538467Y-16484524D02*
X13528943Y-16455952D01*
X13528943Y-16455952D02*
X13519419Y-16408333D01*
X13519419Y-16408333D02*
X13519419Y-16370238D01*
X13519419Y-16370238D02*
X13528943Y-16322619D01*
X13528943Y-16322619D02*
X13538467Y-16294048D01*
X13538467Y-16294048D02*
X13547991Y-16275000D01*
X13547991Y-16275000D02*
X13567038Y-16246428D01*
X13567038Y-16246428D02*
X13576562Y-16236905D01*
X13643229Y-16284524D02*
X13652752Y-16275000D01*
X13652752Y-16275000D02*
X13671800Y-16265476D01*
X13671800Y-16265476D02*
X13719419Y-16265476D01*
X13719419Y-16265476D02*
X13738467Y-16275000D01*
X13738467Y-16275000D02*
X13747991Y-16284524D01*
X13747991Y-16284524D02*
X13757514Y-16303571D01*
X13757514Y-16303571D02*
X13757514Y-16322619D01*
X13757514Y-16322619D02*
X13747991Y-16351190D01*
X13747991Y-16351190D02*
X13633705Y-16465476D01*
X13633705Y-16465476D02*
X13757514Y-16465476D01*
X13963229Y-16465476D02*
X13963229Y-16265476D01*
X14048943Y-16465476D02*
X14048943Y-16360714D01*
X14048943Y-16360714D02*
X14039419Y-16341667D01*
X14039419Y-16341667D02*
X14020372Y-16332143D01*
X14020372Y-16332143D02*
X13991800Y-16332143D01*
X13991800Y-16332143D02*
X13972752Y-16341667D01*
X13972752Y-16341667D02*
X13963229Y-16351190D01*
X14172752Y-16465476D02*
X14153705Y-16455952D01*
X14153705Y-16455952D02*
X14144181Y-16446428D01*
X14144181Y-16446428D02*
X14134657Y-16427381D01*
X14134657Y-16427381D02*
X14134657Y-16370238D01*
X14134657Y-16370238D02*
X14144181Y-16351190D01*
X14144181Y-16351190D02*
X14153705Y-16341667D01*
X14153705Y-16341667D02*
X14172752Y-16332143D01*
X14172752Y-16332143D02*
X14201324Y-16332143D01*
X14201324Y-16332143D02*
X14220372Y-16341667D01*
X14220372Y-16341667D02*
X14229895Y-16351190D01*
X14229895Y-16351190D02*
X14239419Y-16370238D01*
X14239419Y-16370238D02*
X14239419Y-16427381D01*
X14239419Y-16427381D02*
X14229895Y-16446428D01*
X14229895Y-16446428D02*
X14220372Y-16455952D01*
X14220372Y-16455952D02*
X14201324Y-16465476D01*
X14201324Y-16465476D02*
X14172752Y-16465476D01*
X14353705Y-16465476D02*
X14334657Y-16455952D01*
X14334657Y-16455952D02*
X14325133Y-16436905D01*
X14325133Y-16436905D02*
X14325133Y-16265476D01*
X14506086Y-16455952D02*
X14487038Y-16465476D01*
X14487038Y-16465476D02*
X14448943Y-16465476D01*
X14448943Y-16465476D02*
X14429895Y-16455952D01*
X14429895Y-16455952D02*
X14420372Y-16436905D01*
X14420372Y-16436905D02*
X14420372Y-16360714D01*
X14420372Y-16360714D02*
X14429895Y-16341667D01*
X14429895Y-16341667D02*
X14448943Y-16332143D01*
X14448943Y-16332143D02*
X14487038Y-16332143D01*
X14487038Y-16332143D02*
X14506086Y-16341667D01*
X14506086Y-16341667D02*
X14515610Y-16360714D01*
X14515610Y-16360714D02*
X14515610Y-16379762D01*
X14515610Y-16379762D02*
X14420372Y-16398809D01*
X14591800Y-16455952D02*
X14610848Y-16465476D01*
X14610848Y-16465476D02*
X14648943Y-16465476D01*
X14648943Y-16465476D02*
X14667991Y-16455952D01*
X14667991Y-16455952D02*
X14677514Y-16436905D01*
X14677514Y-16436905D02*
X14677514Y-16427381D01*
X14677514Y-16427381D02*
X14667991Y-16408333D01*
X14667991Y-16408333D02*
X14648943Y-16398809D01*
X14648943Y-16398809D02*
X14620372Y-16398809D01*
X14620372Y-16398809D02*
X14601324Y-16389286D01*
X14601324Y-16389286D02*
X14591800Y-16370238D01*
X14591800Y-16370238D02*
X14591800Y-16360714D01*
X14591800Y-16360714D02*
X14601324Y-16341667D01*
X14601324Y-16341667D02*
X14620372Y-16332143D01*
X14620372Y-16332143D02*
X14648943Y-16332143D01*
X14648943Y-16332143D02*
X14667991Y-16341667D01*
X14744181Y-16541667D02*
X14753705Y-16532143D01*
X14753705Y-16532143D02*
X14772753Y-16503571D01*
X14772753Y-16503571D02*
X14782276Y-16484524D01*
X14782276Y-16484524D02*
X14791800Y-16455952D01*
X14791800Y-16455952D02*
X14801324Y-16408333D01*
X14801324Y-16408333D02*
X14801324Y-16370238D01*
X14801324Y-16370238D02*
X14791800Y-16322619D01*
X14791800Y-16322619D02*
X14782276Y-16294048D01*
X14782276Y-16294048D02*
X14772753Y-16275000D01*
X14772753Y-16275000D02*
X14753705Y-16246428D01*
X14753705Y-16246428D02*
X14744181Y-16236905D01*
M02*
