%TF.GenerationSoftware,KiCad,Pcbnew,(7.0.0)*%
%TF.CreationDate,2023-03-21T02:39:43+02:00*%
%TF.ProjectId,Main Schematic,4d61696e-2053-4636-9865-6d617469632e,rev?*%
%TF.SameCoordinates,Original*%
%TF.FileFunction,Copper,L2,Bot*%
%TF.FilePolarity,Positive*%
%FSLAX46Y46*%
G04 Gerber Fmt 4.6, Leading zero omitted, Abs format (unit mm)*
G04 Created by KiCad (PCBNEW (7.0.0)) date 2023-03-21 02:39:43*
%MOMM*%
%LPD*%
G01*
G04 APERTURE LIST*
%TA.AperFunction,ComponentPad*%
%ADD10O,2.200000X1.300000*%
%TD*%
%TA.AperFunction,ComponentPad*%
%ADD11C,1.300000*%
%TD*%
%TA.AperFunction,ComponentPad*%
%ADD12C,4.000000*%
%TD*%
%TA.AperFunction,ComponentPad*%
%ADD13C,2.700000*%
%TD*%
%TA.AperFunction,ComponentPad*%
%ADD14R,1.700000X1.700000*%
%TD*%
%TA.AperFunction,ComponentPad*%
%ADD15O,1.700000X1.700000*%
%TD*%
%TA.AperFunction,ComponentPad*%
%ADD16R,1.800000X1.800000*%
%TD*%
%TA.AperFunction,ComponentPad*%
%ADD17C,1.800000*%
%TD*%
%TA.AperFunction,ComponentPad*%
%ADD18C,2.000000*%
%TD*%
%TA.AperFunction,ComponentPad*%
%ADD19C,1.500000*%
%TD*%
%TA.AperFunction,ViaPad*%
%ADD20C,0.800000*%
%TD*%
%TA.AperFunction,Conductor*%
%ADD21C,0.500000*%
%TD*%
%TA.AperFunction,Conductor*%
%ADD22C,0.250000*%
%TD*%
G04 APERTURE END LIST*
D10*
%TO.P,J6,7*%
%TO.N,N/C*%
X108671500Y-82199948D03*
%TO.P,J6,8*%
X108671500Y-75000050D03*
D11*
%TO.P,J6,9*%
X111341554Y-76175057D03*
%TO.P,J6,6,Shield*%
%TO.N,GND*%
X111341554Y-81024943D03*
%TD*%
D12*
%TO.P,BT1,*%
%TO.N,*%
X124312886Y-58109187D03*
X179512886Y-42109187D03*
D13*
X187732886Y-58109187D03*
%TD*%
D14*
%TO.P,J7,1,Pin_1*%
%TO.N,/USB D+*%
X104912885Y-96369186D03*
D15*
%TO.P,J7,2,Pin_2*%
%TO.N,/USB D-*%
X104912885Y-98909186D03*
%TD*%
D14*
%TO.P,J10,1,Pin_1*%
%TO.N,GND*%
X195712885Y-81609186D03*
D15*
%TO.P,J10,2,Pin_2*%
%TO.N,/RXD*%
X195712885Y-84149186D03*
%TO.P,J10,3,Pin_3*%
%TO.N,/TXD*%
X195712885Y-86689186D03*
%TO.P,J10,4,Pin_4*%
%TO.N,/WRITE*%
X195712885Y-89229186D03*
%TO.P,J10,5,Pin_5*%
%TO.N,/SCL*%
X195712885Y-91769186D03*
%TO.P,J10,6,Pin_6*%
%TO.N,/SDL*%
X195712885Y-94309186D03*
%TO.P,J10,7,Pin_7*%
%TO.N,/ADC*%
X195712885Y-96849186D03*
%TO.P,J10,8,Pin_8*%
%TO.N,/5V*%
X195712885Y-99389186D03*
%TD*%
D14*
%TO.P,J3,1,Pin_1*%
%TO.N,/3.3V*%
X116052885Y-113599186D03*
D15*
%TO.P,J3,2,Pin_2*%
%TO.N,GND*%
X118592885Y-113599186D03*
%TO.P,J3,3,Pin_3*%
%TO.N,/PB9*%
X121132885Y-113599186D03*
%TO.P,J3,4,Pin_4*%
%TO.N,/PB8*%
X123672885Y-113599186D03*
%TO.P,J3,5,Pin_5*%
%TO.N,/BOOT*%
X126212885Y-113599186D03*
%TO.P,J3,6,Pin_6*%
%TO.N,/PB7*%
X128752885Y-113599186D03*
%TO.P,J3,7,Pin_7*%
%TO.N,/PB6*%
X131292885Y-113599186D03*
%TO.P,J3,8,Pin_8*%
%TO.N,/PB5*%
X133832885Y-113599186D03*
%TO.P,J3,9,Pin_9*%
%TO.N,/PB4*%
X136372885Y-113599186D03*
%TO.P,J3,10,Pin_10*%
%TO.N,/PB3*%
X138912885Y-113599186D03*
%TO.P,J3,11,Pin_11*%
%TO.N,/PA15*%
X141452885Y-113599186D03*
%TO.P,J3,12,Pin_12*%
%TO.N,/PA14*%
X143992885Y-113599186D03*
%TO.P,J3,13,Pin_13*%
%TO.N,/PF7*%
X146532885Y-113599186D03*
%TO.P,J3,14,Pin_14*%
%TO.N,/PF6*%
X149072885Y-113599186D03*
%TO.P,J3,15,Pin_15*%
%TO.N,/PA13*%
X151612885Y-113599186D03*
%TO.P,J3,16,Pin_16*%
%TO.N,/PA12*%
X154152885Y-113599186D03*
%TO.P,J3,17,Pin_17*%
%TO.N,/PA11*%
X156692885Y-113599186D03*
%TO.P,J3,18,Pin_18*%
%TO.N,/TXD*%
X159232885Y-113599186D03*
%TO.P,J3,19,Pin_19*%
%TO.N,/RXD*%
X161772885Y-113599186D03*
%TO.P,J3,20,Pin_20*%
%TO.N,/PA8*%
X164312885Y-113599186D03*
%TO.P,J3,21,Pin_21*%
%TO.N,/PB15*%
X166852885Y-113599186D03*
%TO.P,J3,22,Pin_22*%
%TO.N,/PB14*%
X169392885Y-113599186D03*
%TO.P,J3,23,Pin_23*%
%TO.N,/PB13*%
X171932885Y-113599186D03*
%TO.P,J3,24,Pin_24*%
%TO.N,/WRITE*%
X174472885Y-113599186D03*
%TD*%
D14*
%TO.P,J8,1,Pin_1*%
%TO.N,/3.3V*%
X116052885Y-108519186D03*
D15*
%TO.P,J8,2,Pin_2*%
%TO.N,GND*%
X118592885Y-108519186D03*
%TO.P,J8,3,Pin_3*%
%TO.N,/PB9*%
X121132885Y-108519186D03*
%TO.P,J8,4,Pin_4*%
%TO.N,/PB8*%
X123672885Y-108519186D03*
%TO.P,J8,5,Pin_5*%
%TO.N,/BOOT*%
X126212885Y-108519186D03*
%TO.P,J8,6,Pin_6*%
%TO.N,/PB7*%
X128752885Y-108519186D03*
%TO.P,J8,7,Pin_7*%
%TO.N,/PB6*%
X131292885Y-108519186D03*
%TO.P,J8,8,Pin_8*%
%TO.N,/PB5*%
X133832885Y-108519186D03*
%TO.P,J8,9,Pin_9*%
%TO.N,/PB4*%
X136372885Y-108519186D03*
%TO.P,J8,10,Pin_10*%
%TO.N,/PB3*%
X138912885Y-108519186D03*
%TO.P,J8,11,Pin_11*%
%TO.N,/PA15*%
X141452885Y-108519186D03*
%TO.P,J8,12,Pin_12*%
%TO.N,/PA14*%
X143992885Y-108519186D03*
%TO.P,J8,13,Pin_13*%
%TO.N,/PF7*%
X146532885Y-108519186D03*
%TO.P,J8,14,Pin_14*%
%TO.N,/PF6*%
X149072885Y-108519186D03*
%TO.P,J8,15,Pin_15*%
%TO.N,/PA13*%
X151612885Y-108519186D03*
%TO.P,J8,16,Pin_16*%
%TO.N,/PA12*%
X154152885Y-108519186D03*
%TO.P,J8,17,Pin_17*%
%TO.N,/PA11*%
X156692885Y-108519186D03*
%TO.P,J8,18,Pin_18*%
%TO.N,/TXD*%
X159232885Y-108519186D03*
%TO.P,J8,19,Pin_19*%
%TO.N,/RXD*%
X161772885Y-108519186D03*
%TO.P,J8,20,Pin_20*%
%TO.N,/PA8*%
X164312885Y-108519186D03*
%TO.P,J8,21,Pin_21*%
%TO.N,/PB15*%
X166852885Y-108519186D03*
%TO.P,J8,22,Pin_22*%
%TO.N,/PB14*%
X169392885Y-108519186D03*
%TO.P,J8,23,Pin_23*%
%TO.N,/PB13*%
X171932885Y-108519186D03*
%TO.P,J8,24,Pin_24*%
%TO.N,/WRITE*%
X174472885Y-108519186D03*
%TD*%
D16*
%TO.P,D1,1,K*%
%TO.N,Net-(D1-K)*%
X135572885Y-76909186D03*
D17*
%TO.P,D1,2,A*%
%TO.N,Net-(D1-A)*%
X138112886Y-76909187D03*
%TD*%
D14*
%TO.P,J1,1,Pin_1*%
%TO.N,/3.3V*%
X116052885Y-130109186D03*
D15*
%TO.P,J1,2,Pin_2*%
%TO.N,/PC13*%
X118592885Y-130109186D03*
%TO.P,J1,3,Pin_3*%
%TO.N,/PC14*%
X121132885Y-130109186D03*
%TO.P,J1,4,Pin_4*%
%TO.N,/PC15*%
X123672885Y-130109186D03*
%TO.P,J1,5,Pin_5*%
%TO.N,/PF0*%
X126212885Y-130109186D03*
%TO.P,J1,6,Pin_6*%
%TO.N,/PF1*%
X128752885Y-130109186D03*
%TO.P,J1,7,Pin_7*%
%TO.N,/NRST*%
X131292885Y-130109186D03*
%TO.P,J1,8,Pin_8*%
%TO.N,Net-(J1-Pin_8)*%
X133832885Y-130109186D03*
%TO.P,J1,9,Pin_9*%
%TO.N,/3.3V*%
X136372885Y-130109186D03*
%TO.P,J1,10,Pin_10*%
%TO.N,/PA0*%
X138912885Y-130109186D03*
%TO.P,J1,11,Pin_11*%
%TO.N,/PA1*%
X141452885Y-130109186D03*
%TO.P,J1,12,Pin_12*%
%TO.N,/PA2*%
X143992885Y-130109186D03*
%TO.P,J1,13,Pin_13*%
%TO.N,/PA3*%
X146532885Y-130109186D03*
%TO.P,J1,14,Pin_14*%
%TO.N,/ADC*%
X149072885Y-130109186D03*
%TO.P,J1,15,Pin_15*%
%TO.N,/PA5*%
X151612885Y-130109186D03*
%TO.P,J1,16,Pin_16*%
%TO.N,/PA6*%
X154152885Y-130109186D03*
%TO.P,J1,17,Pin_17*%
%TO.N,/PA7*%
X156692885Y-130109186D03*
%TO.P,J1,18,Pin_18*%
%TO.N,/PB0*%
X159232885Y-130109186D03*
%TO.P,J1,19,Pin_19*%
%TO.N,/PB1*%
X161772885Y-130109186D03*
%TO.P,J1,20,Pin_20*%
%TO.N,/OS*%
X164312885Y-130109186D03*
%TO.P,J1,21,Pin_21*%
%TO.N,/SCL*%
X166852885Y-130109186D03*
%TO.P,J1,22,Pin_22*%
%TO.N,/SDL*%
X169392885Y-130109186D03*
%TO.P,J1,23,Pin_23*%
%TO.N,GND*%
X171932885Y-130109186D03*
%TO.P,J1,24,Pin_24*%
%TO.N,/3.3V*%
X174472885Y-130109186D03*
%TD*%
D14*
%TO.P,J4,1,Pin_1*%
%TO.N,/Power Unit/V1*%
X186812885Y-68569186D03*
D15*
%TO.P,J4,2,Pin_2*%
%TO.N,Net-(J4-Pin_2)*%
X186812885Y-71109186D03*
%TD*%
D14*
%TO.P,J5,1,Pin_1*%
%TO.N,Net-(J4-Pin_2)*%
X179812885Y-68569186D03*
D15*
%TO.P,J5,2,Pin_2*%
%TO.N,/5V*%
X179812885Y-71109186D03*
%TD*%
D18*
%TO.P,SW1,1,1*%
%TO.N,GND*%
X110112886Y-118209187D03*
X110112886Y-124709187D03*
%TO.P,SW1,2,2*%
%TO.N,/NRST*%
X105612886Y-118209187D03*
X105612886Y-124709187D03*
%TD*%
D19*
%TO.P,R10,1*%
%TO.N,/ADC*%
X183912886Y-97109187D03*
%TO.P,R10,2*%
%TO.N,GND*%
X187312886Y-97109187D03*
%TD*%
D14*
%TO.P,J9,1,Pin_1*%
%TO.N,/NRST*%
X116052885Y-134759186D03*
D15*
%TO.P,J9,2,Pin_2*%
%TO.N,/PC13*%
X118592885Y-134759186D03*
%TO.P,J9,3,Pin_3*%
%TO.N,/PC14*%
X121132885Y-134759186D03*
%TO.P,J9,4,Pin_4*%
%TO.N,/PC15*%
X123672885Y-134759186D03*
%TO.P,J9,5,Pin_5*%
%TO.N,/PF0*%
X126212885Y-134759186D03*
%TO.P,J9,6,Pin_6*%
%TO.N,/PF1*%
X128752885Y-134759186D03*
%TO.P,J9,7,Pin_7*%
%TO.N,/NRST*%
X131292885Y-134759186D03*
%TO.P,J9,8,Pin_8*%
%TO.N,Net-(J1-Pin_8)*%
X133832885Y-134759186D03*
%TO.P,J9,9,Pin_9*%
%TO.N,/3.3V*%
X136372885Y-134759186D03*
%TO.P,J9,10,Pin_10*%
%TO.N,/PA0*%
X138912885Y-134759186D03*
%TO.P,J9,11,Pin_11*%
%TO.N,/PA1*%
X141452885Y-134759186D03*
%TO.P,J9,12,Pin_12*%
%TO.N,/PA2*%
X143992885Y-134759186D03*
%TO.P,J9,13,Pin_13*%
%TO.N,/PA3*%
X146532885Y-134759186D03*
%TO.P,J9,14,Pin_14*%
%TO.N,/ADC*%
X149072885Y-134759186D03*
%TO.P,J9,15,Pin_15*%
%TO.N,/PA5*%
X151612885Y-134759186D03*
%TO.P,J9,16,Pin_16*%
%TO.N,/PA6*%
X154152885Y-134759186D03*
%TO.P,J9,17,Pin_17*%
%TO.N,/PA7*%
X156692885Y-134759186D03*
%TO.P,J9,18,Pin_18*%
%TO.N,/PB0*%
X159232885Y-134759186D03*
%TO.P,J9,19,Pin_19*%
%TO.N,/PB1*%
X161772885Y-134759186D03*
%TO.P,J9,20,Pin_20*%
%TO.N,/OS*%
X164312885Y-134759186D03*
%TO.P,J9,21,Pin_21*%
%TO.N,/SCL*%
X166852885Y-134759186D03*
%TO.P,J9,22,Pin_22*%
%TO.N,/SDL*%
X169392885Y-134759186D03*
%TO.P,J9,23,Pin_23*%
%TO.N,GND*%
X171932885Y-134759186D03*
%TO.P,J9,24,Pin_24*%
%TO.N,/3.3V*%
X174472885Y-134759186D03*
%TD*%
D20*
%TO.N,/Power Unit/V1*%
X166462886Y-69359187D03*
X135912886Y-69159187D03*
X165602886Y-75469187D03*
X138932886Y-70389187D03*
%TO.N,GND*%
X178500000Y-93500000D03*
X161000000Y-101000000D03*
X184000000Y-87000000D03*
X165087386Y-101000000D03*
X169500000Y-73500000D03*
X157000000Y-72500000D03*
X172500000Y-126000000D03*
X196000000Y-108500000D03*
X180000000Y-84000000D03*
X183500000Y-79500000D03*
X181000000Y-118000000D03*
X170500000Y-90000000D03*
X133000000Y-72500000D03*
X170000000Y-70259687D03*
X144000000Y-60500000D03*
%TO.N,Net-(J4-Pin_2)*%
X182762886Y-77009187D03*
%TO.N,/3.3V*%
X124962886Y-86899187D03*
X116512886Y-94509187D03*
X183362886Y-110009187D03*
X178012886Y-97959187D03*
%TO.N,/Power Unit/OC*%
X156062886Y-73559187D03*
X154172886Y-69119187D03*
%TO.N,Net-(IC1-CS)*%
X150362886Y-70389187D03*
X152902886Y-66579187D03*
%TO.N,/Power Unit/OD*%
X155612886Y-77109187D03*
X164332886Y-70384687D03*
%TO.N,Net-(IC1-VCC)*%
X171952886Y-72929187D03*
X171952886Y-69119187D03*
%TO.N,/SDL*%
X189000000Y-124500000D03*
X193862886Y-125709187D03*
X161000000Y-92000000D03*
X191162886Y-119209187D03*
%TO.N,/SCL*%
X185500000Y-123500000D03*
X194262886Y-122859187D03*
%TO.N,/ADC*%
X178862886Y-111959187D03*
X190612886Y-106159187D03*
%TO.N,/TXD*%
X112262886Y-102139187D03*
X108452886Y-88169187D03*
X189262886Y-92109187D03*
%TO.N,/RXD*%
X114802886Y-100869187D03*
X113532886Y-95789187D03*
X177912886Y-95909187D03*
%TD*%
D21*
%TO.N,/Power Unit/V1*%
X166462886Y-69359187D02*
X166462886Y-74609187D01*
X136762886Y-70009187D02*
X137142886Y-70389187D01*
X166462886Y-74609187D02*
X165602886Y-75469187D01*
X137142886Y-70389187D02*
X138932886Y-70389187D01*
X135912886Y-69159187D02*
X136762886Y-70009187D01*
D22*
%TO.N,GND*%
X187312886Y-97109187D02*
X183703699Y-93500000D01*
X184000000Y-87000000D02*
X184000000Y-86500000D01*
X172500000Y-126000000D02*
X171932886Y-126567114D01*
X190109187Y-97109187D02*
X196000000Y-103000000D01*
X180000000Y-84000000D02*
X177000000Y-84000000D01*
X183703699Y-93500000D02*
X178500000Y-93500000D01*
X181500000Y-86000000D02*
X180500000Y-86000000D01*
X180500000Y-86000000D02*
X180000000Y-85500000D01*
X135500000Y-60500000D02*
X144000000Y-60500000D01*
X134500000Y-61500000D02*
X135500000Y-60500000D01*
X171932886Y-126567114D02*
X171932886Y-130109187D01*
X173500000Y-90000000D02*
X170500000Y-90000000D01*
X180000000Y-85500000D02*
X180000000Y-84000000D01*
X196000000Y-108500000D02*
X188500000Y-108500000D01*
X134500000Y-71000000D02*
X134500000Y-61500000D01*
X161000000Y-101000000D02*
X165087386Y-101000000D01*
X133000000Y-72500000D02*
X134500000Y-71000000D01*
X175000000Y-86000000D02*
X175000000Y-88500000D01*
X184000000Y-86500000D02*
X183500000Y-86000000D01*
X170000000Y-73000000D02*
X169500000Y-73500000D01*
X175000000Y-88500000D02*
X173500000Y-90000000D01*
X183500000Y-86000000D02*
X181500000Y-86000000D01*
X177000000Y-84000000D02*
X175000000Y-86000000D01*
X187312886Y-97109187D02*
X190109187Y-97109187D01*
X171932886Y-130109187D02*
X171932886Y-134759187D01*
X188500000Y-108500000D02*
X181000000Y-116000000D01*
X182500000Y-79500000D02*
X183500000Y-79500000D01*
X181000000Y-116000000D02*
X181000000Y-118000000D01*
X181500000Y-80500000D02*
X182500000Y-79500000D01*
X181500000Y-86000000D02*
X181500000Y-80500000D01*
X196000000Y-103000000D02*
X196000000Y-108500000D01*
X170000000Y-70259687D02*
X170000000Y-73000000D01*
%TO.N,Net-(J4-Pin_2)*%
X184762886Y-75009187D02*
X184762886Y-73159187D01*
X184762886Y-73159187D02*
X186812886Y-71109187D01*
X182762886Y-77009187D02*
X184762886Y-75009187D01*
%TO.N,/3.3V*%
X117500000Y-95496301D02*
X116512886Y-94509187D01*
X117500000Y-105500000D02*
X117500000Y-95496301D01*
X116512886Y-90359187D02*
X120012886Y-86859187D01*
X120012886Y-86859187D02*
X124922886Y-86859187D01*
X116512886Y-94509187D02*
X116512886Y-90359187D01*
X116052886Y-108519187D02*
X116052886Y-106947114D01*
X182837886Y-102784187D02*
X178012886Y-97959187D01*
X182837886Y-109484187D02*
X182837886Y-102784187D01*
X124922886Y-86859187D02*
X124962886Y-86899187D01*
X116052886Y-106947114D02*
X117500000Y-105500000D01*
X183362886Y-110009187D02*
X182837886Y-109484187D01*
%TO.N,/Power Unit/OC*%
X156062886Y-70509187D02*
X154672886Y-69119187D01*
X156062886Y-73559187D02*
X156062886Y-70509187D01*
X154672886Y-69119187D02*
X154172886Y-69119187D01*
%TO.N,Net-(IC1-CS)*%
X150362886Y-70389187D02*
X151632886Y-70389187D01*
X151632886Y-70389187D02*
X152902886Y-69119187D01*
X152902886Y-69119187D02*
X152902886Y-66579187D01*
%TO.N,/Power Unit/OD*%
X164332886Y-72929187D02*
X164332886Y-70384687D01*
X160152886Y-77109187D02*
X164332886Y-72929187D01*
X157112886Y-77109187D02*
X160152886Y-77109187D01*
X155612886Y-77109187D02*
X157112886Y-77109187D01*
%TO.N,Net-(IC1-VCC)*%
X171952886Y-72929187D02*
X171952886Y-69119187D01*
%TO.N,/SDL*%
X198562886Y-95609187D02*
X197262886Y-94309187D01*
X192787886Y-91384187D02*
X161615813Y-91384187D01*
X190209187Y-125709187D02*
X189000000Y-124500000D01*
X197262886Y-94309187D02*
X195712886Y-94309187D01*
X191512886Y-125709187D02*
X193862886Y-125709187D01*
X195662886Y-112109187D02*
X198562886Y-109209187D01*
X191512886Y-125709187D02*
X190209187Y-125709187D01*
X191162886Y-119209187D02*
X191162886Y-114559187D01*
X193000000Y-91596301D02*
X192787886Y-91384187D01*
X191162886Y-114559187D02*
X193612886Y-112109187D01*
X161615813Y-91384187D02*
X161000000Y-92000000D01*
X198562886Y-109209187D02*
X198562886Y-95609187D01*
X193612886Y-112109187D02*
X195662886Y-112109187D01*
X195712886Y-94309187D02*
X193000000Y-91596301D01*
%TO.N,/SCL*%
X194262886Y-122859187D02*
X193412886Y-122859187D01*
X199912886Y-93259187D02*
X198422886Y-91769187D01*
X191912886Y-122859187D02*
X189140813Y-122859187D01*
X193412886Y-122859187D02*
X191912886Y-122859187D01*
X188500000Y-123500000D02*
X185500000Y-123500000D01*
X199912886Y-110809187D02*
X199912886Y-93259187D01*
X193412886Y-117309187D02*
X199912886Y-110809187D01*
X198422886Y-91769187D02*
X195712886Y-91769187D01*
X189140813Y-122859187D02*
X188500000Y-123500000D01*
X193412886Y-122859187D02*
X193412886Y-117309187D01*
%TO.N,/NRST*%
X105612886Y-118209187D02*
X105612886Y-124709187D01*
%TO.N,/ADC*%
X187262886Y-106159187D02*
X183912886Y-102809187D01*
X173812886Y-117009187D02*
X173812886Y-123409187D01*
X178862886Y-111959187D02*
X173812886Y-117009187D01*
X151562886Y-125209187D02*
X149072886Y-127699187D01*
X172012886Y-125209187D02*
X151562886Y-125209187D01*
X190612886Y-106159187D02*
X187262886Y-106159187D01*
X183912886Y-102809187D02*
X183912886Y-97109187D01*
X149072886Y-127699187D02*
X149072886Y-130109187D01*
X173812886Y-123409187D02*
X172012886Y-125209187D01*
%TO.N,/TXD*%
X189262886Y-92109187D02*
X174390813Y-92109187D01*
X112262886Y-102139187D02*
X112262886Y-98329187D01*
X159500000Y-108252073D02*
X159232886Y-108519187D01*
X161500000Y-105500000D02*
X159500000Y-107500000D01*
X171000000Y-95500000D02*
X171000000Y-101000000D01*
X166500000Y-105500000D02*
X161500000Y-105500000D01*
X174390813Y-92109187D02*
X171000000Y-95500000D01*
X171000000Y-101000000D02*
X166500000Y-105500000D01*
X159500000Y-107500000D02*
X159500000Y-108252073D01*
X107182886Y-89439187D02*
X108452886Y-88169187D01*
X112262886Y-98329187D02*
X107182886Y-93249187D01*
X107182886Y-93249187D02*
X107182886Y-89439187D01*
%TO.N,/RXD*%
X114802886Y-100869187D02*
X113532886Y-99599187D01*
X167162886Y-106659187D02*
X163632886Y-106659187D01*
X113532886Y-99599187D02*
X113532886Y-95789187D01*
X163632886Y-106659187D02*
X161772886Y-108519187D01*
X177912886Y-95909187D02*
X167162886Y-106659187D01*
%TD*%
M02*
